<?xml version="1.0" encoding="UTF-8"?>
<svg id="Layer_1" data-name="Layer 1" xmlns="http://www.w3.org/2000/svg" xmlns:xlink="http://www.w3.org/1999/xlink" viewBox="0 0 364 400">
  <defs>
    <style>
      .cls-1 {
        fill: url(#linear-gradient);
      }

      .cls-1, .cls-2, .cls-3, .cls-4, .cls-5 {
        stroke-width: 0px;
      }

      .cls-2 {
        fill: #a5d3ae;
      }

      .cls-3 {
        fill: #1c6b92;
      }

      .cls-4 {
        fill: url(#linear-gradient-2);
      }

      .cls-5 {
        fill: #fff;
      }
    </style>
    <linearGradient id="linear-gradient" x1="221.8384257" y1="189.5496465" x2="127.9868926" y2="65.1591225" gradientUnits="userSpaceOnUse">
      <stop offset="0" stop-color="#30beec"/>
      <stop offset=".1632337" stop-color="#2db2df"/>
      <stop offset=".4645554" stop-color="#2592bd"/>
      <stop offset=".7877095" stop-color="#1c6b92"/>
    </linearGradient>
    <linearGradient id="linear-gradient-2" x1="225.5268497" y1="336.7766211" x2="154.342273" y2="213.4813175" gradientUnits="userSpaceOnUse">
      <stop offset="0" stop-color="#30beec"/>
      <stop offset=".7709497" stop-color="#1c6b92"/>
    </linearGradient>
  </defs>
  <g>
    <path class="cls-5" d="M182.2319336,393.9316406c-9.5786133,0-19.0336914-2.5166016-27.3427734-7.2773438l-121.0693359-69.3652344c-17.027832-9.7548828-27.6259766-28.0058594-27.6586914-47.6308594l-.2299805-138.7324219c-.0327148-19.6245117,10.5048828-37.9111328,27.5-47.7231445L154.2695312,13.4365234c8.3496094-4.8203125,17.8588867-7.3681641,27.5-7.3681641,9.5771484,0,19.03125,2.5161133,27.3417969,7.2773438l121.0693359,69.3647461c17.0273438,9.7553711,27.625,28.0063477,27.6582031,47.6313477l.2304688,138.7333984c.0322266,19.6240234-10.5048828,37.9101562-27.5,47.7216797l-120.8388672,69.7666016c-8.3486328,4.8203125-17.8564453,7.3681641-27.4956055,7.3681641h-.0029297Z"/>
    <path class="cls-3" d="M181.7695312,11.0681534c8.7064667,0,17.3015442,2.2877693,24.8560791,6.6160011l121.069397,69.3646889c15.4796143,8.8688507,25.1141357,25.4608459,25.1437683,43.3010864l.2302246,138.7328339c.0296021,17.8401489-9.5498352,34.4640808-24.9999084,43.3842468l-120.8385468,69.7661438c-7.5904694,4.3822937-16.235321,6.6987-25.0000763,6.6987-8.7064667,0-17.3015442-2.2877808-24.8560791-6.6159973l-121.0693893-69.3647156c-15.4796143-8.8688354-25.1141548-25.4608459-25.1437702-43.3010559l-.2302303-138.7328491c-.0296154-17.8401566,9.5498466-34.4640808,24.9999237-43.3842392L156.769455,17.7668457c7.5904694-4.3823071,16.235321-6.6986923,25.0000763-6.6986923M181.7695618,1.0681481c-10.3608704,0-20.7183838,2.6796708-30.0001068,8.0384669L30.9309235,78.8727722C12.3360767,89.6085358.8953838,109.4623871.9309998,130.9338531l.2302303,138.7328339c.0356159,21.4714661,11.5421543,41.2872314,30.1725407,51.9612427l121.0693817,69.3646851c9.2383728,5.2929993,19.5345001,7.9392395,29.8272858,7.9392395,10.3608704,0,20.7183838-2.6796875,30.0001068-8.0384827l120.8385468-69.7661438c18.5948181-10.7357788,30.0355225-30.5895996,29.9999084-52.0610657l-.2302246-138.7328491c-.035614-21.4714661-11.5421753-41.2872391-30.1725464-51.961235L211.5968475,9.0073843c-9.2383728-5.2929969-19.5345001-7.9392362-29.8272858-7.9392362h0Z"/>
  </g>
  <g>
    <g>
      <g>
        <g>
          <path class="cls-2" d="M153.1618718,141.0625589l38.5889102,22.2663689c1.0778437.6219317,1.4340334,2.0232203.7955447,3.1297581-.6384888,1.1065378-2.0299378,1.4994131-3.1077815.8774815l-38.5889102-22.2663689c-1.0778437-.6219317-1.4340334-2.0232203-.7955447-3.1297581.6384888-1.1065378,2.0299378-1.4994131,3.1077815-.8774815Z"/>
          <circle class="cls-2" cx="145.1473649" cy="139.26141" r="4.0560906"/>
        </g>
        <g>
          <path class="cls-2" d="M174.421463,101.8378559l39.7462794,22.9341884c1.1101707.6405848,1.4925683,2.0569958.8540795,3.1635336-.6384888,1.1065378-2.0561456,1.4842908-3.1663163.843706l-39.7462794-22.9341884c-1.1101707-.6405848-1.4925683-2.0569958-.8540795-3.1635336.6384888-1.1065378,2.0561456-1.4842908,3.1663163-.843706Z"/>
          <circle class="cls-2" cx="166.3484213" cy="100.0029316" r="4.0560906"/>
        </g>
        <g>
          <path class="cls-2" d="M153.9234245,116.233743l57.4942904,33.1750532c1.6058981.9266269,2.3901872,2.5749352,1.7516985,3.681473-.6384888,1.1065378-2.4580372,1.2523935-4.0639353.3257666l-57.4942904-33.1750532c-1.6058981-.9266269-2.3901872-2.5749352-1.7516985-3.681473.6384888-1.1065378,2.4580372-1.2523935,4.0639353-.3257666Z"/>
          <circle class="cls-2" cx="145.1473649" cy="113.2252755" r="4.0560906"/>
        </g>
      </g>
      <path class="cls-2" d="M231.4959057,125.8071755c-2.6425457.1382057-4.6241831,2.509899-4.6241824,5.1560563l.0000075,28.1890862-36.2998727,21.0977756.0003577.6399605.0000097.0000056c5.6802969,3.2929446,12.6897185,3.2890078,18.3663129-.0103152l25.2755209-14.6905171c1.5050306-.8747467,2.4310811-2.4840864,2.4310811-4.2248618v-31.2773763c0-2.7860028-2.3310076-5.0272079-5.1492349-4.879814Z"/>
    </g>
    <path class="cls-1" d="M107.8408685,180.4869736l10.5675903,6.0797682c16.3513978,9.4073204,35.1623243,13.6580831,53.969969,12.1957593l29.3576391-2.2826023-65.2613976-37.9450986c-2.2505289-1.2955246-3.6376291-3.6945232-3.6376291-6.2913028v-43.1037476c0-2.5934253,1.3835492-4.9898572,3.629496-6.2866139l37.3322353-21.5547534c2.2460473-1.2968148,5.0133313-1.2968344,7.2593969-.0000512l49.2945627,28.4605919c7.959136,4.5932003,18.1678551,1.854158,22.7610553-6.1001557,4.5907891-7.9567249,1.854158-18.165444-6.1001557-22.7610553l-61.2547257-35.3640253c-5.1405265-2.9656884-11.5203731-2.9656884-16.6608996,0l-61.2547257,35.3640253c-5.1381154,2.9656884-8.3304498,8.4968177-8.3304498,14.4306055v70.7304617c0,5.9313767,3.1899233,11.4600949,8.3280387,14.4281944Z"/>
    <path class="cls-4" d="M256.1567204,219.5045874l-5.1311281-2.9769639c-16.3919061-9.5102112-35.2830318-13.8244942-54.1783216-12.3730378l-30.3945889,2.334784,61.0921719,34.9636413c2.2395258,1.2984681,3.6181061,3.6912993,3.6181061,6.2800239v43.1186631c0,2.593486-1.3836135,4.9899644-3.6296432,6.2866989l-37.3346089,21.5549583c-2.2459927,1.2967132-5.0131596,1.2967203-7.2591589.0000187l-49.2922799-28.4583248c-7.9639582-4.5956114-18.1702662-1.854158-22.7610553,6.0977446-4.5932003,7.9543137-1.8589803,18.165444,6.0977446,22.7610553l61.2523146,35.3616142c2.5292741,1.4635551,5.4105729,2.2351163,8.3328609,2.2351163,2.9198769,0,5.8011758-.7715612,8.3328609-2.2327052l61.2543324-35.3651902c5.1551435-2.9763222,8.3308432-8.4767942,8.3308432-14.4294406v-70.7304617c0-5.9337878-3.1923345-11.462506-8.3304498-14.4281944Z"/>
    <g>
      <g>
        <g>
          <path class="cls-2" d="M213.0414133,260.8831392l-38.5889102-22.2663689c-1.0778437-.6219317-1.4340334-2.0232203-.7955447-3.1297581s2.0299378-1.4994131,3.1077815-.8774815l38.5889102,22.2663689c1.0778437.6219317,1.4340334,2.0232203.7955447,3.1297581s-2.0299378,1.4994131-3.1077815.8774815Z"/>
          <circle class="cls-2" cx="221.0559202" cy="262.6842881" r="4.0560906"/>
        </g>
        <g>
          <path class="cls-2" d="M191.7818222,300.1078421l-39.7462794-22.9341884c-1.1101707-.6405848-1.4925683-2.0569958-.8540795-3.1635336.6384888-1.1065378,2.0561456-1.4842908,3.1663163-.843706l39.7462794,22.9341884c1.1101707.6405848,1.4925683,2.0569958.8540795,3.1635336s-2.0561456,1.4842908-3.1663163.843706Z"/>
          <circle class="cls-2" cx="199.8548639" cy="301.9427665" r="4.0560906"/>
        </g>
        <g>
          <path class="cls-2" d="M212.2798606,285.7119551l-57.4942904-33.1750532c-1.6058981-.9266269-2.3901872-2.5749352-1.7516985-3.681473.6384888-1.1065378,2.4580372-1.2523935,4.0639353-.3257666l57.4942904,33.1750532c1.6058981.9266269,2.3901872,2.5749352,1.7516985,3.681473-.6384888,1.1065378-2.4580372,1.2523935-4.0639353.3257666Z"/>
          <circle class="cls-2" cx="221.0559202" cy="288.7204226" r="4.0560906"/>
        </g>
      </g>
      <path class="cls-2" d="M134.7073795,276.1385226c2.6425457-.1382057,4.6241831-2.509899,4.6241824-5.1560563l-.0000075-28.1890862,36.8085627-21.3934303-.0000275-.04922-.5090299-.2950915c-5.6802969-3.2929446-12.6897185-3.2890078-18.3663129.0103152l-25.2753346,14.6904088c-1.5051459.8748137-2.4312674,2.4842767-2.4312674,4.2251855v31.2771609c0,2.7860028,2.3310076,5.0272079,5.1492349,4.879814Z"/>
    </g>
  </g>
</svg>