<?xml version="1.0" encoding="UTF-8"?>
<svg id="Layer_1" data-name="Layer 1" xmlns="http://www.w3.org/2000/svg" xmlns:xlink="http://www.w3.org/1999/xlink" viewBox="0 0 800 800">
  <defs>
    <style>
      .cls-1 {
        fill: url(#linear-gradient);
        filter: url(#drop-shadow-4);
      }

      .cls-1, .cls-2, .cls-3, .cls-4, .cls-5, .cls-6, .cls-7 {
        stroke-width: 0px;
      }

      .cls-2 {
        fill: #34507d;
      }

      .cls-8 {
        filter: url(#drop-shadow-5);
      }

      .cls-3 {
        fill: url(#linear-gradient-2);
      }

      .cls-4 {
        fill: #ef5054;
      }

      .cls-5 {
        fill: url(#radial-gradient);
      }

      .cls-6 {
        fill: #47c5e4;
      }

      .cls-7 {
        fill: #fff;
      }
    </style>
    <linearGradient id="linear-gradient" x1="68.8638041" y1="208.8184282" x2="731.1361959" y2="591.1815718" gradientUnits="userSpaceOnUse">
      <stop offset=".0055866" stop-color="#59595c"/>
      <stop offset=".2122905" stop-color="#cfd1d2"/>
      <stop offset=".3501516" stop-color="#98999b"/>
      <stop offset=".424581" stop-color="#808083"/>
      <stop offset=".7094972" stop-color="#a6a7aa"/>
      <stop offset=".7411809" stop-color="#959699"/>
      <stop offset=".8036146" stop-color="#7b7b7e"/>
      <stop offset=".8671901" stop-color="#68686b"/>
      <stop offset=".9320178" stop-color="#5c5c5f"/>
      <stop offset="1" stop-color="#59595c"/>
    </linearGradient>
    <filter id="drop-shadow-4" filterUnits="userSpaceOnUse">
      <feOffset dx="6" dy="6"/>
      <feGaussianBlur result="blur" stdDeviation="6"/>
      <feFlood flood-color="#221f1f" flood-opacity=".35"/>
      <feComposite in2="blur" operator="in"/>
      <feComposite in="SourceGraphic"/>
    </filter>
    <filter id="drop-shadow-5" filterUnits="userSpaceOnUse">
      <feOffset dx="3" dy="3"/>
      <feGaussianBlur result="blur-2" stdDeviation="3"/>
      <feFlood flood-color="#221f1f" flood-opacity=".3"/>
      <feComposite in2="blur-2" operator="in"/>
      <feComposite in="SourceGraphic"/>
    </filter>
    <radialGradient id="radial-gradient" cx="398.2801012" cy="300.5059675" fx="398.2801012" fy="300.5059675" r="505.3048681" gradientUnits="userSpaceOnUse">
      <stop offset=".5346538" stop-color="#fff"/>
      <stop offset=".5720559" stop-color="#f8fafb"/>
      <stop offset=".625162" stop-color="#e5eef3"/>
      <stop offset=".6876724" stop-color="#c7dbe4"/>
      <stop offset=".7573589" stop-color="#9cbfd0"/>
      <stop offset=".8329949" stop-color="#659cb7"/>
      <stop offset=".9124873" stop-color="#247298"/>
      <stop offset=".9162011" stop-color="#217097"/>
    </radialGradient>
    <linearGradient id="linear-gradient-2" x1="251.4944502" y1="86.619266" x2="539.4808095" y2="704.2080065" gradientUnits="userSpaceOnUse">
      <stop offset="0" stop-color="#34bde9"/>
      <stop offset=".2697114" stop-color="#1d7795"/>
      <stop offset=".4888268" stop-color="#0d4255"/>
      <stop offset=".5492936" stop-color="#12495e"/>
      <stop offset=".8478054" stop-color="#2a6d89"/>
      <stop offset="1" stop-color="#347b9a"/>
    </linearGradient>
  </defs>
  <g>
    <path class="cls-1" d="M55.1942575,259.0787131v281.8425737c0,35.5040724,18.9721011,68.3018407,49.7489455,86.0028297l245.593144,141.2503994c30.6239004,17.6130249,68.3034055,17.6130249,98.9273059,0l245.593144-141.2503994c30.7768443-17.700989,49.7489455-50.4987573,49.7489455-86.0028297v-281.8425737c0-35.5040724-18.9721011-68.3018407-49.7489455-86.0028297L449.463653,31.825484c-30.6239004-17.6130249-68.3034055-17.6130249-98.9273059,0L104.943203,173.0758834c-30.7768443,17.700989-49.7489455,50.4987573-49.7489455,86.0028297Z"/>
    <g class="cls-8">
      <path class="cls-5" d="M64.4490935,262.4104166v266.0064518c0,35.5040724,18.9721011,68.3018407,49.7489455,86.0028297l231.8259512,133.3323384c30.6239004,17.6130249,68.3034055,17.6130249,98.9273059,0l231.8259512-133.3323384c30.7768443-17.700989,49.7489455-50.4987573,49.7489455-86.0028297v-266.0064518c0-35.5040724-18.9721011-68.3018407-49.7489455-86.0028297L444.9512961,43.0752484c-30.6239004-17.6130249-68.3034055-17.6130249-98.9273059,0L114.1980389,176.4075869c-30.7768443,17.700989-49.7489455,50.4987573-49.7489455,86.0028297Z"/>
      <path class="cls-3" d="M395.487633,50.864437c13.1273581,0,26.0810469,3.4593621,37.4605455,10.0042576l234.4927944,134.8661351c23.2397359,13.3661534,37.6766225,38.3236506,37.6766225,65.1329178v269.0919239c0,26.8091039-14.4368866,51.7666456-37.6765037,65.1327693l-234.4929132,134.8661128c-11.3796174,6.5449104-24.3333062,10.0042799-37.4605455,10.0042799s-26.0809281-3.4593695-37.4606643-10.0042799l-234.4925568-134.8661128c-23.2398547-13.3661237-37.6767413-38.3236655-37.6767413-65.1327693v-269.0919239c0-26.8092672,14.4368866-51.7667644,37.6765037-65.1329178L358.0272063,60.8686946c11.3792611-6.5448956,24.3330686-10.0042576,37.4604267-10.0042576M395.487633,29.4558687c-16.6167812,0-33.2336811,4.2849039-48.1340819,12.8547079L112.8607567,177.1767117c-29.9495252,17.2252326-48.4116915,49.1412779-48.4116915,83.6910358v269.0919239c0,34.5496243,18.4621663,66.4656398,48.4116915,83.690917l234.4927944,134.8661128c14.9004008,8.5697855,31.5173008,12.8546782,48.1340819,12.8546782s33.2336811-4.2848927,48.1340819-12.8546782l234.4929132-134.8661128c29.9494064-17.2252772,48.4115727-49.1412928,48.4115727-83.690917v-269.0919239c0-34.5497579-18.4621663-66.4658032-48.4115727-83.6910358L443.621715,42.3105767c-14.9004008-8.5698041-31.5173008-12.8547079-48.1340819-12.8547079h0Z"/>
    </g>
  </g>
  <g>
    <path class="cls-2" d="M353.760562,386.8903187h11.8957796c1.3883232,0,2.5137817-1.1254582,2.513782-2.5137814l.0000068-29.4713026c.0000003-1.1061547-.5717473-2.1316615-1.5095885-2.7182041-4.3031795-2.6912854-8.7525423-6.3456842-13.3280723-10.8309705-.7764402-.7611264-2.085696-.2132864-2.0856959.8739912l.0000062,42.1464857c.0000002,1.3883233,1.1254587,2.5137816,2.513782,2.5137816Z"/>
    <path class="cls-2" d="M439.1918005,278.0418339h-11.8957796c-1.3883232,0-2.5137817,1.1254582-2.513782,2.5137814l-.0000068,41.8021487c-.0000003,1.1061547.5717473,2.1316615,1.5095885,2.7182041,4.3031795,2.6912854,8.7525423,6.3456842,13.3280723,10.8309705.7764402.7611264,2.085696.2132864,2.0856959-.8739912l-.0000062-54.4773318c-.0000002-1.3883233-1.1254587-2.5137816-2.513782-2.5137816Z"/>
    <g>
      <g>
        <path class="cls-2" d="M211.5447659,286.4046791c24.3696721,0,37.7709222,17.3239563,42.232079,29.2739026.3854347,1.0324506-.3781633,2.1320424-1.4802133,2.1320424h-12.2307964c-1.795246,0-3.482295-.848055-4.562208-2.2821735-3.2276968-4.2863637-11.3883851-13.0398253-23.7279351-12.2084372-16.2802876,1.0968988-26.9724684,9.8343831-28.4457823,25.9127222-.0640571,17.0391961,0,21.0107381,0,21.0107381,0,0,4.5480561,23.8292517,28.4413649,22.9324519,24.4057659-.3202856,27.6086223-22.0356521,27.6086223-21.7794236,0,.2074713-18.1851331.0789586-25.1059593.0225373-1.4567225-.0118758-2.6307772-1.1961252-2.6307772-2.6528961v-12.0120779c0-1.4652048,1.1877832-2.6529879,2.6529879-2.6529879h38.5292656c2.1970008,0,3.9780219,1.7810211,3.9780219,3.9780219v10.1145463c0,11.8505687-11.2099974,41.5090191-44.968104,41.8293047-33.7581066.3202856-45.3524468-30.2349645-45.3524468-41.3809048v-20.498281c0-8.4555409,10.4369445-41.7390854,45.061881-41.7390854Z"/>
        <path class="cls-2" d="M269.588478,289.464428h67.7521982c1.3883235,0,2.513782,1.1254585,2.513782,2.513782v11.9899566c0,1.3883235-1.1254585,2.513782-2.513782,2.513782h-50.8365894c-1.3883235,0-2.513782,1.1254585-2.513782,2.513782v18.0707797c0,1.3883235,1.1254585,2.513782,2.513782,2.513782h34.0157459c1.3883235,0,2.513782,1.1254585,2.513782,2.513782v12.054586c0,1.3883235-1.1254585,2.513782-2.513782,2.513782h-34.0157459c-1.3883235,0-2.513782,1.1254585-2.513782,2.513782v18.3320862c0,1.3883235,1.1254585,2.513782,2.513782,2.513782h50.8365894c1.3883235,0,2.513782,1.1254585,2.513782,2.513782v11.8406621c0,1.3883235-1.1254585,2.513782-2.513782,2.513782h-67.7521982c-1.3883235,0-2.513782-1.1254585-2.513782-2.513782v-92.3983267c0-1.3883235,1.1254585-2.513782,2.513782-2.513782Z"/>
        <path class="cls-2" d="M441.726709,379.8231148v4.5537007c0,1.3879659-1.1258905,2.513782-2.513782,2.513782h-11.9252519c-1.3886726,0-2.513782-1.1258161-2.513782-2.513782v-2.9852649c0-5.8236099-1.8114302-11.5162192-5.2446708-16.2200386-1.4145603-1.9378558-3.0614773-3.7279732-4.9163512-5.3863463-4.7632197-3.863586-10.8062053-7.7866094-18.1167196-11.7690704l-18.1175379-9.838728c-13.439569-7.1330945-22.7748636-17.0236722-26.0442978-30.9903677-.7221395-3.0850961-1.0687219-6.2456235-1.0687219-9.4137387v-17.2179041c0-1.3878915,1.1258533-2.513782,2.513782-2.513782h11.9252147c1.3879287,0,2.513782,1.1258905,2.513782,2.513782v15.6494684c0,5.8235355,1.8114674,11.5161448,5.2446708,16.2199642,1.4145603,1.9378558,3.0614773,3.7279732,4.9155701,5.3863463,4.7632569,3.863586,10.8069863,7.7866094,18.1175379,11.7690704l18.1167196,9.8388024c13.4403873,7.1322762,22.7756447,17.0235978,26.0450789,30.9903677.7221395,3.0842778,1.0687591,6.2455491,1.0687591,9.4137387Z"/>
      </g>
      <g>
        <path class="cls-4" d="M336.0061516,425.8092873c-4.4577377-8.9871501-11.1649875-15.655494-20.2397317-19.8832183-12.3495344-5.7535346-26.6064805-5.7321848-39.042084-.1691253-9.9652465,4.4577749-17.0959978,11.7347766-21.438766,21.7822797-2.6630825,6.1610795-3.9877612,12.8172606-3.9877612,19.5290482v12.6351914c0,8.4006233,2.1938498,16.6724777,6.4634556,23.9060729,5.0671766,8.5841803,12.1446275,14.3559776,20.8758207,17.8127998,11.0499808,4.3747559,23.365984,4.4242623,34.4669962.1798003,9.2301446-3.5284597,16.4142333-9.4350886,21.4631473-17.823512,4.3335811-7.2008265,6.563231-15.4711559,6.563231-23.8748292v-11.9800772c0-7.6655027-1.7177362-15.2472053-5.124308-22.1144304ZM324.2439623,461.3922615c0,4.4532-1.0359903,8.8553685-3.0950272,12.8042796-2.9174958,5.5966092-7.3965834,9.483814-13.2895246,11.8208829-6.7506377,2.6760263-14.2325648,2.7925952-21.1355529.5385454-7.1460012-2.3332378-12.6504228-6.4962058-15.8787194-13.1965745-1.7291922-3.5893849-2.5892133-7.5345022-2.5892133-11.5184509v-16.6252402c0-5.5851532,1.6278732-11.0652307,4.7655258-15.6859938,3.4454034-5.0725327,8.2055917-8.4676485,14.2143021-10.2707099,5.466334-1.640036,11.2861128-1.6994735,16.8126282-.2757632,7.8117532,2.0125432,13.4738627,6.3880429,16.9893413,13.1196554,2.1344309,4.0875738,3.20624,8.6466677,3.20624,13.257537v16.0318323Z"/>
        <path class="cls-4" d="M454.9476934,403.95774h67.7521982c1.3883235,0,2.513782,1.1254585,2.513782,2.513782v11.9899566c0,1.3883235-1.1254585,2.513782-2.513782,2.513782h-50.8365894c-1.3883235,0-2.513782,1.1254585-2.513782,2.513782v18.0707797c0,1.3883235,1.1254585,2.513782,2.513782,2.513782h34.0157459c1.3883235,0,2.513782,1.1254585,2.513782,2.513782v12.054586c0,1.3883235-1.1254585,2.513782-2.513782,2.513782h-34.0157459c-1.3883235,0-2.513782,1.1254585-2.513782,2.513782v18.3320862c0,1.3883235,1.1254585,2.513782,2.513782,2.513782h50.8365894c1.3883235,0,2.513782,1.1254585,2.513782,2.513782v11.8406621c0,1.3883235-1.1254585,2.513782-2.513782,2.513782h-67.7521982c-1.3883235,0-2.513782-1.1254585-2.513782-2.513782v-92.3983267c0-1.3883235,1.1254585-2.513782,2.513782-2.513782Z"/>
        <path class="cls-4" d="M441.7442278,406.4722393l-.0175188,47.104438c-.3275757,9.0663753-2.5473318,16.8796907-6.8131438,23.3362838-4.5255441,6.4101367-11.0750874,12.0836651-19.1009346,17.218648-.5499642.3511573-.5446453,1.1563531.00915,1.5021916,8.0326911,5.0153641,13.9766265,9.9278842,18.5425643,14.7734163,1.0580841,1.1220594.2575005,2.9670022-1.2858287,2.9670022h-21.5362353c-7.0584071-5.9012729-12.0920711-8.8492685-15.0461295-8.7624183-2.9540956-.0868502-7.9885035,2.8611455-15.0461295,8.7624183h-21.5370164c-1.5425481,0-2.3431689-1.8449428-1.2850848-2.9670022,4.5659378-4.8455321,10.5099105-9.7580522,18.5425643-14.7734163.5530514-.3458384.5591514-1.1510342.00915-1.5021916-8.0265911-5.134983-14.5761344-10.8085113-19.1009346-17.218648-4.266593-6.4565932-6.485568-14.2699085-6.8131066-23.3362838l-.0175188-47.104438c-.0007811-1.3887098,1.1251094-2.5145631,2.513782-2.5145631h11.894752c1.3878915,0,2.513782,1.1258533,2.513782,2.513782v47.8075709c.1576693,4.9133012,1.921118,9.4586702,4.8454949,13.7389509,2.2989813,3.3646532,5.1745956,6.2973989,8.4554486,8.7144369,6.3835051,4.7038194,11.8841143,8.1873476,15.0248168,8.414311,3.1407025-.2269635,8.6405306-3.7104916,15.0247796-8.414311,3.2808902-2.417038,6.1565045-5.3497837,8.4554486-8.7144369,2.9235957-4.2802807,4.6870817-8.8256497,4.8455321-13.7389509v-47.8075709c0-1.3879287,1.1258533-2.513782,2.513782-2.513782h11.894752c1.3886726,0,2.5145259,1.1258533,2.513782,2.5145631Z"/>
        <path class="cls-4" d="M192.2232618,481.7930101v-75.3214775c0-1.3883235-1.1254585-2.513782-2.513782-2.513782h-12.666119c-1.3883235,0-2.513782,1.1254585-2.513782,2.513782v93.0151791c0,1.3883235,1.1254585,2.513782,2.513782,2.513782h65.9971925c1.3883235,0,2.513782-1.1254585,2.513782-2.513782v-12.6661376c0-1.3883235-1.1254585-2.513782-2.513782-2.513782h-48.3035095c-1.3883235,0-2.513782-1.1254585-2.513782-2.513782Z"/>
      </g>
    </g>
    <path class="cls-6" d="M521.7372165,377.0349561l-12.5638915,9.6969633c-1.9243919,1.4852689-4.7158832.1135421-4.7158832-2.3173647v-6.7928219c0-1.2676535-1.0276362-2.2952897-2.2952897-2.2952897h-19.8021556c-7.4379616,0-13.2410887-6.4371354-12.4726228-13.8352929l6.7899514-65.3680674c.8155497-7.8514422,7.3036763-13.8945409,15.1931919-14.1510739l118.9307044-3.8671136c7.6836503-.2498392,14.1027183,5.8015897,14.3059586,13.4866138l1.9203751,72.6141831c.2105492,7.9613926-6.3123378,14.4640025-14.2730362,14.228667l-87.3714525-2.5828894c-1.3155629-.0388909-2.6039486.3793345-3.6458498,1.1834864Z"/>
    <path class="cls-7" d="M544.5174459,353.5574408l-2.1205203-28.958355-4.9803734,21.0355244c-.2904859,1.2269209-1.392224,2.0888831-2.6529939,2.0756118l-9.500893-.1000094c-1.2048585-.0126827-2.2551503-.8229863-2.573148-1.9851921l-5.5163972-20.1611185-2.399308,29.5248173c-.1111507,1.367771-1.2315737,2.4340431-2.6031698,2.4773567l-8.1362768.2569351c-1.6543967.0522441-2.9650917-1.3842275-2.761893-3.0269289l6.1670616-49.8558241c.1671482-1.3512612,1.3152019-2.366053,2.6767618-2.366053h7.4565463c1.177432,0,2.2186901.7634674,2.5724521,1.8864984,2.214425,7.0297769,9.8663665,31.2846863,9.9280004,30.9765168.061395-.3069749,7.0790357-23.9409092,9.1562665-30.9343868.3399145-1.1444007,1.3915364-1.9286284,2.5853516-1.9286284h8.1627975c1.3838899,0,2.5432321,1.0473722,2.6833103,2.4241545l4.8920391,48.0822549c.1601888,1.5744438-1.0632874,2.9478443-2.6457055,2.9699091l-7.6623432.1068415c-1.4275314.0199051-2.6233012-1.0760664-2.7275654-2.4999242Z"/>
    <path class="cls-7" d="M596.3398353,358.6872572h-21.4762687c-6.2290233,0-11.2786444-5.0496211-11.2786444-11.2786444v-34.7367835c0-6.2290233,5.0496211-11.2786444,11.2786444-11.2786444h21.4762687c1.3731713,0,2.4863465,1.1131753,2.4863465,2.4863465v5.9816453c0,1.3731713-1.1131753,2.4863465-2.4863465,2.4863465h-17.6566638c-1.5721816,0-2.8466866,1.274505-2.8466866,2.8466866v6.3419854c0,1.5721816,1.274505,2.8466866,2.8466866,2.8466866h12.2515627c1.3731713,0,2.4863465,1.1131753,2.4863465,2.4863465v6.1257813c0,1.3731713-1.1131753,2.4863465-2.4863465,2.4863465h-12.2515627c-1.5721816,0-2.8466866,1.274505-2.8466866,2.8466866v6.2843835c0,1.5931206,1.3067831,2.8761526,2.8996219,2.8461912h17.6037285c1.3731713,0,2.4863465,1.1131753,2.4863465,2.4863465v6.2559466c0,1.3731713-1.1131753,2.4863465-2.4863465,2.4863465Z"/>
  </g>
</svg>