<?xml version="1.0" encoding="UTF-8"?>
<svg id="Layer_1" data-name="Layer 1" xmlns="http://www.w3.org/2000/svg" version="1.1" viewBox="0 0 800 418">
  <defs>
    <style>
      .cls-1 {
        fill: #f05054;
      }

      .cls-1, .cls-2, .cls-3, .cls-4 {
        stroke-width: 0px;
      }

      .cls-2 {
        fill: #ffcb35;
      }

      .cls-3 {
        fill: #35507c;
      }

      .cls-4 {
        fill: #fff;
      }
    </style>
  </defs>
  <path class="cls-3" d="M320.1,201.7h20.3c2.4,0,4.3-1.9,4.3-4.3v-50.4c0-1.9-1-3.6-2.6-4.6-7.4-4.6-15-10.9-22.8-18.5-1.3-1.3-3.6-.4-3.6,1.5v72.1c0,2.4,1.9,4.3,4.3,4.3h0Z"/>
  <path class="cls-3" d="M466.1,15.5h-20.3c-2.4,0-4.3,1.9-4.3,4.3v71.5c0,1.9,1,3.6,2.6,4.6,7.4,4.6,15,10.9,22.8,18.5,1.3,1.3,3.6.4,3.6-1.5V19.8c0-2.4-1.9-4.3-4.3-4.3h0Z"/>
  <g>
    <g>
      <path class="cls-3" d="M77,29.8c41.7,0,64.6,29.6,72.2,50.1.7,1.8-.6,3.6-2.5,3.6h-20.9c-3.1,0-6-1.5-7.8-3.9-5.5-7.3-19.5-22.3-40.6-20.9-27.8,1.9-46.1,16.8-48.6,44.3-.1,29.1,0,35.9,0,35.9,0,0,7.8,40.8,48.6,39.2,41.7-.5,47.2-37.7,47.2-37.3s-31.1.1-42.9,0c-2.5,0-4.5-2-4.5-4.5v-20.5c0-2.5,2-4.5,4.5-4.5h65.9c3.8,0,6.8,3,6.8,6.8v17.3c0,20.3-19.2,71-76.9,71.5C19.8,207.6,0,155.3,0,136.2v-35.1C0,86.7,17.8,29.8,77,29.8h0Z"/>
      <path class="cls-3" d="M176.2,35h115.8c2.4,0,4.3,1.9,4.3,4.3v20.5c0,2.4-1.9,4.3-4.3,4.3h-86.9c-2.4,0-4.3,1.9-4.3,4.3v30.9c0,2.4,1.9,4.3,4.3,4.3h58.1c2.4,0,4.3,1.9,4.3,4.3v20.6c0,2.4-1.9,4.3-4.3,4.3h-58.1c-2.4,0-4.3,1.9-4.3,4.3v31.4c0,2.4,1.9,4.3,4.3,4.3h86.9c2.4,0,4.3,1.9,4.3,4.3v20.3c0,2.4-1.9,4.3-4.3,4.3h-115.8c-2.4,0-4.3-1.9-4.3-4.3V39.3c0-2.4,1.9-4.3,4.3-4.3h0Z"/>
      <path class="cls-3" d="M470.5,189.6v7.8c0,2.4-1.9,4.3-4.3,4.3h-20.4c-2.4,0-4.3-1.9-4.3-4.3v-5.1c0-10-3.1-19.7-9-27.7-2.4-3.3-5.2-6.4-8.4-9.2-8.1-6.6-18.5-13.3-31-20.1l-31-16.8c-23-12.2-38.9-29.1-44.5-53-1.2-5.3-1.8-10.7-1.8-16.1v-29.4c0-2.4,1.9-4.3,4.3-4.3h20.4c2.4,0,4.3,1.9,4.3,4.3v26.8c0,10,3.1,19.7,9,27.7,2.4,3.3,5.2,6.4,8.4,9.2,8.1,6.6,18.5,13.3,31,20.1l31,16.8c23,12.2,38.9,29.1,44.5,53,1.2,5.3,1.8,10.7,1.8,16.1Z"/>
    </g>
    <g>
      <path class="cls-1" d="M289.8,268.2c-7.6-15.4-19.1-26.8-34.6-34-21.1-9.8-45.5-9.8-66.7-.3-17,7.6-29.2,20.1-36.6,37.3-4.6,10.5-6.8,21.9-6.8,33.4v21.6c0,14.4,3.7,28.5,11,40.9,8.7,14.7,20.8,24.6,35.7,30.5,18.9,7.5,39.9,7.6,58.9.3,15.8-6,28.1-16.1,36.7-30.5,7.4-12.3,11.2-26.5,11.2-40.8v-20.5c0-13.1-2.9-26.1-8.8-37.8h0ZM269.7,329.1c0,7.6-1.8,15.1-5.3,21.9-5,9.6-12.6,16.2-22.7,20.2-11.5,4.6-24.3,4.8-36.1.9-12.2-4-21.6-11.1-27.1-22.6-3-6.1-4.4-12.9-4.4-19.7v-28.4c0-9.6,2.8-18.9,8.1-26.8,5.9-8.7,14-14.5,24.3-17.6,9.3-2.8,19.3-2.9,28.7-.5,13.4,3.4,23,10.9,29,22.4,3.6,7,5.5,14.8,5.5,22.7v27.4h0Z"/>
      <path class="cls-1" d="M493.1,230.9h115.8c2.4,0,4.3,1.9,4.3,4.3v20.5c0,2.4-1.9,4.3-4.3,4.3h-86.9c-2.4,0-4.3,1.9-4.3,4.3v30.9c0,2.4,1.9,4.3,4.3,4.3h58.1c2.4,0,4.3,1.9,4.3,4.3v20.6c0,2.4-1.9,4.3-4.3,4.3h-58.1c-2.4,0-4.3,1.9-4.3,4.3v31.4c0,2.4,1.9,4.3,4.3,4.3h86.9c2.4,0,4.3,1.9,4.3,4.3v20.3c0,2.4-1.9,4.3-4.3,4.3h-115.8c-2.4,0-4.3-1.9-4.3-4.3v-158c0-2.4,1.9-4.3,4.3-4.3h0Z"/>
      <path class="cls-1" d="M470.5,235.2v80.6c-.6,15.5-4.4,28.9-11.7,39.9-7.7,11-18.9,20.7-32.6,29.5-.9.6-.9,2,0,2.6,13.7,8.6,23.9,17,31.7,25.3,1.8,1.9.4,5.1-2.2,5.1h-36.8c-12.1-10.1-20.7-15.1-25.7-15-5-.1-13.7,4.9-25.7,15h-36.8c-2.6,0-4-3.2-2.2-5.1,7.8-8.3,18-16.7,31.7-25.3.9-.6,1-2,0-2.6-13.7-8.8-24.9-18.5-32.6-29.5-7.3-11-11.1-24.4-11.6-39.9v-80.6c0-2.4,1.9-4.3,4.3-4.3h20.3c2.4,0,4.3,1.9,4.3,4.3v81.8c.3,8.4,3.3,16.2,8.3,23.5,3.9,5.8,8.8,10.8,14.5,14.9,10.9,8,20.3,14,25.7,14.4,5.4-.4,14.8-6.3,25.7-14.4,5.6-4.1,10.5-9.2,14.5-14.9,5-7.3,8-15.1,8.3-23.5v-81.8c0-2.4,1.9-4.3,4.3-4.3h20.3c2.4,0,4.3,1.9,4.3,4.3h0Z"/>
      <path class="cls-1" d="M44,364v-128.8c0-2.4-1.9-4.3-4.3-4.3h-21.6c-2.4,0-4.3,1.9-4.3,4.3v159.1c0,2.4,1.9,4.3,4.3,4.3h112.8c2.4,0,4.3-1.9,4.3-4.3v-21.7c0-2.4-1.9-4.3-4.3-4.3H48.3c-2.4,0-4.3-1.9-4.3-4.3h0Z"/>
    </g>
  </g>
  <path class="cls-2" d="M605.1,182.7l-21.6,16.9c-2.3,1.8-5.5.2-5.5-2.7v-13.3c0-2.5-2-4.4-4.4-4.4h-5.2c-31.2,0-54.8-28.4-49.1-59.1l8.7-46.6c5.8-30.8,31.1-54.2,62.3-57.5L737.6.3c33.9-3.6,63.2,23.5,62.3,57.5l-1.8,74.3c-.8,31.4-27.4,56-58.7,54.2l-123.9-6.9c-3.8-.2-7.5,1-10.5,3.3h0Z"/>
  <path class="cls-4" d="M650.7,103.7c.9-21.8,4.4-49.5,17.6-51.6,13.2-2.1,16.6,5.3,16,26.8-.6,21.6-1.3,40.4-1.8,49.4-.4,9-6.2,19.1-15.9,18.7s-17.4-8.8-15.9-43.3Z"/>
  <path class="cls-4" d="M719,50.5c-14-.4-19,5.8-20.5,22.9,0,0-3.4,38.1-4.3,52.4-.9,14.4,0,23,25.1,21.2,25.1-1.8,41.6-25.8,41.5-55.3s-27.8-40.7-41.8-41.2ZM733.8,101.5c-2.7,10.8-7.6,17.3-10.7,17.2-3-.1-3.4-1-1.3-34.7.5-7.8,3.3-10.9,6.8-6.8,3.6,4,7.9,13.6,5.2,24.4h0Z"/>
  <path class="cls-4" d="M571,100.9c0-18,3.1-49.4,13.7-51.4,10.6-2.1,17.5,3.2,16.6,10.6s-2.2,22-1.9,23.2,2.2,1,2.9-.6,7.6-31.1,15.5-34.1,24.1,1,21.6,14.8c-2.5,13.8-16.9,31-16.3,33.4s14.2,17,18.2,25.6.8,15.1-5.4,19.5-17.8-3.5-21.4-9.6c-3.6-6.1-7.5-21.2-9.5-21.6s-3,.2-3,3.9,2.7,28-2.8,30.6-14.8,3.1-21.3-3.1c-6.4-6.3-6.9-27.6-6.9-41.2h0Z"/>
</svg>