<?xml version="1.0" encoding="UTF-8"?>
<svg id="Layer_1" data-name="Layer 1" xmlns="http://www.w3.org/2000/svg" version="1.1" viewBox="0 0 800 410">
  <defs>
    <style>
      .cls-1 {
        fill: #f05054;
      }

      .cls-1, .cls-2, .cls-3, .cls-4 {
        stroke-width: 0px;
      }

      .cls-2 {
        fill: #ed5e92;
      }

      .cls-3 {
        fill: #35507c;
      }

      .cls-4 {
        fill: #fff;
      }
    </style>
  </defs>
  <path class="cls-3" d="M325.3,189.7h20.7c2.4,0,4.4-2,4.4-4.4v-51.2c0-1.9-1-3.7-2.6-4.7-7.5-4.7-15.2-11-23.2-18.8-1.3-1.3-3.6-.4-3.6,1.5v73.2c0,2.4,2,4.4,4.4,4.4h0Z"/>
  <path class="cls-3" d="M473.7.6h-20.7c-2.4,0-4.4,2-4.4,4.4v72.6c0,1.9,1,3.7,2.6,4.7,7.5,4.7,15.2,11,23.2,18.8,1.3,1.3,3.6.4,3.6-1.5V5c0-2.4-2-4.4-4.4-4.4h0Z"/>
  <g>
    <g>
      <path class="cls-3" d="M78.3,15.1c42.3,0,65.6,30.1,73.4,50.9.7,1.8-.7,3.7-2.6,3.7h-21.2c-3.1,0-6-1.5-7.9-4-5.6-7.4-19.8-22.7-41.2-21.2-28.3,1.9-46.9,17.1-49.4,45-.1,29.6,0,36.5,0,36.5,0,0,7.9,41.4,49.4,39.8,42.4-.6,48-38.3,48-37.8s-31.6.1-43.6,0c-2.5,0-4.6-2.1-4.6-4.6v-20.9c0-2.5,2.1-4.6,4.6-4.6h66.9c3.8,0,6.9,3.1,6.9,6.9v17.6c0,20.6-19.5,72.1-78.1,72.7C20.1,195.7,0,142.6,0,123.2v-35.6C0,72.9,18.1,15.1,78.3,15.1h0Z"/>
      <path class="cls-3" d="M179.1,20.4h117.7c2.4,0,4.4,2,4.4,4.4v20.8c0,2.4-2,4.4-4.4,4.4h-88.3c-2.4,0-4.4,2-4.4,4.4v31.4c0,2.4,2,4.4,4.4,4.4h59.1c2.4,0,4.4,2,4.4,4.4v20.9c0,2.4-2,4.4-4.4,4.4h-59.1c-2.4,0-4.4,2-4.4,4.4v31.8c0,2.4,2,4.4,4.4,4.4h88.3c2.4,0,4.4,2,4.4,4.4v20.6c0,2.4-2,4.4-4.4,4.4h-117.7c-2.4,0-4.4-2-4.4-4.4V24.8c0-2.4,2-4.4,4.4-4.4h0Z"/>
      <path class="cls-3" d="M478.1,177.4v7.9c0,2.4-2,4.4-4.4,4.4h-20.7c-2.4,0-4.4-2-4.4-4.4v-5.2c0-10.1-3.1-20-9.1-28.2-2.5-3.4-5.3-6.5-8.5-9.4-8.3-6.7-18.8-13.5-31.5-20.4l-31.5-17.1c-23.3-12.4-39.6-29.6-45.2-53.8-1.3-5.4-1.9-10.8-1.9-16.4V5c0-2.4,2-4.4,4.4-4.4h20.7c2.4,0,4.4,2,4.4,4.4v27.2c0,10.1,3.1,20,9.1,28.2,2.5,3.4,5.3,6.5,8.5,9.4,8.3,6.7,18.8,13.5,31.5,20.4l31.5,17.1c23.3,12.4,39.6,29.6,45.2,53.8,1.3,5.4,1.9,10.8,1.9,16.4h0Z"/>
    </g>
    <g>
      <path class="cls-1" d="M294.5,257.3c-7.7-15.6-19.4-27.2-35.2-34.5-21.5-10-46.2-10-67.8-.3-17.3,7.7-29.7,20.4-37.2,37.8-4.6,10.7-6.9,22.3-6.9,33.9v21.9c0,14.6,3.8,29,11.2,41.5,8.8,14.9,21.1,24.9,36.3,30.9,19.2,7.6,40.6,7.7,59.9.3,16-6.1,28.5-16.4,37.3-31,7.5-12.5,11.4-26.9,11.4-41.5v-20.8c0-13.3-3-26.5-8.9-38.4h0ZM274,319.1c0,7.7-1.8,15.4-5.4,22.2-5.1,9.7-12.8,16.5-23.1,20.5-11.7,4.6-24.7,4.9-36.7.9-12.4-4.1-22-11.3-27.6-22.9-3-6.2-4.5-13.1-4.5-20v-28.9c0-9.7,2.8-19.2,8.3-27.2,6-8.8,14.3-14.7,24.7-17.8,9.5-2.8,19.6-3,29.2-.5,13.6,3.5,23.4,11.1,29.5,22.8,3.7,7.1,5.6,15,5.6,23v27.8h0Z"/>
      <path class="cls-1" d="M501.1,219.3h117.7c2.4,0,4.4,2,4.4,4.4v20.8c0,2.4-2,4.4-4.4,4.4h-88.3c-2.4,0-4.4,2-4.4,4.4v31.4c0,2.4,2,4.4,4.4,4.4h59.1c2.4,0,4.4,2,4.4,4.4v20.9c0,2.4-2,4.4-4.4,4.4h-59.1c-2.4,0-4.4,2-4.4,4.4v31.8c0,2.4,2,4.4,4.4,4.4h88.3c2.4,0,4.4,2,4.4,4.4v20.6c0,2.4-2,4.4-4.4,4.4h-117.7c-2.4,0-4.4-2-4.4-4.4v-160.5c0-2.4,2-4.4,4.4-4.4h0Z"/>
      <path class="cls-1" d="M478.1,223.7v81.8c-.6,15.7-4.5,29.3-11.9,40.5-7.9,11.1-19.2,21-33.2,29.9-1,.6-.9,2,0,2.6,14,8.7,24.3,17.2,32.2,25.7,1.8,1.9.4,5.2-2.2,5.2h-37.4c-12.3-10.3-21-15.4-26.1-15.2-5.1-.2-13.9,5-26.1,15.2h-37.4c-2.7,0-4.1-3.2-2.2-5.2,7.9-8.4,18.3-17,32.2-25.7,1-.6,1-2,0-2.6-13.9-8.9-25.3-18.8-33.2-29.9-7.4-11.2-11.3-24.8-11.8-40.5v-81.8c0-2.4,1.9-4.4,4.3-4.4h20.7c2.4,0,4.4,2,4.4,4.4v83c.3,8.5,3.3,16.4,8.4,23.9,4,5.8,9,10.9,14.7,15.1,11.1,8.2,20.6,14.2,26.1,14.6,5.5-.4,15-6.4,26.1-14.6,5.7-4.2,10.7-9.3,14.7-15.1,5.1-7.4,8.1-15.3,8.4-23.9v-83c0-2.4,2-4.4,4.4-4.4h20.7c2.4,0,4.4,2,4.4,4.4h0Z"/>
      <path class="cls-1" d="M44.7,354.5v-130.8c0-2.4-2-4.4-4.4-4.4h-22c-2.4,0-4.4,2-4.4,4.4v161.6c0,2.4,2,4.4,4.4,4.4h114.6c2.4,0,4.4-2,4.4-4.4v-22c0-2.4-2-4.4-4.4-4.4H49.1c-2.4,0-4.4-2-4.4-4.4h0Z"/>
    </g>
  </g>
  <path class="cls-2" d="M617.1,172.6l-21.8,16.8c-3.3,2.6-8.2.2-8.2-4v-11.8c0-2.2-1.8-4-4-4h-34.4c-12.9,0-23-11.2-21.7-24l11.8-113.5c1.4-13.6,12.7-24.1,26.4-24.6L771.8.7c13.3-.4,24.5,10.1,24.9,23.4l3.3,126.1c.4,13.8-11,25.1-24.8,24.7l-151.8-4.5c-2.3,0-4.5.7-6.3,2.1h0Z"/>
  <rect class="cls-4" x="680.6" y="59.7" width="17.7" height="70.3" rx="8.9" ry="8.9"/>
  <path class="cls-4" d="M750.3,59.7h9c2.4,0,4.4,2,4.4,4.4v61.9c0,2.2-1.8,4-4,4h-6.1c-1.7,0-3.2-.9-4.1-2.3l-25.5-40.6v38.5c0,2.5-2,4.5-4.5,4.5h-7.4c-2.5,0-4.5-2-4.5-4.5v-61.5c0-2.4,2-4.4,4.4-4.4h5.3c2,0,3.9,1,5,2.8l23.9,38.7v-37.2c0-2.3,1.8-4.2,4.1-4.2h0Z"/>
  <path class="cls-4" d="M624.9,59.7h6.4c2.7,0,4.8,2.2,4.8,4.8v21.5c0,1.7,1.3,3,3,3h2c1.2,0,2.2-.7,2.7-1.7l11.8-24.9c.8-1.7,2.5-2.7,4.4-2.7h7.6c3.7,0,6,4,4.2,7.2l-14.4,25.6c-.8,1.5-.8,3.3,0,4.8l14.8,25.6c1.9,3.2-.5,7.2-4.2,7.2h-6.9c-1.8,0-3.4-1-4.2-2.5l-13.6-24.9c-.5-1-1.5-1.6-2.6-1.6h-1.5c-1.7,0-3,1.3-3,3v21.2c0,2.7-2.2,4.8-4.8,4.8h-6.5c-2.7,0-4.8-2.2-4.8-4.8v-60.7c0-2.7,2.2-4.8,4.8-4.8h0Z"/>
  <path class="cls-4" d="M581.2,102.2h11.6c2.6,0,4.6,2.1,4.6,4.6v2.5c0,2.6-2.1,4.6-4.6,4.6h-24.5c-1.7,0-3.1,1.4-3.1,3.1v8.1c0,1.7,1.4,3.1,3,3.1l25.6,1.4c9.8.2,17.8-7.6,17.8-17.4v-6.9c0-9.6-7.7-17.3-17.3-17.4h-10.8c-2.5,0-4.5-2.1-4.5-4.6v-4c0-2.5,2-4.5,4.5-4.5l22,.2c1.5,0,2.7-1.2,2.7-2.7v-8c0-1.5-1.2-2.7-2.7-2.7l-24.4-1.4c-9.4,0-17.1,7.7-17.1,17.1v7.6c0,9.4,7.7,17.1,17.1,17.1h0Z"/>
</svg>