<?xml version="1.0" encoding="UTF-8"?>
<svg id="Layer_1" data-name="Layer 1" xmlns="http://www.w3.org/2000/svg" xmlns:xlink="http://www.w3.org/1999/xlink" viewBox="0 0 702 272">
  <defs>
    <style>
      .cls-1 {
        fill: url(#linear-gradient);
      }

      .cls-1, .cls-2, .cls-3 {
        stroke-width: 0px;
      }

      .cls-4 {
        filter: url(#drop-shadow-4);
      }

      .cls-5 {
        filter: url(#drop-shadow-5);
      }

      .cls-2 {
        fill: url(#radial-gradient);
      }

      .cls-3 {
        fill: #fff;
      }
    </style>
    <filter id="drop-shadow-4" filterUnits="userSpaceOnUse">
      <feOffset dx="6.9987402" dy="7"/>
      <feGaussianBlur result="blur" stdDeviation="5.000315"/>
      <feFlood flood-color="#221f1f" flood-opacity=".2"/>
      <feComposite in2="blur" operator="in"/>
      <feComposite in="SourceGraphic"/>
    </filter>
    <radialGradient id="radial-gradient" cx="351" cy="136" fx="351" fy="136" r="355.9711995" gradientTransform="translate(18.6768915 -7.9369344) rotate(9.1607621) scale(1 .6558349)" gradientUnits="userSpaceOnUse">
      <stop offset="0" stop-color="#347b9a"/>
      <stop offset=".2237144" stop-color="#2e7390"/>
      <stop offset=".592439" stop-color="#1d5e77"/>
      <stop offset=".9887365" stop-color="#084356"/>
    </radialGradient>
    <linearGradient id="linear-gradient" x1="1.0000697" y1="135.9999711" x2="700.9999416" y2="135.9999711" gradientUnits="userSpaceOnUse">
      <stop offset=".0055866" stop-color="#59595c"/>
      <stop offset=".2122905" stop-color="#cfd1d2"/>
      <stop offset=".3501516" stop-color="#98999b"/>
      <stop offset=".424581" stop-color="#808083"/>
      <stop offset=".7094972" stop-color="#a6a7aa"/>
      <stop offset=".7411809" stop-color="#959699"/>
      <stop offset=".8036146" stop-color="#7b7b7e"/>
      <stop offset=".8671901" stop-color="#68686b"/>
      <stop offset=".9320178" stop-color="#5c5c5f"/>
      <stop offset="1" stop-color="#59595c"/>
    </linearGradient>
    <filter id="drop-shadow-5" filterUnits="userSpaceOnUse">
      <feOffset dx="2.8346457" dy="2.8346457"/>
      <feGaussianBlur result="blur-2" stdDeviation="1.4173228"/>
      <feFlood flood-color="#221f1f" flood-opacity=".5"/>
      <feComposite in2="blur-2" operator="in"/>
      <feComposite in="SourceGraphic"/>
    </filter>
  </defs>
  <g class="cls-4">
    <path class="cls-2" d="M699.2146819,148.8094025l-25.2863366,88.8961035c-5.7213228,20.1137598-24.0941922,33.9893255-45.0058365,33.9893255H140.3951243c-13.536423,0-26.4095263-5.8621451-35.2960876-16.0731086L1,136.0083622,105.098886,16.3804314C113.9854784,6.1681736,126.8594286.3051685,140.3968484.3051685h488.5244688c20.912207,0,39.2854273,13.8762985,45.0062517,33.9907851l25.2875281,88.9112503c2.3800116,8.3681493,2.3798679,17.2341266-.0004152,25.6021987Z"/>
    <path class="cls-1" d="M628.9212611,12.9052446c15.2041504,0,28.7276855,10.2135742,32.8870117,24.8376953l25.2875,88.9112793c1.7404297,6.1191895,1.7404297,12.5883789-.0006836,18.7079102l-25.285791,88.8958984c-4.159668,14.6234375-17.6832031,24.8366699-32.8866699,24.8366699H140.3950892c-9.8950195,0-19.295459-4.2806641-25.7913086-11.7448242L17.7029994,136.0078325,114.6037807,24.651436c6.4961914-7.4648438,15.8973145-11.7461914,25.7930176-11.7461914h488.5244629M628.9212611.3052446H140.3967982c-13.537207,0-26.4113281,5.8628418-35.2980469,16.0750488L1.0000697,136.0085161l104.0990234,119.6131836c8.886377,10.2108398,21.7594727,16.072998,35.2959961,16.072998h488.5275391c20.9114746,0,39.2844238-13.8755859,45.0057617-33.9893066l25.2861328-88.8958984c2.3802734-8.3682129,2.3806152-17.234082.0006836-25.6022949l-25.2875-88.9112793c-5.7209961-20.1144043-24.0942871-33.9906738-45.0064453-33.9906738h0Z"/>
  </g>
  <g class="cls-5">
    <path class="cls-3" d="M253.7793507,111.9400377c-.0876933.4384667-.4165434.6577-.9865501.6577h-5.2616004c-.6138534,0-1.0632817-.2192333-1.3482851-.6577l-14.074781-23.1188874-4.7683253,22.4290332c-.0876933.39462-.2689262.7176238-.5422372.9690114-.2747725.2528491-.5868146.3785429-.937588.3785429h-3.7160053c-.3507734,0-.6138534-.1256938-.7892401-.3785429-.1753867-.2513876-.2192333-.5743914-.13154-.9690114l10.0628107-47.421635c.0876933-.3493118.2850034-.6518538.59193-.9032414.3069267-.2528491.6357767-.3785429.9865501-.3785429h3.5515803c.3507734,0,.624815.1154629.8221251.3449271.19731.2309258.2521184.5422372.164425.9368572l-4.6039003,21.7713331,24.1704767-22.4290332c.5042367-.4150818.9975117-.6240843,1.4798251-.6240843h4.8669804c.6138534,0,.8659717.2528491.7563551.7556243-.06577.26308-.2082717.4837749-.427505.6577l-25.1241418,22.9215774,15.1271011,24.2369775c.1753867.2192333.2192333.4925443.13154.8213943Z"/>
    <path class="cls-3" d="M290.0580854,111.2501834c-.0876933.3726967-.3018112.6898543-.6416229.9529343s-.6737772.39462-1.0026272.39462h-3.2227302c-.3726967,0-.6635463-.13154-.8710872-.39462-.2090025-.26308-.2689262-.5802376-.1812329-.9529343l4.7025553-22.1659532c.6796234-3.243192.5429679-5.5246804-.4114279-6.8400805-.9529343-1.3154001-2.6030306-1.9731001-4.9488275-1.9731001-1.2277068,0-2.7842635.1593096-4.6696703.4779287-1.8854068.3171576-3.5515803.7833938-4.9985204,1.3972472l-6.1823804,29.1039579c-.0876933.3507734-.295965.6620847-.624815.9368572-.32885.2733109-.6686617.4106971-1.0194351.4106971h-3.2885002c-.32885,0-.5977763-.13154-.8053172-.39462-.2090025-.26308-.2689262-.5802376-.1812329-.9529343l10.1943507-47.947795c.06577-.39462.2470029-.7176238.5422372-.9690114.2966958-.2528491.6306613-.3785429,1.003358-.3785429h3.3542702c.39462,0,.6796234.1256938.8550101.3785429.1753867.2513876.230195.5743914.164425.9690114l-2.9596502,13.8789326c1.7100201-.7015467,3.5238107-1.2277068,5.4428333-1.5784801,1.917561-.3507734,3.677274-.52616,5.2776775-.52616,2.4334902,0,4.4613987.486698,6.0837254,1.4630172,1.6223268.9748576,2.7075319,2.5211835,3.2556152,4.6360546.5480834,2.1163326.493275,4.7515175-.164425,7.9084777l-4.7025553,22.1659532Z"/>
    <path class="cls-3" d="M325.4160399,110.0327075c-.1753867.8330867-.6138534,1.3270925-1.3154001,1.4805559-1.8634835.5042367-3.7152745.8871643-5.5568346,1.1502443-1.8415601.26308-3.8921227.39462-6.1502262.39462-5.239677,0-8.8190269-.8827796-10.7373187-2.6468773-1.9182918-1.7655592-2.460529-4.5878232-1.6274422-8.4682535l.098655-.59193c.5480834-2.5211835,1.5236718-4.581977,2.9267652-6.1823804,1.4030934-1.6004034,3.3761936-2.7901098,5.9193004-3.5676574,2.5431068-.7790092,5.7775295-1.167783,9.7018065-1.167783h4.9985204l.5583143-2.6965702c.6138534-2.8061869.4983905-4.7515175-.3449271-5.8374533-.8447792-1.0844743-2.5927997-1.628173-5.2455233-1.628173-2.0388701,0-3.8205065.1373862-5.3441783.4121587-1.5236718.2733109-3.2936157.6957005-5.3105625,1.2657072-.5042367.1534633-.8827796.1432325-1.134898-.0321542s-.3449271-.4501591-.2791571-.8228558l.559045-2.6308002c.13154-.5480834.5371217-.9543958,1.2167451-1.2174759,1.1400134-.4589285,2.7733019-.9368572,4.8998654-1.4294014,2.1265635-.4940058,4.2867428-.7395472,6.4790762-.7395472,8.7474106,0,12.2215284,4.2195112,10.423815,12.6599951l-4.7354403,22.2960316ZM319.9907453,107.8301431l2.7623402-13.0896925h-4.9985204c-2.1265635,0-3.8482761.1154629-5.1636761.3463887-1.3154001.2294642-2.4064514.6080072-3.2716923,1.1341672-.8667025.52616-1.5463259,1.1897063-2.0388701,1.9891773-.4940058.8009325-.871818,1.825483-1.134898,3.0751131l-.13154.59193c-.32885,1.5784801-.3507734,2.8441873-.06577,3.7985832.2850034.9529343,1.0245505,1.6500963,2.2193723,2.0871015,1.1948218.4399283,2.9326114.6577,5.2126383.6577.8988567,0,1.7699439-.026308,2.6147231-.0818471.8433176-.0540776,1.6120959-.1256938,2.3019502-.2133871.6913158-.0876933,1.2554763-.1856176,1.693943-.2952342ZM333.3084405,60.6072797c-.0438467.1753867-.1753867.3507734-.39462.52616l-9.4051107,8.4828691c-.5042367.4399283-.8433176.7190854-1.0187043.8389329-.1753867.1213091-.4282358.1812329-.7570858.1812329h-3.6495045c-.39462,0-.5597758-.1534633-.4940058-.46039.06577-.2850034.19731-.5144676.39462-.6913158l8.3864064-8.351329c.46039-.4384667.7892401-.7132392.9865501-.8228558s.4823134-.1651558.8550101-.1651558h4.4387445c.5042367,0,.7234701.1549249.6577.4618516Z"/>
    <path class="cls-3" d="M334.3022983,111.2501834l6.8722347-32.4582281c.19731-.8988567.7234701-1.4352477,1.5784801-1.6106343,3.0692669-.7453934,5.7059133-1.2832459,7.9099392-1.6120959,2.2025644-.32885,4.213665-.4925443,6.0333018-.4925443,1.5565568,0,2.9976507.223618,4.3247432.6737772,1.325631.4486976,2.2858731,1.1239363,2.8778031,2.0213315,4.2969736-1.8415601,8.2212506-2.7623402,11.7728308-2.7623402,2.1484868,0,3.9462003.39462,5.3931404,1.1838601s2.4437211,2.1046402,2.9918044,3.9462003c.5480834,1.8415601.5042367,4.2648194-.13154,7.2683163l-5.0642904,23.8423575c-.0876933.39462-.2908496.7176238-.6080072.9690114-.3186191.2528491-.6635463.3785429-1.036243.3785429h-3.2227302c-.32885,0-.6080072-.13154-.8374714-.39462-.2309258-.26308-.302542-.5802376-.2148487-.9529343l5.0642904-23.8423575c.5480834-2.6527235.4004663-4.516207-.4428514-5.5904504-.8447792-1.0742434-2.2317955-1.6106343-4.161049-1.6106343-2.1484868,0-4.8991346.6021609-8.2534048,1.8079444.06577,1.5565568-.0993858,3.3104236-.4940058,5.2616004l-5.0964446,23.9738975c-.0876933.3507734-.2747725.6620847-.5597758.9368572-.2850034.2733109-.6021609.4106971-.9529343.4106971h-3.585196c-.32885,0-.5743914-.13154-.7395472-.39462-.1636942-.26308-.2031562-.5802376-.1154629-.9529343l5.0979061-23.9738975c.39462-1.8854068.5144676-3.348424.3610042-4.3905132-.1534633-1.0406276-.5583143-1.7480206-1.2160143-2.1207173s-1.6004034-.5583143-2.8281102-.5583143c-2.6088769,0-5.4267562.3829276-8.4521764,1.1502443l-6.3460747,29.8931979c-.0876933.39462-.2689262.7176238-.5422372.9690114-.2747725.2528491-.5977763.3785429-.970473.3785429h-3.585196c-.3069267,0-.5422372-.13154-.7059314-.39462-.1651558-.26308-.2031562-.5802376-.1154629-.9529343Z"/>
    <path class="cls-3" d="M437.869594,96.5820108c-1.1400134,5.3288319-3.2446536,9.4065722-6.3139205,12.2332209-3.0692669,2.8295718-7.0256981,4.2428961-11.8707551,4.2428961-2.4773368,0-5.0540595-.2411567-7.7287063-.7234701l-2.5650302,12.1674509c-.0876933.3507734-.2850034.6518538-.59193.904703-.3069267.2513876-.6357767.3770814-.9865501.3770814h-3.4200402c-.3726967,0-.6416229-.1198476-.8053172-.3610042-.1651558-.2411567-.2031562-.5480834-.1154629-.9207801l9.8333465-46.3356991c.1096167-.4589285.2850034-.7994709.52616-1.0187043s.6460076-.39462,1.2160143-.52616c1.1838601-.2850034,2.532876-.5480834,4.0455861-.7892401,1.5127101-.2411567,2.9859582-.4282358,4.4226674-.5597758,1.4352477-.13154,2.8441873-.1958485,4.2253574-.1958485,3.2665769,0,5.8535304.6737772,7.7608606,2.0213315,1.9073301,1.3490159,3.1291907,3.2724231,3.6670432,5.7716833.5363909,2.4992602.4545438,5.4486795-.2470029,8.8453349l-1.0523201,4.8669804ZM431.9502936,96.5820108l1.0523201-4.8669804c.5042367-2.453952.6635463-4.5366688.4764671-6.2466889-.1856176-1.7100201-.8272405-3.0371127-1.9234072-3.9798161-1.0961667-.9427034-2.7184935-1.4133243-4.8669804-1.4133243-2.7404169,0-5.4033713.2192333-7.9903248.6577l-5.6898362,26.6690061c2.2800268.46039,4.8567495.6913158,7.7287063.6913158,3.1569602,0,5.6123737-.9646267,7.3662405-2.8938802,1.7538668-1.9292535,3.0356511-4.8026719,3.8468145-8.6173322Z"/>
    <path class="cls-3" d="M471.2222942,111.2501834c-.0876933.3726967-.302542.6898543-.6416229.9529343-.3405425.26308-.6737772.39462-1.0026272.39462h-3.2227302c-.3726967,0-.6635463-.13154-.8710872-.39462-.2090025-.26308-.2689262-.5802376-.1812329-.9529343l4.7018246-22.1659532c.6796234-3.243192.5436987-5.5246804-.4106971-6.8400805-.9529343-1.3154001-2.6030306-1.9731001-4.9488275-1.9731001-1.2277068,0-2.7842635.1593096-4.6696703.4779287-1.8854068.3171576-3.5515803.7833938-4.9985204,1.3972472l-6.1823804,29.1039579c-.0876933.3507734-.2966958.6620847-.6255458.9368572-.32885.2733109-.6679309.4106971-1.0187043.4106971h-3.2885002c-.32885,0-.5977763-.13154-.8053172-.39462-.2090025-.26308-.2689262-.5802376-.1812329-.9529343l10.1943507-47.947795c.06577-.39462.2470029-.7176238.5422372-.9690114.2966958-.2528491.6299305-.3785429,1.0026272-.3785429h3.3542702c.39462,0,.6796234.1256938.8550101.3785429.1753867.2513876.2309258.5743914.1651558.9690114l-2.9596502,13.8789326c1.7100201-.7015467,3.5238107-1.2277068,5.4428333-1.5784801,1.917561-.3507734,3.677274-.52616,5.2776775-.52616,2.4334902,0,4.4606679.486698,6.0829947,1.4630172,1.6223268.9748576,2.7082626,2.5211835,3.256346,4.6360546.5480834,2.1163326.4925443,4.7515175-.1651558,7.9084777l-4.7018246,22.1659532Z"/>
    <path class="cls-3" d="M506.5802487,110.0327075c-.1753867.8330867-.6138534,1.3270925-1.3154001,1.4805559-1.8634835.5042367-3.716736.8871643-5.5582962,1.1502443-1.8415601.26308-3.8906612.39462-6.1487647.39462-5.239677,0-8.8190269-.8827796-10.7380494-2.6468773-1.917561-1.7655592-2.4597982-4.5878232-1.6267115-8.4682535l.0979242-.59193c.5480834-2.5211835,1.5244026-4.581977,2.927496-6.1823804,1.4030934-1.6004034,3.3761936-2.7901098,5.9193004-3.5676574,2.5431068-.7790092,5.776068-1.167783,9.7003449-1.167783h4.9985204l.5597758-2.6965702c.6138534-2.8061869.4983905-4.7515175-.3463887-5.8374533-.8433176-1.0844743-2.5913382-1.628173-5.2440617-1.628173-2.0388701,0-3.8205065.1373862-5.3449091.4121587-1.522941.2733109-3.2928849.6957005-5.3098317,1.2657072-.5042367.1534633-.8827796.1432325-1.1356287-.0321542-.2513876-.1753867-.3449271-.4501591-.2791571-.8228558l.5597758-2.6308002c.13154-.5480834.5363909-.9543958,1.2160143-1.2174759,1.1400134-.4589285,2.7740326-.9368572,4.9005961-1.4294014,2.1265635-.4940058,4.2852812-.7395472,6.4776147-.7395472,8.7474106,0,12.22299,4.2195112,10.4252765,12.6599951l-4.7354403,22.2960316ZM501.1534926,107.8301431l2.7623402-13.0896925h-4.9985204c-2.1265635,0-3.8468145.1154629-5.1622146.3463887-1.3154001.2294642-2.4071822.6080072-3.2724231,1.1341672-.8667025.52616-1.5463259,1.1897063-2.0388701,1.9891773-.4940058.8009325-.8710872,1.825483-1.1341672,3.0751131l-.13154.59193c-.32885,1.5784801-.3507734,2.8441873-.06577,3.7985832.2850034.9529343,1.0245505,1.6500963,2.2186415,2.0871015,1.1955525.4399283,2.9333422.6577,5.213369.6577.8988567,0,1.7699439-.026308,2.6132615-.0818471.8447792-.0540776,1.6120959-.1256938,2.3019502-.2133871.6913158-.0876933,1.2554763-.1856176,1.693943-.2952342ZM514.4726493,60.6072797c-.0438467.1753867-.1753867.3507734-.39462.52616l-9.4051107,8.4828691c-.5042367.4399283-.8447792.7190854-1.0201659.8389329-.1753867.1213091-.4267743.1812329-.7556243.1812329h-3.650966c-.39462,0-.5583143-.1534633-.4925443-.46039.06577-.2850034.19731-.5144676.39462-.6913158l8.3849448-8.351329c.46039-.4384667.7892401-.7132392.9865501-.8228558s.4823134-.1651558.8550101-.1651558h4.4402061c.5042367,0,.7234701.1549249.6577.4618516Z"/>
    <path class="cls-3" d="M122.6536923,149.9755622c-.0876933.39462-.2850034.6957005-.59193.9032414-.3069267.2090025-.6467384.3127729-1.0194351.3127729h-11.7728308l-8.6816406,40.8767887c-.0876933.39462-.2908496.7176238-.6080072.9697422-.3186191.2528491-.6635463.3785429-1.036243.3785429h-6.6756555c-.32885,0-.6087379-.13154-.8382022-.39462-.2309258-.2638108-.3018112-.5809684-.2141179-.9536651l8.6816406-40.8767887h-11.7728308c-.3726967,0-.6686617-.1096167-.8878951-.32885s-.2850034-.5144676-.19731-.8871643l1.1180901-5.3288319c.06577-.3493118.2521184-.6518538.559045-.9032414.3069267-.2528491.6577-.3785429,1.0523201-.3785429h32.9178874c.39462,0,.6957005.1154629.904703.3449271.2075409.2309258.2681955.5422372.1805021.9368572l-1.1180901,5.3288319Z"/>
    <path class="cls-3" d="M127.3628246,192.0011337c-.06577.39462-.2579646.7293163-.5758529,1.0048195-.3178884.2733109-.6737772.4106971-1.0683972.4106971h-6.1823804c-.39462,0-.6854696-.1476171-.8710872-.4450437-.1870791-.2952342-.2470029-.618238-.1812329-.970473l7.4977805-35.2191068c.0876933-.3726967.2850034-.6913158.59193-.9543958s.6577-.39462,1.0523201-.39462h6.1823804c.4165434,0,.7176238.1213091.904703.3624658.1856176.2411567.2353105.5700067.1476171.9865501l-7.4977805,35.2191068ZM136.7021653,149.0211663c-.0876933.39462-.2908496.7176238-.6080072.970473-.3186191.2513876-.6635463.3785429-1.036243.3785429h-6.5112305c-.3507734,0-.6467384-.1271553-.8878951-.3785429-.2411567-.2528491-.3178884-.5758529-.230195-.970473l1.2496301-5.9193004c.0876933-.3507734.3069267-.6635463.6577-.9368572.3507734-.2747725.7015467-.4121587,1.0523201-.4121587h6.5112305c.3726967,0,.6628155.13154.8710872.39462s.2689262.5816992.1812329.9543958l-1.2496301,5.9193004Z"/>
    <path class="cls-3" d="M152.5593135,193.9428103c-2.8281102,0-5.4260254-.5203138-7.7937456-1.5631338-2.3677202-1.0406276-4.1435103-2.822264-5.3273704-5.3434475-1.1838601-2.5211835-1.3373234-5.8535304-.46039-9.9970407l1.0523201-4.9649046c.7453934-3.4419636,2.022793-6.4673838,3.8307374-9.0762607,1.8094059-2.6088769,4.0777403-4.5995157,6.8079263-5.9689933,2.7287244-1.3709392,5.7819142-2.0549473,9.1581078-2.0549473s6.1217259.7220085,8.2373277,2.1689486c2.1156018,1.4469401,3.519426,3.453656,4.2092803,6.0186862.6913158,2.5650302.6745079,5.5363728-.0489621,8.9125664l-.7892401,3.7474287c-.2411567,1.141475-.8111634,1.7100201-1.7100201,1.7100201h-21.9671816l-.032885.1987716c-.5480834,2.5431068-.3566196,4.6039003.5758529,6.1823804.931011,1.5784801,3.118229,2.3677202,6.5601926,2.3677202,1.8854068,0,3.9681236-.1929253,6.2481504-.5758529,2.2800268-.3843891,4.1654336-.7950863,5.6562204-1.233553,1.0084734-.2850034,1.4030934.06577,1.1838601,1.0523201l-.8221251,3.9783545c-.1096167.4399283-.3018112.7790092-.5758529,1.0201659s-.6847388.4823134-1.2328222.7234701c-1.5346334.7234701-3.4638869,1.3534005-5.7877604,1.8919838-2.3238735.5363909-4.647747.8053172-6.9716205.8053172ZM173.1782099,150.7311865c-.06577.3069267-.3069267.46039-.7234701.46039h-5.5904504c-.2411567,0-.4333513-.0321542-.5758529-.0993858-.1425017-.0643084-.2791571-.1739251-.4106971-.3273885s-.2521184-.3069267-.361735-.4618516l-3.6173503-5.4574488-5.9521854,5.4574488c-.39462.3522349-.6964313.5875454-.904703.7073929-.2082717.1213091-.5093521.1812329-.9039722.1812329h-5.5904504c-.39462,0-.559045-.1534633-.493275-.46039.06577-.2850034.2082717-.5144676.427505-.6913158l7.8924006-8.088249c.4823134-.4384667.8272405-.7132392,1.0355122-.8228558s.5210446-.1651558.937588-.1651558h8.7474106c.4165434,0,.7125084.0613853.8878951.1812329.1753867.1213091.39462.3902354.6577.8067787l4.4394753,8.088249c.13154.1768482.164425.4063125.098655.6913158ZM163.4771342,171.1856579l.06577-.26308c.5700067-2.7184935.3668505-4.779287-.6087379-6.1823804-.9755884-1.4030934-2.559184-2.1046402-4.7515175-2.1046402-1.4030934,0-2.7075319.3010805-3.9133153.904703-1.2057834.6021609-2.2471418,1.5185563-3.1240752,2.7462631-.8769334,1.2277068-1.5127101,2.7725711-1.9073301,4.6360546l-.06577.26308h14.304976ZM178.9002004,143.1018659c-.06577.3069267-.3069267.46039-.7234701.46039h-5.7877604c-.2411567,0-.4384667-.0321542-.59193-.0993858-.1534633-.0643084-.2908496-.1739251-.4106971-.3273885-.1213091-.1534633-.2470029-.3069267-.3785429-.4618516l-6.2152654-8.351329c-.1534633-.1753867-.2082717-.3507734-.164425-.52616.06577-.3069267.3507734-.4618516.8550101-.4618516h7.1360455c.4165434,0,.7066622.0613853.871818.1812329.1636942.1213091.3778121.3902354.6408922.8067787l4.6367853,8.088249c.13154.1768482.1753867.4063125.13154.6913158Z"/>
    <path class="cls-3" d="M204.8201592,192.0011337c-.06577.39462-.2579646.7293163-.5758529,1.0048195-.3178884.2733109-.6737772.4106971-1.0683972.4106971h-6.1823804c-.39462,0-.6854696-.1476171-.8710872-.4450437-.1870791-.2952342-.2470029-.618238-.1812329-.970473l4.7354403-22.2302616c.39462-1.8181752.5151984-3.243192.361735-4.2735888-.1534633-1.0303967-.6467384-1.7874826-1.4798251-2.2697959s-2.1046402-.7234701-3.8146603-.7234701c-1.3154001,0-2.8171485.2192333-4.5052453.6577l-6.1494954,28.8394163c-.06577.39462-.2579646.7293163-.5758529,1.0048195-.3178884.2733109-.6737772.4106971-1.0683972.4106971h-6.1823804c-.39462,0-.6854696-.1476171-.8710872-.4450437-.1870791-.2952342-.2470029-.618238-.1812329-.970473l7.1689305-33.6742424c.13154-.5904685.6796234-1.0406276,1.6442501-1.3475543,1.8415601-.59193,3.9842007-1.0742434,6.4293834-1.4469401,2.4437211-.3726967,4.5432458-.5583143,6.2971126-.5583143,4.6039003,0,7.8814389.865241,9.8326157,2.5971844,1.8415601-.7453934,3.8146603-1.365093,5.9193004-1.8576372,2.1046402-.4940058,4.1106253-.7395472,6.0179554-.7395472,4.2750503,0,7.2456622,1.1838601,8.9118356,3.5515803,1.6661735,2.3677202,1.9621385,6.0946871.8878951,11.1809008l-4.7683253,22.29457c-.06577.39462-.2579646.7293163-.5758529,1.0048195-.3178884.2733109-.6737772.4106971-1.0683972.4106971h-6.1823804c-.39462,0-.6854696-.1476171-.8710872-.4450437-.1870791-.2952342-.2470029-.618238-.1812329-.970473l4.7354403-22.2302616c.39462-1.7962519.5312755-3.216884.4106971-4.2575116-.1205783-1.0420892-.5422372-1.8035597-1.2657072-2.2858731s-1.8086751-.7234701-3.2556152-.7234701c-1.8196368,0-3.8585069.4267743-6.1166104,1.2832459.0438467,1.8634835-.1534633,3.8365836-.59193,5.9193004l-4.7683253,22.29457Z"/>
    <path class="cls-3" d="M283.4284689,192.0011337c-.06577.3522349-.2689262.6752387-.6080072.970473-.3405425.2974266-.6854696.4450437-1.036243.4450437h-6.2152654c-.3726967,0-.6525846-.1476171-.8382022-.4450437-.1870791-.2952342-.2470029-.618238-.1812329-.970473l4.7354403-22.2302616c.3726967-1.7743286.4655055-3.1891145.2791571-4.2414345s-.7176238-1.8196368-1.5945572-2.3019502c-.8769334-.4823134-2.1704102-.7234701-3.8804303-.7234701-2.0607935,0-4.318897.2411567-6.7743105.7234701l-6.1166104,28.7736463c-.06577.39462-.2579646.7293163-.5758529,1.0048195-.3178884.2733109-.6737772.4106971-1.0683972.4106971h-6.1823804c-.39462,0-.6854696-.1476171-.8710872-.4450437-.1870791-.2952342-.2470029-.618238-.1812329-.970473l7.1689305-33.6742424c.13154-.6577.6796234-1.1063976,1.6442501-1.3475543,2.3677202-.6138534,4.877942-1.102013,7.5306655-1.4630172,2.6527235-.3624658,5.0862137-.5422372,7.3004705-.5422372,5.2835237,0,8.9118356,1.1663214,10.8849358,3.5018874,1.9731001,2.3341044,2.4225285,6.07861,1.3482851,11.2305937l-4.7683253,22.29457Z"/>
    <path class="cls-3" d="M312.505388,162.3724773c-3.5296569,0-7.2347005.5816992-11.1151308,1.7421743-1.0084734.26308-1.4030934-.0979242-1.1838601-1.0844743l.8550101-4.1098945c.0876933-.4165434.2681955-.7570858.5429679-1.0201659.2733109-.26308.6957005-.5042367,1.2657072-.7234701,1.4907868-.59193,3.2994619-1.1063976,5.4260254-1.5448643,2.1265635-.4384667,4.3956286-.6577,6.8071955-.6577,2.8938802,0,5.2674466.4706209,7.1192376,1.4133243,1.8532526.9427034,3.124806,2.3896435,3.8146603,4.3408203.6913158,1.9511768.7410087,4.318897.1490787,7.1031605l-4.9005961,22.9537317c-.0876933.4823134-.2075409.8213943-.3610042,1.0201659-.1534633.1958485-.4501591.3507734-.8886258.4589285-2.1046402.5495449-4.121587.9668191-6.0508404,1.2518224-1.9292535.2835418-4.253127.4267743-6.9716205.4267743-3.6831203,0-6.6098855-.3843891-8.7802956-1.1524366-2.1704102-.7658552-3.6392736-1.9774848-4.4065903-3.6334274-.7673167-1.654481-.8659717-3.8307374-.295965-6.5273076l.06577-.32885c.4384667-1.9950235,1.0852051-3.6933512,1.9402151-5.0964446.8550101-1.4030934,2.0111006-2.5869535,3.4690024-3.5515803s3.2395381-1.6837121,5.3441783-2.154333c2.1046402-.4720825,4.6367853-.7073929,7.5964355-.7073929h4.7354403l.6255458-2.9596502c.4384667-2.1046402.2733109-3.5398878-.4940058-4.3072045s-2.2025644-1.1517059-4.3079353-1.1517059ZM313.294628,186.6752248l2.1053709-9.9648865h-4.7361711c-2.0388701,0-3.5844653.1812329-4.6367853.5422372-1.0523201.3624658-1.8145214.9207801-2.2858731,1.6778659-.4713517.7556243-.8491638,1.8137906-1.1341672,3.1730373l-.098655.39462c-.26308,1.2715534-.26308,2.2420264,0,2.9099573.26308.6693925.8440484,1.1400134,1.7429051,1.4147859.8988567.2733109,2.2909885.4106971,4.1763953.4106971,1.9073301,0,3.5296569-.1856176,4.8669804-.5583143ZM330.0988642,142.0159301c-.0219233.0453082-.0380004.0833087-.0496929.1154629-.0102309.0336158-.0380004.0833087-.0818471.1476171-1.2057834,2.8295718-2.9918044,5.1636761-5.3595246,7.0052363s-5.239677,2.7623402-8.6158706,2.7623402c-3.3769244,0-5.8542612-.904703-7.4327413-2.7126473-1.5784801-1.8094059-2.3896435-4.161049-2.4334902-7.0549292.0219233-.0862318.0270388-.1476171.0168079-.1797713-.0116924-.0336158-.0168079-.0599238-.0168079-.0833087.06577-.3054651.32885-.4589285.7892401-.4589285h5.0314054c.46039,0,.7015467.26308.7234701.7892401.1534633,2.9581887,1.6340192,4.4387445,4.4402061,4.4387445s4.9210579-1.4805559,6.3460747-4.4387445c.2411567-.52616.5816992-.7892401,1.0201659-.7892401h5.0642904c.4384667,0,.6240843.1534633.5583143.4589285Z"/>
    <path class="cls-3" d="M361.3790785,192.0011337c-.06577.3522349-.2689262.6752387-.6080072.970473-.3405425.2974266-.6854696.4450437-1.036243.4450437h-6.2145347c-.3726967,0-.6533154-.1476171-.8389329-.4450437-.1870791-.2952342-.2470029-.618238-.1812329-.970473l4.7354403-22.2302616c.3726967-1.7743286.4662363-3.1891145.2791571-4.2414345-.1856176-1.0523201-.7176238-1.8196368-1.5945572-2.3019502s-2.1704102-.7234701-3.8804303-.7234701c-2.0607935,0-4.318897.2411567-6.7743105.7234701l-6.1166104,28.7736463c-.06577.39462-.2572338.7293163-.5758529,1.0048195-.3171576.2733109-.6737772.4106971-1.0683972.4106971h-6.1823804c-.39462,0-.6854696-.1476171-.8710872-.4450437-.1870791-.2952342-.2470029-.618238-.1812329-.970473l7.1689305-33.6742424c.13154-.6577.6796234-1.1063976,1.6442501-1.3475543,2.3677202-.6138534,4.8786728-1.102013,7.5313963-1.4630172,2.6527235-.3624658,5.0862137-.5422372,7.3004705-.5422372,5.2835237,0,8.9111049,1.1663214,10.884205,3.5018874,1.9731001,2.3341044,2.4232593,6.07861,1.3490159,11.2305937l-4.7690561,22.29457Z"/>
    <path class="cls-3" d="M383.9776521,199.762725c1.7977135,0,3.1949607-.1753867,4.1932032-.52616.996781-.3507734,1.7421743-.9368572,2.2361802-1.7582515.4925443-.8228558.9149338-2.0666397,1.2657072-3.7328132l.0993858-.52616c-.5042367.0876933-1.5960188.2294642-3.2724231.4282358-1.6778659.1958485-2.7901098.2952342-3.3381931.2952342-3.5735036,0-6.4118447-.6679309-8.5164848-2.0059851-2.1046402-1.3373234-3.4814256-3.2782693-4.1274332-5.8213762-.6474692-2.5431068-.5977763-5.5685271.1476171-9.0762607l1.0859359-5.1636761c.7453934-3.506272,1.983331-6.5316922,3.7152745-9.0762607,1.7319435-2.5416453,3.9359694-4.4825912,6.6106163-5.8199146,2.6746469-1.3373234,5.7979913-2.0052544,9.3714949-2.0052544,1.2057834,0,2.3735664.0380004,3.5018874.1140013,1.1297825.0774625,2.1382559.1753867,3.0254202.2966958.8886258.1198476,2.0564088.3230038,3.5033489.6080072,1.4469401.2850034,2.4875677.52616,3.1233444.7234701.7015467.1753867,1.1458596.3887738,1.3314772.6416229.1870791.2513876.2250796.6416229.1154629,1.167783l-7.3983948,34.7594475c-.6796234,3.1569602-1.7874826,5.7439137-3.322116,7.7608606-1.5346334,2.0169468-3.5355031,3.4960411-6.0011475,4.4402061-2.467106.9412418-5.4209099,1.4133243-8.8628735,1.4133243-2.2800268,0-4.4782065-.2791571-6.5930776-.8389329-2.1163326-.5583143-3.8526607-1.1780139-5.2119075-1.8576372-.2411567-.1534633-.4662363-.3127729-.6752387-.4764671-.2075409-.1651558-.3332347-.3449271-.3770814-.5436987-.0438467-.1958485-.0336158-.4486976.0321542-.7556243l.7234701-3.4200402c.2192333-.9865501.7673167-1.3490159,1.6442501-1.0859359,1.7100201.4384667,3.6670432.8564716,5.8696075,1.2510916,2.2040259.39462,4.2370499.5904685,6.1005333.5904685ZM393.2848386,186.1490648l4.9649046-23.3161975c-.7892401-.1753867-1.7158663-.3171576-2.7784173-.4282358-1.0640125-.1081551-2.2522573-.1636942-3.5676574-.1636942-2.7184935,0-4.779287.8447792-6.1823804,2.5314144-1.4030934,1.6895583-2.4334902,4.0572785-3.0911902,7.1031605l-1.0859359,5.1636761c-.2850034,1.3811701-.4443129,2.664416-.4764671,3.8482761-.0336158,1.1838601.13154,2.2142568.4925443,3.0897287.3624658.878395.9646267,1.5463259,1.8094059,2.0067159.8433176.46039,1.957023.6913158,3.3381931.6913158.7892401,0,1.8415601-.0555391,3.1569602-.1651558s2.4554135-.2294642,3.4200402-.3610042Z"/>
    <path class="cls-3" d="M441.5395603,193.8770403c-2.2800268,0-4.253127-.3785429-5.9193004-1.134898-1.6661735-.7570858-2.953804-1.8474064-3.8628916-3.2724231-.9105492-1.4250168-1.4527863-3.124806-1.628173-5.0979061-.1753867-1.9731001.0102309-4.2516654.5583143-6.8400805l1.1180901-5.2616004c.7234701-3.3966554,1.8751759-6.3183051,3.453656-8.7634877,1.5784801-2.4437211,3.5895807-4.3232816,6.0347633-5.6386817,2.4437211-1.3154001,5.2221384-1.9731001,8.3352519-1.9731001,1.8415601,0,3.5238107.223618,5.0482133.6737772,1.522941.4486976,2.6366464.904703,3.3381931,1.3636314.3507734.2206949.5641605.4121587.6416229.5758529.0760009.1651558.0818471.4443129.0160771.8389329l-.52616,2.3998744c-.19731.944165-.7790092,1.2393992-1.7436359.8886258-2.6965702-1.0303967-5.3273704-1.5463259-7.8924006-1.5463259-5.6123737,0-9.2078007,3.7284285-10.7862808,11.1809008l-1.1180901,5.2616004c-.7892401,3.7065052-.6635463,6.4951534.3785429,8.3703293,1.0406276,1.8737144,2.9318807,2.8105715,5.6722975,2.8105715,2.5650302,0,5.4150637-.5144676,8.5501006-1.5448643,1.0961667-.3726967,1.5463259-.0876933,1.3490159.8550101l-.4940058,2.4334902c-.0876933.39462-.2192333.6796234-.39462.8550101s-.4706209.3624658-.8871643.5583143c-.9427034.4618516-2.2581035.9105492-3.9462003,1.3497467-1.6880968.4384667-3.453656.6577-5.2952162.6577Z"/>
    <path class="cls-3" d="M462.1328795,179.8015286l4.7018246-22.0651058c.06577-.3726967.2528491-.6913158.5597758-.9543958s.6577-.39462,1.0523201-.39462h3.2227302c.3726967,0,.6620847.13154.8710872.39462.2075409.26308.2791571.5816992.2133871.9543958l-4.7018246,22.0651058c-.7015467,3.3104236-.5875454,5.6459895.3449271,7.0052363.931011,1.3592468,2.7784173,2.0374086,5.5407575,2.0374086,1.0303967,0,2.4451826-.1198476,4.2428961-.3610042,1.7977135-.2411567,3.3645011-.52616,4.7018246-.8550101l6.3796905-29.8917364c.06577-.3507734.2528491-.6635463.5597758-.9383187.3069267-.2733109.6577-.4106971,1.0523201-.4106971h3.2885002c.3726967,0,.6518538.13154.8374714.39462.1870791.26308.2470029.5816992.1812329.9543958l-6.9058505,32.4567666c-.1753867.8330867-.7015467,1.3709392-1.5784801,1.6120959-5.6781437,1.3804393-10.4676616,2.0717551-14.3700153,2.0717551-3.3104236,0-5.8272224-.5480834-7.5474734-1.6449809-1.7217126-1.0961667-2.756494-2.6688006-3.1072673-4.7193632-.3507734-2.049101-.19731-4.6199774.46039-7.7111677ZM485.5791554,139.8791357c-.9207801,0-1.7377897.0716162-2.4495673.2133871-.7132392.1432325-1.6062497.3785429-2.6804931.7073929-1.3373234.4165434-1.8956377.0876933-1.6764043-.9865501l.2952342-1.3490159c.06577-.3054651.2250796-.5466218.4764671-.7220085.2528491-.1753867.4881596-.3069267.7073929-.39462.6357767-.26308,1.496633-.5159291,2.5811073-.7570858,1.0859359-.2411567,2.1660255-.3624658,3.2402689-.3624658,1.9731001,0,3.4741178.39462,4.5045145,1.1838601,1.0303967.7892401,1.3709392,2.0403317,1.0201659,3.7503518l-.06577.3273885c-.1096167.5056983-.2966958.9982425-.5597758,1.4805559s-.6518538,1.0084734-1.167783,1.5784801c-.5144676.5700067-1.2218605,1.2715534-2.1207173,2.1046402l-1.5448643,1.4133243c-.6357767.5933916-1.0143196.9602421-1.1356287,1.102013-.1198476.1432325-.2513876.32885-.39462.5597758-.1417709.2294642-.2455414.5100829-.3113114.8374714l-.2966958,1.3826317c-.06577.3069267-.2689262.5904685-.6080072.8535485-.3405425.26308-.7395472.39462-1.1999372.39462h-1.2174759c-.46039,0-.7994709-.1359247-1.0187043-.4106971-.2192333-.2733109-.2966958-.552468-.2309258-.8374714l.2966958-1.3826317c.13154-.6577.3069267-1.2218605.52616-1.6924815.2192333-.4720825.52616-.9383187.9207801-1.3972472.39462-.4618516.9090876-.9646267,1.5448643-1.5141717l1.5784801-1.4133243c.7892401-.7234701,1.3270925-1.2876305,1.6120959-1.693943.2850034-.4048509.4823134-.8593947.59193-1.365093l.06577-.3273885c.06577-.8564716-.3624658-1.2832459-1.2832459-1.2832459Z"/>
    <path class="cls-3" d="M523.2375986,190.8508893c-.1753867.8330867-.6138534,1.3270925-1.3154001,1.4805559-1.8620219.5042367-3.7138129.8878951-5.5553731,1.1509751s-3.8921227.39462-6.1502262.39462c-5.239677,0-8.8190269-.8835104-10.7365879-2.6476081-1.9190226-1.7655592-2.4612597-4.5878232-1.628173-8.4682535l.0993858-.59193c.5480834-2.5211835,1.522941-4.581977,2.9260344-6.1823804,1.4030934-1.6004034,3.3761936-2.7901098,5.9193004-3.5676574,2.5431068-.7790092,5.7775295-1.167783,9.7018065-1.167783h4.9970588l.5583143-2.6965702c.6138534-2.8061869.499852-4.7515175-.3449271-5.8374533-.8433176-1.0844743-2.5913382-1.628173-5.2440617-1.628173-2.0388701,0-3.8205065.1373862-5.3434475.4121587-1.5244026.2733109-3.2943465.6957005-5.3112933,1.2657072-.5042367.1534633-.8827796.1432325-1.1341672-.0321542-.2528491-.1753867-.3449271-.4501591-.2791571-.8228558l.5583143-2.6308002c.13154-.5480834.5378525-.9543958,1.2174759-1.2174759,1.1400134-.4589285,2.7725711-.9368572,4.8991346-1.4294014,2.1265635-.4940058,4.2867428-.7395472,6.4790762-.7395472,8.7474106,0,12.2200669,4.2195112,10.4223534,12.6599951l-4.7354403,22.2960316ZM517.8137655,188.648325l2.7608786-13.0896925h-4.9970588c-2.1265635,0-3.8482761.1154629-5.1636761.3463887-1.3154001.2294642-2.4057206.6080072-3.2709616,1.1341672-.8667025.52616-1.5463259,1.1897063-2.0388701,1.9891773-.4940058.8009325-.8725487,1.825483-1.1356287,3.0751131l-.13154.59193c-.32885,1.5784801-.3507734,2.8441873-.06577,3.7985832.2850034.9529343,1.0245505,1.6500963,2.220103,2.0871015,1.194091.4399283,2.9318807.6577,5.2119075.6577.8988567,0,1.7699439-.026308,2.6147231-.0818471.8433176-.0540776,1.6120959-.1256938,2.3019502-.2133871.6913158-.0876933,1.2554763-.1856176,1.693943-.2952342Z"/>
    <path class="cls-3" d="M563.3733786,193.8770403c-2.2814884,0-4.2545885-.3785429-5.9193004-1.134898-1.667635-.7570858-2.9552655-1.8474064-3.8643532-3.2724231-.9105492-1.4250168-1.4527863-3.124806-1.628173-5.0979061-.1753867-1.9731001.0102309-4.2516654.5583143-6.8400805l1.1195516-5.2616004c.7220085-3.3966554,1.8737144-6.3183051,3.4521945-8.7634877,1.5784801-2.4437211,3.5895807-4.3232816,6.0347633-5.6386817,2.4437211-1.3154001,5.2221384-1.9731001,8.3352519-1.9731001,1.8415601,0,3.5252723.223618,5.0482133.6737772,1.5244026.4486976,2.6366464.904703,3.3381931,1.3636314.3507734.2206949.5641605.4121587.6416229.5758529.0760009.1651558.0818471.4443129.0160771.8389329l-.52616,2.3998744c-.19731.944165-.7790092,1.2393992-1.7421743.8886258-2.6980317-1.0303967-5.3288319-1.5463259-7.8924006-1.5463259-5.6138353,0-9.2078007,3.7284285-10.7862808,11.1809008l-1.1195516,5.2616004c-.7892401,3.7065052-.6620847,6.4951534.3785429,8.3703293,1.0420892,1.8737144,2.9318807,2.8105715,5.6722975,2.8105715,2.5664917,0,5.4150637-.5144676,8.5501006-1.5448643,1.0961667-.3726967,1.5463259-.0876933,1.3490159.8550101l-.4925443,2.4334902c-.0891549.39462-.2206949.6796234-.39462.8550101-.1768482.1753867-.4720825.3624658-.8886258.5583143-.9427034.4618516-2.2581035.9105492-3.9462003,1.3497467-1.6880968.4384667-3.4521945.6577-5.2937546.6577Z"/>
    <path class="cls-3" d="M613.3980442,177.4674242c-1.0742434,5.042367-3.2124993,9.0367987-6.4133062,11.986218-3.2008069,2.9479578-7.2230081,4.4233982-12.0680651,4.4233982-4.8231337,0-8.2110197-1.4754404-10.1621965-4.4233982-1.9511768-2.9494193-2.3896435-6.9438509-1.3154001-11.986218l1.0859359-5.1300604c1.0742434-5.0657519,3.2110378-9.071876,6.4118447-12.0198338,3.2008069-2.9494193,7.2127772-4.4226674,12.0373724-4.4226674,4.8435955,0,8.2417124,1.4732481,10.1928892,4.4226674,1.9511768,2.9479578,2.3896435,6.9540818,1.3154001,12.0198338l-1.0844743,5.1300604ZM607.4787438,177.4674242l1.0844743-5.1300604c.5042367-2.3457968.6094687-4.358359.3127729-6.0347633-.2952342-1.6778659-1.0187043-2.9654964-2.1704102-3.8643532-1.1502443-.8988567-2.756494-1.3490159-4.8172875-1.3490159-3.0473436,0-5.5246804.9821654-7.4320105,2.9435731-1.9073301,1.9628693-3.2446536,4.7310557-4.0119703,8.3045593l-1.0859359,5.1300604c-1.6004034,7.4977805.6138534,11.2452093,6.644232,11.2452093,3.045882,0,5.5290651-.9748576,7.4480876-2.9260344,1.917561-1.9511768,3.2607307-4.7237479,4.0280474-8.3191748Z"/>
    <path class="cls-3" d="M651.4204147,169.9696436l-4.6696703,22.0987216c-.0876933.3726967-.3010805.6898543-.6416229.9536651-.3390809.26308-.6737772.39462-1.0026272.39462h-3.2227302c-.3726967,0-.6635463-.13154-.8710872-.39462-.2090025-.2638108-.2689262-.5809684-.1812329-.9536651l4.6696703-22.0987216c.4823134-2.2361802.5977763-4.0134318.3449271-5.3288319-.2513876-1.3154001-.8930105-2.2566419-1.9234072-2.8266486s-2.4656444-.8564716-4.3072045-.8564716c-2.7623402,0-5.7453753.4063125-8.9447206,1.2174759l-6.3475362,29.8931979c-.0876933.3507734-.2966958.6620847-.6240843.937588-.3303116.2733109-.6693925.4106971-1.0201659.4106971h-3.2885002c-.32885,0-.5977763-.13154-.8053172-.39462-.2090025-.2638108-.2689262-.5809684-.1812329-.9536651l6.8736963-32.4582281c.1739251-.8330867.7000852-1.3694777,1.5784801-1.6106343,5.7424522-1.4030934,10.5232008-2.1046402,14.337861-2.1046402,2.519722,0,4.5863617.3113114,6.1984576.9368572,1.6106343.6240843,2.7784173,1.5287872,3.5018874,2.7126473s1.1180901,2.624954,1.1838601,4.3247432c.06577,1.6983277-.1534633,3.7328132-.6577,6.1005333Z"/>
  </g>
</svg>