<?xml version="1.0" encoding="UTF-8"?>
<svg id="Layer_1" data-name="Layer 1" xmlns="http://www.w3.org/2000/svg" xmlns:xlink="http://www.w3.org/1999/xlink" viewBox="0 0 800 800">
  <defs>
    <style>
      .cls-1 {
        fill: url(#linear-gradient);
      }

      .cls-1, .cls-2, .cls-3, .cls-4, .cls-5, .cls-6, .cls-7, .cls-8, .cls-9 {
        stroke-width: 0px;
      }

      .cls-2 {
        fill: #0c549d;
      }

      .cls-3 {
        fill: #a3c93a;
      }

      .cls-10 {
        filter: url(#drop-shadow-4);
      }

      .cls-11 {
        filter: url(#drop-shadow-3);
      }

      .cls-4 {
        fill: #2393cb;
      }

      .cls-5 {
        fill: #5dc5d2;
      }

      .cls-6 {
        fill: url(#linear-gradient-2);
      }

      .cls-7 {
        fill: url(#radial-gradient);
      }

      .cls-8 {
        fill: #293171;
      }

      .cls-9 {
        fill: #2293d0;
      }
    </style>
    <filter id="drop-shadow-3" filterUnits="userSpaceOnUse">
      <feOffset dx="6" dy="6"/>
      <feGaussianBlur result="blur" stdDeviation="6"/>
      <feFlood flood-color="#221f1f" flood-opacity=".35"/>
      <feComposite in2="blur" operator="in"/>
      <feComposite in="SourceGraphic"/>
    </filter>
    <linearGradient id="linear-gradient" x1="-602.7188284" y1="915.3769931" x2="19.5848455" y2="1276.0450371" gradientTransform="translate(710.2918804 -761.6148523) scale(1.0642216)" gradientUnits="userSpaceOnUse">
      <stop offset="0" stop-color="#705020"/>
      <stop offset=".273743" stop-color="#ffe0ae"/>
      <stop offset=".3373597" stop-color="#e2c085"/>
      <stop offset=".4459021" stop-color="#b58f45"/>
      <stop offset=".4972067" stop-color="#a47c2c"/>
      <stop offset=".7206704" stop-color="#dcc078"/>
      <stop offset=".728693" stop-color="#d6b973"/>
      <stop offset=".7808512" stop-color="#b79756"/>
      <stop offset=".8339408" stop-color="#9f7c40"/>
      <stop offset=".8877065" stop-color="#8e6930"/>
      <stop offset=".9425287" stop-color="#845d27"/>
      <stop offset="1" stop-color="#815a24"/>
    </linearGradient>
    <filter id="drop-shadow-4" filterUnits="userSpaceOnUse">
      <feOffset dx="7" dy="7"/>
      <feGaussianBlur result="blur-2" stdDeviation="5"/>
      <feFlood flood-color="#221f1f" flood-opacity=".75"/>
      <feComposite in2="blur-2" operator="in"/>
      <feComposite in="SourceGraphic"/>
    </filter>
    <radialGradient id="radial-gradient" cx="390.0625957" cy="123.3012879" fx="390.0625957" fy="123.3012879" r="486.5278582" gradientTransform="translate(38.3488125 239.6047213) scale(.8920819)" gradientUnits="userSpaceOnUse">
      <stop offset=".5346538" stop-color="#fff"/>
      <stop offset=".5720559" stop-color="#f8fafb"/>
      <stop offset=".625162" stop-color="#e5eef3"/>
      <stop offset=".6876724" stop-color="#c7dbe4"/>
      <stop offset=".7573589" stop-color="#9cbfd0"/>
      <stop offset=".8329949" stop-color="#659cb7"/>
      <stop offset=".9124873" stop-color="#247298"/>
      <stop offset=".9162011" stop-color="#217097"/>
    </radialGradient>
    <linearGradient id="linear-gradient-2" x1="144.9020925" y1="643.1009005" x2="643.2780577" y2="144.7249353" gradientUnits="userSpaceOnUse">
      <stop offset="0" stop-color="#34bde9"/>
      <stop offset=".2697114" stop-color="#1d7795"/>
      <stop offset=".4888268" stop-color="#0d4255"/>
      <stop offset=".5492936" stop-color="#12495e"/>
      <stop offset=".8478054" stop-color="#2a6d89"/>
      <stop offset="1" stop-color="#347b9a"/>
    </linearGradient>
  </defs>
  <g class="cls-11">
    <path class="cls-1" d="M55.1942575,259.0787131v281.8425737c0,35.5040724,18.9721011,68.3018407,49.7489455,86.0028297l245.593144,141.2503994c30.6239004,17.6130249,68.3034055,17.6130249,98.9273059,0l245.593144-141.2503994c30.7768443-17.700989,49.7489455-50.4987573,49.7489455-86.0028297v-281.8425737c0-35.5040724-18.9721011-68.3018407-49.7489455-86.0028297L449.463653,31.825484c-30.6239004-17.6130249-68.3034055-17.6130249-98.9273059,0L104.943203,173.0758834c-30.7768443,17.700989-49.7489455,50.4987573-49.7489455,86.0028297Z"/>
    <g class="cls-10">
      <path class="cls-7" d="M67.6239793,263.5394555v260.7468701c0,35.5040724,18.9721011,68.3018407,49.7489455,86.0028297l227.2535139,130.7025476c30.6239004,17.6130249,68.3034055,17.6130249,98.9273059,0l227.2535139-130.7025476c30.7768443-17.700989,49.7489455-50.4987573,49.7489455-86.0028297v-260.7468701c0-35.5040724-18.9721011-68.3018407-49.7489455-86.0028297L443.5537446,46.8340782c-30.6239004-17.6130249-68.3034055-17.6130249-98.9273059,0L117.3729248,177.5366258c-30.7768443,17.700989-49.7489455,50.4987573-49.7489455,86.0028297Z"/>
      <path class="cls-6" d="M394.0900876,54.6233178c13.1275363,0,26.0810469,3.4593621,37.4605455,10.0041091l229.9203732,132.2364613c23.2398547,13.3661534,37.6765631,38.3235021,37.6765631,65.1327693v263.8324873c0,26.8092226-14.4367084,51.766705-37.6764443,65.1327099l-229.920492,132.2364836c-11.3794987,6.5447322-24.3330092,10.0041017-37.4605455,10.0041017-13.1273581,0-26.0811063-3.4593695-37.4606049-10.0041017l-229.920492-132.2364836c-23.2396171-13.3660049-37.6763849-38.3234873-37.6763849-65.1327099v-263.8324873c0-26.8092672,14.4367678-51.7666159,37.6763849-65.1327693l229.920492-132.2364613c11.3794987-6.5447471,24.3332468-10.0041091,37.4606049-10.0041091M394.0900876,33.2147124c-16.6168406,0-33.2337405,4.2848668-48.1340225,12.8545966L116.0355731,178.3057703c-29.949644,17.2252475-48.4115727,49.1412928-48.4115727,83.6908873v263.8324873c0,34.5495649,18.4619287,66.4657586,48.4115727,83.6908576l229.920492,132.2364836c14.900282,8.5697261,31.517182,12.8545595,48.1340225,12.8545595s33.2337405-4.2848334,48.1340225-12.8545595l229.920492-132.2364836c29.9495846-17.225099,48.4115727-49.1412928,48.4115727-83.6908576v-263.8324873c0-34.5495946-18.4619881-66.4656398-48.4115727-83.6908873L442.2241101,46.0693089c-14.900282-8.5697298-31.517182-12.8545966-48.1340225-12.8545966h0Z"/>
    </g>
    <g>
      <g>
        <g>
          <g>
            <path class="cls-8" d="M419.6830744,563.8295125h17.3566325c2.3766817,0,4.303363,1.9266808,4.3033637,4.3033625l.0000056,19.7097227c-8.3370621-.0901357-15.535368-2.3444218-21.3197759-7.2861636l12.0774152.000038v-9.5542124h-7.9563951c-2.4638782,0-4.4612461-1.9973679-4.4612461-4.4612461v-2.711501Z"/>
            <path class="cls-8" d="M425.8068597,587.8425976l-8.2897934.0000017c-1.008346.0000002-2.0157097-.0972081-3.0022457-.305795-4.8284905-1.0209053-8.7207261-3.7772746-11.3219987-8.9268106-.6587548-1.3040853-1.1163629-2.6996395-1.413708-4.1300878-1.000306-4.8122058-.7699273-9.8055201.5532887-14.9597537,1.9922579-6.7730879,6.6186503-10.7896265,14.0292723-11.8924347.9612587-.1430493,1.933837-.2021878,2.9056813-.2021861l22.0757133.0000379v2.7240795c0,2.3082278-1.8711871,4.1794168-4.1794149,4.1794192l-16.4626301.0000169c-.6121818.0000006-1.2254104.0428763-1.8261553.1606566-2.7209256.5334566-4.8023845,2.1549496-6.0321423,5.2256005-2.1513313,5.837739-2.1917539,11.2821504,0,16.3104547,3.0730114,5.4859507,7.5324959,9.2537843,12.9641329,11.8168008Z"/>
          </g>
          <g>
            <path class="cls-8" d="M502.2031663,557.3324506l18.1352148,30.5065242,9.7939551-.0000397c.2463322.5203573-5.001282-5.3794855-7.0760107-9.2315407-.0587744-.1091238-13.0180865-21.8886809-17.2715274-29.0221059-.8272231-1.3873319-2.3215973-2.2342352-3.9368334-2.2342352h-9.1107244v35.7549585c0,2.6139433,2.1190197,4.732963,4.732963,4.732963h4.7798241l-.046861-30.5065242Z"/>
            <path class="cls-8" d="M521.8645509,570.7335173c2.8306991,5.0821713,5.8912934,9.3888538,9.1287198,13.0988898l.0000095-36.4813538h-4.7161309c-2.4370023,0-4.412583,1.9755807-4.412583,4.412583l-.0000155,18.9698811Z"/>
          </g>
          <g>
            <path class="cls-8" d="M574.8995465,551.0406955c0,2.9784984-2.4149939,5.3934923-5.3861225,5.3934923-1.4562858,0-2.7662016-.5781549-3.7321902-1.5075622-6.5862496-4.2005565-12.9163851-4.2078817-19.0050122-.0439512-.965944.9587081-2.2978353,1.5515134-3.7687716,1.5515134-2.9784538,0-5.393403-2.4149939-5.393403-5.3934923,0-2.9784091,2.4149492-5.3933137,5.393403-5.3933137,1.3245662,0,2.5393437.4829273,3.4760762,1.2806596v-.0073252c6.7472253,4.7712969,13.2603122,4.6029959,19.5538217,0,.9367325-.7904071,2.15151-1.2733344,3.4760762-1.2733344,2.9711286,0,5.3861225,2.4149046,5.3861225,5.3933137Z"/>
            <path class="cls-8" d="M574.8995465,566.7533093c0,2.9784984-2.4149939,5.3934923-5.3861225,5.3934923-1.4562858,0-2.7662016-.5781549-3.7321902-1.5075622-6.5862496-4.2005565-12.9163851-4.2078817-19.0050122-.0439512-.965944.9587081-2.2978353,1.5515134-3.7687716,1.5515134-2.9784538,0-5.393403-2.4149939-5.393403-5.3934923,0-2.9784091,2.4149492-5.3933137,5.393403-5.3933137,1.3245662,0,2.5393437.4829273,3.4760762,1.2806596v-.0073252c6.7472253,4.7712969,13.2603122,4.6029959,19.5538217,0,.9367325-.7904071,2.15151-1.2733344,3.4760762-1.2733344,2.9711286,0,5.3861225,2.4149046,5.3861225,5.3933137Z"/>
            <path class="cls-8" d="M574.8995465,582.4659232c0,2.9784984-2.4149939,5.3934923-5.3861225,5.3934923-1.4562858,0-2.7662016-.5781549-3.7321902-1.5075622-6.5862496-4.2005565-12.9163851-4.2078817-19.0050122-.0439512-.965944.9587081-2.2978353,1.5515134-3.7687716,1.5515134-2.9784538,0-5.393403-2.4149939-5.393403-5.3934923,0-2.9784091,2.4149492-5.3933137,5.393403-5.3933137,1.3245662,0,2.5393437.4829273,3.4760762,1.2806596v-.0073252c6.7472253,4.7712969,13.2603122,4.6029959,19.5538217,0,.9367325-.7904071,2.15151-1.2733344,3.4760762-1.2733344,2.9711286,0,5.3861225,2.4149046,5.3861225,5.3933137Z"/>
          </g>
          <g>
            <path class="cls-8" d="M485.682908,551.0406955c0,2.9784984-2.4149939,5.3934923-5.3861225,5.3934923-1.4562858,0-2.7662016-.5781549-3.7321902-1.5075622-6.5862496-4.2005565-12.9163851-4.2078817-19.0050122-.0439512-.965944.9587081-2.2978353,1.5515134-3.7687716,1.5515134-2.9784538,0-5.393403-2.4149939-5.393403-5.3934923,0-2.9784091,2.4149492-5.3933137,5.393403-5.3933137,1.3245662,0,2.5393437.4829273,3.4760762,1.2806596v-.0073252c6.7472253,4.7712969,13.2603122,4.6029959,19.5538217,0,.9367325-.7904071,2.15151-1.2733344,3.4760762-1.2733344,2.9711286,0,5.3861225,2.4149046,5.3861225,5.3933137Z"/>
            <path class="cls-8" d="M485.682908,566.7533093c0,2.9784984-2.4149939,5.3934923-5.3861225,5.3934923-1.4562858,0-2.7662016-.5781549-3.7321902-1.5075622-6.5862496-4.2005565-12.9163851-4.2078817-19.0050122-.0439512-.965944.9587081-2.2978353,1.5515134-3.7687716,1.5515134-2.9784538,0-5.393403-2.4149939-5.393403-5.3934923,0-2.9784091,2.4149492-5.3933137,5.393403-5.3933137,1.3245662,0,2.5393437.4829273,3.4760762,1.2806596v-.0073252c6.7472253,4.7712969,13.2603122,4.6029959,19.5538217,0,.9367325-.7904071,2.15151-1.2733344,3.4760762-1.2733344,2.9711286,0,5.3861225,2.4149046,5.3861225,5.3933137Z"/>
            <path class="cls-8" d="M485.682908,582.4659232c0,2.9784984-2.4149939,5.3934923-5.3861225,5.3934923-1.4562858,0-2.7662016-.5781549-3.7321902-1.5075622-6.5862496-4.2005565-12.9163851-4.2078817-19.0050122-.0439512-.965944.9587081-2.2978353,1.5515134-3.7687716,1.5515134-2.9784538,0-5.393403-2.4149939-5.393403-5.3934923,0-2.9784091,2.4149492-5.3933137,5.393403-5.3933137,1.3245662,0,2.5393437.4829273,3.4760762,1.2806596v-.0073252c6.7472253,4.7712969,13.2603122,4.6029959,19.5538217,0,.9367325-.7904071,2.15151-1.2733344,3.4760762-1.2733344,2.9711286,0,5.3861225,2.4149046,5.3861225,5.3933137Z"/>
          </g>
        </g>
        <g>
          <g>
            <path class="cls-4" d="M371.4557621,580.8054015h5.2569217c.4268123,0,.8543685-.0170616,1.2769667-.0768905,2.884983-.4084386,4.7652608-2.0950113,5.4883085-5.25359.1431156-.6251894.1995955-1.2670943.1995955-1.9084553l.0000003-27.1179477h10.4564318l-.0000033,27.9403642c-.171283,4.3226051-1.379129,7.6456278-3.7781865,9.820025-1.1350628,1.0287696-2.6060924,1.6204037-4.1346501,1.7216258-6.853771.4538612-11.7498042-1.2833028-14.7653846-5.1251315Z"/>
            <path class="cls-4" d="M355.7408111,546.7961047h9.0251975l-.0000087,24.8044408c-.0000004,1.0021944.0865237,2.0076442.3173736,2.9828888,1.5632139,6.6039266,6.6191897,10.6270976,13.5576744,13.2591634h-7.1852858c-10.2312297-.6089744-16.2815112-5.0850299-15.6975274-15.6975497l-.0174237-25.3489433Z"/>
          </g>
          <g>
            <path class="cls-4" d="M346.6696506,546.7961047v41.046493h-4.1736123c-2.5813158,0-4.6738856-2.0925699-4.6738856-4.6738856v-26.6838497l-9.5727075,28.2104892c-1.8525614-2.965992-3.4138343-6.1670158-4.4962668-9.7540419l9.4808903-24.6948559c.7979714-2.0784746,2.7941686-3.4503491,5.0205592-3.4503491h8.4150228Z"/>
            <path class="cls-4" d="M326.9490692,587.8425976s-2.8828848-3.0441117-4.2746222-6.7968324c-1.1140074-3.0038413-8.3425298-23.1429713-11.1831625-31.0611336-.686727-1.9142272-2.5004978-3.188527-4.5341791-3.188527h-9.4830477v36.1203802c0,2.720617,2.2054958,4.9261128,4.9261128,4.9261128h4.314726v-32.2886131l9.7443276,28.6935945c.7299036,2.1493078,2.747668,3.5950186,5.0175322,3.5950186h5.4723129Z"/>
          </g>
          <g>
            <path class="cls-4" d="M270.7667539,559.140384l4.9619721-9.1729431,14.0525365,31.1520861c1.4223117,3.1530234-.883727,6.7230706-4.3427048,6.7230706h-.8278847c-1.1401945,0-2.1693997-.6831811-2.6121232-1.7339139l-3.373105-8.0055197h-13.6253073l1.468663-4.3586129c.6129546-1.819091,2.3184308-3.0441131,4.2380155-3.0441131h4.860981l-4.8010433-11.560054Z"/>
            <path class="cls-4" d="M245.9383614,587.8425976c0-.1479641,18.8435058-41.046493,18.8435058-41.046493h9.7773952s-3.2477874,2.413732-5.2325463,7.3756293c-1.53639,3.8409751-8.7490339,21.9117056-11.9293853,29.8802593-.9144852,2.2912954-3.1311569,3.7906043-5.5982033,3.7906043h-5.8607662Z"/>
          </g>
          <g>
            <path class="cls-4" d="M240.3941539,567.7628108l-4.2852583-8.2266379,7.7138097-10.5245606c1.0207235-1.3926538,2.6440246-2.2155076,4.3706865-2.2155076h7.9927327s-1.2697062,1.1539994-3.3858831,4.1166471c-2.116177,2.9626477-12.4060874,16.850059-12.4060874,16.850059Z"/>
            <path class="cls-4" d="M213.2806367,546.7961047h7.1187061c2.003522,0,3.8804468.9796709,5.0260337,2.6233652l9.5242952,13.665509c2.5066583,3.5965666,3.8505449,7.875111,3.8505449,12.2590165v12.4986024h-9.1008074v-17.4176218c0-.8933815-.2861748-1.763271-.8165775-2.4821616l-15.602195-21.1467096Z"/>
          </g>
        </g>
      </g>
      <g>
        <path class="cls-9" d="M456.7765652,314.1242451h-60.7843434v-114.1696177h173.0302676v1.9236934c0,61.9917122-50.254212,112.2459242-112.2459242,112.2459242Z"/>
        <path class="cls-5" d="M372.0925473,516.9458734h-.6327333c-87.3599473,0-158.1791772-70.8192299-158.1791772-158.1791772v-.000317c0-87.7093086,71.1024432-158.8117517,158.8117518-158.8117518h.0001588v316.991246Z"/>
        <path class="cls-3" d="M460.2287221,426.3032144h-64.2365003v90.642659h90.642659v-64.2365003c0-14.5837188-11.82244-26.4061587-26.4061587-26.4061587Z"/>
        <path class="cls-2" d="M510.504327,338.5522243h-50.3394111c-35.4416061,0-64.1727046,28.7310985-64.1727046,64.1727046v.0000642h71.3947667c23.8130543,0,43.117349,19.3042947,43.117349,43.117349v71.1035384h.0000644c35.5644621,0,64.3951551-28.830693,64.3951551-64.3951551v-113.9985011h-64.3952195Z"/>
      </g>
    </g>
  </g>
</svg>