<?xml version="1.0" encoding="UTF-8"?>
<svg id="Layer_1" data-name="Layer 1" xmlns="http://www.w3.org/2000/svg" xmlns:xlink="http://www.w3.org/1999/xlink" viewBox="0 0 800 800">
  <defs>
    <style>
      .cls-1 {
        fill: #ea5e8f;
      }

      .cls-1, .cls-2, .cls-3, .cls-4, .cls-5, .cls-6, .cls-7 {
        stroke-width: 0px;
      }

      .cls-2 {
        fill: url(#linear-gradient);
      }

      .cls-8 {
        filter: url(#drop-shadow-3);
      }

      .cls-3 {
        fill: #34507d;
      }

      .cls-4 {
        fill: url(#linear-gradient-2);
      }

      .cls-9 {
        filter: url(#drop-shadow-2);
      }

      .cls-5 {
        fill: #ef5054;
      }

      .cls-6 {
        fill: url(#radial-gradient);
      }

      .cls-7 {
        fill: #fff;
      }
    </style>
    <filter id="drop-shadow-2" filterUnits="userSpaceOnUse">
      <feOffset dx="6" dy="6"/>
      <feGaussianBlur result="blur" stdDeviation="6"/>
      <feFlood flood-color="#221f1f" flood-opacity=".35"/>
      <feComposite in2="blur" operator="in"/>
      <feComposite in="SourceGraphic"/>
    </filter>
    <linearGradient id="linear-gradient" x1="-333.7882008" y1="1276.0912385" x2="289.1137578" y2="916.4586231" gradientTransform="translate(421.8431602 -762.2521331) rotate(-.0950774) scale(1.064223)" gradientUnits="userSpaceOnUse">
      <stop offset="0" stop-color="#705020"/>
      <stop offset=".273743" stop-color="#ffe0ae"/>
      <stop offset=".3373597" stop-color="#e2c085"/>
      <stop offset=".4459021" stop-color="#b58f45"/>
      <stop offset=".4972067" stop-color="#a47c2c"/>
      <stop offset=".7206704" stop-color="#dcc078"/>
      <stop offset=".728693" stop-color="#d6b973"/>
      <stop offset=".7808512" stop-color="#b79756"/>
      <stop offset=".8339408" stop-color="#9f7c40"/>
      <stop offset=".8877065" stop-color="#8e6930"/>
      <stop offset=".9425287" stop-color="#845d27"/>
      <stop offset="1" stop-color="#815a24"/>
    </linearGradient>
    <filter id="drop-shadow-3" filterUnits="userSpaceOnUse">
      <feOffset dx="6" dy="6"/>
      <feGaussianBlur result="blur-2" stdDeviation="6"/>
      <feFlood flood-color="#221f1f" flood-opacity=".35"/>
      <feComposite in2="blur-2" operator="in"/>
      <feComposite in="SourceGraphic"/>
    </filter>
    <radialGradient id="radial-gradient" cx="31.5506593" cy="961.9772622" fx="31.5506593" fy="961.9772622" r="526.2337083" gradientTransform="translate(421.2948309 -761.6148523) scale(1.0642216)" gradientUnits="userSpaceOnUse">
      <stop offset=".5346538" stop-color="#fff"/>
      <stop offset=".5720559" stop-color="#f8fafb"/>
      <stop offset=".625162" stop-color="#e5eef3"/>
      <stop offset=".6876724" stop-color="#c7dbe4"/>
      <stop offset=".7573589" stop-color="#9cbfd0"/>
      <stop offset=".8329949" stop-color="#659cb7"/>
      <stop offset=".9124873" stop-color="#247298"/>
      <stop offset=".9162011" stop-color="#217097"/>
    </radialGradient>
    <linearGradient id="linear-gradient-2" x1="253.381248" y1="89.6904008" x2="539.4543306" y2="703.1761062" gradientUnits="userSpaceOnUse">
      <stop offset="0" stop-color="#34bde9"/>
      <stop offset=".2697114" stop-color="#1d7795"/>
      <stop offset=".4888268" stop-color="#0d4255"/>
      <stop offset=".5492936" stop-color="#12495e"/>
      <stop offset=".8478054" stop-color="#2a6d89"/>
      <stop offset="1" stop-color="#347b9a"/>
    </linearGradient>
  </defs>
  <g class="cls-9">
    <path class="cls-2" d="M54.9609704,259.6511315l.4676935,281.8420881c.058916,35.5040235,19.0854161,68.2702641,49.8915913,85.9201572l245.8271139,140.8426154c30.6530856,17.5621829,68.3325388,17.499657,98.9271697-.1641614l245.3583281-141.6576968c30.7474287-17.7520362,49.6650786-50.5812419,49.6061626-86.0852654l-.4676935-281.8420881c-.058916-35.5040235-19.0854161-68.2702641-49.8915913-85.9201572L448.8526309,31.7440078c-30.6530856-17.5621829-68.3325388-17.499657-98.9271697.1641614L104.567133,173.5658661c-30.7474287,17.7520362-49.6650786,50.5812419-49.6061626,86.0852654Z"/>
    <g class="cls-8">
      <path class="cls-6" d="M67.5476187,264.6771818v263.5121878c0,35.5040724,18.9721011,68.3018407,49.7489455,86.0028297l229.6575533,132.0852064c30.6239004,17.6130249,68.3034055,17.6130249,98.9273059,0l229.6575533-132.0852064c30.7768443-17.700989,49.7489455-50.4987573,49.7489455-86.0028297v-263.5121878c0-35.5040724-18.9721011-68.3018407-49.7489455-86.0028297L445.8814234,46.5891456c-30.6239004-17.6130249-68.3034055-17.6130249-98.9273059,0L117.2965642,178.6743521c-30.7768443,17.700989-49.7489455,50.4987573-49.7489455,86.0028297Z"/>
      <path class="cls-4" d="M396.4179205,54.4036971c13.1365136,0,26.098999,3.4617822,37.4864342,10.011079l232.2572694,133.58037c23.2558253,13.3755052,37.7027807,38.3502155,37.7027807,65.1781954v266.519754c0,26.8279501-14.4469554,51.8028387-37.7027807,65.1783142l-232.2572694,133.5804146c-11.3874351,6.5492968-24.3499206,10.011079-37.4864342,10.011079s-26.0992368-3.4617822-37.4869097-10.011079l-232.2570317-133.5804146c-23.256063-13.3754755-37.7027807-38.3503641-37.7027807-65.1783142v-266.519754c0-26.8279798,14.4467177-51.8026901,37.702543-65.1781954l232.2570317-133.5802511c11.3879106-6.5494156,24.3506338-10.0111978,37.4871474-10.0111978M396.4176827,32.9801605c-16.6282515,0-33.2567407,4.2878218-48.1675336,12.8635247L115.9928797,179.4241146c-29.9701754,17.2371124-48.4452179,49.1755657-48.4452179,83.7492268v266.519754c0,34.5738393,18.4750425,66.5121143,48.4452179,83.7493753l232.2572694,133.5803997c14.9107929,8.5757104,31.5392821,12.8635693,48.1675336,12.8635693,16.6284892,0,33.2569784-4.2878589,48.1675336-12.8635693l232.2572694-133.5803997c29.9704132-17.237261,48.4454556-49.175536,48.4454556-83.7493753v-266.519754c0-34.573661-18.4750425-66.5121143-48.4454556-83.7492268L444.5852163,45.8436852c-14.9105551-8.575703-31.5390443-12.8635247-48.1675336-12.8635247h0Z"/>
    </g>
    <g>
      <path class="cls-3" d="M352.0723695,387.3392042h12.2687963c1.431857,0,2.5926065-1.1607492,2.5926068-2.5926062l.0000071-30.395436c.0000003-1.1408404-.5896757-2.1985041-1.5569247-2.803439-4.4381145-2.7756762-9.0269963-6.5446662-13.7460015-11.1705979-.8007871-.784993-2.1510973-.2199744-2.1510972.901397l.0000064,43.4680756c.0000002,1.4318571,1.1607498,2.5926065,2.5926068,2.5926065Z"/>
      <path class="cls-3" d="M440.1824806,275.0775508h-12.2687963c-1.431857,0-2.5926065,1.1607492-2.5926068,2.5926062l-.0000071,43.1129412c-.0000003,1.1408404.5896757,2.1985041,1.5569247,2.803439,4.4381145,2.7756762,9.0269963,6.5446662,13.7460015,11.1705979.8007871.784993,2.1510973.2199744,2.1510972-.901397l-.0000064-56.1855808c-.0000002-1.4318571-1.1607498-2.5926065-2.5926068-2.5926065Z"/>
      <g>
        <g>
          <path class="cls-3" d="M205.3971042,283.7026302c25.1338334,0,38.9553073,17.8671846,43.5563528,30.1918461.3975208,1.0648253-.3900214,2.198897-1.5266285,2.198897h-12.6143183c-1.8515396,0-3.5914896-.8746475-4.7052655-2.3537358-3.3289079-4.4207714-11.7454914-13.4487159-24.4719734-12.5912579-16.7907896,1.1312943-27.8182457,10.1427604-29.3377585,26.725269-.0660658,17.5734952,0,21.669573,0,21.669573,0,0,4.6906698,24.576467,29.3332025,23.6515462,25.1710589-.3303289,28.4743475-22.7266254,28.4743475-22.4623623,0,.213977-18.7553654.0814345-25.8932084.023244-1.502401-.0122482-2.7132707-1.2336322-2.7132707-2.7360831v-12.3887414c0-1.5111493,1.2250285-2.7361778,2.7361778-2.7361778h39.7374301c2.2658923,0,4.102761,1.8368686,4.102761,4.102761v10.4317088c0,12.2221677-11.56151,42.8106199-46.3781716,43.1409488-34.8166616.3303289-46.7745662-31.1830441-46.7745662-42.6784884v-21.1410469c0-8.7206818,10.7642164-43.0479004,46.4748891-43.0479004Z"/>
          <path class="cls-3" d="M265.2608964,286.8583239h69.876708c1.4318572,0,2.5926068,1.1607496,2.5926068,2.5926068v12.3659264c0,1.4318572-1.1607496,2.5926068-2.5926068,2.5926068h-52.4306754c-1.4318572,0-2.5926068,1.1607496-2.5926068,2.5926068v18.6374262c0,1.4318572,1.1607496,2.5926068,2.5926068,2.5926068h35.0823797c1.4318572,0,2.5926068,1.1607496,2.5926068,2.5926068v12.4325824c0,1.4318572-1.1607496,2.5926068-2.5926068,2.5926068h-35.0823797c-1.4318572,0-2.5926068,1.1607496-2.5926068,2.5926068v18.9069265c0,1.4318572,1.1607496,2.5926068,2.5926068,2.5926068h52.4306754c1.4318572,0,2.5926068,1.1607496,2.5926068,2.5926068v12.2119505c0,1.4318572-1.1607496,2.5926068-2.5926068,2.5926068h-69.876708c-1.4318572,0-2.5926068-1.1607496-2.5926068-2.5926068v-95.2956667c0-1.4318572,1.1607496-2.5926068,2.5926068-2.5926068Z"/>
          <path class="cls-3" d="M442.7968763,380.0503935v4.6964913c0,1.4314885-1.1611951,2.5926068-2.5926068,2.5926068h-12.2991927c-1.4322173,0-2.5926068-1.1611184-2.5926068-2.5926068v-3.0788741c0-6.0062212-1.8682313-11.877334-5.4091283-16.7286513-1.4589168-1.9986212-3.1574763-3.8448715-5.0705135-5.5552463-4.9125802-3.9847367-11.1450561-8.0307746-18.6848067-12.1381138l-18.6856506-10.1472416c-13.8609943-7.3567674-23.4890164-17.5574846-26.8609704-31.9621345-.7447837-3.1818357-1.1022338-6.4414679-1.1022338-9.7089259v-17.757807c0-1.4314117,1.1611567-2.5926068,2.5926068-2.5926068h12.2991543c1.4314501,0,2.5926068,1.1611951,2.5926068,2.5926068v16.1401897c0,6.0061445,1.8682697,11.8772573,5.4091283,16.7285746,1.4589168,1.9986212,3.1574763,3.8448715,5.0697079,5.5552463,4.9126186,3.9847367,11.1458617,8.0307746,18.6856506,12.1381138l18.6848067,10.1473183c13.8618383,7.3559235,23.489822,17.5574078,26.861776,31.9621345.7447837,3.1809917,1.1022722,6.4413912,1.1022722,9.7089259Z"/>
        </g>
        <g>
          <path class="cls-5" d="M333.761233,427.4785572c-4.5975193-9.2689607-11.5150887-16.1464043-20.8743902-20.5066976-12.7367795-5.9339486-27.4407815-5.9119292-40.266329-.1744286-10.2777274,4.5975577-17.632078,12.1027447-22.1110227,22.465308-2.7465889,6.3542728-4.1128057,13.2191722-4.1128057,20.1414217v13.0313939c0,8.6640421,2.2626425,17.1952776,6.6661306,24.6556971,5.2260684,8.8533549,12.5254474,14.8061389,21.5304251,18.3713569,11.3964757,4.5119353,24.0986726,4.5629942,35.5477799.1854383,9.5195748-3.6391018,16.9289354-9.7309453,22.1361685-18.3824049,4.4694694-7.4266232,6.7690347-15.9562859,6.7690347-24.6234737v-12.3557372c0-7.9058704-1.7715993-15.7253128-5.2849913-22.807874ZM321.630216,464.1773089c0,4.5928392-1.0684759,9.1330468-3.1920781,13.2057842-3.0089799,5.7721025-7.6285185,9.7811985-13.7062451,12.191551-6.9623178,2.7599386-14.6788562,2.8801628-21.7983017.5554326-7.3700788-2.4064013-13.0471028-6.6999077-16.3766293-13.6103803-1.7834146-3.7019375-2.6704035-7.770762-2.6704035-11.8796357v-17.1465588c0-5.7602872,1.6789185-11.4122038,4.9149586-16.1778605,3.5534411-5.2315924,8.4628949-8.7331691,14.6600209-10.5927691,5.6377422-1.6914627,11.6400121-1.7527639,17.3398228-.2844103,8.0567068,2.0756506,13.8963634,6.5883532,17.5220771,13.5310492,2.2013604,4.2157481,3.3067783,8.9178018,3.3067783,13.6732544v16.5345434Z"/>
          <path class="cls-5" d="M456.4324319,404.9418096h69.876708c1.4318572,0,2.5926068,1.1607496,2.5926068,2.5926068v12.3659264c0,1.4318572-1.1607496,2.5926068-2.5926068,2.5926068h-52.4306754c-1.4318572,0-2.5926068,1.1607496-2.5926068,2.5926068v18.6374262c0,1.4318572,1.1607496,2.5926068,2.5926068,2.5926068h35.0823797c1.4318572,0,2.5926068,1.1607496,2.5926068,2.5926068v12.4325824c0,1.4318572-1.1607496,2.5926068-2.5926068,2.5926068h-35.0823797c-1.4318572,0-2.5926068,1.1607496-2.5926068,2.5926068v18.9069265c0,1.4318572,1.1607496,2.5926068,2.5926068,2.5926068h52.4306754c1.4318572,0,2.5926068,1.1607496,2.5926068,2.5926068v12.2119505c0,1.4318572-1.1607496,2.5926068-2.5926068,2.5926068h-69.876708c-1.4318572,0-2.5926068-1.1607496-2.5926068-2.5926068v-95.2956667c0-1.4318572,1.1607496-2.5926068,2.5926068-2.5926068Z"/>
          <path class="cls-5" d="M442.8149445,407.5351562l-.0180681,48.5814947c-.3378475,9.3506702-2.6272087,17.4089881-7.0267839,24.0680411-4.6674519,6.6111398-11.4223696,12.4625733-19.6998837,17.7585742-.5672095.3621686-.5617238,1.192613.0094369,1.5492959,8.2845726,5.1726312,14.4148925,10.2391935,19.1240046,15.2366672,1.0912625,1.1572439.2655749,3.0600387-1.3261485,3.0600387h-22.2115483c-7.279738-6.0863195-12.4712429-9.1267556-15.5179319-9.037182-3.0467273-.0895735-8.2389995,2.9508626-15.5179319,9.037182h-22.2123539c-1.5909178,0-2.4166438-1.9027948-1.3253812-3.0600387,4.7091122-4.9974737,10.8394704-10.064036,19.1240046-15.2366672.5703935-.3566829.5766847-1.1871273.0094369-1.5492959-8.2782814-5.296001-15.0331991-11.1474345-19.6998837-17.7585742-4.4003808-6.659053-6.6889364-14.7173709-7.0267456-24.0680411l-.0180681-48.5814947c-.0008056-1.4322557,1.1603895-2.5934124,2.5926068-2.5934124h12.2677365c1.4314117,0,2.5926068,1.1611567,2.5926068,2.5926068v49.3066758c.1626133,5.0673679,1.9813586,9.7552663,4.9974353,14.1697641,2.3710706,3.4701588,5.3368557,6.4948668,8.7205866,8.987696,6.5836731,4.8513173,12.2567652,8.4440787,15.4959509,8.6781591,3.2391857-.2340804,8.9114722-3.8268417,15.4959125-8.6781591,3.3837693-2.4928292,6.3495544-5.5175372,8.7205866-8.987696,3.0152711-4.4144978,4.8340548-9.1023962,4.9974737-14.1697641v-49.3066758c0-1.4314501,1.1611567-2.5926068,2.5926068-2.5926068h12.2677365c1.4322173,0,2.5933741,1.1611567,2.5926068,2.5934124Z"/>
          <path class="cls-5" d="M185.4697345,485.2177649v-77.6833376c0-1.4318572-1.1607496-2.5926068-2.5926068-2.5926068h-13.0632913c-1.4318572,0-2.5926068,1.1607496-2.5926068,2.5926068v95.9318617c0,1.4318572,1.1607496,2.5926068,2.5926068,2.5926068h68.0666705c1.4318572,0,2.5926068-1.1607496,2.5926068-2.5926068v-13.0633105c0-1.4318572-1.1607496-2.5926068-2.5926068-2.5926068h-49.8181655c-1.4318572,0-2.5926068-1.1607496-2.5926068-2.5926068Z"/>
        </g>
      </g>
      <path class="cls-1" d="M525.3162782,377.1748063l-12.9578583,10.0010315c-1.9847352,1.5318426-4.8637594.1171025-4.8637594-2.3900305v-7.0058248c0-1.3074034-1.0598599-2.3672633-2.3672633-2.3672633h-20.423093c-7.6711942,0-13.6562903-6.6389851-12.8637276-14.269127l7.0028643-67.4178179c.841123-8.0976403,7.5326981-14.3302329,15.6696058-14.59481l122.6600217-3.9883749c7.924587-.2576734,14.5449381,5.9835105,14.7545514,13.9095143l1.9805924,74.8911505c.2171514,8.2110384-6.5102741,14.9175511-14.7205967,14.6748362l-90.1111644-2.6638812c-1.3568151-.0401104-2.6856008.3912293-3.7601729,1.2205971Z"/>
      <rect class="cls-7" x="563.0426749" y="310.1597993" width="10.5249878" height="41.7548697" rx="4.3967575" ry="4.3967575"/>
      <path class="cls-7" d="M604.42639,310.1597993h5.3173236c1.4293747,0,2.5881118,1.1587371,2.5881118,2.5881118v36.7799437c0,1.3182011-1.0686131,2.3868142-2.3868142,2.3868142h-3.6098911c-.9925509,0-1.9153654-.5103681-2.4429507-1.3510886l-15.1409178-24.1274337v22.832897c0,1.4611385-1.1844868,2.6456254-2.6456254,2.6456254h-4.3710332c-1.4611385,0-2.6456254-1.1844868-2.6456254-2.6456254v-36.4923758c0-1.4452566,1.171612-2.6168686,2.6168686-2.6168686h3.1570012c1.2014107,0,2.3169998.6226232,2.9477221,1.6451578l14.1688187,22.9706606-.0516619-22.1113001c-.0032296-1.3822597,1.11641-2.5045184,2.4986735-2.5045184Z"/>
      <path class="cls-7" d="M529.9568546,310.1597993h3.8269042c1.5796317,0,2.8601763,1.2805445,2.8601763,2.8601763v12.7902835c0,.9809457.7952136,1.7761594,1.7761594,1.7761594h1.1848829c.6855728,0,1.3099362-.3945591,1.6042109-1.0137621l7.0243393-14.7803806c.473875-.997112,1.4792968-1.6324765,2.583285-1.6324765h4.5194325c2.1870413,0,3.5648832,2.354839,2.4934098,4.2614314l-8.5388977,15.194215c-.4952521.8812574-.4885339,1.9584887.0176713,2.8335005l8.7779428,15.1733011c1.1030977,1.9067831-.2728663,4.2924217-2.4757385,4.2924217h-4.0977359c-1.0469052,0-2.0101596-.5719723-2.511257-1.4911633l-8.0569943-14.7793944c-.3111797-.5708143-.9093573-.9260071-1.5594817-.9260071h-.9075558c-.9809457,0-1.7761594.7952136-1.7761594,1.7761594v12.5602291c0,1.5796317-1.2805445,2.8601763-2.8601763,2.8601763h-3.8844178c-1.5796317,0-2.8601763-1.2805445-2.8601763-2.8601763v-36.0345171c0-1.5796317,1.2805445-2.8601763,2.8601763-2.8601763Z"/>
      <path class="cls-7" d="M503.977986,335.3828071h6.8627604c1.5188158,0,2.7500592,1.2312435,2.7500592,2.7500592v1.4865185c0,1.5188158-1.2312435,2.7500592-2.7500592,2.7500592h-14.5236536c-1.0232871,0-1.8528251.8295381-1.8528251,1.8528251v4.7869575c0,1.0068841.8041038,1.8294699,1.8107281,1.8523468l15.1831579.8131904c5.7908541.1316049,10.5562568-4.5267281,10.5562568-10.3190775v-4.0912289c0-5.674686-4.5809243-10.2851072-10.2554934-10.3215293l-6.397823-.0410643c-1.4644436-.0093995-2.6466487-1.199217-2.6466487-2.6636907v-2.3507746c0-1.4785925,1.2042444-2.6742537,2.6827991-2.6636775l13.0381799.0932631c.8801236.0062956,1.5969615-.705433,1.5969615-1.5855792v-4.7454766c0-.8757136-.7099061-1.5856197-1.5856197-1.5856197l-14.46878-.8423605c-5.6100402,0-10.1578764,4.5478362-10.1578764,10.1578764v4.5091061c0,5.6100402,4.5478362,10.1578764,10.1578764,10.1578764Z"/>
    </g>
  </g>
</svg>