<?xml version="1.0" encoding="UTF-8"?>
<svg id="Layer_1" data-name="Layer 1" xmlns="http://www.w3.org/2000/svg" version="1.1" viewBox="0 0 746 800">
  <defs>
    <style>
      .cls-1 {
        fill: #5dc7d4;
      }

      .cls-1, .cls-2, .cls-3, .cls-4, .cls-5, .cls-6 {
        stroke-width: 0px;
      }

      .cls-2 {
        fill: #a6cc3c;
      }

      .cls-3 {
        fill: #273172;
      }

      .cls-4 {
        fill: #0f549f;
      }

      .cls-5 {
        fill: #2596cd;
      }

      .cls-6 {
        fill: #2195d2;
      }
    </style>
  </defs>
  <g>
    <g>
      <g>
        <path class="cls-3" d="M425.8,750.4h35.8c4.9,0,8.9,4,8.9,8.9v40.6c-17.2-.2-32-4.8-44-15h24.9s0-19.7,0-19.7h-16.4c-5.1,0-9.2-4.1-9.2-9.2v-5.6h0Z"/>
        <path class="cls-3" d="M438.4,799.9h-17.1c-2.1,0-4.2-.2-6.2-.6-10-2.1-18-7.8-23.3-18.4-1.4-2.7-2.3-5.6-2.9-8.5-2.1-9.9-1.6-20.2,1.1-30.9,4.1-14,13.6-22.3,28.9-24.5,2-.3,4-.4,6-.4h45.5v5.6c0,4.8-3.9,8.6-8.6,8.6h-34c-1.3,0-2.5,0-3.8.3-5.6,1.1-9.9,4.4-12.4,10.8-4.4,12-4.5,23.3,0,33.6,6.3,11.3,15.5,19.1,26.7,24.4Z"/>
      </g>
      <g>
        <path class="cls-3" d="M596,737l37.4,62.9h20.2c.5,1.1-10.3-11.1-14.6-19-.1-.2-26.8-45.1-35.6-59.9-1.7-2.9-4.8-4.6-8.1-4.6h-18.8v73.7c0,5.4,4.4,9.8,9.8,9.8h9.9v-62.9q0,0,0,0Z"/>
        <path class="cls-3" d="M636.5,764.7c5.8,10.5,12.1,19.4,18.8,27v-75.2h-9.7c-5,0-9.1,4.1-9.1,9.1v39.1h0Z"/>
      </g>
      <g>
        <path class="cls-3" d="M745.9,724c0,6.1-5,11.1-11.1,11.1s-5.7-1.2-7.7-3.1c-13.6-8.7-26.6-8.7-39.2,0-2,2-4.7,3.2-7.8,3.2-6.1,0-11.1-5-11.1-11.1s5-11.1,11.1-11.1,5.2,1,7.2,2.6h0c13.9,9.8,27.3,9.5,40.3,0,1.9-1.6,4.4-2.6,7.2-2.6,6.1,0,11.1,5,11.1,11.1Z"/>
        <path class="cls-3" d="M745.9,756.4c0,6.1-5,11.1-11.1,11.1s-5.7-1.2-7.7-3.1c-13.6-8.7-26.6-8.7-39.2,0-2,2-4.7,3.2-7.8,3.2-6.1,0-11.1-5-11.1-11.1s5-11.1,11.1-11.1,5.2,1,7.2,2.6h0c13.9,9.8,27.3,9.5,40.3,0,1.9-1.6,4.4-2.6,7.2-2.6,6.1,0,11.1,5,11.1,11.1Z"/>
        <path class="cls-3" d="M745.9,788.9c0,6.1-5,11.1-11.1,11.1s-5.7-1.2-7.7-3.1c-13.6-8.7-26.6-8.7-39.2,0-2,2-4.7,3.2-7.8,3.2-6.1,0-11.1-5-11.1-11.1s5-11.1,11.1-11.1,5.2,1,7.2,2.6h0c13.9,9.8,27.3,9.5,40.3,0,1.9-1.6,4.4-2.6,7.2-2.6,6.1,0,11.1,5,11.1,11.1Z"/>
      </g>
      <g>
        <path class="cls-3" d="M561.9,724c0,6.1-5,11.1-11.1,11.1s-5.7-1.2-7.7-3.1c-13.6-8.7-26.6-8.7-39.2,0-2,2-4.7,3.2-7.8,3.2-6.1,0-11.1-5-11.1-11.1s5-11.1,11.1-11.1,5.2,1,7.2,2.6h0c13.9,9.8,27.3,9.5,40.3,0,1.9-1.6,4.4-2.6,7.2-2.6,6.1,0,11.1,5,11.1,11.1Z"/>
        <path class="cls-3" d="M561.9,756.4c0,6.1-5,11.1-11.1,11.1s-5.7-1.2-7.7-3.1c-13.6-8.7-26.6-8.7-39.2,0-2,2-4.7,3.2-7.8,3.2-6.1,0-11.1-5-11.1-11.1s5-11.1,11.1-11.1,5.2,1,7.2,2.6h0c13.9,9.8,27.3,9.5,40.3,0,1.9-1.6,4.4-2.6,7.2-2.6,6.1,0,11.1,5,11.1,11.1Z"/>
        <path class="cls-3" d="M561.9,788.9c0,6.1-5,11.1-11.1,11.1s-5.7-1.2-7.7-3.1c-13.6-8.7-26.6-8.7-39.2,0-2,2-4.7,3.2-7.8,3.2-6.1,0-11.1-5-11.1-11.1s5-11.1,11.1-11.1,5.2,1,7.2,2.6h0c13.9,9.8,27.3,9.5,40.3,0,1.9-1.6,4.4-2.6,7.2-2.6,6.1,0,11.1,5,11.1,11.1Z"/>
      </g>
    </g>
    <g>
      <g>
        <path class="cls-5" d="M326.3,785.4h10.8c.9,0,1.8,0,2.6-.2,5.9-.8,9.8-4.3,11.3-10.8.3-1.3.4-2.6.4-3.9v-55.9h21.6v57.6c-.4,8.9-2.8,15.8-7.8,20.3-2.3,2.1-5.4,3.3-8.5,3.6-14.1.9-24.2-2.6-30.5-10.6Z"/>
        <path class="cls-5" d="M293.9,715.3h18.6v51.2c0,2.1.2,4.1.7,6.2,3.2,13.6,13.7,21.9,28,27.3h-14.8c-21.1-1.3-33.6-10.5-32.4-32.4v-52.3h0Z"/>
      </g>
      <g>
        <path class="cls-5" d="M275.2,715.3v84.7h-8.6c-5.3,0-9.6-4.3-9.6-9.6v-55l-19.7,58.2c-3.8-6.1-7-12.7-9.3-20.1l19.6-50.9c1.6-4.3,5.8-7.1,10.4-7.1h17.4Z"/>
        <path class="cls-5" d="M234.5,799.9s-5.9-6.3-8.8-14c-2.3-6.2-17.2-47.7-23.1-64.1-1.4-3.9-5.2-6.6-9.4-6.6h-19.6v74.5c0,5.6,4.5,10.2,10.2,10.2h8.9v-66.6l20.1,59.2c1.5,4.4,5.7,7.4,10.3,7.4h11.3Z"/>
      </g>
      <g>
        <path class="cls-5" d="M118.7,740.7l10.2-18.9,29,64.2c2.9,6.5-1.8,13.9-9,13.9h-1.7c-2.4,0-4.5-1.4-5.4-3.6l-7-16.5h-28.1l3-9c1.3-3.8,4.8-6.3,8.7-6.3h10l-9.9-23.8h0Z"/>
        <path class="cls-5" d="M67.5,799.9c0-.3,38.9-84.7,38.9-84.7h20.2s-6.7,5-10.8,15.2c-3.2,7.9-18,45.2-24.6,61.6-1.9,4.7-6.5,7.8-11.5,7.8h-12.1,0Z"/>
      </g>
      <g>
        <path class="cls-5" d="M56,758.5l-8.8-17,15.9-21.7c2.1-2.9,5.5-4.6,9-4.6h16.5s-2.6,2.4-7,8.5-25.6,34.7-25.6,34.7h0Z"/>
        <path class="cls-5" d="M.1,715.3h14.7c4.1,0,8,2,10.4,5.4l19.6,28.2c5.2,7.4,7.9,16.2,7.9,25.3v25.8h-18.8v-35.9c0-1.8-.6-3.6-1.7-5.1,0,0-32.2-43.6-32.2-43.6Z"/>
      </g>
    </g>
  </g>
  <g>
    <path class="cls-6" d="M502.3,235.5h-125.4V0h356.8v4c0,127.8-103.6,231.5-231.5,231.5h0Z"/>
    <path class="cls-1" d="M327.6,653.7h-1.3C146.2,653.7.1,507.7.1,327.5H.1C.1,146.6,146.8,0,327.6,0h0v653.7Z"/>
    <path class="cls-2" d="M509.4,466.8h-132.5v186.9h186.9v-132.5c0-30.1-24.4-54.5-54.5-54.5h0Z"/>
    <path class="cls-4" d="M613.1,285.8h-103.8c-73.1,0-132.3,59.3-132.3,132.3h0s147.2,0,147.2,0c49.1,0,88.9,39.8,88.9,88.9v146.6h0c73.3,0,132.8-59.5,132.8-132.8v-235.1h-132.8Z"/>
  </g>
</svg>