<?xml version="1.0" encoding="UTF-8"?>
<svg id="Layer_1" data-name="Layer 1" xmlns="http://www.w3.org/2000/svg" version="1.1" xmlns:xlink="http://www.w3.org/1999/xlink" viewBox="0 0 800 408">
  <defs>
    <style>
      .cls-1 {
        fill: url(#linear-gradient);
      }

      .cls-1, .cls-2, .cls-3, .cls-4 {
        stroke-width: 0px;
      }

      .cls-2 {
        fill: url(#linear-gradient-2);
      }

      .cls-3 {
        fill: url(#radial-gradient-2);
      }

      .cls-4 {
        fill: url(#radial-gradient);
      }
    </style>
    <radialGradient id="radial-gradient" cx="-7959.4" cy="8672.2" fx="-7959.4" fy="8672.2" r="155" gradientTransform="translate(-7755 -8459.9) rotate(-180) scale(1 -1)" gradientUnits="userSpaceOnUse">
      <stop offset="0" stop-color="#337b9b"/>
      <stop offset=".2" stop-color="#2d7391"/>
      <stop offset=".6" stop-color="#1d5f78"/>
      <stop offset="1" stop-color="#074356"/>
    </radialGradient>
    <linearGradient id="linear-gradient" x1="0" y1="204" x2="408.8" y2="204" gradientTransform="translate(0 408) scale(1 -1)" gradientUnits="userSpaceOnUse">
      <stop offset="0" stop-color="#58595b"/>
      <stop offset=".2" stop-color="#d1d3d4"/>
      <stop offset=".4" stop-color="#999b9d"/>
      <stop offset=".4" stop-color="#808285"/>
      <stop offset=".7" stop-color="#a7a9ac"/>
      <stop offset=".7" stop-color="#939598"/>
      <stop offset=".8" stop-color="#797b7d"/>
      <stop offset=".9" stop-color="#66686a"/>
      <stop offset=".9" stop-color="#5b5c5e"/>
      <stop offset="1" stop-color="#58595b"/>
    </linearGradient>
    <radialGradient id="radial-gradient-2" cx="-11225.6" cy="11495" fx="-11225.6" fy="11495" r="193" gradientTransform="translate(0 407.8) scale(1 -1)" gradientUnits="userSpaceOnUse">
      <stop offset="0" stop-color="#337b9b"/>
      <stop offset=".2" stop-color="#2d7391"/>
      <stop offset=".6" stop-color="#1d5f78"/>
      <stop offset="1" stop-color="#074356"/>
    </radialGradient>
    <linearGradient id="linear-gradient-2" x1="478.8" y1="63.8" x2="759.1" y2="344.2" gradientTransform="translate(0 408) scale(1 -1)" gradientUnits="userSpaceOnUse">
      <stop offset="0" stop-color="#58595b"/>
      <stop offset=".2" stop-color="#d1d3d4"/>
      <stop offset=".4" stop-color="#999b9d"/>
      <stop offset=".4" stop-color="#808285"/>
      <stop offset=".7" stop-color="#a7a9ac"/>
      <stop offset=".7" stop-color="#939598"/>
      <stop offset=".8" stop-color="#797b7d"/>
      <stop offset=".9" stop-color="#66686a"/>
      <stop offset=".9" stop-color="#5b5c5e"/>
      <stop offset="1" stop-color="#58595b"/>
    </linearGradient>
  </defs>
  <g>
    <path class="cls-4" d="M407.7,211.5l-14.8,51.9c-3.3,11.7-14.1,19.8-26.3,19.8H81.4c-7.9,0-15.4-3.4-20.6-9.4L0,204l60.8-69.8c5.2-6,12.7-9.4,20.6-9.4h285.3c12.2,0,22.9,8.1,26.3,19.8l14.8,51.9c1.4,4.9,1.4,10.1,0,14.9h0Z"/>
    <path class="cls-1" d="M366.7,128.9c10.4,0,19.6,7,22.4,16.9l14.8,51.9c1.2,4.2,1.2,8.6,0,12.7l-14.8,51.9c-2.8,10-12.1,16.9-22.4,16.9H81.4c-6.7,0-13.1-2.9-17.6-8L5.3,204l58.5-67.2c4.4-5.1,10.8-8,17.6-8h285.3M366.7,124.8H81.4c-7.9,0-15.4,3.4-20.6,9.4L0,204l60.8,69.8c5.2,6,12.7,9.4,20.6,9.4h285.3c12.2,0,22.9-8.1,26.3-19.8l14.8-51.9c1.4-4.9,1.4-10.1,0-14.9l-14.8-51.9c-3.3-11.7-14.1-19.8-26.3-19.8h0Z"/>
  </g>
  <g>
    <path class="cls-3" d="M437.9,117.7v172.6c0,11.2,6,21.6,15.7,27.2l149.6,86.3c9.7,5.6,21.7,5.6,31.4,0l149.6-86.3c9.7-5.6,15.7-16,15.7-27.2V117.7c0-11.2-6-21.6-15.7-27.2L634.7,4.2c-9.7-5.6-21.7-5.6-31.4,0l-149.6,86.3c-9.7,5.6-15.7,16-15.7,27.2h0Z"/>
    <path class="cls-2" d="M619,4.1c4.8,0,9.6,1.3,13.8,3.7l149.5,86.2c8.5,4.9,13.8,14,13.8,23.9v172.4c0,9.8-5.3,18.9-13.8,23.9l-149.5,86.2c-4.2,2.4-9,3.7-13.8,3.7s-9.6-1.3-13.8-3.7l-149.5-86.2c-8.5-4.9-13.8-14-13.8-23.9V117.8c0-9.8,5.3-18.9,13.8-23.9L605.2,7.7c4.2-2.4,9-3.7,13.8-3.7M619,0c-5.5,0-10.9,1.4-15.8,4.2l-149.5,86.2c-9.8,5.6-15.8,16.1-15.8,27.3v172.4c0,11.3,6,21.7,15.8,27.3l149.5,86.2c4.9,2.8,10.3,4.2,15.8,4.2s10.9-1.4,15.8-4.2l149.5-86.2c9.8-5.6,15.8-16.1,15.8-27.3V117.8c0-11.3-6-21.7-15.8-27.3L634.8,4.3c-4.9-2.8-10.3-4.2-15.8-4.2h0Z"/>
  </g>
</svg>