<?xml version="1.0" encoding="UTF-8"?>
<svg id="Layer_1" data-name="Layer 1" xmlns="http://www.w3.org/2000/svg" xmlns:xlink="http://www.w3.org/1999/xlink" viewBox="0 0 702 272">
  <defs>
    <style>
      .cls-1 {
        fill: url(#linear-gradient);
      }

      .cls-1, .cls-2, .cls-3 {
        stroke-width: 0px;
      }

      .cls-4 {
        filter: url(#drop-shadow-4);
      }

      .cls-5 {
        filter: url(#drop-shadow-5);
      }

      .cls-2 {
        fill: url(#radial-gradient);
      }

      .cls-3 {
        fill: #fff;
      }
    </style>
    <filter id="drop-shadow-4" filterUnits="userSpaceOnUse">
      <feOffset dx="6.9987402" dy="7"/>
      <feGaussianBlur result="blur" stdDeviation="5.000315"/>
      <feFlood flood-color="#221f1f" flood-opacity=".2"/>
      <feComposite in2="blur" operator="in"/>
      <feComposite in="SourceGraphic"/>
    </filter>
    <radialGradient id="radial-gradient" cx="649.0724105" cy="142.8804001" fx="649.0724105" fy="142.8804001" r="428.7923224" gradientTransform="translate(-249.3919797 63.1335081) scale(.925 .5099824)" gradientUnits="userSpaceOnUse">
      <stop offset=".0000192" stop-color="#347b9a"/>
      <stop offset=".2237292" stop-color="#2e7390"/>
      <stop offset=".5924467" stop-color="#1d5e77"/>
      <stop offset=".9887365" stop-color="#084356"/>
    </radialGradient>
    <linearGradient id="linear-gradient" x1="700.9999952" y1="136.0000267" x2="1.0000379" y2="136.0000267" gradientUnits="userSpaceOnUse">
      <stop offset=".0055866" stop-color="#59595c"/>
      <stop offset=".2122905" stop-color="#cfd1d2"/>
      <stop offset=".3501516" stop-color="#98999b"/>
      <stop offset=".424581" stop-color="#808083"/>
      <stop offset=".7094972" stop-color="#a6a7aa"/>
      <stop offset=".7411809" stop-color="#959699"/>
      <stop offset=".8036146" stop-color="#7b7b7e"/>
      <stop offset=".8671901" stop-color="#68686b"/>
      <stop offset=".9320178" stop-color="#5c5c5f"/>
      <stop offset="1" stop-color="#59595c"/>
    </linearGradient>
    <filter id="drop-shadow-5" filterUnits="userSpaceOnUse">
      <feOffset dx="2.8346457" dy="2.8346457"/>
      <feGaussianBlur result="blur-2" stdDeviation="1.4173228"/>
      <feFlood flood-color="#221f1f" flood-opacity=".5"/>
      <feComposite in2="blur-2" operator="in"/>
      <feComposite in="SourceGraphic"/>
    </filter>
  </defs>
  <g class="cls-4">
    <path class="cls-2" d="M2.7853181,123.1905975L28.0716547,34.2944939C33.7929774,14.1807341,52.1658469.3051685,73.0774912.3051685h488.5273845c13.536423,0,26.4095263,5.8621451,35.2960876,16.0731086l104.0990367,119.6133607-104.098886,119.6279308c-8.8865924,10.2122578-21.7605426,16.075263-35.2979624,16.075263H73.0786828c-20.912207,0-39.2854273-13.8762985-45.0062517-33.9907851L2.7849029,148.7927961c-2.3800116-8.3681493-2.3798679-17.2341266.0004152-25.6021987Z"/>
    <path class="cls-1" d="M561.6048047,12.9053002c9.8950195,0,19.2956299,4.2806641,25.7916504,11.7448242l96.9004395,111.342041-96.9009521,111.3563965c-6.4958496,7.4648438-15.8969727,11.7461914-25.7928467,11.7461914H73.0786329c-15.2039795,0-28.7276855-10.2135742-32.8870117-24.8376953l-25.2873291-88.9109375c-1.7404297-6.1195313-1.7402588-12.5887207.0003418-18.708252l25.2863037-88.8958984c4.1594971-14.6234375,17.6830322-24.8366699,32.886499-24.8366699h488.5273682M561.6048047.3053002H73.0774366C52.1657911.3053002,33.7930127,14.1808861,28.0716749,34.2946068L2.7853711,123.1905053c-2.3802734,8.3682129-2.3804443,17.234082-.0005127,25.6022949l25.2875,88.9112793c5.7208252,20.1144043,24.0941162,33.9906738,45.0062744,33.9906738h488.5244629c13.5375488,0,26.411499-5.8628418,35.2980469-16.0750488l104.0988525-119.6282227-104.0990234-119.6131836c-8.8865479-10.2108398-21.7596436-16.072998-35.296167-16.072998h0Z"/>
  </g>
  <g class="cls-5">
    <path class="cls-3" d="M184.5895949,52.7087016c-.072347.3255615-.2351278.5739529-.4883423.7451742-.2532145.172427-.5335592.2580377-.8410339.2580377h-9.7125854l-7.1623535,33.7233507c-.072347.3255615-.2399509.5920397-.5016059.7994344-.2628608.2086005-.5474257.3122979-.8549004.3122979h-5.5074158c-.2713013,0-.5022088-.1085205-.6915168-.3255615-.1905138-.217041-.2489943-.478696-.1766473-.7861708l7.1623535-33.7233507h-9.7125854c-.3074748,0-.5516459-.0904338-.7325134-.2713013s-.2351278-.4244358-.1627808-.7319105l.9224243-4.3962863c.0542603-.2881822.2079976-.5377794.4612122-.7451742.2532145-.2086005.5426025-.3122979.8681641-.3122979h27.1572571c.3255615,0,.5739529.0952569.7463799.2845649.1712212.1905138.2212613.4473456.1489143.7729072l-.9224243,4.3962863Z"/>
    <path class="cls-3" d="M199.3266798,62.9361565c-2.911967,0-5.9686279.4799018-9.1699829,1.4372938-.8319906.217041-1.1575521-.0807875-.9766846-.8946913l.7053833-3.390663c.072347-.3436483.2212613-.6245958.4479485-.8416368.2254815-.217041.5739529-.4159953,1.0442084-.5968628,1.2298991-.4883423,2.7220561-.912778,4.4764709-1.2745131,1.7544149-.361735,3.6263936-.5426025,5.6159363-.5426025,2.3874512,0,4.3450406.3882623,5.873371,1.1659926s2.577965,1.9714559,3.1470947,3.5811768c.5703356,1.6097209.6113322,3.56309.1229899,5.8601074l-4.0429918,18.9368286c-.072347.3979085-.1718241.6776503-.2984314.8416368-.1266073.161575-.3707784.289388-.7325134.378616-1.7363281.4533746-3.4003092.7970228-4.9919434,1.0321506-1.5916341.233922-3.5088298.3520888-5.7515869.3520888-3.0385742,0-5.4531555-.317121-7.2437439-.9501573-1.7905884-.6318305-3.0024007-1.631425-3.635437-2.9975776-.6330363-1.3649468-.7144267-3.1603583-.2441711-5.3850288l.0542603-.2713013c.361735-1.6458944.8952942-3.0470147,1.6006775-4.2045668.7053833-1.1575521,1.659158-2.1342367,2.8619269-2.9300537,1.202769-.7958171,2.672619-1.3890625,4.4089471-1.7773248,1.7363281-.389468,3.8253479-.5835992,6.2670593-.5835992h3.9067383l.5154724-2.4417114c.361735-1.7363281.2260844-2.9204074-.4069519-3.5534437-.6330363-.6330363-1.8177185-.9501573-3.5540466-.9501573ZM199.9778029,82.9859233l1.7363281-8.2210314h-3.9067383c-1.6820679,0-2.9571838.1495171-3.8253479.4473456-.8681641.2990343-1.4969801.7596436-1.8858453,1.3842394-.3888652.62339-.7005602,1.4963772-.9356879,2.6177558l-.0813904.3255615c-.217041,1.0490316-.217041,1.8496718,0,2.4007148.217041.5522488.6963399.9405111,1.4378967,1.1671984.7415568.2254815,1.8900655.3388251,3.4455261.3388251,1.5735474,0,2.911967-.1531345,4.0152588-.4606093ZM212.4847914,53.3320916c-.0542603.2532145-.2532145.3798218-.5968628.3798218h-4.6121216c-.1989543,0-.3575148-.0265272-.4750787-.0819933-.1175639-.0530545-.2260844-.1434882-.3255615-.2700955s-.2031745-.2532145-.311695-.3810276l-2.984314-4.5023953-4.910553,4.5023953c-.3255615.2905938-.5745558.4847249-.7463799.5835992-.1718241.10008-.4202155.1495171-.745777.1495171h-4.6121216c-.3255615,0-.4612122-.1266073-.4069519-.3798218.0542603-.2351278.1718241-.4244358.3526917-.5703356l6.5112305-6.6728054c.3979085-.361735.6824734-.5884223.8542976-.6788561s.4298618-.1362535.7735101-.1362535h7.2166138c.3436483,0,.5878194.0506429.7325134.1495171.144694.10008.3255615.3219442.5426025.6655924l3.66317,6.6728054c.1085205.1458998.1350477.3352078.0807875.5703356ZM217.1511733,47.0379022c-.0542603.2532145-.2532145.3798218-.5968628.3798218h-4.7749023c-.1989543,0-.361735-.0265272-.4883423-.0819933-.1266073-.0530545-.2399509-.1434882-.3388251-.2700955-.10008-.1266073-.2037774-.2532145-.3122979-.3810276l-5.127594-6.8898465c-.1266073-.144694-.1718241-.289388-.1356506-.434082.0542603-.2532145.289388-.3810276.7053833-.3810276h5.8878404c.3436483,0,.5823934.0506429.7186469.1495171.1350477.10008.3122979.3219442.5293389.6655924l3.824745,6.6728054c.1085205.1458998.144694.3352078.1085205.5703356Z"/>
    <path class="cls-3" d="M237.5855849,87.379798c-.0542603.3255615-.2122179.6016859-.4750787.8283732-.261655.2254815-.5558662.3388251-.8814277.3388251h-5.1004639c-.3255615,0-.5655124-.1217841-.7186469-.3665582-.1543403-.2435683-.2037774-.5100464-.1495171-.8006402l3.9067383-18.3399658c.3255615-1.4999946.4256415-2.6756334.2990343-3.5257107s-.5341621-1.4746731-1.2214586-1.8725817-1.7363281-.5968628-3.1470947-.5968628c-1.0852051,0-2.3235447.1808675-3.7162245.5426025l-5.0739366,23.7925184c-.0542603.3255615-.2122179.6016859-.4750787.8283732-.261655.2254815-.5558662.3388251-.8814277.3388251h-5.1004639c-.3255615,0-.5655124-.1217841-.7186469-.3665582-.1543403-.2435683-.2037774-.5100464-.1495171-.8006402l5.9143677-27.78125c.1085205-.4871365.5606893-.8585178,1.3565063-1.1117323,1.5192871-.4883423,3.2869656-.8862508,5.3042413-1.1937256,2.0160699-.3074748,3.7487807-.4606093,5.1957208-.4606093,3.7982178,0,6.5015842.7138238,8.1113051,2.1426771,1.5192871-.6149495,3.1470947-1.1262017,4.8834229-1.5325507,1.7363281-.4075548,3.3918688-.6101264,4.9654161-.6101264,3.5269165,0,5.9770684.9766846,7.3516615,2.9300537,1.3745931,1.9533691,1.6193671,5.0281169.7331163,9.2242432l-3.9344713,18.3930203c-.0542603.3255615-.2122179.6016859-.4750787.8283732-.261655.2254815-.5558662.3388251-.8814277.3388251h-5.1004639c-.3255615,0-.5655124-.1217841-.7186469-.3665582-.1543403-.2435683-.2037774-.5100464-.1495171-.8006402l3.9067383-18.3399658c.3255615-1.4819078.4389052-2.6539293.3388251-3.5124471-.0988742-.8597236-.4473456-1.4879367-1.0442084-1.8858453s-1.4915541-.5968628-2.6852797-.5968628c-1.5012004,0-3.1832682.3520888-5.0462036,1.0586778.0361735,1.5373739-.1266073,3.1651815-.4883423,4.8834229l-3.9344713,18.3930203Z"/>
    <path class="cls-3" d="M287.2445693,82.9859233c1.7001546,0,2.8757935-.217041,3.5269165-.651123s1.0586778-1.0321506,1.2214586-1.7917942c.144694-.6318305.0807875-1.1611694-.1905138-1.586811-.2713013-.4244358-.8139038-.9176012-1.6278076-1.4782905l-6.592018-4.6663818c-1.2479858-.8862508-2.1523234-1.9895426-2.7130127-3.3098755-.5606893-1.3203328-.6692098-2.7672729-.3255615-4.3408203,1.1756388-5.5526326,5.2813314-8.3283461,12.3170776-8.3283461,3.6535238,0,6.764445.6053033,9.3327637,1.8171156.3798218.1627808.6366536.3484714.7729072.5558662.1350477.2086005.1579576.5016059.0675239.8826335l-.7053833,3.390663c-.1808675.8139038-.6330363,1.1117323-1.3565063.8946913-3.0204875-1.029739-5.8866347-1.5458143-8.5996474-1.5458143-1.4107666,0-2.4646213.1543403-3.1615641.4606093-.695737.3086806-1.1249959.8416368-1.2877767,1.6012804-.0904338.4159953-.0771701.7548204.0397909,1.0176812.1181668.261655.2990343.5016059.5426025.7186469.244774.217041.6113322.4883423,1.0996745.8139038l6.3207167,4.4493408c1.8448486,1.2841593,2.9939602,2.5731418,3.446129,3.8657416.4521688,1.2938056.5148695,2.6913086.189308,4.192509-.3798218,1.7544149-1.1213786,3.318316-2.2246704,4.6929091-1.1032918,1.3745931-2.5634956,2.4417114-4.3818169,3.201355-1.8171156.7596436-3.8838284,1.1394653-6.1989326,1.1394653-3.6716105,0-6.809059-.6053033-9.4135512-1.8183214-.4159953-.233922-.6788561-.4557861-.7873766-.6643867-.1085205-.2073947-.1266073-.4654324-.0542603-.7729072l.7053833-3.390663c.1808675-.8151096.6330363-1.1129381,1.3565063-.8958971,3.056661,1.0309448,5.9505412,1.5470201,8.6816406,1.5470201Z"/>
    <path class="cls-3" d="M332.9919922,75.1447137c-.5606893,2.6406657-1.5783705,5.0196764-3.0518378,7.1346205-1.4746731,2.1173557-3.329168,3.7632501-5.5622789,4.9388889-2.2343167,1.1756388-4.7700792,1.7628554-7.6096992,1.7628554-2.8034465,0-5.0872002-.5872165-6.8500556-1.7628554-1.7640611-1.1756388-2.9264364-2.8215332-3.4871257-4.9388889-.5606893-2.1149441-.5606893-4.4939548,0-7.1346205l.9501573-4.4770738c.5606893-2.6394599,1.5735474-5.0184706,3.0385742-7.1346205s3.3279622-3.7620443,5.5888062-4.9376831c2.2608439-1.1756388,4.7929891-1.7628554,7.5964355-1.7628554,2.83962,0,5.1269911.5872165,6.8633192,1.7628554s2.8902629,2.8215332,3.4593926,4.9376831c.5703356,2.1161499.5739529,4.4951606.0132636,7.1346205l-.9489516,4.4770738ZM325.6668579,75.1447137l.9489516-4.4770738c.4883423-2.3138984.3665582-4.1454834-.3653524-5.4935493-.7331163-1.3468601-2.0667128-2.020893-4.0019952-2.020893-1.9171956,0-3.5317396.6740329-4.8424262,2.020893-1.3118924,1.3480659-2.2114068,3.1796509-2.6997491,5.4935493l-.9501573,4.4770738c-.4883423,2.3151042-.361735,4.1466892.3798218,5.4935493.7415568,1.3480659,2.0618896,2.0220988,3.9609985,2.0220988,1.9171956,0,3.5365628-.6740329,4.8568956-2.0220988,1.3203328-1.3468601,2.2246704-3.1784451,2.7130127-5.4935493Z"/>
    <path class="cls-3" d="M353.5349243,62.9361565c-2.911967,0-5.9686279.4799018-9.1699829,1.4372938-.8319906.217041-1.1575521-.0807875-.9766846-.8946913l.7053833-3.390663c.072347-.3436483.2206584-.6245958.4473456-.8416368.2254815-.217041.5739529-.4159953,1.0442084-.5968628,1.2298991-.4883423,2.722659-.912778,4.4770738-1.2745131,1.7544149-.361735,3.6257907-.5426025,5.6153334-.5426025,2.3874512,0,4.3456434.3882623,5.873371,1.1659926,1.5289334.7777303,2.577965,1.9714559,3.1470947,3.5811768.5703356,1.6097209.6113322,3.56309.1229899,5.8601074l-4.0429918,18.9368286c-.072347.3979085-.1712212.6776503-.2978285.8416368-.1266073.161575-.3713813.289388-.7331163.378616-1.7363281.4533746-3.4003092.7970228-4.9919434,1.0321506-1.5916341.233922-3.5088298.3520888-5.7515869.3520888-3.0385742,0-5.4525526-.317121-7.243141-.9501573-1.7905884-.6318305-3.0024007-1.631425-3.635437-2.9975776-.6330363-1.3649468-.7150296-3.1603583-.244774-5.3850288l.0542603-.2713013c.361735-1.6458944.8958971-3.0470147,1.6012804-4.2045668.7053833-1.1575521,1.659158-2.1342367,2.8613241-2.9300537,1.2033719-.7958171,2.6732218-1.3890625,4.40955-1.7773248,1.7363281-.389468,3.824745-.5835992,6.2664564-.5835992h3.9067383l.5160753-2.4417114c.361735-1.7363281.2254815-2.9204074-.4075548-3.5534437-.6330363-.6330363-1.8171156-.9501573-3.5534437-.9501573ZM354.1860474,82.9859233l1.7363281-8.2210314h-3.9067383c-1.6820679,0-2.9577867.1495171-3.8259508.4473456-.8681641.2990343-1.4963772.7596436-1.8858453,1.3842394-.3882623.62339-.7005602,1.4963772-.9356879,2.6177558l-.0807875.3255615c-.217041,1.0490316-.217041,1.8496718,0,2.4007148.217041.5522488.695737.9405111,1.4372938,1.1671984.7415568.2254815,1.8906684.3388251,3.446129.3388251,1.5735474,0,2.911967-.1531345,4.0152588-.4606093ZM366.9914673,45.6548686c-.0180868.144694-.1181668.289388-.2990343.434082l-8.0027846,6.8898465c-.289388.2544203-.5341621.4389052-.7331163.5570719-.1989543.116961-.4606093.1760444-.7861708.1760444h-4.7749023c-.3255615,0-.461815-.1266073-.4075548-.3798218.0542603-.2351278.172427-.4244358.3532945-.5703356l6.7005385-6.6728054c.3436483-.3436483.6101264-.5655124.8006402-.6655924.189308-.0988742.4569919-.1495171.8006402-.1495171h5.8323744c.3979085,0,.5703356.127813.5160753.3810276Z"/>
    <path class="cls-3" d="M386.2321533,87.5968391c-.1085205.5618951-.5245158.8958971-1.2479858,1.0044176-1.6097209.2532145-3.0928345.3798218-4.4493408.3798218-2.2065837,0-3.8886515-.2218641-5.0462036-.6643867-1.1575521-.4437283-1.8991089-1.297423-2.2246704-2.5647013-.3255615-1.2648668-.2266873-3.1278022.2978285-5.5876004l3.6896973-17.4452745-4.4216078-.7861708c-.7234701-.1266073-1.0225043-.4979886-.8958971-1.1129381l.5426025-2.4959717c.0542603-.3074748.2086005-.5703356.461815-.7873766s.5426025-.3255615.8681641-.3255615h4.6121216l.9766846-4.5578613c.1266073-.6137438.578776-.9851251,1.3565063-1.1117323l5.3440321-.8946913h.244774c.578776,0,.8042575.2797418.6776503.840431l-1.2202528,5.7238539h5.6153334c.3436483,0,.5968628.10008.7596436.2990343s.2086005.4702555.1362535.8139038l-.7053833,3.2833483c-.072347.3074748-.2399509.5691298-.5028117.7861708-.261655.217041-.5462199.3255615-.8536947.3255615h-5.6165392l-3.6896973,17.4452745c-.289388,1.3745931-.3569119,2.2331109-.2037774,2.5767592.1543403.3436483.7198527.5148695,1.6965373.5148695h3.5534437c.7777303,0,1.1129381.2809475,1.0044176.8416368l-.7596436,3.4991835Z"/>
    <path class="cls-3" d="M435.539049,87.8138801c-.1085205.4895481-.3979085.7331163-.8681641.7331163h-3.5546495c-.3979085,0-.6740329-.0409966-.8271674-.1217841-.1543403-.0819933-.3122979-.2857707-.4750787-.6113322l-6.40271-16.5481717h-1.4372938c-1.1213786,0-3.156741-.055466-6.1048815-.1639865l-3.4726562,16.3335422c-.072347.3255615-.2218641.5920397-.4473456.7994344-.2266873.2086005-.4931654.3122979-.8006402.3122979h-2.984314c-.289388,0-.506429-.1036974-.651123-.3122979-.144694-.2073947-.1808675-.4738729-.1085205-.7994344l8.2752916-38.9058078c.144694-.7222643.6692098-1.1298191,1.5735474-1.2202528.6872965-.072347,1.6953315-.1495171,3.0241048-.2303046,1.3299791-.0819933,2.6274021-.1362535,3.8934747-.1627808,1.2660726-.027733,2.2608439-.0409966,2.984314-.0409966,3.0747477,0,5.6888862.3846449,7.8412096,1.1527289,2.1523234.7692898,3.6981377,2.048626,4.6386488,3.8392144.9405111,1.7905884,1.1129381,4.1056925.5160753,6.9453125l-.0819933.4075548c-.6330363,2.9662272-1.9437229,5.3982924-3.9332655,7.2974013-1.9895426,1.8991089-4.3769938,3.201355-7.1623535,3.9067383l6.5112305,16.902672c.072347.161575.0904338.3255615.0542603.4871365ZM435.0772339,59.219932l.0819933-.4075548c.3798218-1.7905884.2978285-3.2327053-.244774-4.3275567-.5426025-1.0936456-1.5325507-1.876199-2.9710503-2.3464545-1.4372938-.4702555-3.3593126-.7053833-5.7648505-.7053833-3.201355,0-5.2535984.0542603-6.1579359.1627808l-3.2556152,15.2206041c3.2556152.072347,5.2994181.1085205,6.1314087.1085205,2.3874512,0,4.3902574-.2315104,6.0084188-.6921197,1.6193671-.461815,2.9481405-1.2576321,3.9887316-2.3874512,1.0393853-1.1310248,1.7676785-2.6720161,2.1836738-4.6253852Z"/>
    <path class="cls-3" d="M444.0084717,77.3151238l3.880211-18.2037123c.0542603-.3074748.2073947-.5703356.4606093-.7873766s.5426025-.3255615.8681641-.3255615h2.6587524c.3074748,0,.5474257.1085205.7198527.3255615.1712212.217041.2303046.4799018.1760444.7873766l-3.880211,18.2037123c-.578776,2.7310994-.4835192,4.6579414.2857707,5.7793199.768084,1.1213786,2.2921943,1.6808621,4.5711249,1.6808621.8500773,0,2.0160699-.0988742,3.4991835-.2978285s2.7769192-.434082,3.880211-.7053833l5.2632446-24.6606825c.0542603-.289388.2073947-.5474257.4606093-.774113.2532145-.2254815.5426025-.3388251.8681641-.3388251h2.7130127c.3074748,0,.5377794.1085205.6921197.3255615.1531345.217041.2037774.4799018.1495171.7873766l-5.6973267,26.7768324c-.144694.6872965-.578776,1.1310248-1.3022461,1.3299791-4.6844686,1.1382595-8.6370266,1.7085951-11.8564684,1.7085951-2.7310994,0-4.8062527-.4521688-6.2254598-1.3565063-1.4204129-.9043376-2.2753133-2.2017605-2.5647013-3.8934747-.289388-1.6905084-.1627808-3.8114814.3798218-6.3617133ZM463.3528551,44.3791497c-.7596436,0-1.4336765.0590834-2.020893.1760444-.5884223.1181668-1.325156.3122979-2.2114068.5835992-1.1032918.3436483-1.5651069.072347-1.3842394-.8139038l.244774-1.1129381c.0542603-.2520087.1844849-.450963.3930854-.595657.2073947-.144694.4027317-.2532145.5835992-.3255615.5245158-.217041,1.2347222-.4256415,2.1294135-.6245958.8958971-.1989543,1.7857652-.2990343,2.6720161-.2990343,1.6278076,0,2.867353.3255615,3.7174303.9766846s1.1298191,1.6832737.840431,3.0940403l-.0542603.2700955c-.0904338.4172011-.2435683.8235501-.4606093,1.2214586s-.5389852.8319906-.963421,1.3022461c-.4256415.4702555-1.0080349,1.0490316-1.7495917,1.7363281l-1.2757189,1.1659926c-.5245158.4895481-.8368137.7921997-.9356879.9091607-.10008.1181668-.2086005.2713013-.3255615.461815-.1181668.189308-.2037774.4208184-.2580377.6909139l-.2435683,1.1406711c-.0542603.2532145-.2218641.4871365-.5016059.7041775-.2809475.217041-.6113322.3255615-.991154.3255615h-1.0032118c-.3798218,0-.6607693-.1121379-.8416368-.3388251-.1808675-.2254815-.2435683-.4557861-.189308-.6909139l.2435683-1.1406711c.1085205-.5426025.2532145-1.0080349.434082-1.3962972.1808675-.389468.434082-.774113.7596436-1.1527289.3255615-.3810276.7512031-.7958171,1.2757189-1.2491916l1.3022461-1.1659926c.651123-.5968628,1.0936456-1.0622952,1.3287733-1.397503.2351278-.334002.3979085-.7090007.4883423-1.1262017l.0542603-.2700955c.0542603-.7065891-.2978285-1.0586778-1.0574721-1.0586778Z"/>
    <path class="cls-3" d="M478.1164673,87.4352641c-.072347.3255615-.2399509.5920397-.5016059.7994344-.2628608.2086005-.5474257.3122979-.8549004.3122979h-2.6587524c-.2713013,0-.5016059-.1085205-.6921197-.3255615-.189308-.217041-.2483914-.478696-.1760444-.7861708l6.0228882-28.3238525c.0542603-.3074748.2122179-.5703356.4750787-.7873766.261655-.217041.5462199-.3255615.8549004-.3255615h2.6575467c.3436483,0,.5980686.10008.7596436.2978285.1639865.20016.2086005.4714613.1362535.8151096l-6.0228882,28.3238525ZM485.7394301,51.9755853c-.0530545.3255615-.2122179.5920397-.4738729.8006402-.2628608.2073947-.5474257.3110921-.8549004.3110921h-2.8215332c-.3074748,0-.5474257-.1085205-.7186469-.3255615-.172427-.217041-.2315104-.478696-.1760444-.7861708l.9489516-4.4228136c.072347-.306269.2351278-.5691298.4883423-.7861708.2532145-.217041.5426025-.3255615.8681641-.3255615h2.8215332c.3436483,0,.5920397.10008.7463799.2990343.1531345.1989543.1941311.4702555.1217841.812698l-.9501573,4.4228136Z"/>
    <path class="cls-3" d="M519.1480713,57.5366584c1.4650269,0,2.7033664.0916395,3.7162245.2725071.3810276.072347.6113322.1941311.6921197.3653524.0819933.172427.0856106.4389052.0144694.8006402l-.434082,2.0076294c-.0916395.3798218-.2218641.6378594-.3942912.7729072-.1712212.1362535-.4654324.1953369-.8814277.1772502-1.2479858-.072347-2.4597982-.1085205-3.635437-.1085205-2.3151042,0-4.5759481.2797418-6.7825317.840431l-5.2632446,24.7704088c-.072347.289388-.244774.5462199-.5148695.7729072-.2725071.2254815-.5522488.3388251-.8416368.3388251h-2.7130127c-.2713013,0-.4931654-.1085205-.6643867-.3255615-.172427-.217041-.2218641-.478696-.1495171-.7861708l5.6973267-26.8865587c.144694-.6872965.578776-1.1298191,1.3022461-1.3287733,2.2427572-.5980686,4.2274767-1.0273275,5.9553643-1.2889825,1.7266819-.2628608,3.3593126-.3942912,4.8966865-.3942912Z"/>
    <path class="cls-3" d="M549.2673354,75.3894877c-.8862508,4.1599528-2.650312,7.4553589-5.2909776,9.8886298-2.6406657,2.4320652-5.9589817,3.6487006-9.9561537,3.6487006-3.9790853,0-6.7740913-1.2166355-8.3838121-3.6487006-1.6097209-2.4332709-1.9714559-5.728677-1.0852051-9.8886298l.8958971-4.2322998c.8862508-4.1792453,2.6491062-7.4842977,5.2897719-9.9163628,2.6406657-2.4332709,5.9505412-3.6487006,9.9308322-3.6487006,3.9959663,0,6.7994127,1.2154297,8.4091336,3.6487006,1.6097209,2.4320652,1.9714559,5.7371175,1.0852051,9.9163628l-.8946913,4.2322998ZM544.3839125,75.3894877l.8946913-4.2322998c.4159953-1.9352824.5028117-3.5956462.2580377-4.9786797-.2435683-1.3842394-.840431-2.4465346-1.7905884-3.1880914-.9489516-.7415568-2.2741075-1.1129381-3.9742622-1.1129381-2.5140584,0-4.5578613.8102865-6.1314087,2.4284478-1.5735474,1.6193671-2.6768392,3.9031209-3.3098755,6.8512614l-.8958971,4.2322998c-1.3203328,6.1856689.506429,9.2772976,5.4814914,9.2772976,2.5128526,0,4.5614787-.8042575,6.1446723-2.4139784,1.5819878-1.6097209,2.6901028-3.897092,3.3231391-6.8633192Z"/>
    <path class="cls-3" d="M130.5548225,143.8273431c-1.6639811,7.8496501-7.9039103,11.7744751-18.7197876,11.7744751-3.924825,0-6.9000956-.1627808-8.9258118-.4883423-.6330363-.0904338-1.0628981-.2845649-1.2889825-.5835992-.2260844-.2978285-.2664781-.7909939-.1217841-1.4782905l7.8677368-37.0054932c.2713013-1.2660726,1.0128581-1.9533691,2.2246704-2.0618896,2.4959717-.289388,5.4712423-.434082,8.9258118-.434082,3.2194417,0,5.9547614.3255615,8.2071648.9766846,2.2511976.651123,3.9200019,1.7676785,5.005207,3.3508721,1.0852051,1.5819878,1.347463,3.7126072.7867737,6.3894463l-.1899109.8946913c-.434082,2.0438029-1.3384196,3.8295681-2.7130127,5.3585015-1.3745931,1.5277276-3.0747477,2.6539293-5.1004639,3.3773994,1.7725016.6330363,3.0385742,1.7495917,3.7982178,3.3508721.7596436,1.6000746.9133809,3.4774794.4612122,5.628597l-.217041.9501573ZM125.5086189,143.8273431l.217041-.9501573c.434082-2.0968574.1537374-3.7982178-.8410339-5.1004639s-3.0114441-1.9533691-6.0500183-1.9533691h-8.5731201l-3.2556152,15.2748644c.651123.0180868,1.6048977.0639065,2.8619269.1350477,1.2570292.0735528,2.2114068.1085205,2.8625298.1085205,2.4597982,0,4.5445977-.217041,6.2531928-.651123,1.7098009-.434082,3.1205675-1.1973429,4.2322998-2.2921943,1.1129381-1.0936456,1.8768019-2.6177558,2.2927972-4.5711249ZM129.2797065,125.1618157l.1899109-.8946913c.5245158-2.4778849-.05004-4.1695991-1.7224616-5.0739366-1.6736274-.9043376-4.3908603-1.3565063-8.1529046-1.3565063-.8500773,0-1.4017232.0048231-1.6549377.0132636-.2532145.0096463-.7915968.027733-1.614544.0542603-.8229472.027733-1.5777676.0590834-2.2650642.0952569l-2.9300537,13.7821045h8.5731201c5.4441121,0,8.6364237-2.2065837,9.5769348-6.619751Z"/>
    <path class="cls-3" d="M147.4080573,151.3417853c1.2298991,0,2.4640184-.116961,3.7035638-.3520888,1.2383396-.2351278,2.4640184-.5474257,3.6758308-.9356879,1.2118123-.389468,2.1884969-.7186469,2.9300537-.991154.434082-.1796617.7506002-.1941311.9495544-.0397909.1989543.1531345.2622579.4027317.1899109.7463799l-.4883423,2.2789307c-.0904338.378616-.4159953.7138238-.9766846,1.0032118-3.5811768,1.7001546-7.2075704,2.5502319-10.8791809,2.5502319-2.3151042,0-4.3317769-.4111721-6.0500183-1.2347222-1.7182414-.8223443-2.9439202-2.2246704-3.6758308-4.2045668-.7331163-1.9811022-.7554233-4.6072984-.0681268-7.8810004l1.0852051-5.0196764c.8500773-4.0152588,2.6044922-7.1852634,5.2632446-9.5088081,2.6587524-2.3247504,5.9414978-3.4859199,9.8482361-3.4859199,2.6225789,0,4.7387288.5281331,6.3484497,1.586811,1.6097209,1.0574721,2.6629727,2.5731418,3.1603583,4.5433919.4973857,1.9726617.4750787,4.2600328-.0675239,6.864525l-.651123,3.0108412c-.1627808.8151096-.5968628,1.2214586-1.3022461,1.2214586h-18.6112671l-.1899109.7873766c-.6692098,3.2194417-.528736,5.5345459.4202155,6.9453125.9501573,1.4107666,2.744966,2.1149441,5.3856316,2.1149441ZM145.6717292,163.1982537c-.072347.3074748-.2399509.5606893-.5022088.7596436s-.5468228.2978285-.8542976.2978285h-2.1704102c-.2713013,0-.5022088-.0988742-.6915168-.2978285-.1905138-.1989543-.2489943-.4521688-.1766473-.7596436l.9495544-4.5036011c.0542603-.2713013.2260844-.5245158.5154724-.7596436s.5697327-.3520888.8410339-.3520888h2.1704102c.3074748,0,.5426025.116961.7053833.3520888s.217041.4883423.1627808.7596436l-.9495544,4.5036011ZM157.3105537,137.7767219l.1085205-.5148695c.434082-2.0438029.5196927-3.7174303.2580377-5.0196764-.2628608-1.3022461-.8639438-2.2415514-1.8044549-2.8215332-.9405111-.5775703-2.2337138-.8681641-3.8796082-.8681641-4.9738566,0-8.0757345,2.9035265-9.3056335,8.7093736l-.1085205.5148695h14.7316589ZM162.8722297,121.0380364c-.0542603.2532145-.2532145.3798218-.5968628.3798218h-2.8757935c-.2713013,0-.4612122-.0494371-.5697327-.1495171-.1085205-.0988742-.2803446-.3291789-.5154724-.6909139l-3.418396-5.3729709-5.7515869,5.3729709c-.3979085.3436483-.6782532.5691298-.8410339.6776503s-.3707784.1627808-.6239929.1627808h-2.9029236c-.3255615,0-.4612122-.1266073-.4069519-.3798218.0542603-.2351278.1627808-.4244358.3255615-.5691298l6.8096619-6.892258c.3798218-.3605292.651123-.5872165.8139038-.6776503s.3979085-.1350477.7053833-.1350477h4.7206421c.4702555,0,.8681641.2700955,1.1937256.812698l3.8253479,6.892258c.1266073.144694.1627808.334002.1085205.5691298Z"/>
    <path class="cls-3" d="M192.8021858,135.8788188l-3.852478,18.2314453c-.072347.3074748-.2489943.5691298-.5293389.7861708s-.5558662.3255615-.8271674.3255615h-2.6587524c-.3074748,0-.5474257-.1085205-.7186469-.3255615-.172427-.217041-.2218641-.478696-.1495171-.7861708l3.852478-18.2314453c.3979085-1.8448486.4925625-3.3110813.2845649-4.3962863s-.7367337-1.8617296-1.586811-2.3319851-2.0347595-.7065891-3.5540466-.7065891c-2.2789307,0-4.7387288.3352078-7.3793945,1.0044176l-5.2361145,24.6618883c-.072347.289388-.2441711.5462199-.5154724.7729072-.2713013.2254815-.5516459.3388251-.8410339.3388251h-2.7130127c-.2713013,0-.4931654-.1085205-.6643867-.3255615-.172427-.217041-.2218641-.478696-.1495171-.7861708l5.6701965-26.7780382c.144694-.6872965.578776-1.1298191,1.3022461-1.3287733,4.7387288-1.1575521,8.6816406-1.7363281,11.8287354-1.7363281,2.0799764,0,3.7843513.2568319,5.1143304.7729072,1.3287733.5148695,2.2921943,1.2612495,2.8890571,2.237934s.9224243,2.165587.9766846,3.5679131c.0542603,1.4011203-.1266073,3.0795709-.5426025,5.03294Z"/>
    <path class="cls-3" d="M219.8292182,154.1102641c-.072347.3074748-.2483914.5691298-.5293389.7861708-.2797418.217041-.5558662.3255615-.8271674.3255615h-2.6587524c-.3074748,0-.5474257-.1085205-.7186469-.3255615-.172427-.217041-.2218641-.478696-.1495171-.7861708l3.880211-18.2869113c.5606893-2.6756334.4473456-4.5578613-.3400309-5.6430664-.7861708-1.0852051-2.1475003-1.6278076-4.0827827-1.6278076-1.0128581,0-2.2970174.1314304-3.852478.3942912-1.5554606.261655-2.9300537.6462999-4.1237793,1.1527289l-5.1004639,24.0107652c-.072347.289388-.2441711.5462199-.5154724.7729072-.2713013.2254815-.5516459.3388251-.8410339.3388251h-2.7130127c-.2713013,0-.4931654-.1085205-.6643867-.3255615-.172427-.217041-.2218641-.478696-.1495171-.7861708l8.4103394-39.5569309c.0542603-.3255615.2037774-.5920397.4473456-.7994344.244774-.2086005.5202955-.3122979.8277703-.3122979h2.7672729c.3255615,0,.5606893.1036974.7053833.3122979.144694.2073947.1899109.4738729.1356506.7994344l-2.4417114,11.4501194c1.4107666-.578776,2.9071438-1.0128581,4.4903375-1.3022461,1.5819878-.289388,3.0337511-.434082,4.3540839-.434082,2.0076294,0,3.6812568.4015259,5.0196764,1.2069892,1.3384196.8042575,2.2331109,2.0799764,2.6852797,3.824745.4521688,1.7459744.4075548,3.9200019-.1350477,6.5244941l-3.880211,18.2869113Z"/>
    <path class="cls-3" d="M274.3716255,152.997326c-.1266073.6149495-.4521688,1.1394653-.9766846,1.5735474s-1.0936456.651123-1.7085951.651123h-5.6165392c-.8500773,0-1.5048177-.116961-1.9666328-.3520888-.4606093-.2351278-.7909939-.7873766-.9899482-1.6555406l-6.5654907-27.0493395c-.0904338-.2881822-.2351278-.434082-.434082-.434082-.1808675,0-.2990343.1458998-.3532945.434082l-5.9408949,27.9452365c-.072347.3255615-.2351278.5920397-.4883423.7994344-.2532145.2086005-.5245158.3122979-.8139038.3122979h-4.7206421c-.2713013,0-.5016059-.1085205-.6921197-.3255615-.189308-.217041-.2483914-.478696-.1760444-.7861708l8.0570448-37.9556505c.1266073-.6149495.4521688-1.1394653.9766846-1.5735474s1.0948513-.651123,1.7098009-.651123h5.9951552c.6149495,0,1.0719415.1266073,1.3709757.3798218.2978285.2532145.5281331.7234701.6909139,1.4107666l6.8910522,28.5674208c.072347.2905938.1905138.434082.3532945.434082.1808675,0,.3074748-.1712212.3798218-.5148695l6.2121962-29.2197496c.072347-.306269.2266873-.5594835.461815-.7596436.2351278-.1977485.506429-.2978285.8139038-.2978285h4.7749023c.3074748,0,.5426025.10008.7053833.2978285.1627808.20016.2073947.4533746.1350477.7596436l-8.0847778,38.0099108Z"/>
    <path class="cls-3" d="M293.2324897,160.457508c1.4831136,0,2.6358426-.144694,3.4593926-.434082.8223443-.289388,1.4372938-.7729072,1.8448486-1.4505575.406349-.6788561.7548204-1.7049778,1.0442084-3.0795709l.0819933-.434082c-.4159953.072347-1.3167155.189308-2.6997491.3532945-1.3842394.161575-2.3018405.2435683-2.7540093.2435683-2.9481405,0-5.2897719-.551043-7.0261-1.6543349-1.7363281-1.1032918-2.8721761-2.7045722-3.4051324-4.8026354-.5341621-2.0980632-.4931654-4.5940348.1217841-7.487915l.8958971-4.2600328c.6149495-2.8926744,1.6362481-5.3886461,3.0651015-7.487915,1.4288534-2.0968574,3.2471748-3.6981377,5.4537584-4.8014296,2.2065837-1.1032918,4.7833428-1.6543349,7.7314833-1.6543349.9947713,0,1.9581923.0313504,2.8890571.0940511.9320706.0639065,1.7640611.144694,2.4959717.244774.7331163.0988742,1.6965373.2664781,2.8902629.5016059,1.1937256.2351278,2.0522434.434082,2.5767592.5968628.578776.144694.9453342.3207384,1.0984687.5293389.1543403.2073947.1856906.5293389.0952569.963421l-6.1036757,28.6759413c-.5606893,2.6044922-1.4746731,4.7387288-2.7407457,6.40271-1.2660726,1.6639811-2.9167901,2.8842339-4.9509467,3.66317-2.0353624.7765245-4.4722507,1.1659926-7.3118707,1.1659926-1.8810221,0-3.6945204-.2303046-5.439289-.6921197-1.7459744-.4606093-3.1784451-.9718614-4.2998237-1.5325507-.1989543-.1266073-.3846449-.2580377-.5570719-.3930854-.1712212-.1362535-.2749186-.2845649-.3110921-.4485514-.0361735-.161575-.027733-.3701755.0265272-.62339l.5968628-2.8215332c.1808675-.8139038.6330363-1.1129381,1.3565063-.8958971,1.4107666.361735,3.0253106.7065891,4.8424262,1.0321506,1.8183214.3255615,3.4955661.4871365,5.03294.4871365ZM300.9109185,149.2268412l4.0960463-19.2358629c-.651123-.144694-1.4155897-.261655-2.2921943-.3532945-.8778103-.089228-1.8581123-.1350477-2.9433173-.1350477-2.2427572,0-3.9429118.6969428-5.1004639,2.0884169-1.1575521,1.3938856-2.0076294,3.3472548-2.5502319,5.8601074l-.8958971,4.2600328c-.2351278,1.1394653-.3665582,2.1981432-.3930854,3.1748277-.027733.9766846.1085205,1.8267619.406349,2.5490262.2990343.7246758.7958171,1.2757189,1.4927599,1.6555406.695737.3798218,1.614544.5703356,2.7540093.5703356.651123,0,1.5192871-.0458198,2.6044922-.1362535,1.0852051-.0904338,2.0257161-.189308,2.8215332-.2978285Z"/>
    <path class="cls-3" d="M340.4991998,154.054798c-.0542603.2905938-.2218641.5570719-.5016059.8006402-.2809475.244774-.5655124.3665582-.8549004.3665582h-5.1281969c-.3074748,0-.5377794-.1217841-.6909139-.3665582-.1543403-.2435683-.2037774-.5100464-.1495171-.8006402l3.9067383-18.2844998c.361735-1.7001546.506429-2.9626099.434082-3.7849542-.072347-.8235501-.3979085-1.4059435-.9766846-1.7495917-.578776-.3436483-1.4927599-.5160753-2.7407457-.5160753-1.8810221,0-4.1683933.6330363-6.8633192,1.8991089l-4.7749023,22.4360121c-.0542603.3255615-.2134237.6016859-.4750787.8283732-.2628608.2254815-.5558662.3388251-.8814277.3388251h-5.1004639c-.3255615,0-.5655124-.1217841-.7186469-.3665582-.1543403-.2435683-.2037774-.5100464-.1495171-.8006402l8.5188599-40.0163344c.0542603-.2713013.217041-.5245158.4883423-.7596436s.5606893-.3532945.8681641-.3532945h5.1004639c.3074748,0,.5462199.1085205.7186469.3255615.1712212.217041.2218641.4799018.1495171.7873766l-2.4417114,11.5031738c2.5321452-1.3565063,5.4706394-2.0341566,8.8166884-2.0341566,6.6378377,0,9.0891954,4.0876058,7.3528673,12.2628174l-3.9067383,18.2844998Z"/>
    <path class="cls-3" d="M355.6161065,154.054798c-.0542603.3255615-.2134237.6016859-.4750787.8283732-.2628608.2254815-.5558662.3388251-.8814277.3388251h-5.1004639c-.3255615,0-.5655124-.1217841-.7186469-.3665582-.1543403-.2435683-.2037774-.5100464-.1495171-.8006402l6.1856689-29.0557631c.072347-.3074748.2351278-.5703356.4883423-.7873766s.5426025-.3255615.8681641-.3255615h5.1004639c.3436483,0,.5920397.10008.7463799.2990343.1531345.1989543.1941311.4702555.1217841.8139038l-6.1856689,29.0557631ZM363.3210626,118.596325c-.072347.3255615-.2399509.5920397-.5016059.8006402-.2628608.2073947-.5474257.3122979-.8549004.3122979h-5.3717651c-.289388,0-.5341621-.1049032-.7331163-.3122979-.1989543-.2086005-.261655-.4750787-.189308-.8006402l1.0309448-4.8834229c.072347-.289388.2532145-.5474257.5426025-.7729072.289388-.2266873.578776-.3400309.8681641-.3400309h5.3717651c.3074748,0,.5462199.1085205.7186469.3255615.1712212.217041.2218641.4799018.1495171.7873766l-1.0309448,4.8834229Z"/>
    <path class="cls-3" d="M376.4026069,155.6560784c-2.3331909,0-4.4758681-.4292589-6.4292372-1.2889825-1.9533691-.8585178-3.418396-2.3283678-4.3950806-4.4083442-.9766846-2.0799764-1.1032918-4.8291626-.3798218-8.2475586l.8681641-4.0960463c.6149495-2.83962,1.6688043-5.3355916,3.1603583-7.487915,1.4927599-2.1523234,3.3641357-3.7946004,5.6165392-4.9244195,2.2511976-1.1310248,4.7700792-1.6953315,7.5554389-1.6953315s5.049821.595657,6.7957954,1.7893826c1.7447686,1.1937256,2.9035265,2.8492662,3.4726562,4.9654161.5703356,2.1161499.5558662,4.5675076-.0409966,7.3528673l-.651123,3.0916287c-.1989543.9417169-.6692098,1.4107666-1.4107666,1.4107666h-18.1229248l-.0265272.1639865c-.4521688,2.0980632-.2942112,3.7982178.4750787,5.1004639.768084,1.3022461,2.571936,1.9533691,5.411556,1.9533691,1.5554606,0,3.273702-.1591634,5.1547241-.4750787,1.8810221-.317121,3.4364827-.6559462,4.6663818-1.0176812.8319906-.2351278,1.1575521.0542603.9766846.8681641l-.6776503,3.2821425c-.0904338.3629408-.2495972.6426826-.4750787.8416368-.2266873.1989543-.5655124.3979085-1.0176812.5968628-1.2660726.5968628-2.8577067,1.1165554-4.7749023,1.5602837-1.9171956.4425225-3.8343913.6643867-5.7515869.6643867ZM393.4137994,120.0070916c-.0542603.2532145-.2532145.3798218-.5968628.3798218h-4.6121216c-.1989543,0-.3581177-.0265272-.4750787-.0819933-.1181668-.0530545-.2303046-.1434882-.3388251-.2700955s-.2086005-.2532145-.2990343-.3810276l-2.984314-4.5023953-4.9099501,4.5023953c-.3255615.2905938-.5751587.4847249-.7463799.5835992-.172427.10008-.4208184.1495171-.7463799.1495171h-4.6121216c-.3255615,0-.4606093-.1266073-.406349-.3798218.0542603-.2351278.1712212-.4244358.3520888-.5703356l6.5112305-6.6728054c.3979085-.361735.6824734-.5884223.8549004-.6788561.1712212-.0904338.4292589-.1362535.7729072-.1362535h7.2166138c.3436483,0,.5884223.0506429.7331163.1495171.144694.10008.3255615.3219442.5426025.6655924l3.6619642,6.6728054c.1085205.1458998.1362535.3352078.0819933.5703356ZM385.4098091,136.8820306l.0542603-.217041c.4702555-2.2427572.3026516-3.9429118-.5016059-5.1004639-.8054633-1.1575521-2.1113268-1.7363281-3.9200019-1.7363281-1.1575521,0-2.2343167.2483914-3.229088.7463799-.9947713.4967828-1.8532891,1.252809-2.5767592,2.265667s-1.2479858,2.2873711-1.5735474,3.824745l-.0542603.217041h11.8010023Z"/>
    <path class="cls-3" d="M419.5178047,154.054798c-.0542603.3255615-.2122179.6016859-.4750787.8283732-.261655.2254815-.5558662.3388251-.8814277.3388251h-5.1004639c-.3255615,0-.5655124-.1217841-.7186469-.3665582-.1543403-.2435683-.2037774-.5100464-.1495171-.8006402l3.9067383-18.3399658c.3255615-1.4999946.4256415-2.6756334.2990343-3.5257107s-.5341621-1.4746731-1.2214586-1.8725817c-.6872965-.3979085-1.7363281-.5968628-3.1470947-.5968628-1.0852051,0-2.3235447.1808675-3.7162245.5426025l-5.0739366,23.7925184c-.0542603.3255615-.2122179.6016859-.4750787.8283732-.261655.2254815-.5558662.3388251-.8814277.3388251h-5.1004639c-.3255615,0-.5655124-.1217841-.7186469-.3665582-.1543403-.2435683-.2037774-.5100464-.1495171-.8006402l5.9143677-27.78125c.1085205-.4871365.5606893-.8585178,1.3565063-1.1117323,1.5192871-.4883423,3.2869656-.8862508,5.3042413-1.1937256,2.0160699-.3074748,3.7487807-.4606093,5.1957208-.4606093,3.7982178,0,6.5015842.7138238,8.1113051,2.1426771,1.5192871-.6149495,3.1470947-1.1262017,4.8834229-1.5325507,1.7363281-.4075548,3.3918688-.6101264,4.9654161-.6101264,3.5269165,0,5.9770684.9766846,7.3516615,2.9300537,1.3745931,1.9533691,1.6193671,5.0281169.7331163,9.2242432l-3.9344713,18.3930203c-.0542603.3255615-.2122179.6016859-.4750787.8283732-.261655.2254815-.5558662.3388251-.8814277.3388251h-5.1004639c-.3255615,0-.5655124-.1217841-.7186469-.3665582-.1543403-.2435683-.2037774-.5100464-.1495171-.8006402l3.9067383-18.3399658c.3255615-1.4819078.4389052-2.6539293.3388251-3.5124471-.0988742-.8597236-.4473456-1.4879367-1.0442084-1.8858453s-1.4915541-.5968628-2.6852797-.5968628c-1.5012004,0-3.1832682.3520888-5.0462036,1.0586778.0361735,1.5373739-.1266073,3.1651815-.4883423,4.8834229l-3.9344713,18.3930203Z"/>
    <path class="cls-3" d="M476.7466973,154.2718391c-.1085205.5618951-.5245158.8958971-1.2479858,1.0044176-1.6097209.2532145-3.0928345.3798218-4.4493408.3798218-2.2065837,0-3.8886515-.2218641-5.0462036-.6643867-1.1575521-.4437283-1.8991089-1.297423-2.2246704-2.5647013-.3255615-1.2648668-.2266873-3.1278022.2978285-5.5876004l3.6896973-17.4452745-4.4216078-.7861708c-.7234701-.1266073-1.0225043-.4979886-.8958971-1.1129381l.5426025-2.4959717c.0542603-.3074748.2086005-.5703356.461815-.7873766s.5426025-.3255615.8681641-.3255615h4.6121216l.9766846-4.5578613c.1266073-.6137438.578776-.9851251,1.3565063-1.1117323l5.3440321-.8946913h.244774c.578776,0,.8042575.2797418.6776503.840431l-1.2202528,5.7238539h5.6153334c.3436483,0,.5968628.10008.7596436.2990343s.2073947.4702555.1350477.8139038l-.7041775,3.2833483c-.0735528.3074748-.2399509.5691298-.5028117.7861708-.261655.217041-.5474257.3255615-.8549004.3255615h-5.6153334l-3.6896973,17.4452745c-.289388,1.3745931-.3569119,2.2331109-.2037774,2.5767592.1543403.3436483.7198527.5148695,1.6965373.5148695h3.5534437c.7777303,0,1.1117323.2809475,1.0044176.8416368l-.7596436,3.4991835Z"/>
    <path class="cls-3" d="M502.7156549,129.7739373c-.361735-.0180868-.7150296-.0313504-1.0574721-.0409966-.3448541-.0084405-.8235501-.0132636-1.4384996-.0132636-1.7001546,0-3.56309.1989543-5.5888062.5968628l-5.0462036,23.7382582c-.0542603.3255615-.2122179.6016859-.4750787.8283732-.261655.2254815-.5558662.3388251-.8814277.3388251h-5.1004639c-.3255615,0-.5655124-.1217841-.7186469-.3665582-.1543403-.2435683-.2037774-.5100464-.1495171-.8006402l5.9143677-27.78125c.1085205-.5426025.5606893-.912778,1.3565063-1.1117323,1.9533691-.506429,4.0236993-.9091607,6.2121962-1.2069892,2.1884969-.2990343,4.1961263-.4473456,6.024094-.4473456.9393053,0,1.6905084.0361735,2.2511976.1085205.7234701.072347,1.0212986.4244358.8958971,1.0574721l-.8681641,3.9875258c-.1458998.7427626-.5884223,1.1129381-1.3299791,1.1129381Z"/>
    <path class="cls-3" d="M532.1837959,141.8197137c-.5606893,2.6406657-1.5783705,5.0196764-3.0518378,7.1346205-1.4746731,2.1173557-3.3279622,3.7632501-5.5622789,4.9388889-2.2331109,1.1756388-4.7700792,1.7628554-7.6096992,1.7628554-2.8034465,0-5.0872002-.5872165-6.8500556-1.7628554-1.7640611-1.1756388-2.9264364-2.8215332-3.4871257-4.9388889-.5606893-2.1149441-.5606893-4.4939548,0-7.1346205l.9501573-4.4770738c.5606893-2.6394599,1.5735474-5.0184706,3.0385742-7.1346205,1.4650269-2.1161499,3.3279622-3.7620443,5.5888062-4.9376831,2.2608439-1.1756388,4.7929891-1.7628554,7.5964355-1.7628554,2.83962,0,5.1281969.5872165,6.864525,1.7628554,1.7363281,1.1756388,2.8890571,2.8215332,3.4581868,4.9376831.5703356,2.1161499.5739529,4.4951606.0144694,7.1346205l-.9501573,4.4770738ZM517.017452,165.5579719c-.072347.3255615-.2532145.5932454-.5426025.8006402-.289388.2086005-.578776.3122979-.8681641.3122979h-3.9875258c-.289388,0-.5341621-.1036974-.7319105-.3122979-.20016-.2073947-.2628608-.4750787-.1905138-.8006402l1.0309448-4.8834229c.072347-.289388.2532145-.5462199.5426025-.7729072.289388-.2254815.578776-.3388251.8681641-.3388251h3.9875258c.289388,0,.5341621.1133436.7331163.3388251.1989543.2266873.261655.4835192.1905138.7729072l-1.0321506,4.8834229ZM524.8586616,141.8197137l.9489516-4.4770738c.4895481-2.3138984.3665582-4.1454834-.3653524-5.4935493-.7331163-1.3468601-2.0667128-2.020893-4.0019952-2.020893-1.9171956,0-3.5317396.6740329-4.8424262,2.020893-1.3118924,1.3480659-2.2114068,3.1796509-2.6997491,5.4935493l-.9489516,4.4770738c-.4895481,2.3151042-.3629408,4.1466892.378616,5.4935493.7415568,1.3480659,2.0618896,2.0220988,3.9622043,2.0220988,1.9159899,0,3.535357-.6740329,4.8556898-2.0220988,1.3203328-1.3468601,2.2246704-3.1784451,2.7130127-5.4935493Z"/>
    <path class="cls-3" d="M562.0329644,154.054798c-.0542603.2905938-.2218641.5570719-.5016059.8006402-.2809475.244774-.5655124.3665582-.8549004.3665582h-5.1269911c-.3086806,0-.5389852-.1217841-.6921197-.3665582-.1543403-.2435683-.2037774-.5100464-.1495171-.8006402l3.9067383-18.3399658c.3074748-1.4638211.3846449-2.6310194.2303046-3.4991835-.1531345-.8681641-.5920397-1.5012004-1.3155097-1.8991089s-1.7905884-.5968628-3.201355-.5968628c-1.7001546,0-3.56309.1989543-5.5888062.5968628l-5.0462036,23.7382582c-.0542603.3255615-.2122179.6016859-.4750787.8283732-.261655.2254815-.5558662.3388251-.8814277.3388251h-5.1004639c-.3255615,0-.5655124-.1217841-.7186469-.3665582-.1543403-.2435683-.2037774-.5100464-.1495171-.8006402l5.9143677-27.78125c.1085205-.5426025.5606893-.912778,1.3565063-1.1117323,1.9533691-.506429,4.0236993-.9091607,6.2121962-1.2069892,2.1884969-.2990343,4.1961263-.4473456,6.024094-.4473456,4.3577013,0,7.3516615.9622152,8.9794691,2.8890571,1.6278076,1.9256361,1.9979831,5.0148532,1.1129381,9.2652398l-3.9344713,18.3930203Z"/>
    <path class="cls-3" d="M580.6767877,160.457508c1.4831136,0,2.6358426-.144694,3.4593926-.434082.8223443-.289388,1.4372938-.7729072,1.8448486-1.4505575.406349-.6788561.7548204-1.7049778,1.0442084-3.0795709l.0819933-.434082c-.4172011.072347-1.3167155.189308-2.6997491.3532945-1.3842394.161575-2.3018405.2435683-2.7540093.2435683-2.9481405,0-5.2897719-.551043-7.0261-1.6543349-1.7363281-1.1032918-2.8721761-2.7045722-3.4051324-4.8026354-.5341621-2.0980632-.4931654-4.5940348.1217841-7.487915l.8958971-4.2600328c.6137438-2.8926744,1.6362481-5.3886461,3.0651015-7.487915,1.4288534-2.0968574,3.245969-3.6981377,5.4525526-4.8014296,2.2065837-1.1032918,4.7845486-1.6543349,7.7326891-1.6543349.9947713,0,1.9581923.0313504,2.8890571.0940511.9320706.0639065,1.7640611.144694,2.4959717.244774.7331163.0988742,1.6965373.2664781,2.8902629.5016059,1.1937256.2351278,2.0522434.434082,2.5767592.5968628.578776.144694.9453342.3207384,1.0984687.5293389.1543403.2073947.1856906.5293389.0952569.963421l-6.1048815,28.6759413c-.5606893,2.6044922-1.4734673,4.7387288-2.7395399,6.40271s-2.9167901,2.8842339-4.9509467,3.66317c-2.0353624.7765245-4.4722507,1.1659926-7.3118707,1.1659926-1.8810221,0-3.6945204-.2303046-5.439289-.6921197-1.7459744-.4606093-3.1796509-.9718614-4.3010295-1.5325507-.1989543-.1266073-.3834391-.2580377-.5558662-.3930854-.1712212-.1362535-.2761244-.2845649-.3122979-.4485514-.0361735-.161575-.0265272-.3701755.027733-.62339l.5968628-2.8215332c.1808675-.8139038.6330363-1.1129381,1.3565063-.8958971,1.4107666.361735,3.0253106.7065891,4.8424262,1.0321506,1.8183214.3255615,3.4955661.4871365,5.03294.4871365ZM588.3540107,149.2268412l4.0972521-19.2358629c-.651123-.144694-1.4155897-.261655-2.2921943-.3532945-.8778103-.089228-1.8581123-.1350477-2.9433173-.1350477-2.2439629,0-3.9441176.6969428-5.1004639,2.0884169-1.1587579,1.3938856-2.0088352,3.3472548-2.5514377,5.8601074l-.8946913,4.2600328c-.2351278,1.1394653-.3665582,2.1981432-.3930854,3.1748277-.027733.9766846.1085205,1.8267619.406349,2.5490262.2990343.7246758.7958171,1.2757189,1.4927599,1.6555406.695737.3798218,1.614544.5703356,2.7528035.5703356.651123,0,1.5192871-.0458198,2.6044922-.1362535,1.0852051-.0904338,2.0257161-.189308,2.8215332-.2978285Z"/>
    <path class="cls-3" d="M214.8939467,216.1188822c2.0799764,0,4.5578613-.4256415,7.4336548-1.2757189.8319906-.217041,1.1575521.0819933.9766846.8946913l-.7319105,3.5546495c-.0904338.3436483-.244774.6197727-.461815.8271674-.217041.2086005-.5606893.4123779-1.0309448.6101264-2.1342367,1.0683241-4.6302083,1.6012804-7.487915,1.6012804-2.4778849,0-4.5669047-.4654324-6.2670593-1.397503-1.7001546-.9308648-2.8806166-2.4055379-3.540783-4.4216078-.6601664-2.0172757-.6643867-4.5723307-.0132636-7.6639594l1.1123352-5.1824571c.6330363-3.0204875,1.7043749-5.5429864,3.2152215-7.5699083,1.5096408-2.0245104,3.3231391-3.5172702,5.439289-4.4758681,2.1161499-.9585978,4.4131673-1.4372938,6.8910522-1.4372938,2.8577067,0,5.1281969.5329563,6.8102648,1.6000746.3798218.1989543.6366536.4027317.7729072.6101264.1350477.2086005.1676039.4847249.0952569.8283732l-.7596436,3.5534437c-.1808675.8139038-.6330363,1.1129381-1.3565063.8958971-1.1394653-.3979085-2.1800564-.7102064-3.1205675-.9368937-.9405111-.2254815-2.1065036-.3388251-3.4991835-.3388251-3.7439575,0-6.1314087,2.4236247-7.1623535,7.270874l-1.1129381,5.1824571c-.5426025,2.6225789-.4244358,4.4891317.3532945,5.6020698.7777303,1.1117323,1.9256361,1.6688043,3.4449232,1.6688043Z"/>
    <path class="cls-3" d="M254.5907485,220.729798c-.0542603.2905938-.2218641.5570719-.5016059.8006402-.2809475.244774-.5655124.3665582-.8549004.3665582h-5.1269911c-.3074748,0-.5389852-.1217841-.6921197-.3665582-.1543403-.2435683-.2037774-.5100464-.1495171-.8006402l3.9067383-18.2844998c.361735-1.7001546.506429-2.9626099.434082-3.7849542-.072347-.8235501-.3979085-1.4059435-.9766846-1.7495917-.578776-.3436483-1.4915541-.5160753-2.7395399-.5160753-1.8810221,0-4.1695991.6330363-6.864525,1.8991089l-4.7749023,22.4360121c-.0542603.3255615-.2122179.6016859-.4750787.8283732-.261655.2254815-.5558662.3388251-.8814277.3388251h-5.1004639c-.3255615,0-.5655124-.1217841-.7186469-.3665582-.1543403-.2435683-.2037774-.5100464-.1495171-.8006402l8.5188599-40.0163344c.0542603-.2713013.217041-.5245158.4883423-.7596436s.5606893-.3532945.8681641-.3532945h5.1004639c.3074748,0,.5474257.1085205.7186469.3255615.172427.217041.2218641.4799018.1495171.7873766l-2.4417114,11.5031738c2.5321452-1.3565063,5.4718452-2.0341566,8.8178942-2.0341566,6.6378377,0,9.0879896,4.0876058,7.3516615,12.2628174l-3.9067383,18.2844998Z"/>
    <path class="cls-3" d="M268.3788819,191.7282952c.072347-.289388.2387451-.5558662.5016059-.8006402.261655-.2435683.5558662-.3665582.8814277-.3665582h5.1004639c.3255615,0,.5655124.1133436.7186469.3400309.1543403.2254815.1953369.5016059.1229899.8271674l-3.880211,18.3399658c-.2351278,1.0852051-.3388251,1.9991889-.3122979,2.7395399.027733.7427626.1989543,1.3577121.5160753,1.8448486.3159153.4895481.8042575.84646,1.4650269,1.0719415.6595635.2266873,1.5325507.3388251,2.6177558.3388251,1.8267619,0,3.6896973-.2073947,5.5888062-.62339l5.0196764-23.711731c.072347-.289388.2387451-.5558662.5016059-.8006402.261655-.2435683.5474257-.3665582.8549004-.3665582h5.1269911c.289388,0,.5196927.1229899.6921197.3665582.1712212.244774.2218641.5112522.1495171.8006402l-5.8878404,27.78125c-.1266073.5426025-.578776.9139838-1.3565063,1.1117323-2.0980632.5426025-4.2045668.9549805-6.3207167,1.2347222-2.1161499.2809475-4.0876058.4208184-5.9143677.4208184-2.2246704,0-4.0610786-.2303046-5.5080187-.6921197-1.4469401-.4606093-2.5948459-1.1889025-3.4449232-2.1836738-.8500773-.9947713-1.3661526-2.2524034-1.5470201-3.7716905-.1808675-1.5192871-.044614-3.3544895.4075548-5.5068129l3.9067383-18.3942261Z"/>
    <path class="cls-3" d="M328.1785048,191.5112542c-.0361735.144694-.0807875.2532145-.1350477.3255615l-16.1972887,32.4476318c-1.0671183,2.1704102-2.1294135,3.8705648-3.1880914,5.1004639-1.0574721,1.2298991-2.3693644,2.1438829-3.9332655,2.7395399-1.5651069.5980686-3.5763536.8958971-6.0361518.8958971-.9405111,0-1.9714559-.072347-3.0928345-.217041-1.1213786-.144694-1.9991889-.317121-2.6322252-.5148695-.7415568-.20016-1.0671183-.5160753-.9766846-.9501573l.7596436-3.5546495c.0542603-.2700955.2122179-.506429.4750787-.7041775.261655-.20016.5474257-.2990343.8549004-.2990343h.1085205c.4883423.0180868,1.5096408.0819933,3.0651015.1905138,1.5554606.1085205,2.5960517.161575,3.1205675.161575.8139038,0,1.5192871-.0988742,2.1161499-.2978285s1.1346422-.5558662,1.6133382-1.0719415c.4799018-.5148695.9549805-1.252809,1.425236-2.2114068l.7861708-1.6543349h-.8139038c-.6330363,0-1.2166355-.0988742-1.7495917-.2990343-.5341621-.1977485-.9947713-.6366536-1.3842394-1.3155097-.3882623-.6776503-.6366536-1.6772447-.7451742-2.9975776l-1.8448486-25.4480591c-.0180868-.1085205-.0096463-.2351278.0265272-.3798218.1266073-.5968628.5426025-.8958971,1.2479858-.8958971h5.6165392c.2532145,0,.4557861.10008.6101264.2990343.1531345.1989543.2303046.434082.2303046.7053833l.8139038,22.5999986c0,.812698.1627808,1.2202528.4883423,1.2202528h.5160753l11.0690918-23.8745117c.2713013-.6330363.7138238-.9501573,1.3287733-.9501573h5.6707994c.2532145,0,.4606093.0952569.62339.2857707.1627808.189308.217041.4111721.1627808.6643867Z"/>
    <path class="cls-3" d="M340.6909193,222.3310784c-2.3331909,0-4.4758681-.4292589-6.4292372-1.2889825-1.9533691-.8585178-3.418396-2.3283678-4.3950806-4.4083442-.9766846-2.0799764-1.1032918-4.8291626-.3798218-8.2475586l.8681641-4.0960463c.6149495-2.83962,1.6688043-5.3355916,3.1603583-7.487915,1.4927599-2.1523234,3.3641357-3.7946004,5.6165392-4.9244195,2.2511976-1.1310248,4.7700792-1.6953315,7.5554389-1.6953315s5.049821.595657,6.7957954,1.7893826c1.7447686,1.1937256,2.9035265,2.8492662,3.4726562,4.9654161.5703356,2.1161499.5558662,4.5675076-.0409966,7.3528673l-.651123,3.0916287c-.1989543.9417169-.6692098,1.4107666-1.4107666,1.4107666h-18.1229248l-.0265272.1639865c-.4521688,2.0980632-.2942112,3.7982178.4750787,5.1004639.768084,1.3022461,2.571936,1.9533691,5.411556,1.9533691,1.5554606,0,3.273702-.1591634,5.1547241-.4750787,1.8810221-.317121,3.4364827-.6559462,4.6663818-1.0176812.8319906-.2351278,1.1575521.0542603.9766846.8681641l-.6776503,3.2821425c-.0904338.3629408-.2495972.6426826-.4750787.8416368-.2266873.1989543-.5655124.3979085-1.0176812.5968628-1.2660726.5968628-2.8577067,1.1165554-4.7749023,1.5602837-1.9171956.4425225-3.8343913.6643867-5.7515869.6643867ZM357.7021118,186.6820916c-.0542603.2532145-.2532145.3798218-.5968628.3798218h-4.6121216c-.1989543,0-.3581177-.0265272-.4750787-.0819933-.1181668-.0530545-.2303046-.1434882-.3388251-.2700955s-.2086005-.2532145-.2990343-.3810276l-2.984314-4.5023953-4.9099501,4.5023953c-.3255615.2905938-.5751587.4847249-.7463799.5835992-.172427.10008-.4208184.1495171-.7463799.1495171h-4.6121216c-.3255615,0-.4606093-.1266073-.406349-.3798218.0542603-.2351278.1712212-.4244358.3520888-.5703356l6.5112305-6.6728054c.3979085-.361735.6824734-.5884223.8549004-.6788561.1712212-.0904338.4292589-.1362535.7729072-.1362535h7.2166138c.3436483,0,.5884223.0506429.7331163.1495171.144694.10008.3255615.3219442.5426025.6655924l3.6619642,6.6728054c.1085205.1458998.1362535.3352078.0819933.5703356ZM349.6981215,203.5570306l.0542603-.217041c.4702555-2.2427572.3026516-3.9429118-.5016059-5.1004639-.8054633-1.1575521-2.1113268-1.7363281-3.9200019-1.7363281-1.1575521,0-2.2343167.2483914-3.229088.7463799-.9947713.4967828-1.8532891,1.252809-2.5767592,2.265667-.7234701,1.0128581-1.2479858,2.2873711-1.5735474,3.824745l-.0542603.217041h11.8010023Z"/>
    <path class="cls-3" d="M385.8680068,220.729798c-.0542603.2905938-.2218641.5570719-.5016059.8006402-.2809475.244774-.5655124.3665582-.8549004.3665582h-5.1269911c-.3074748,0-.5389852-.1217841-.6921197-.3665582-.1543403-.2435683-.2037774-.5100464-.1495171-.8006402l3.9067383-18.3399658c.3074748-1.4638211.3846449-2.6310194.2303046-3.4991835-.1531345-.8681641-.5920397-1.5012004-1.3155097-1.8991089s-1.7905884-.5968628-3.201355-.5968628c-1.7001546,0-3.56309.1989543-5.5888062.5968628l-5.0462036,23.7382582c-.0542603.3255615-.2122179.6016859-.4750787.8283732-.261655.2254815-.5558662.3388251-.8814277.3388251h-5.1004639c-.3255615,0-.5655124-.1217841-.7186469-.3665582-.1543403-.2435683-.2037774-.5100464-.1495171-.8006402l5.9143677-27.78125c.1085205-.5426025.5606893-.912778,1.3565063-1.1117323,1.9533691-.506429,4.0249051-.9091607,6.213402-1.2069892,2.1884969-.2990343,4.1961263-.4473456,6.0228882-.4473456,4.3589071,0,7.3516615.9622152,8.9794691,2.8890571,1.6278076,1.9256361,1.9991889,5.0148532,1.1129381,9.2652398l-3.9344713,18.3930203Z"/>
    <path class="cls-3" d="M419.248915,216.3359233c1.7001546,0,2.8757935-.217041,3.5269165-.651123.651123-.434082,1.0586778-1.0321506,1.2214586-1.7917942.144694-.6318305.0807875-1.1611694-.1905138-1.586811-.2713013-.4244358-.8139038-.9176012-1.6278076-1.4782905l-6.592018-4.6663818c-1.2479858-.8862508-2.1523234-1.9895426-2.7130127-3.3098755s-.6692098-2.7672729-.3255615-4.3408203c1.1756388-5.5526326,5.2813314-8.3283461,12.3170776-8.3283461,3.6535238,0,6.764445.6053033,9.3327637,1.8171156.3798218.1627808.6366536.3484714.7729072.5558662.1350477.2086005.1579576.5016059.0675239.8826335l-.7053833,3.390663c-.1808675.8139038-.6330363,1.1117323-1.3565063.8946913-3.0204875-1.029739-5.8866347-1.5458143-8.5996474-1.5458143-1.4107666,0-2.4646213.1543403-3.1615641.4606093-.695737.3086806-1.1249959.8416368-1.2877767,1.6012804-.0904338.4159953-.0771701.7548204.0397909,1.0176812.1181668.261655.2990343.5016059.5426025.7186469.244774.217041.6113322.4883423,1.0996745.8139038l6.3207167,4.4493408c1.8448486,1.2841593,2.9939602,2.5731418,3.446129,3.8657416.4521688,1.2938056.5148695,2.6913086.189308,4.192509-.3798218,1.7544149-1.1213786,3.318316-2.2246704,4.6929091s-2.5634956,2.4417114-4.3818169,3.201355c-1.8171156.7596436-3.8838284,1.1394653-6.1989326,1.1394653-3.6716105,0-6.809059-.6053033-9.4135512-1.8183214-.4159953-.233922-.6788561-.4557861-.7873766-.6643867-.1085205-.2073947-.1266073-.4654324-.0542603-.7729072l.7053833-3.390663c.1808675-.8151096.6330363-1.1129381,1.3565063-.8958971,3.056661,1.0309448,5.9505412,1.5470201,8.6816406,1.5470201Z"/>
    <path class="cls-3" d="M453.031349,196.2861565c-2.911967,0-5.9686279.4799018-9.1699829,1.4372938-.8319906.217041-1.1575521-.0807875-.9766846-.8946913l.7053833-3.390663c.072347-.3436483.2218641-.6245958.4485514-.8416368.2254815-.217041.5739529-.4159953,1.0442084-.5968628,1.2298991-.4883423,2.7214532-.912778,4.4758681-1.2745131,1.7544149-.361735,3.6269965-.5426025,5.6165392-.5426025,2.3874512,0,4.3444377.3882623,5.873371,1.1659926,1.5277276.7777303,2.577965,1.9714559,3.1470947,3.5811768.5703356,1.6097209.6101264,3.56309.1217841,5.8601074l-4.041786,18.9368286c-.072347.3979085-.172427.6776503-.2990343.8416368-.1266073.161575-.3701755.289388-.7319105.378616-1.7363281.4533746-3.4003092.7970228-4.9919434,1.0321506-1.5916341.233922-3.5088298.3520888-5.7515869.3520888-3.0385742,0-5.4537584-.317121-7.2443468-.9501573-1.7905884-.6318305-3.0024007-1.631425-3.635437-2.9975776-.6330363-1.3649468-.7138238-3.1603583-.2435683-5.3850288l.0542603-.2713013c.361735-1.6458944.8946913-3.0470147,1.6000746-4.2045668s1.659158-2.1342367,2.8625298-2.9300537c1.2021661-.7958171,2.6720161-1.3890625,4.4083442-1.7773248,1.7363281-.389468,3.8259508-.5835992,6.2676622-.5835992h3.9067383l.5148695-2.4417114c.361735-1.7363281.2266873-2.9204074-.406349-3.5534437-.6330363-.6330363-1.8183214-.9501573-3.5546495-.9501573ZM453.6824721,216.3359233l1.7363281-8.2210314h-3.9067383c-1.6820679,0-2.9565809.1495171-3.824745.4473456-.8681641.2990343-1.497583.7596436-1.8858453,1.3842394-.389468.62339-.7005602,1.4963772-.9356879,2.6177558l-.0819933.3255615c-.217041,1.0490316-.217041,1.8496718,0,2.4007148.217041.5522488.6969428.9405111,1.4384996,1.1671984.7415568.2254815,1.8894626.3388251,3.4449232.3388251,1.5735474,0,2.911967-.1531345,4.0152588-.4606093ZM466.1900635,186.6820916c-.0542603.2532145-.2532145.3798218-.5968628.3798218h-4.6121216c-.1989543,0-.3581177-.0265272-.4750787-.0819933-.1181668-.0530545-.2266873-.1434882-.3255615-.2700955-.10008-.1266073-.2037774-.2532145-.3122979-.3810276l-2.984314-4.5023953-4.9099501,4.5023953c-.3255615.2905938-.5751587.4847249-.7463799.5835992-.172427.10008-.4208184.1495171-.7463799.1495171h-4.6121216c-.3255615,0-.4606093-.1266073-.406349-.3798218.0542603-.2351278.1712212-.4244358.3520888-.5703356l6.5112305-6.6728054c.3979085-.361735.6824734-.5884223.8549004-.6788561.1712212-.0904338.4292589-.1362535.7729072-.1362535h7.2166138c.3436483,0,.5884223.0506429.7331163.1495171.144694.10008.3255615.3219442.5426025.6655924l3.6619642,6.6728054c.1085205.1458998.1362535.3352078.0819933.5703356Z"/>
    <path class="cls-3" d="M473.8455824,191.7282952c.072347-.289388.2399509-.5558662.5028117-.8006402.261655-.2435683.5558662-.3665582.8814277-.3665582h5.1004639c.3255615,0,.5643066.1133436.7186469.3400309.1543403.2254815.1929253.5016059.1205783.8271674l-3.8777995,18.3399658c-.2363336,1.0852051-.3388251,1.9991889-.3122979,2.7395399.027733.7427626.1989543,1.3577121.5148695,1.8448486.3159153.4895481.8054633.84646,1.4662326,1.0719415.6583577.2266873,1.5313449.3388251,2.61655.3388251,1.8279677,0,3.6896973-.2073947,5.5900119-.62339l5.0184706-23.711731c.072347-.289388.2387451-.5558662.5016059-.8006402.2628608-.2435683.5474257-.3665582.8536947-.3665582h5.1294027c.289388,0,.5184869.1229899.6921197.3665582.1712212.244774.2194526.5112522.1471056.8006402l-5.8866347,27.78125c-.1254015.5426025-.578776.9139838-1.3553006,1.1117323-2.0980632.5426025-4.2057726.9549805-6.3231283,1.2347222-2.1149441.2809475-4.0876058.4208184-5.9131619.4208184-2.2246704,0-4.0598728-.2303046-5.5068129-.6921197-1.4469401-.4606093-2.5960517-1.1889025-3.446129-2.1836738-.8500773-.9947713-1.3649468-2.2524034-1.5458143-3.7716905s-.0458198-3.3544895.406349-5.5068129l3.9067383-18.3942261Z"/>
  </g>
</svg>