<?xml version="1.0" encoding="UTF-8"?>
<svg id="Layer_1" data-name="Layer 1" xmlns="http://www.w3.org/2000/svg" version="1.1" viewBox="0 0 800 358">
  <defs>
    <style>
      .cls-1 {
        fill: #f05054;
      }

      .cls-1, .cls-2, .cls-3, .cls-4 {
        stroke-width: 0px;
      }

      .cls-2 {
        fill: #48c6e5;
      }

      .cls-3 {
        fill: #35507c;
      }

      .cls-4 {
        fill: #fff;
      }
    </style>
  </defs>
  <path class="cls-3" d="M325.3,165.6h20.7c2.4,0,4.4-1.7,4.4-3.8v-44.8c0-1.7-1-3.2-2.6-4.1-7.5-4.1-15.2-9.7-23.2-16.5-1.3-1.2-3.6-.3-3.6,1.3v64.1c0,2.1,2,3.8,4.4,3.8h0Z"/>
  <path class="cls-3" d="M473.7,0h-20.7c-2.4,0-4.4,1.7-4.4,3.8v63.6c0,1.7,1,3.2,2.6,4.1,7.5,4.1,15.2,9.7,23.2,16.5,1.3,1.2,3.6.3,3.6-1.3V3.8C478.1,1.7,476.1,0,473.7,0h0Z"/>
  <g>
    <g>
      <path class="cls-3" d="M78.3,12.7c42.3,0,65.6,26.4,73.4,44.5.7,1.6-.7,3.2-2.6,3.2h-21.2c-3.1,0-6-1.3-7.9-3.5-5.6-6.5-19.8-19.8-41.2-18.6-28.3,1.7-46.9,15-49.4,39.4-.1,25.9,0,32,0,32,0,0,7.9,36.3,49.4,34.9,42.4-.5,48-33.5,48-33.1s-31.6.1-43.6,0c-2.5,0-4.6-1.8-4.6-4v-18.3c0-2.2,2.1-4,4.6-4h66.9c3.8,0,6.9,2.7,6.9,6.1v15.4c0,18-19.5,63.1-78.1,63.6C20.1,170.8,0,124.4,0,107.4v-31.2C0,63.4,18.1,12.7,78.3,12.7h0Z"/>
      <path class="cls-3" d="M179.1,17.4h117.7c2.4,0,4.4,1.7,4.4,3.8v18.2c0,2.1-2,3.8-4.4,3.8h-88.3c-2.4,0-4.4,1.7-4.4,3.8v27.5c0,2.1,2,3.8,4.4,3.8h59.1c2.4,0,4.4,1.7,4.4,3.8v18.3c0,2.1-2,3.8-4.4,3.8h-59.1c-2.4,0-4.4,1.7-4.4,3.8v27.9c0,2.1,2,3.8,4.4,3.8h88.3c2.4,0,4.4,1.7,4.4,3.8v18c0,2.1-2,3.8-4.4,3.8h-117.7c-2.4,0-4.4-1.7-4.4-3.8V21.2c0-2.1,2-3.8,4.4-3.8h0Z"/>
      <path class="cls-3" d="M478.1,154.8v6.9c0,2.1-2,3.8-4.4,3.8h-20.7c-2.4,0-4.4-1.7-4.4-3.8v-4.5c0-8.9-3.1-17.5-9.1-24.7-2.5-2.9-5.3-5.7-8.5-8.2-8.3-5.9-18.8-11.8-31.5-17.9l-31.5-15c-23.3-10.9-39.6-25.9-45.2-47.1-1.3-4.7-1.9-9.5-1.9-14.3V3.8C321,1.7,322.9,0,325.3,0h20.7c2.4,0,4.4,1.7,4.4,3.8v23.8c0,8.9,3.1,17.5,9.1,24.7,2.5,2.9,5.3,5.7,8.5,8.2,8.3,5.9,18.8,11.8,31.5,17.9l31.5,15c23.3,10.8,39.6,25.9,45.2,47.1,1.3,4.7,1.9,9.5,1.9,14.3h0Z"/>
    </g>
    <g>
      <path class="cls-1" d="M294.5,224.8c-7.7-13.7-19.4-23.8-35.2-30.2-21.5-8.8-46.2-8.7-67.8-.3-17.3,6.8-29.7,17.9-37.2,33.1-4.6,9.4-6.9,19.5-6.9,29.7v19.2c0,12.8,3.8,25.4,11.2,36.4,8.8,13.1,21.1,21.8,36.3,27.1,19.2,6.7,40.6,6.7,59.9.3,16-5.4,28.5-14.4,37.3-27.1,7.5-11,11.4-23.5,11.4-36.3v-18.2c0-11.7-3-23.2-8.9-33.6h0ZM274,278.9c0,6.8-1.8,13.5-5.4,19.5-5.1,8.5-12.8,14.4-23.1,18-11.7,4.1-24.7,4.2-36.7.8-12.4-3.5-22-9.9-27.6-20.1-3-5.5-4.5-11.5-4.5-17.5v-25.3c0-8.5,2.8-16.8,8.3-23.9,6-7.7,14.3-12.9,24.7-15.6,9.5-2.5,19.6-2.6,29.2-.4,13.6,3.1,23.4,9.7,29.5,20,3.7,6.2,5.6,13.2,5.6,20.2v24.4h0Z"/>
      <path class="cls-1" d="M501.1,191.6h117.7c2.4,0,4.4,1.7,4.4,3.8v18.2c0,2.1-2,3.8-4.4,3.8h-88.3c-2.4,0-4.4,1.7-4.4,3.8v27.5c0,2.1,2,3.8,4.4,3.8h59.1c2.4,0,4.4,1.7,4.4,3.8v18.3c0,2.1-2,3.8-4.4,3.8h-59.1c-2.4,0-4.4,1.7-4.4,3.8v27.9c0,2.1,2,3.8,4.4,3.8h88.3c2.4,0,4.4,1.7,4.4,3.8v18c0,2.1-2,3.8-4.4,3.8h-117.7c-2.4,0-4.4-1.7-4.4-3.8v-140.6c0-2.1,2-3.8,4.4-3.8h0Z"/>
      <path class="cls-1" d="M478.1,195.4v71.7c-.6,13.8-4.5,25.7-11.9,35.5-7.9,9.8-19.2,18.4-33.2,26.2-1,.5-.9,1.8,0,2.3,14,7.6,24.3,15.1,32.2,22.5,1.8,1.7.4,4.5-2.2,4.5h-37.4c-12.3-9-21-13.5-26.1-13.3-5.1-.1-13.9,4.4-26.1,13.3h-37.4c-2.7,0-4.1-2.8-2.2-4.5,7.9-7.4,18.3-14.8,32.2-22.5,1-.5,1-1.8,0-2.3-13.9-7.8-25.3-16.4-33.2-26.2-7.4-9.8-11.3-21.7-11.8-35.5v-71.7c0-2.1,1.9-3.8,4.3-3.8h20.7c2.4,0,4.4,1.7,4.4,3.8v72.7c.3,7.5,3.3,14.4,8.4,20.9,4,5.1,9,9.6,14.7,13.3,11.1,7.2,20.6,12.5,26.1,12.8,5.5-.3,15-5.6,26.1-12.8,5.7-3.7,10.7-8.1,14.7-13.3,5.1-6.5,8.1-13.4,8.4-20.9v-72.7c0-2.1,2-3.8,4.4-3.8h20.7c2.4,0,4.4,1.7,4.4,3.8h0Z"/>
      <path class="cls-1" d="M44.7,310v-114.6c0-2.1-2-3.8-4.4-3.8h-22c-2.4,0-4.4,1.7-4.4,3.8v141.5c0,2.1,2,3.8,4.4,3.8h114.6c2.4,0,4.4-1.7,4.4-3.8v-19.3c0-2.1-2-3.8-4.4-3.8H49.1c-2.4,0-4.4-1.7-4.4-3.8h0Z"/>
    </g>
  </g>
  <path class="cls-2" d="M617.1,150.6l-21.8,14.8c-3.3,2.3-8.2.2-8.2-3.5v-10.3c0-1.9-1.8-3.5-4-3.5h-34.4c-12.9,0-23-9.8-21.7-21l11.8-99.4c1.4-11.9,12.7-21.1,26.4-21.5L771.8,0c13.3-.4,24.5,8.8,24.9,20.5l3.3,110.5c.4,12.1-11,22-24.8,21.6l-151.8-3.9c-2.3,0-4.5.6-6.3,1.8h0Z"/>
  <path class="cls-4" d="M656.7,114.9l-3.7-44.1-8.7,32c-.5,1.9-2.4,3.2-4.6,3.2l-16.5-.2c-2.1,0-3.9-1.3-4.5-3l-9.6-30.7-4.2,44.9c-.2,2.1-2.1,3.7-4.5,3.8l-14.1.4c-2.9,0-5.2-2.1-4.8-4.6l10.7-75.8c.3-2.1,2.3-3.6,4.6-3.6h13c2,0,3.9,1.2,4.5,2.9,3.8,10.7,17.1,47.6,17.2,47.1.1-.5,12.3-36.4,15.9-47.1.6-1.7,2.4-2.9,4.5-2.9h14.2c2.4,0,4.4,1.6,4.7,3.7l8.5,73.1c.3,2.4-1.8,4.5-4.6,4.5l-13.3.2c-2.5,0-4.6-1.6-4.7-3.8h0Z"/>
  <path class="cls-4" d="M746.7,122.7h-37.3c-10.8,0-19.6-7.7-19.6-17.2v-52.8c0-9.5,8.8-17.2,19.6-17.2h37.3c2.4,0,4.3,1.7,4.3,3.8v9.1c0,2.1-1.9,3.8-4.3,3.8h-30.7c-2.7,0-4.9,1.9-4.9,4.3v9.6c0,2.4,2.2,4.3,4.9,4.3h21.3c2.4,0,4.3,1.7,4.3,3.8v9.3c0,2.1-1.9,3.8-4.3,3.8h-21.3c-2.7,0-4.9,1.9-4.9,4.3v9.6c0,2.4,2.3,4.4,5,4.3h30.6c2.4,0,4.3,1.7,4.3,3.8v9.5c0,2.1-1.9,3.8-4.3,3.8h0Z"/>
</svg>