<?xml version="1.0" encoding="UTF-8"?>
<svg id="Layer_1" data-name="Layer 1" xmlns="http://www.w3.org/2000/svg" version="1.1" viewBox="0 0 800 212">
  <defs>
    <style>
      .cls-1 {
        fill: #9dd9e1;
      }

      .cls-1, .cls-2, .cls-3, .cls-4, .cls-5, .cls-6 {
        stroke-width: 0px;
      }

      .cls-2 {
        fill: #6eccdc;
      }

      .cls-3 {
        fill: #50c4cb;
      }

      .cls-4 {
        fill: #2fbec1;
      }

      .cls-5 {
        fill: #9dcc4f;
      }

      .cls-6 {
        fill: #094156;
      }
    </style>
  </defs>
  <g>
    <path class="cls-6" d="M344.3,178.5c-1.9,0-3.2-.8-4.1-2.3l-16.6-28.9c-.9-1.5-.9-3.1,0-4.6l16.6-28.8c.9-1.5,2.2-2.3,4.1-2.3h34c1.9,0,3.2.8,4.1,2.3l16.6,28.8c.9,1.6.9,3.2,0,4.6l-16.6,28.9c-.9,1.5-2.2,2.3-4.1,2.3h-34ZM348.8,167.3h25l12.9-22.2-12.9-22.3h-25l-12.8,22.3,12.8,22.2h0Z"/>
    <path class="cls-6" d="M320.4,160.6c0,12.7-14.2,20.1-27.9,19.8-18.2-.4-27.5-12.5-27.5-23.4h9.8c1.4,0,2.7.9,3,2.3,1,4.6,5.2,9.9,14.5,10.6,7.9.6,15.4-3.2,15.4-9.2,0-4.8-4.2-7.3-9.1-8.6-.4,0-13.3-3-13.3-3-11.1-2.5-18.6-8.2-18.6-19.9s11-19.2,25.9-19.2,26.9,9.9,26.9,21.5h-10.1c-1.4,0-2.5-1-2.9-2.3-1.2-4.6-6.1-8.6-14-8.6s-13.3,3.9-13.3,8.7,3.7,6.5,8.1,7.6c.3,0,13.3,3,13.3,3,11.6,2.8,19.7,9.3,19.7,20.9h0Z"/>
    <path class="cls-6" d="M452.7,168v7.5c0,1.6-1.3,3-3,3h-41.6c-1.7,0-3-1.3-3-3v-61c0-1.6,1.3-3,3-3h9.6v56.4h35Z"/>
    <path class="cls-6" d="M510.1,111.6v42.3c0,15.1-12.4,26.5-26.7,26.5s-26.7-11.4-26.7-26.5v-42.3h9.6c1.6,0,3,1.3,3,3v39.4c0,9,5.6,15,14.1,15s14.1-6,14.1-15v-39.4c0-1.6,1.3-3,3-3h9.6Z"/>
    <path class="cls-6" d="M616.9,178.5c-1.9,0-3.2-.8-4.1-2.3l-16.6-28.9c-.9-1.5-.9-3.1,0-4.6l16.6-28.8c.9-1.5,2.2-2.3,4.1-2.3h34c1.9,0,3.2.8,4.1,2.3l16.6,28.8c.9,1.6.9,3.2,0,4.6l-16.6,28.9c-.9,1.5-2.2,2.3-4.1,2.3h-34ZM621.4,167.3h25l12.9-22.2-12.9-22.3h-25l-12.8,22.3,12.8,22.2Z"/>
    <path class="cls-6" d="M519.4,111.6h48.9c1.6,0,3,1.3,3,3v8.1h-12.4s-8.8,0-8.8,8.7v47.1h-9.5c-1.6,0-3-1.3-3-3v-43.3c0-9.6,18.2-9.6,18.2-9.6h-39.4v-8.1c0-1.6,1.3-3,3-3h0Z"/>
    <path class="cls-6" d="M577.6,175.6v-61c0-1.6,1.3-3,3-3h9.6v66.9h-9.6c-1.6,0-3-1.3-3-3h0Z"/>
    <path class="cls-6" d="M739.5,114.6v61c0,1.6-1.3,3-3,3h-21.9l-24.1-63.4v63.4h-9.6c-1.6,0-3-1.3-3-3v-61c0-1.6,1.3-3,3-3h21.9s24.1,63.4,24.1,63.4v-63.4h9.6c1.6,0,3,1.3,3,3h0Z"/>
    <path class="cls-6" d="M800,160.6c0,12.7-14.2,20.1-27.9,19.8-18.2-.4-27.5-12.5-27.5-23.4h9.8c1.4,0,2.7.9,3,2.3,1,4.6,5.2,9.9,14.5,10.6,7.9.6,15.4-3.2,15.4-9.2,0-4.8-4.2-7.3-9.1-8.6-.4,0-13.3-3-13.3-3-11.1-2.5-18.6-8.2-18.6-19.9s11-19.2,25.9-19.2,26.9,9.9,26.9,21.5h-10.1c-1.4,0-2.5-1-2.9-2.3-1.2-4.6-6.1-8.6-14-8.6s-13.3,3.9-13.3,8.7,3.7,6.5,8.1,7.6c.3,0,13.3,3,13.3,3,11.6,2.8,19.7,9.3,19.7,20.9h0Z"/>
    <path class="cls-6" d="M459.9,36.5v61c0,1.6-1.3,3-3,3h-21.9l-24.1-63.4v63.4h-9.6c-1.6,0-3-1.3-3-3v-61c0-1.6,1.3-3,3-3h21.9s24.1,63.4,24.1,63.4v-63.4h9.6c1.6,0,3,1.3,3,3Z"/>
    <path class="cls-6" d="M514.7,72.2h-22.9c-5.9,0-10.6-4.7-10.6-10.5h30.5c1.6,0,3,1.3,3,3v7.5h0Z"/>
    <path class="cls-6" d="M481.2,72.2v17.6h37.1v7.7c0,1.6-1.3,3-3,3h-43.8c-1.6,0-3-1.3-3-3v-61c0-1.6,1.3-3,3-3h43.8c1.6,0,3,1.3,3,3v7.6h-37.1v28.1Z"/>
    <path class="cls-6" d="M352.5,72.2v17.6h37.1v7.7c0,1.6-1.3,3-3,3h-43.8c-1.6,0-3-1.3-3-3v-61c0-1.6,1.3-3,3-3h43.8c1.7,0,3,1.3,3,3v7.6h-37.1v28.1Z"/>
    <path class="cls-6" d="M386,72.2h-22.9c-5.9,0-10.6-4.7-10.6-10.5h30.5c1.6,0,3,1.3,3,3v7.5h0,0Z"/>
    <path class="cls-6" d="M317.9,45.2c1.6,0,3-1.3,3-2.9v-5.8c0-1.6-1.3-2.9-2.9-2.9h-37.4c-1.9,0-3.2.8-4.1,2.3l-16.6,28.8c-.9,1.6-.9,3.2,0,4.6l16.6,28.9c.9,1.5,2.2,2.3,4.1,2.3h34c1.9,0,3.2-.8,4.1-2.3l14.8-25.8c1.6-2.7-.4-6.1-3.6-6.1h-26.2c-2.1,0-2.5,3-.5,3.7l14.4,5.1-7.8,13.4h-24.3l-12.4-21.6,12.4-21.7h32.5,0Z"/>
  </g>
  <path class="cls-3" d="M84.2,80.5l-47-37.1c-1.4-1.1-3.4-.7-4.3.8l-6.5,11.3c-.8,1.4-.2,3.3,1.3,4l53.9,25.1c2.6,1.1,4.7-2.3,2.6-4.1h0Z"/>
  <path class="cls-4" d="M79.1,90l-55.1-25.1c-1.4-.6-3-.1-3.7,1.2l-6.9,12c-1,1.7,0,3.8,1.9,4.2l62.2,12.4c2.8.5,4-3.3,1.5-4.6h0Z"/>
  <path class="cls-4" d="M91.5,72.6L51.1,20.7c-1.2-1.6-3.7-1.4-4.8.3l-7.3,12.6c-.7,1.2-.4,2.7.7,3.6l48.2,38.7c2.2,1.7,5.1-1.1,3.5-3.4h0Z"/>
  <path class="cls-3" d="M76.4,111.1l-69.1,3.6c-2.1.1-3.4,2.4-2.3,4.2l7.7,13.4c.7,1.1,2,1.7,3.3,1.3l61.2-17.8c2.7-.9,2-4.8-.8-4.7h0Z"/>
  <path class="cls-4" d="M189.7,10.5c-1.1-1.9-3.8-1.9-4.9-.1l-37.6,59.5c-1.4,2.4,1.7,4.9,3.8,3l46.2-45.1c.9-.9,1.1-2.3.5-3.4l-8-13.9Z"/>
  <path class="cls-3" d="M161.2,0c-1.2,0-2.3.8-2.7,1.9l-20.8,62.8c-.8,2.7,2.9,4.4,4.4,2L180.8,4.3C182,2.4,180.6,0,178.3,0h-17.2s0,0,0,0Z"/>
  <path class="cls-5" d="M78.9,121.5l-58.4,17.5c-1.8.5-2.6,2.5-1.7,4.1l6.6,11.4c.8,1.4,2.6,1.8,3.9,1l51.5-29.7c2.4-1.5.8-5.1-1.9-4.4h0Z"/>
  <path class="cls-5" d="M132,62.9L151,3.7c.6-1.8-.8-3.7-2.7-3.7h-13.7c-1.5,0-2.7,1.1-2.9,2.6l-4.5,59.3c-.1,2.8,3.8,3.6,4.8.9h0Z"/>
  <path class="cls-4" d="M105.9,64.2c1.2,2.5,5.1,1.4,4.7-1.4L99.9,2.4c-.2-1.4-1.4-2.3-2.8-2.3h-14.7c-2.1,0-3.4,2.1-2.6,4l26.1,60.2Z"/>
  <path class="cls-2" d="M52.3,201.4c1.1,1.9,3.8,1.9,4.9.1l37.6-59.4c1.4-2.4-1.7-4.9-3.8-3l-46.2,45c-.9.9-1.1,2.3-.5,3.4l8,13.8h0Z"/>
  <path class="cls-3" d="M157.8,131.5l47,37c1.4,1.1,3.4.7,4.3-.8l6.5-11.3c.8-1.4.2-3.3-1.3-4l-53.9-25c-2.6-1.1-4.7,2.3-2.6,4.1h0Z"/>
  <path class="cls-2" d="M150.6,139.4l40.4,51.8c1.2,1.6,3.7,1.4,4.8-.3l7.2-12.6c.7-1.2.4-2.7-.7-3.6l-48.2-38.6c-2.3-1.7-5.1,1.1-3.5,3.4h0Z"/>
  <path class="cls-4" d="M162.9,122l55,25c1.4.6,3,.1,3.7-1.2l6.8-11.9c1-1.7,0-3.8-1.9-4.2l-62.1-12.3c-2.8-.5-4,3.3-1.5,4.6Z"/>
  <path class="cls-3" d="M121.2,61.6l4-58.5c.1-1.6-1.2-3-2.9-3h-13c-1.8,0-3.1,1.6-2.8,3.3l9.9,58.5c.6,2.7,4.6,2.5,4.9-.2h0Z"/>
  <path class="cls-3" d="M83.9,131.1l-51.4,30.2c-1.3.8-1.8,2.5-1,3.8l6.6,11.6c.9,1.6,3.1,1.9,4.5.6l44.3-42.4c2-2-.5-5.2-3-3.8Z"/>
  <path class="cls-3" d="M53.9,11c-.6,1-.5,2.2.2,3.1l42.2,54.9c1.8,2.2,5.2.2,4.2-2.4L72.5,3.2c-.4-1-1.4-1.7-2.5-1.7-4-.1-6.5.7-6.5.7-2.4.6-4.4,1.9-6.3,4,0,0-1.8,2-3.4,4.9Z"/>
  <path class="cls-5" d="M188.2,201c.6-1,.5-2.2-.2-3.1l-42.2-54.9c-1.8-2.2-5.2-.2-4.2,2.4l27.9,63.4c.4,1,1.4,1.7,2.5,1.7,4,.1,6.5-.7,6.5-.7,2.4-.6,4.4-1.9,6.3-4,0,0,1.8-2,3.4-4.9h0Z"/>
  <path class="cls-3" d="M80.9,212c1.2,0,2.3-.8,2.7-1.9l20.8-62.8c.8-2.7-2.9-4.4-4.4-2l-38.7,62.4c-1.2,1.9.2,4.3,2.4,4.3h17.2Z"/>
  <path class="cls-1" d="M7.9,89c.6-1.1,1.8-1.6,3-1.4l65.4,12.8c2.8.6,2.4,4.6-.4,4.8l-71.9,2.8c-3.1.1-5.2-3.2-3.6-5.9l7.4-13Z"/>
  <path class="cls-5" d="M236.6,106.5c.2-3.3-2.4-6.1-5.7-6.1h-111c-2.8.2-3.1,4.2-.4,4.8l110.5,18c3.3.5,6.3-1.9,6.6-5.2v-11.6s0,0,0,0Z"/>
</svg>