<?xml version="1.0" encoding="UTF-8"?>
<svg id="Layer_1" data-name="Layer 1" xmlns="http://www.w3.org/2000/svg" xmlns:xlink="http://www.w3.org/1999/xlink" viewBox="0 0 702 272">
  <defs>
    <style>
      .cls-1 {
        fill: url(#linear-gradient);
      }

      .cls-1, .cls-2, .cls-3 {
        stroke-width: 0px;
      }

      .cls-4 {
        filter: url(#drop-shadow-4);
      }

      .cls-5 {
        filter: url(#drop-shadow-5);
      }

      .cls-2 {
        fill: url(#radial-gradient);
      }

      .cls-3 {
        fill: #fff;
      }
    </style>
    <filter id="drop-shadow-4" filterUnits="userSpaceOnUse">
      <feOffset dx="17.007874" dy="17.007874"/>
      <feGaussianBlur result="blur" stdDeviation="8.503937"/>
      <feFlood flood-color="#221f1f" flood-opacity=".2"/>
      <feComposite in2="blur" operator="in"/>
      <feComposite in="SourceGraphic"/>
    </filter>
    <radialGradient id="radial-gradient" cx="351.0000223" cy="135.9999988" fx="351.0000223" fy="135.9999988" r="385.3884112" gradientTransform="translate(24.3985909 -15.1240595) rotate(12.0828234) scale(1 .5838976)" gradientUnits="userSpaceOnUse">
      <stop offset="0" stop-color="#347b9a"/>
      <stop offset=".2237144" stop-color="#2e7390"/>
      <stop offset=".592439" stop-color="#1d5e77"/>
      <stop offset=".9887365" stop-color="#084356"/>
    </radialGradient>
    <linearGradient id="linear-gradient" x1="517.0103666" y1="335.6692783" x2="117.6703657" y2="-63.6707226" gradientUnits="userSpaceOnUse">
      <stop offset="0" stop-color="#705020"/>
      <stop offset=".2905028" stop-color="#fbc29b"/>
      <stop offset=".326818" stop-color="#eab485"/>
      <stop offset=".4425533" stop-color="#b78b45"/>
      <stop offset=".4972067" stop-color="#a47c2c"/>
      <stop offset=".7094972" stop-color="#fbcfa5"/>
      <stop offset=".7479218" stop-color="#dbb184"/>
      <stop offset=".7963723" stop-color="#bb9161"/>
      <stop offset=".8457122" stop-color="#a17946"/>
      <stop offset=".8956671" stop-color="#8f6733"/>
      <stop offset=".9465986" stop-color="#845d27"/>
      <stop offset="1" stop-color="#815a24"/>
    </linearGradient>
    <filter id="drop-shadow-5" filterUnits="userSpaceOnUse">
      <feOffset dx="2.8346457" dy="2.8346457"/>
      <feGaussianBlur result="blur-2" stdDeviation="1.4173228"/>
      <feFlood flood-color="#221f1f" flood-opacity=".5"/>
      <feComposite in2="blur-2" operator="in"/>
      <feComposite in="SourceGraphic"/>
    </filter>
  </defs>
  <g class="cls-4">
    <path class="cls-2" d="M2.7853627,123.1905971L28.0716976,34.2944992C33.79302,14.1807407,52.1658883.3051759,73.0775313.3051759h488.5273533c13.5364221,0,26.4095246,5.8621447,35.2960853,16.0731076l104.0990301,119.613353-104.0988794,119.6279232c-8.8865918,10.2122571-21.7605413,16.0752619-35.2979601,16.0752619H73.0787229c-20.9122057,0-39.2854248-13.8762976-45.0062488-33.990783L2.7849475,148.7927941c-2.3800115-8.3681488-2.3798677-17.2341255.0004152-25.602197Z"/>
    <path class="cls-1" d="M561.6049874,19.9052161c7.8688472,0,15.3449697,3.4044676,20.5112292,9.3402826l92.9010683,106.746917-92.9020937,106.7609307c-5.1659176,5.9366695-12.642382,9.3414789-20.5119128,9.3414789H73.0788467c-12.0914055,0-22.8463853-8.1226313-26.1539534-19.752611l-25.2874984-88.9107609c-1.3842773-4.8671872-1.3842773-10.0120843,0-14.8782461l25.286473-88.8960637c3.3079099-11.6296379,14.0628897-19.7519275,26.1536116-19.7519275h488.5275079M561.6049874.3052174H73.0774795C52.1660063.3052174,33.7930582,14.1808024,28.0717207,34.2945218L2.7852477,123.1905855c-2.3802733,8.3680415-2.3802733,17.2340809-.0003418,25.6022933l25.2874984,88.9111027c5.7209957,20.1145739,24.0939438,33.9908426,45.0064424,33.9908426h488.5244317c13.5372062,0,26.4113264-5.8630123,35.2977028-16.0752187l104.0990168-119.6280441-104.0990168-119.6133469c-8.8867182-10.2108392-21.7598131-16.072997-35.2959938-16.072997h0Z"/>
  </g>
  <g class="cls-5">
    <path class="cls-3" d="M274.4047629,91.1627634c-.0757921.3376193-.2491952.6143753-.5213578.8291196-.2710142.2158926-.5672924.323839-.8853895.323839h-2.9260342c-.3192455,0-.5672924-.1125398-.7464373-.3376193-.1779966-.2250796-.229673-.4972421-.1538809-.8153392l4.051432-19.1317624h-19.7231704l-4.051432,19.1317624c-.0746437.3376193-.2480469.6143753-.5202094.8291196-.2721625.2158926-.5672924.323839-.8865378.323839h-2.9260342c-.3192455,0-.5672924-.1125398-.7452889-.3376193s-.229673-.4972421-.1550293-.8153392l8.6092931-40.5143203c.0562699-.2824978.2204861-.5443251.4926486-.7877785.2721625-.2446018.5672924-.3663285.8865378-.3663285h2.9260342c.3180971,0,.5672924.1125398.7452889.3376193s.2388599.4972421.18259.8164876l-3.5725638,16.7110088h19.722022l3.5737122-16.7110088c.0562699-.2824978.2204861-.5443251.4915003-.7877785.2721625-.2446018.5672924-.3663285.8865378-.3663285h2.9260342c.3192455,0,.5672924.1125398.7452889.3376193.179145.2250796.2400083.4972421.1837384.8164876l-8.6092931,40.5143203Z"/>
    <path class="cls-3" d="M287.9359487,91.1627634c-.0746437.3376193-.2480469.6143753-.5202094.8291196-.2721625.2158926-.5672924.323839-.8865378.323839h-2.7572246c-.2813494,0-.5202094-.1125398-.7177282-.3376193-.1963704-.2250796-.2572338-.4972421-.18259-.8153392l6.2459577-29.3728822c.0562699-.3192455.2204861-.591408.4926486-.8164876s.5672924-.3376193.8865378-.3376193h2.7572246c.3559932,0,.6189688.1033529.7877785.3089102.1688097.2067057.2147443.4880552.1401005.8451967l-6.2459577,29.3728822ZM295.8424423,54.3898166c-.0562699.3376193-.2204861.6143753-.4926486.830268s-.5672924.3226906-.8865378.3226906h-2.9260342c-.3192455,0-.5672924-.1125398-.7452889-.3376193s-.2388599-.4960937-.18259-.8153392l.9841489-4.5865702c.0746437-.3180971.2434534-.5902597.506429-.8153392s.5626989-.3376193.9003182-.3376193h2.9260342c.3559932,0,.6143753.1033529.7739981.3100586.1596227.2055574.2009639.4869068.1263202.8429l-.9841489,4.5865702Z"/>
    <path class="cls-3" d="M308.8109293,88.2918507c1.2758336,0,2.5562607-.1217267,3.8412812-.3651801,1.2838722-.2434534,2.5551123-.5672924,3.8114237-.9703685s2.2691694-.7452889,3.038574-1.0277868c.4501591-.1871835.7785915-.2009639.9852972-.0413411.2055574.1596227.2710142.4168565.1963704.7739981l-.506429,2.3633354c-.0941659.3927409-.4317853.7406955-1.012858,1.0404188-3.7138127,1.7627404-7.4747084,2.6446848-11.2815386,2.6446848-2.4012314,0-4.4924042-.4260434-6.2746668-1.2804271-1.7822626-.8532353-3.0523544-2.3070655-3.8114237-4.3603422-.7602177-2.0544251-.7843334-4.7783471-.0711986-8.1729143l1.1253978-5.2055389c.8819444-4.1639718,2.7009547-7.4505927,5.4581793-9.861011,2.7572246-2.4104183,6.1621271-3.6150533,10.2135591-3.6150533,2.7193285,0,4.9138542.5477701,6.5835771,1.6456072,1.6685745,1.0966887,2.761818,2.6676521,3.277434,4.711742.5156159,2.0452382.4926486,4.4177605-.0700503,7.1187152l-.6752387,3.1224047c-.1688097.8451967-.6189688,1.2666467-1.3504773,1.2666467h-19.300572l-.1975188.8164876c-.6936125,3.3382973-.5477701,5.7395287.4363787,7.2025458.9852972,1.4630171,2.8456487,2.1933773,5.5844994,2.1933773ZM319.0807583,74.2243784l.1125398-.5339898c.4501591-2.119882.5385832-3.8550616.2675691-5.2055389-.2721625-1.3504773-.8968731-2.3254393-1.8718351-2.9260342-.974962-.5994466-2.3162524-.9003182-4.0227229-.9003182-5.158456,0-8.3750266,3.0110133-9.6508602,9.0318914l-.1125398.5339898h15.2778491ZM324.8478477,56.8656917c-.0562699.2629756-.2629756.3938892-.6189688.3938892h-2.9823041c-.2813494,0-.4777199-.0516764-.5902597-.1550293-.1125398-.1022045-.2916847-.3422128-.5351381-.7165798l-3.545003-5.5718674-5.9646083,5.5718674c-.4122631.3559932-.7027994.5902597-.8716091.7027994s-.3847023.1688097-.6476779.1688097h-3.0098649c-.3376193,0-.4788682-.1309136-.4225984-.3938892.0562699-.2434534.1688097-.4409722.3376193-.5902597l7.0624453-7.1474243c.3938892-.374367.6752387-.6086335.8440483-.7027994s.4122631-.1401005.7315086-.1401005h4.8954804c.4869068,0,.9003182.2802011,1.2379376.8429l3.966453,7.1474243c.1309136.1492875.1688097.3468063.1125398.5902597ZM327.5488024,38.8868879c-.7877785,0-1.4859844.0620117-2.0957663.1837384s-1.374593.323839-2.2932851.60404c-1.1437716.3571415-1.6226399.0757921-1.434308-.8429l.2526403-1.1541069c.0562699-.2629756.1871835-.468533.3938892-.6189688s.4122631-.2629756.6189688-.3376193c.5443251-.2250796,1.2758336-.4409722,2.1945257-.6476779.9186921-.2055574,1.8385325-.3089102,2.7572246-.3089102,1.6880967,0,2.9777107.3376193,3.868842,1.012858.8911313.6752387,1.1770742,1.7443666.8578287,3.2073837l-.0562699.2813494c-.0941659.4317853-.2480469.8532353-.4639395,1.2666467-.2158926.4122631-.5443251.8624222-.9841489,1.3504773-.4409722.4869068-1.0461606,1.0875017-1.8155652,1.8006365l-1.3217682,1.2092284c-.5443251.506429-.8727575.821081-.9852972.9428077s-.2250796.2813494-.3376193.4777199c-.1125398.1975188-.1963704.4363787-.2526403.7177282l-.2537887,1.1816677c-.0562699.2629756-.229673.506429-.5202094.7315086s-.6327492.3376193-1.0266384.3376193h-1.0415671c-.3938892,0-.6844256-.1171332-.8716091-.3513997-.1883319-.2342665-.2537887-.4742748-.1975188-.7177282l.2537887-1.1816677c.1125398-.5626989.2618272-1.0450122.4501591-1.4492367.1871835-.4030761.4501591-.8015588.7877785-1.1954481s.7682562-.8256745,1.2942075-1.2942075l1.3780381-1.2092284c.6752387-.6201171,1.1299912-1.1024305,1.3654061-1.4492367.2342665-.3468063.3973343-.736102.4915003-1.1678873l.0562699-.2813494c.0746437-.7315086-.2813494-1.097837-1.0691279-1.097837Z"/>
    <path class="cls-3" d="M329.5733701,80.6678549l4.0238713-18.8779737c.0562699-.3192455.2147443-.591408.4777199-.8164876s.5626989-.3376193.9003182-.3376193h2.7572246c.3192455,0,.5672924.1125398.7464373.3376193.1779966.2250796.2388599.4972421.18259.8164876l-4.0238713,18.8779737c-.6005949,2.8318683-.5018355,4.8300236.2962782,5.9933174.7969654,1.1621455,2.3771157,1.7432182,4.7404511,1.7432182.880796,0,2.0911728-.1022045,3.6288337-.3089102,1.5376609-.2067057,2.8789513-.4501591,4.0238713-.7315086l5.4581793-25.5740905c.0562699-.3008717.2147443-.5672924.4777199-.8027072.2629756-.2342665.5626989-.3513997.9003182-.3513997h2.8134945c.3192455,0,.5581054.1125398.7177282.3376193s.2112992.4972421.1550293.8164876l-5.9083384,27.7686162c-.1504358.7131347-.6005949,1.1724808-1.3504773,1.3791865-4.8587327,1.1805193-8.9572477,1.7719273-12.295545,1.7719273-2.8318683,0-4.9839045-.468533-6.4561085-1.4067472-1.4733524-.9382143-2.3598903-2.2829498-2.6596135-4.0376517-.2997233-1.7535535-.1688097-3.9526726.3938892-6.5973574Z"/>
    <path class="cls-3" d="M392.9872387,60.156906c1.519287,0,2.8043075.0941659,3.8550616.2824978.3938892.0746437.6327492.2009639.7165798.3789605.084979.179145.0895725.4547526.0149287.830268l-.4501591,2.0819859c-.0941659.3938892-.229673.6614583-.408818.8015588-.1779966.1412489-.4823133.2021123-.9140986.1837384-1.2942075-.0757921-2.5505189-.1125398-3.7700826-.1125398-2.4012314,0-4.7450445.2905364-7.0337362.8716091l-5.4581793,25.6877787c-.0746437.2997233-.2526403.5672924-.5339898.8015588s-.5730342.3513997-.8727575.3513997h-2.8134945c-.2813494,0-.5110225-.1125398-.6890191-.3376193s-.229673-.4972421-.1550293-.8153392l5.9083384-27.8823044c.1504358-.7131347.6005949-1.1724808,1.3504773-1.3780381,2.3254393-.6201171,4.3844579-1.0645344,6.1759074-1.336697,1.7914495-.2721625,3.4841397-.408818,5.0780704-.408818Z"/>
    <path class="cls-3" d="M423.9345294,78.670848c-.9186921,4.3132593-2.7480377,7.7319421-5.48574,10.2549002-2.7388507,2.5229581-6.1805009,3.783863-10.3260989,3.783863-4.1260758,0-7.0245492-1.2609049-8.6931237-3.783863-1.6697228-2.5229581-2.0452382-5.941641-1.1253978-10.2549002l.927879-4.3890514c.9186921-4.3339298,2.7480377-7.7606513,5.4868884-10.2836094,2.7377024-2.5229581,6.1701656-3.783863,10.2973898-3.783863,4.1444496,0,7.05211,1.2609049,8.7218328,3.783863,1.6685745,2.5229581,2.0440899,5.9496795,1.1253978,10.2836094l-.9290274,4.3890514ZM418.8702394,78.670848l.9290274-4.3890514c.4306369-2.0073422.5202094-3.7287414.2664207-5.1630494-.2526403-1.4354564-.8716091-2.5367385-1.8569063-3.3061431-.9841489-.7694046-2.3587419-1.1541069-4.1214823-1.1541069-2.6067888,0-4.7266707.8406032-6.3584975,2.5183646-1.6318268,1.6789098-2.7755984,4.0468386-3.4324633,7.1049348l-.927879,4.3890514c-1.3699996,6.4147674.5248028,9.6210027,5.6832588,9.6210027,2.6067888,0,4.7312642-.8337131,6.3722779-2.5034359s2.7893788-4.0422451,3.4462436-7.1175668ZM427.7333211,50.198284c-.4317853,2.025716-1.1862611,3.5404096-2.2657243,4.5429323-1.0783148,1.0036711-2.5642992,1.5055066-4.4591016,1.5055066-1.4251211,0-2.5700411-.4030761-3.4324633-1.2092284l-2.8973251-2.8134945c-.5259512-.5443251-.9198404-.8911313-1.1816677-1.0415671-.2629756-.1504358-.5730342-.2250796-.9290274-.2250796-.6568648,0-1.1632938.2158926-1.519287.6465295-.3559932.4317853-.6281557,1.097837-.8153392,1.9981553l-.2537887,1.2103768c-.0562699.2802011-.1963704.5156159-.42145.7027994s-.4788682.2813494-.7602177.2813494h-1.8006365c-.2629756,0-.4639395-.0987594-.6051884-.2951298-.1401005-.1975188-.18259-.4271918-.1263202-.6890191l.2537887-1.2103768c.4306369-2.0440899,1.2471245-3.6012729,2.447166-4.6704008,1.2000415-1.0691279,2.6630586-1.604266,4.3890514-1.604266,1.1253978,0,2.1761518.4604944,3.1511138,1.3791865l3.4049025,3.2073837c.3180971.2629756.6419361.4639395.9703685.6051884.3284324.1401005.6235622.2101508.8865378.2101508.5994466,0,1.0737214-.1871835,1.4205276-.5626989.3468063-.374367.6235622-1.0312318.830268-1.9682978l.2813494-1.3229166c.0562699-.2629756.2009639-.4926486.4352304-.6890191.2354148-.1975188.4834617-.2962782.7464373-.2962782h1.8006365c.2434534,0,.4398238.1033529.5902597.3100586s.1975188.4317853.1412489.6752387l-.2813494,1.3229166Z"/>
    <path class="cls-3" d="M98.9793635,155.3115856c2.9306277,0,5.1125214-.5052806,6.5445326-1.5146936,1.4320113-1.0105613,2.3690772-2.5597058,2.8134945-4.6462851.2664207-1.3102846.1171332-2.4196052-.4490107-3.3302588s-1.8373841-2.0199742-3.8137205-3.3302588l-7.8261081-5.3950192c-1.7765208-1.2436794-3.1247014-2.5149195-4.0456902-3.8125721-.9221372-1.2999493-1.4653139-2.6596135-1.6318268-4.0801412s-.072347-2.9524466.2824978-4.5957571c.8440483-4.0181294,2.8249781-7.1818753,5.9450861-9.4912375,3.1189596-2.3093622,7.5757645-3.4634691,13.3704147-3.4634691,2.264576,0,4.4292441.2779044,6.4940046.8325647s3.6184984,1.1655906,4.6623623,1.8316423c.4444173.2882396.7659595.5604022.965775.8153392.1998155.2560854.254937.5948531.1665129,1.0163031l-.9990776,4.6290597c-.2446018,1.110469-.8876862,1.4538302-1.9315501,1.0323802-1.132288-.4662362-2.8031592-.9209888-5.0114652-1.3654061-2.2094544-.4444173-4.2133515-.6660518-6.0116912-.6660518-4.7737537,0-7.4930822,1.5870406-8.159134,4.76227-.2446018,1.110469-.072347,2.0429415.5167643,2.7974174.5879629.7544759,1.8477194,1.7983397,3.7792695,3.1304432l7.1600563,4.8621778c2.0865794,1.4205276,3.651801,2.8467971,4.6956648,4.2799567,1.0438639,1.4308629,1.6708712,2.8961768,1.8821704,4.3959416.2101508,1.4974681.1159849,3.2131255-.2836462,5.1446756-.5328414,2.5091777-1.5985242,4.834617-3.1970484,6.9774663-1.5985242,2.1417009-3.8516165,3.8906609-6.7604253,5.2445834-2.9088088,1.3539224-6.4492183,2.0314578-10.6235254,2.0314578-2.7974174,0-5.2893696-.3215422-7.4758567-.965775-2.1876355-.6442328-3.6805101-1.2321957-4.4797722-1.7650371-.5546603-.3778121-.9049117-.6717936-1.0484573-.8819444-.144694-.2112992-.1722548-.5282479-.0838307-.9496979l.9990776-4.6290597c.2216345-1.0438639.8658673-1.387225,1.9315501-1.0323802,4.1295209,1.4205276,8.0041047,2.1313656,11.6226031,2.1313656Z"/>
    <path class="cls-3" d="M161.3539617,131.6667485c1.1541069-.821081,1.8764286-1.8098234,2.1646682-2.9639303l.7659595-3.5300743c.0666052-.4880552.4995388-.7544759,1.2988009-.7992621h4.2294286c.5110225,0,.7774432.2216345.7992621.6660518-.9106535,7.4379607-4.4177605,11.6340867-10.5236177,12.5883781l-4.7289674,22.3127337c-.1550293.6660518-.710838,1.1208043-1.6651294,1.3654061-2.5757829.6660518-5.1619011,1.1713324-7.7595029,1.5146936-2.5976018.3445095-5.0172071.5167643-7.2599641.5167643-2.7308122,0-4.9839045-.2824978-6.7604253-.8497902-1.7765208-.5649956-3.1855648-1.459572-4.2294286-2.6802841-1.0438639-1.2207121-1.676613-2.7641148-1.8982475-4.6290597-.2216345-1.8649449-.0551215-4.1180372.4995388-6.7604253l4.7955726-22.5791544c.0884241-.3548448.2939815-.6821289.6166721-.9830005.3215422-.2985749.6821289-.4490107,1.0817599-.4490107h6.2608865c.3996311,0,.6936125.1389522.8830928.4168565.1883319.276756.2377116.6155237.1492875,1.0151547l-4.76227,22.5125492c-.2882396,1.3321035-.4157082,2.4529078-.3824056,3.3635613s.2434534,1.6651294.6327492,2.264576c.3881474.5994466.987594,1.038122,1.7983397,1.314878.8095974.2779044,1.881022.4168565,3.2131255.4168565,2.242757,0,4.5291519-.254937,6.860333-.7659595l6.1609787-29.1064615c.0884241-.3548448.2939815-.6821289.6166721-.9830005.3215422-.2985749.6706452-.4490107,1.0484573-.4490107h6.2941891c.3548448,0,.638491.1504358.8497902.4490107.2101508.3008717.2710142.6281557.18259.9830005l-1.2321957,5.8279528ZM161.5537772,110.2198821c-.0447862.1779966-.1665129.3548448-.3663285.5328414l-9.8242633,8.4588572c-.3548448.3112069-.6545681.5385832-.8991699.6832772-.2446018.1435456-.566144.2158926-.965775.2158926h-5.8612554c-.3996311,0-.566144-.1550293-.4995388-.4662362.0666052-.2882396.1998155-.5213578.3996311-.6993543l8.2590417-8.1924365c.42145-.42145.7498824-.6936125.9830005-.8164876.2331181-.1217267.5604022-.18259.9818522-.18259h7.1600563c.4880552,0,.6993543.1550293.6327492.4662362Z"/>
    <path class="cls-3" d="M179.6359339,155.7778219c2.5528156,0,5.5948347-.5213578,9.124909-1.5652216,1.0208966-.2664207,1.4205276.0999078,1.1988932,1.0989854l-.8991699,4.362639c-.1113914.42145-.2997233.7602177-.566144,1.0151547-.2664207.2560854-.6890191.5052806-1.2654983.7498824-2.6205691,1.3102846-5.6844072,1.9648527-9.1915142,1.9648527-3.0420191,0-5.6063184-.5718858-7.6928977-1.7156574-2.0877277-1.1426233-3.5358161-2.9524466-4.3465619-5.4271734-.8107458-2.4758751-.8153392-5.6120602-.0160771-9.4085552l1.3654061-6.3607942c.7762948-3.7080709,2.0923212-6.8052115,3.9457824-9.2914219,1.8534613-2.4862104,4.0801412-4.3178527,6.677743-5.4949269,2.5976018-1.1770742,5.4168381-1.7650371,8.4588572-1.7650371,3.507107,0,6.2941891.6545681,8.3589495,1.9648527.4662362.2446018.7820366.493797.9485496.748734.1665129.2560854.2055574.5948531.1171332,1.0163031l-.9324725,4.362639c-.2227828.9990776-.7774432,1.3654061-1.6651294,1.0989854-1.3987087-.4880552-2.6756907-.8716091-3.8297976-1.1495135-1.1552553-.276756-2.5872665-.4157082-4.2960338-.4157082-4.5957571,0-7.5263848,2.9754139-8.7918831,8.9250935l-1.3654061,6.3607942c-.6660518,3.2188673-.5225061,5.5110041.4329336,6.8775585.9542914,1.3642577,2.3644837,2.047535,4.2294286,2.047535Z"/>
    <path class="cls-3" d="M245.7725761,162.0387083c-.0666052.2446018-.2055574.4444173-.4168565.5994466s-.4490107.2331181-.7154315.2331181h-8.3256469c-.3330259,0-.6557165-.144694-.965775-.4329336-.3112069-.2882396-.5443251-.5994466-.6993543-.9324725l-7.426477-15.5523084-3.2969562,15.4857032c-.0666052.3996311-.2618272.7383988-.5833695,1.0163031-.3215422.276756-.6821289.4157082-1.0817599.4157082h-6.2608865c-.3996311,0-.6947609-.1492875-.8830928-.4501591-.1883319-.2985749-.2491952-.6270073-.18259-.9818522l10.4570125-49.1213167c.0666052-.3330259.2664207-.6442328.5994466-.9324725s.6878707-.4329336,1.0656828-.4329336h6.2608865c.3766637,0,.6706452.1332104.8819444.3996311s.2721625.5879629.1837384.965775l-6.0610709,28.4404098,14.9528618-15.5190058c.5764793-.5546603,1.1655906-.8325647,1.7650371-.8325647h7.6595951c.6660518,0,.9428077.2446018.8325647.7326569-.0447862.2216345-.1779966.4547526-.3996311.6993543l-17.284043,16.8511093,9.8242633,18.815962c.0884241.1998155.1217267.3778121.0999078.5328414Z"/>
    <path class="cls-3" d="M284.3679784,161.4392618c-.0666052.3548448-.2721625.6832772-.6155237.9818522-.3445095.3008717-.6947609.4501591-1.0496057.4501591h-6.2941891c-.3778121,0-.6603099-.1492875-.8486418-.4501591-.1894802-.2985749-.2503436-.6270073-.1837384-.9818522l4.7955726-22.445944c.4444173-2.0865794.6212655-3.6357239.5328414-4.6451368-.0884241-1.0105613-.4880552-1.7271411-1.1988932-2.1485911-.710838-.42145-1.8316423-.6327492-3.3635613-.6327492-2.3093622,0-5.1171148.7774432-8.4255547,2.3311811l-5.8612554,27.5412399c-.0666052.3996311-.2606789.7383988-.5822211,1.0163031-.3226906.276756-.6832772.4157082-1.0829083.4157082h-6.2608865c-.3996311,0-.6936125-.1492875-.8819444-.4501591-.1894802-.2985749-.2503436-.6270073-.1837384-.9818522l10.4570125-49.1213167c.0666052-.3330259.2664207-.6442328.5994466-.9324725s.6878707-.4329336,1.0656828-.4329336h6.2608865c.3778121,0,.6717936.1332104.8830928.3996311.2101508.2664207.2710142.5879629.18259.965775l-2.9972329,14.1202971c3.1086243-1.6651294,6.715639-2.4976941,10.823341-2.4976941,8.1476503,0,11.1563668,5.0172071,9.0250012,15.0527696l-4.7955726,22.445944Z"/>
    <path class="cls-3" d="M328.1597327,146.4197948c-.6878707,3.2418346-1.9372919,6.1609787-3.7459669,8.7585805-1.8098234,2.5976018-4.085883,4.617576-6.8270305,6.0610709-2.7422958,1.4434949-5.856662,2.1646682-9.34195,2.1646682-3.4416502,0-6.243661-.7211733-8.4083292-2.1646682s-3.592086-3.4634691-4.2799567-6.0610709c-.6878707-2.5976018-.6878707-5.5167459,0-8.7585805l1.1655906-5.4949269c.6878707-3.2418346,1.9315501-6.1609787,3.7298898-8.7585805,1.7983397-2.5976018,4.0847346-4.617576,6.860333-6.0610709,2.7755984-1.4434949,5.8830743-2.1646682,9.3247245-2.1646682,3.485288,0,6.2941891.7211733,8.4255547,2.1646682s3.5472998,3.4634691,4.2466541,6.0610709c.6993543,2.5976018.7039478,5.5167459.0160771,8.7585805l-1.1655906,5.4949269ZM319.168034,146.4197948l1.1655906-5.4949269c.5994466-2.8422036.4501591-5.0895541-.4490107-6.7443482-.8991699-1.6536457-2.5367385-2.4804686-4.9127058-2.4804686-2.3530001,0-4.3350782.8268229-5.9439377,2.4804686-1.6100079,1.6547941-2.7147351,3.9021446-3.3141816,6.7443482l-1.1655906,5.4949269c-.5994466,2.8422036-.4444173,5.0895541.4662362,6.7431998.9106535,1.6547941,2.5309967,2.481617,4.8621778,2.481617,2.3530001,0,4.34082-.8268229,5.9611632-2.481617,1.6203431-1.6536457,2.7308122-3.9009962,3.3302588-6.7431998ZM319.4849828,108.7878708c-.6109302.0218189-1.74896.3112069-3.4140894.8658673-.6878707.2446018-1.1874095.2446018-1.4986164,0s-.4444173-.4880552-.3996311-.7326569l.4662362-2.0647604c.0218189-.1779966.1389522-.3881474.3502514-.6327492.2101508-.2446018.7659595-.5500669,1.6651294-.915247.8991699-.3674768,1.8201587-.6224139,2.7641148-.7671079.9428077-.1435456,2.1083983-.1883319,3.4967717-.1332104,1.387225.0562699,2.5355901.4949454,3.4462436,1.3160264s1.1655906,2.1761518.7659595,4.0629157l-.0333026.1665129c-.1550293.7326569-.4444173,1.4480884-.8658673,2.1485911-.42145.698206-1.2103768,1.6031177-2.3644837,2.7135867l-2.3311811,2.1646682c-.1113914.1332104-.3054651.3215422-.5822211.566144-.2779044.2446018-.4892035.4490107-.6327492.6166721-.144694.1653646-.2721625.3605866-.3835539.5822211s-.1998155.4444173-.2664207.6660518l-.2331181,1.1655906c-.0447862.1550293-.2158926.349103-.5156159.5833695-.2997233.2319697-.6717936.349103-1.1162109.349103h-2.5309967c-.4880552,0-.821081-.1113914-.9990776-.3330259s-.2446018-.42145-.1998155-.5994466l.2331181-1.1655906c.2216345-.9542914.5167643-1.7374764.8830928-2.3484066.3663285-.6097819,1.0036711-1.336697,1.9143246-2.1807453l2.4310889-2.2312734c.3996311-.3996311.7877785-.893428,1.1655906-1.481391.3778121-.5891113.5385832-1.0656828.4834617-1.4331596-.0562699-.3651801-.1998155-.6212655-.4329336-.7648111-.2331181-.144694-.6557165-.2055574-1.2654983-.1837384Z"/>
    <path class="cls-3" d="M348.9060964,163.4041144c-2.8640225,0-5.4949269-.5270996-7.8927133-1.5824471-2.3977863-1.0541992-4.196126-2.8582807-5.3950192-5.4110963-1.1988932-2.5528156-1.3539224-5.9278606-.4662362-10.1239866l1.0656828-5.0286907c.7544759-3.485288,2.0486833-6.5491261,3.8803256-9.1915142s4.1295209-4.6566204,6.8936356-6.0438455c2.7641148-1.3883734,5.8555136-2.0819859,9.2741965-2.0819859s6.2000231.7326569,8.3428724,2.1979708c2.1417009,1.4653139,3.5633769,3.4967717,4.2627312,6.0943735s.6821289,5.6063184-.0505281,9.0250012l-.7992621,3.796495c-.2446018,1.1541069-.821081,1.7317346-1.7317346,1.7317346h-22.2461285l-.0333026.1998155c-.5546603,2.5757829-.3605866,4.6623623.5833695,6.2608865.9428077,1.5985242,3.158004,2.3977863,6.643292,2.3977863,1.9097311,0,4.0181294-.1940737,6.3274916-.5822211,2.3093622-.3892958,4.217945-.8050039,5.7280451-1.2494212,1.0208966-.2882396,1.4205276.0666052,1.1988932,1.0656828l-.8325647,4.0296131c-.1113914.4444173-.3054651.7877785-.5822211,1.0323802-.2779044.2446018-.6947609.4880552-1.2494212.7326569-1.553738.7326569-3.5082553,1.3711479-5.8612554,1.915473-2.3530001.5431767-4.7071485.8153392-7.0601486.8153392ZM359.9625554,140.3587238l.0666052-.2664207c.5776276-2.7526311.3720703-4.8403588-.6155237-6.2608865-.9887423-1.4205276-2.5930084-2.1313656-4.8127981-2.1313656-1.4205276,0-2.7422958.3054651-3.9630079.9163953-1.2207121.6097819-2.2760596,1.5365125-3.1637458,2.7801919s-1.531919,2.808901-1.9315501,4.6956648l-.0666052.2664207h14.4866256Z"/>
    <path class="cls-3" d="M419.8383112,161.7722876c-.1332104.5776276-.4329336.8991699-.8991699.965775-2.7537795.3996311-7.2266615.5994466-13.4209428.5994466-2.8203847,0-5.2239128-.2997233-7.2105844-.8991699-1.9866716-.5994466-3.4416502-1.8373841-4.362639-3.7126643-.9209888-1.8764286-1.0048195-4.5681963-.2491952-8.0764517l7.8594107-37.0990826c.0884241-.3330259.2939815-.6442328.6155237-.9324725s.6717936-.4329336,1.0496057-.4329336h3.4634691c.3766637,0,.6706452.1332104.8819444.3996311s.2721625.5879629.1837384.965775l-7.8594107,37.0990826c-.3996311,1.843126-.5052806,3.2579118-.3169488,4.2455057.1883319.9887423.8325647,1.7099156,1.9315501,2.1658166,1.0989854.4547526,2.8479454.6821289,5.2457317.6821289h13.1878247c.4880552,0,.676387.2779044.566144.8325647l-.6660518,3.1970484Z"/>
    <path class="cls-3" d="M452.6735141,160.2736712c-.1779966.8440483-.6224139,1.3435872-1.3321035,1.4986164-1.8879122.5110225-3.7631924.8991699-5.6281373,1.1655906-1.8649449.2664207-3.941189.3996311-6.2275839.3996311-5.3065951,0-8.9308353-.893428-10.873869-2.6802841-1.9430337-1.7880044-2.4919522-4.6462851-1.6479039-8.5759905l.0999078-.5994466c.5546603-2.5528156,1.5422543-4.6405433,2.9639303-6.2608865,1.4205276-1.6203431,3.4186829-2.8249781,5.9944658-3.6127566,2.5746345-.7889268,5.8497718-1.182816,9.8242633-1.182816h5.0619933l.566144-2.7308122c.6212655-2.8422036.5041323-4.8116497-.3502514-5.9117835-.8543836-1.097837-2.6251626-1.6479039-5.3111885-1.6479039-2.0647604,0-3.868842.1389522-5.4122447.4168565-1.5434027.276756-3.3360006.7039478-5.3777937,1.2815754-.5110225.1550293-.8945764.144694-1.1495135-.0333026s-.349103-.4547526-.2824978-.8325647l.566144-2.664207c.1332104-.5546603.5431767-.965775,1.2321957-1.2321957,1.1541069-.4662362,2.8077526-.9496979,4.9620855-1.4480884,2.1531845-.5006872,4.3396717-.7498824,6.5606098-.7498824,8.8573399,0,12.3759306,4.2742149,10.5569203,12.8214962l-4.7955726,22.5791544ZM447.1785872,158.0423978l2.7974174-13.2544299h-5.0619933c-2.1543329,0-3.8964027.1159849-5.2285062.3502514-1.3321035.2319697-2.4368307.6155237-3.3141816,1.1483651-.8773509.5328414-1.5652216,1.204635-2.0647604,2.0142324-.4995388.8107458-.8819444,1.8488678-1.1483651,3.1143661l-.1332104.5994466c-.3330259,1.5985242-.3559932,2.8800996-.0666052,3.847023.2882396.9646267,1.0369737,1.6697228,2.2473505,2.1141401s2.9696721.6660518,5.2790343.6660518c.9095052,0,1.7925979-.0275608,2.6469815-.0838307.8543836-.0551215,1.6318268-.1274685,2.3311811-.2158926s1.2712402-.1883319,1.7156574-.2997233ZM452.606909,119.9109351c-.0666052.3112069-.2997233.4662362-.6993543.4662362h-3.6965872c-.2227828,0-.4053729-.0333026-.5500669-.0999078s-.2664207-.1665129-.3663285-.2997233-.2388599-.3445095-.4157082-.6327492l-5.894558-8.5920676c-.1332104-.1779966-.1779966-.3548448-.1332104-.5328414.0666052-.3112069.3433612-.4662362.8325647-.4662362h4.4958493c.5764793,0,1.0656828.3330259,1.4653139.9990776l4.8288752,8.4588572c.1550293.1779966.1998155.4111147.1332104.6993543Z"/>
    <path class="cls-3" d="M494.7656881,139.1265281l-4.7289674,22.3793388c-.0884241.3778121-.3054651.6993543-.6499746.965775-.3433612.2664207-.6821289.3996311-1.0151547.3996311h-3.2636536c-.3778121,0-.6717936-.1332104-.8819444-.3996311-.2112992-.2664207-.2721625-.5879629-.1837384-.965775l4.7289674-22.3793388c.4880552-2.264576.6051884-4.0629157.349103-5.3950192-.254937-1.3321035-.9037633-2.2863949-1.9476272-2.8640225-1.0438639-.5776276-2.4976941-.8658673-4.362639-.8658673-2.7974174,0-5.8164692.4111147-9.0583038,1.2321957l-6.4273994,30.2720521c-.0884241.3548448-.2997233.6717936-.6327492.9496979-.3330259.276756-.6775354.4157082-1.0323802.4157082h-3.3302588c-.3330259,0-.6051884-.1332104-.8153392-.3996311-.2112992-.2664207-.2721625-.5879629-.1837384-.965775l6.9602408-32.8696539c.1779966-.8440483.710838-1.387225,1.5985242-1.6318268,5.8164692-1.4205276,10.656828-2.1313656,14.5199282-2.1313656,2.5528156,0,4.6451368.3158004,6.2781119.9496979,1.6306784.6316008,2.8134945,1.5479961,3.5461514,2.7468893.7326569,1.1988932,1.132288,2.6584652,1.1988932,4.3798644.0666052,1.7202509-.1550293,3.7792695-.6660518,6.1770558Z"/>
    <path class="cls-3" d="M545.0836012,160.6066971c-.0884241.5110225-.254937.8773509-.4995388,1.0989854s-.6660518.3881474-1.2654983.4995388c-4.1513398.7544759-8.414071,1.132288-12.7881936,1.132288-3.2854725,0-5.9002998-.6821289-7.8421852-2.0486833-1.9430337-1.3642577-3.1809713-3.3245169-3.7138127-5.8773325s-.4329336-5.5282295.2997233-8.9250935l1.0323802-4.8954804c.5776276-2.7308122,1.387225-5.1228567,2.4310889-7.1761334,1.0438639-2.0544251,2.3254393-3.7861597,3.8458747-5.1952037,1.5215837-1.4101923,3.2981045-2.4873588,5.328414-3.2314994,2.0326062-.7429922,4.2914403-1.1150625,6.7776508-1.1150625,2.8422036,0,5.4616244.2331181,7.8594107.6993543l2.6975096-12.6882859c.0666052-.3548448.2491952-.6603099.5500669-.915247.2985749-.2560854.6373426-.3835539,1.0151547-.3835539h3.4634691c.3778121,0,.6545681.1217267.8325647.3663285s.2216345.5546603.1332104.9324725l-10.1572892,47.722608ZM539.7218846,157.6760694l5.7613477-27.0750037c-1.0656828-.1998155-2.2255315-.3272841-3.4795462-.3824056-1.255163-.0562699-2.7262187-.0838307-4.413167-.0838307-3.1970484,0-5.6786654.9542914-7.4425541,2.8640225-1.7661855,1.9097311-3.0477609,4.7737537-3.847023,8.5920676l-1.0323802,4.8954804c-.8440483,3.9078864-.7992621,6.8212886.1332104,8.7413551.9324725,1.9212148,3.0087165,2.881248,6.2275839,2.881248,1.953369,0,4.6508786-.144694,8.0925288-.4329336Z"/>
    <path class="cls-3" d="M580.4164982,160.2736712c-.1779966.8440483-.6212655,1.3435872-1.3321035,1.4986164-1.8867638.5110225-3.7631924.8991699-5.6281373,1.1655906-1.8649449.2664207-3.941189.3996311-6.2275839.3996311-5.3065951,0-8.9308353-.893428-10.873869-2.6802841-1.9418854-1.7880044-2.4919522-4.6462851-1.6479039-8.5759905l.0999078-.5994466c.5546603-2.5528156,1.5434027-4.6405433,2.9639303-6.2608865,1.4205276-1.6203431,3.4186829-2.8249781,5.9944658-3.6127566,2.5757829-.7889268,5.8497718-1.182816,9.8242633-1.182816h5.0619933l.566144-2.7308122c.6212655-2.8422036.5052806-4.8116497-.3502514-5.9117835-.8543836-1.097837-2.6251626-1.6479039-5.3111885-1.6479039-2.0647604,0-3.868842.1389522-5.4122447.4168565-1.5422543.276756-3.3348522.7039478-5.3777937,1.2815754-.5110225.1550293-.893428.144694-1.1495135-.0333026-.254937-.1779966-.349103-.4547526-.2824978-.8325647l.566144-2.664207c.1332104-.5546603.5443251-.965775,1.2321957-1.2321957,1.1541069-.4662362,2.808901-.9496979,4.9620855-1.4480884,2.1531845-.5006872,4.34082-.7498824,6.5606098-.7498824,8.8584883,0,12.3770789,4.2742149,10.5569203,12.8214962l-4.7955726,22.5791544ZM574.9215713,158.0423978l2.7974174-13.2544299h-5.0619933c-2.1531845,0-3.8964027.1159849-5.2285062.3502514-1.3321035.2319697-2.4368307.6155237-3.3130333,1.1483651-.8773509.5328414-1.56637,1.204635-2.0647604,2.0142324-.5006872.8107458-.8830928,1.8488678-1.1495135,3.1143661l-.1332104.5994466c-.3330259,1.5985242-.3548448,2.8800996-.0666052,3.847023.2882396.9646267,1.038122,1.6697228,2.2473505,2.1141401,1.2103768.4444173,2.9696721.6660518,5.2790343.6660518.9106535,0,1.7925979-.0275608,2.6469815-.0838307.855532-.0551215,1.6329752-.1274685,2.3311811-.2158926.7005027-.0884241,1.2712402-.1883319,1.7156574-.2997233Z"/>
    <path class="cls-3" d="M250.8127505,224.3225857c-.1125398.5626989-.5248028.8911313-1.2379376.9852972-1.3321035.1871835-2.6067888.2813494-3.8263525.2813494-2.8134945,0-4.7082969-.5293963-5.6832588-1.5893373s-1.1345847-3.0994374-.4777199-6.1196376l4.2765116-20.1170596-5.4868884-.6178204c-.7131347-.0574183-1.0036711-.4042245-.8716091-1.0415671l.3376193-1.5755569c.1492875-.6752387.5902597-1.012858,1.3217682-1.012858h5.5994282l1.2092284-5.6556981c.1309136-.6373426.5443251-1.0220449,1.2379376-1.1529585l3.123553-.4501591h.1688097c.2618272,0,.4547526.0895725.5764793.2675691s.144694.4076696.0700503.6890191l-1.3217682,6.3022276h6.2172486c.3192455,0,.5672924.1125398.7452889.3376193.179145.2250796.229673.4972421.1550293.8164876l-.42145,1.940737c-.0562699.3192455-.229673.5902597-.5213578.8153392-.2905364.2250796-.5764793.3376193-.8578287.3376193h-6.2172486l-4.2765116,20.1170596c-.3376193,1.5376609-.3376193,2.5275516,0,2.9685238s1.1058756.6603099,2.3070655.6603099h3.2349445c.8061523,0,1.1541069.2721625,1.0415671.8164876l-.4225984,1.9970069Z"/>
    <path class="cls-3" d="M284.7710545,204.3754841l-3.8263525,18.0626345c-.1504358.7131347-.6005949,1.1724808-1.3504773,1.3791865-4.8587327,1.1805193-8.9572477,1.7719273-12.295545,1.7719273-2.8318683,0-4.9839045-.468533-6.4561085-1.4067472-1.4733524-.9382143-2.3598903-2.2829498-2.6596135-4.0376517-.2997233-1.7535535-.1688097-3.9526726.3938892-6.5973574l4.0238713-18.8779737c.0562699-.3192455.2147443-.591408.4777199-.8164876s.5626989-.3376193.9003182-.3376193h2.7572246c.3192455,0,.5672924.1125398.7464373.3376193.1779966.2250796.2388599.4972421.18259.8164876l-4.0238713,18.8779737c-.6005949,2.8318683-.5018355,4.8300236.2962782,5.9933174.7969654,1.1621455,2.3771157,1.7432182,4.7404511,1.7432182.880796,0,2.0911728-.1022045,3.6288337-.3089102,1.5376609-.2067057,2.8789513-.4501591,4.0238713-.7315086l5.4581793-25.5740905c.0562699-.3008717.2147443-.5672924.4777199-.8027072.2629756-.2342665.5626989-.3513997.9003182-.3513997h2.8134945c.3192455,0,.5581054.1125398.7177282.3376193s.2112992.4972421.1550293.8164876l-1.0415671,4.7817922c.7877785-.6557165,1.2850205-1.4055989,1.4917263-2.2507956l.6465295-2.9811558c.0746437-.4134114.4409722-.638491,1.097837-.6752387h2.3346262c.4317853,0,.6568648.1871835.6752387.5626989-.6752387,5.6074667-3.1040308,9.0307431-7.2863765,10.2686806ZM279.2566054,188.9012645c-.0562699.2629756-.2537887.3938892-.591408.3938892h-3.1224047c-.1883319,0-.3422128-.0275608-.4639395-.084979-.1228751-.0551215-.2250796-.1401005-.3100586-.2526403-.0838307-.1125398-.2021123-.2905364-.3513997-.5351381l-4.9517503-7.2576674c-.132062-.1504358-.179145-.3008717-.1412489-.4501591.0562699-.2629756.2905364-.3950376.7039478-.3950376h3.7976433c.4880552,0,.9095052.2824978,1.2666467.8451967l4.0789928,7.1451276c.1125398.1504358.1412489.3479546.084979.591408Z"/>
    <path class="cls-3" d="M314.9569792,230.6248133c1.5376609,0,2.7342573-.1492875,3.5874925-.4501591.8532353-.2997233,1.4905779-.8015588,1.9131762-1.5043583.42145-.7039478.783185-1.7684822,1.0829083-3.1936033l.084979-.4501591c-.4317853.0746437-1.3654061.1963704-2.7997141.3663285-1.4354564.1676613-2.387451.2526403-2.855984.2526403-3.0569479,0-5.48574-.5718858-7.2863765-1.7156574-1.8006365-1.14492-2.9777107-2.8043075-3.5312226-4.9804594s-.5110225-4.7645668.1263202-7.7652447l.9290274-4.4177605c.6373426-3.000678,1.6972836-5.5890929,3.1786746-7.7652447,1.481391-2.1750035,3.3670064-3.8355394,5.6556981-4.979311,2.2875433-1.1437716,4.9609372-1.7156574,8.017885-1.7156574,1.0312318,0,2.0303095.0321542,2.9960845.097611.9669234.0666052,1.8293456.1504358,2.5884149.2537887.7602177.1033529,1.7592953.276756,2.9972329.5202094s2.1279205.4501591,2.6722456.6189688c.6005949.1504358.9807038.3330259,1.1391782.5489185.1596227.2158926.1929253.5489185.0987594.9990776l-6.3297884,29.7380623c-.5822211,2.7009547-1.5296223,4.9138542-2.8422036,6.6398469s-3.0247936,2.9914911-5.1343403,3.7987917c-2.110695.8061523-4.6382466,1.2092284-7.5826547,1.2092284-1.9510723,0-3.8309459-.2388599-5.6407693-.7177282-1.8098234-.4777199-3.2969562-1.0082645-4.4591016-1.5893373-.2067057-.1309136-.3984827-.2675691-.5776276-.4076696-.1779966-.1412489-.2859429-.2951298-.3226906-.4650879-.037896-.1676613-.0287091-.3835539.0275608-.6465295l.6189688-2.9260342c.1871835-.8440483.6568648-1.1541069,1.4067472-.9290274,1.4630171.3755154,3.1373334.7326569,5.0218005,1.0702763,1.8856155.3376193,3.6253886.5052806,5.2193193.5052806ZM322.9197428,218.9780945l4.2478025-19.94825c-.6752387-.1504358-1.4676106-.2721625-2.3771157-.3663285-.9095052-.0930176-1.9269566-.1401005-3.0523544-.1401005-2.3265877,0-4.0893281.7223216-5.2893696,2.1658166-1.2011899,1.4446433-2.0819859,3.4703593-2.6446848,6.077148l-.9290274,4.4177605c-.2434534,1.1816677-.3801088,2.2795047-.4076696,3.2923627-.0287091,1.012858.1125398,1.893654.42145,2.6435364.3100586.7510308.8256745,1.3229166,1.5479961,1.7168058s1.6743163.591408,2.855984.591408c.6752387,0,1.5755569-.047083,2.7009547-.1412489,1.1253978-.0941659,2.1003597-.1963704,2.9260342-.3089102Z"/>
    <path class="cls-3" d="M350.5471101,225.6455022c-2.4196052,0-4.6428401-.4455657-6.6685561-1.336697-2.025716-.8899829-3.545003-2.4150118-4.557861-4.5716414-1.012858-2.1566296-1.1437716-5.0080202-.3938892-8.5530232l.9003182-4.2478025c.6373426-2.9455565,1.7305862-5.5339714,3.277434-7.7652447,1.5479961-2.2324217,3.4887331-3.9342988,5.8245077-5.1067795,2.3346262-1.1724808,4.9471568-1.758147,7.835295-1.758147s5.2376932.6178204,7.0475165,1.855758c1.8109717,1.2379376,3.0110133,2.9547434,3.6012729,5.1492691.591408,2.1945257.5776276,4.7358576-.0413411,7.6251442l-.6752387,3.2062353c-.2067057.9761103-.6947609,1.4630171-1.4630171,1.4630171h-18.794143l-.0287091.169958c-.468533,2.1750035-.3043167,3.9388923.4926486,5.2893696s2.6676521,2.025716,5.6132086,2.025716c1.6123046,0,3.3945672-.1642162,5.3456395-.4926486,1.9499239-.3284324,3.5633769-.6798321,4.8392105-1.0553475.8624222-.2434534,1.2000415.0562699,1.012858.9003182l-.7039478,3.4037541c-.0941659.3755154-.2572338.6660518-.4926486.8727575-.2342665.2067057-.5856662.4122631-1.0541992.6189688-1.3137297.6189688-2.9639303,1.1587004-4.9517503,1.6180464-1.9889683.459346-3.9767883.6890191-5.9646083.6890191ZM359.8879117,206.1761205l.0562699-.2250796c.4869068-2.3254393.3135037-4.0893281-.5213578-5.2893696-.8337131-1.2000415-2.1899322-1.8006365-4.0652124-1.8006365-1.2000415,0-2.3162524.2583821-3.3474842.7739981-1.0323802.5156159-1.9235115,1.2988009-2.6733939,2.349555-.7498824,1.0496057-1.2942075,2.3725223-1.6318268,3.966453l-.0562699.2250796h12.2392751Z"/>
    <path class="cls-3" d="M397.108721,223.9849663c-.0562699.3008717-.229673.5776276-.5202094.830268-.2905364.2537887-.5868146.3801088-.8865378.3801088h-5.3169304c-.3192455,0-.5581054-.1263202-.7177282-.3801088-.1596227-.2526403-.2112992-.5293963-.1550293-.830268l4.051432-19.0192226c.3192455-1.5181386.3984827-2.7285155.2388599-3.6288337-.1584744-.9003182-.6143753-1.5571831-1.3642577-1.9694461-.7498824-.4122631-1.8569063-.6189688-3.3199235-.6189688-1.7627404,0-3.6954389.2067057-5.7957986.6189688l-5.2330997,24.6175024c-.0562699.3376193-.2204861.6247106-.4926486.8589771-.2710142.2342665-.5764793.3513997-.9140986.3513997h-5.2893696c-.3376193,0-.5856662-.1263202-.7452889-.3801088-.1596227-.2526403-.2112992-.5293963-.1550293-.830268l6.1334179-28.8101833c.1125398-.5626989.5810727-.9462528,1.4067472-1.1529585,2.025716-.5248028,4.1731587-.9428077,6.4434765-1.2517179,2.2691694-.3100586,4.3511553-.4639395,6.2459577-.4639395,4.519965,0,7.6239958.9979293,9.3120925,2.9960845,1.6880967,1.9970069,2.072799,5.1997971,1.1541069,9.6083707l-4.0801412,19.0743441Z"/>
    <path class="cls-3" d="M418.2087811,225.6455022c-2.4196052,0-4.6416917-.4455657-6.6674077-1.336697-2.025716-.8899829-3.545003-2.4150118-4.557861-4.5716414-1.012858-2.1566296-1.14492-5.0080202-.3938892-8.5530232l.9003182-4.2478025c.6373426-2.9455565,1.7305862-5.5339714,3.277434-7.7652447,1.5479961-2.2324217,3.4887331-3.9342988,5.8245077-5.1067795,2.3346262-1.1724808,4.9460084-1.758147,7.835295-1.758147,2.8881382,0,5.2376932.6178204,7.0475165,1.855758,1.8098234,1.2379376,3.0110133,2.9547434,3.6012729,5.1492691.591408,2.1945257.5764793,4.7358576-.0424895,7.6251442l-.6752387,3.2062353c-.2067057.9761103-.6936125,1.4630171-1.4630171,1.4630171h-18.794143l-.0275608.169958c-.4696813,2.1750035-.3054651,3.9388923.4926486,5.2893696.7969654,1.3504773,2.6676521,2.025716,5.6120602,2.025716,1.6134529,0,3.3945672-.1642162,5.3456395-.4926486,1.9510723-.3284324,3.5633769-.6798321,4.8392105-1.0553475.8624222-.2434534,1.2000415.0562699,1.012858.9003182l-.7027994,3.4037541c-.0941659.3755154-.2583821.6660518-.4926486.8727575s-.5868146.4122631-1.0553475.6189688c-1.3125813.6189688-2.9639303,1.1587004-4.9517503,1.6180464s-3.9767883.6890191-5.9646083.6890191ZM427.5495827,206.1761205l.0562699-.2250796c.4880552-2.3254393.314652-4.0893281-.5202094-5.2893696s-2.1899322-1.8006365-4.0652124-1.8006365c-1.2011899,0-2.3174007.2583821-3.3486326.7739981s-1.9223632,1.2988009-2.6722456,2.349555c-.7510308,1.0496057-1.2942075,2.3725223-1.6318268,3.966453l-.0562699.2250796h12.2381268Z"/>
  </g>
</svg>