<?xml version="1.0" encoding="UTF-8"?>
<svg id="Layer_1" data-name="Layer 1" xmlns="http://www.w3.org/2000/svg" version="1.1" xmlns:xlink="http://www.w3.org/1999/xlink" viewBox="0 0 800 400">
  <defs>
    <style>
      .cls-1 {
        fill: url(#linear-gradient);
      }

      .cls-1, .cls-2, .cls-3, .cls-4, .cls-5, .cls-6, .cls-7, .cls-8, .cls-9 {
        stroke-width: 0px;
      }

      .cls-2 {
        fill: none;
      }

      .cls-3 {
        fill: #2b89c7;
      }

      .cls-4 {
        fill: #e90e8b;
      }

      .cls-5 {
        fill: #010101;
      }

      .cls-6 {
        fill: url(#radial-gradient-2);
      }

      .cls-10 {
        clip-path: url(#clippath);
      }

      .cls-7 {
        fill: url(#radial-gradient);
      }

      .cls-8 {
        fill: #18afb3;
      }

      .cls-9 {
        fill: #fff;
      }
    </style>
    <linearGradient id="linear-gradient" x1="130.7" y1="221.9" x2="604.8" y2="221.9" gradientTransform="translate(0 400) scale(1 -1)" gradientUnits="userSpaceOnUse">
      <stop offset="0" stop-color="#b98838"/>
      <stop offset=".5" stop-color="#eed271"/>
      <stop offset="1" stop-color="#b98939"/>
    </linearGradient>
    <clipPath id="clippath">
      <rect class="cls-2" x="100" y="275.9" width="700" height="124.1"/>
    </clipPath>
    <radialGradient id="radial-gradient" cx="-3556.9" cy="-195.5" fx="-3556.9" fy="-195.5" r="2" gradientTransform="translate(313299.7 17484.5) scale(88 87.9)" gradientUnits="userSpaceOnUse">
      <stop offset="0" stop-color="#60c7ce"/>
      <stop offset=".1" stop-color="#3ac4e3"/>
      <stop offset=".3" stop-color="#5676ba"/>
      <stop offset=".5" stop-color="#615eaa"/>
      <stop offset="1" stop-color="#e90e8b"/>
    </radialGradient>
    <radialGradient id="radial-gradient-2" cx="-3556.9" cy="-195.6" fx="-3556.9" fy="-195.6" r="2" gradientTransform="translate(313299.7 17477.1) scale(88 87.9)" gradientUnits="userSpaceOnUse">
      <stop offset="0" stop-color="#60c7ce"/>
      <stop offset=".1" stop-color="#3ac4e3"/>
      <stop offset=".3" stop-color="#5676ba"/>
      <stop offset=".5" stop-color="#615eaa"/>
      <stop offset="1" stop-color="#e90e8b"/>
    </radialGradient>
  </defs>
  <g>
    <path class="cls-3" d="M382.9,60.3v60.1h-4c-11.1,0-20.1-9-20.1-20.1v-38.8c0-19.3-14.5-36.1-33.7-37.3-21.1-1.4-38.6,15.3-38.6,36.1v40.2c0,11.1-9,20.1-20.1,20.1h-4v-60.3c0-19.7,9.5-37.2,24.1-48.2,10.1-7.6,22.6-12.1,36.2-12.1s26.1,4.5,36.2,12.1c14.6,11,24.1,28.5,24.1,48.2h0Z"/>
    <path class="cls-8" d="M84.3,57.6l-2-3.5c-4.4-7.7-1.8-17.5,5.9-22l29.5-17.1,2,3.5c4.4,7.7,1.8,17.5-5.9,22l-29.5,17.1Z"/>
    <path class="cls-3" d="M99.2,54.8l19.1-11c1.5,5.2,2.3,10.7,2.3,16.4,0,19.7-9.5,37.2-24.1,48.2-9.9,7.4-22.2,11.9-35.6,12-16.1.2-30.8,10-35.2,25.5-4.9,16.9,2.3,32.7,14.8,41l-22.3,12.9C7,188.9,0,173.6,0,156.7s9.4-37.2,24.1-48.2C8,96.4-1.8,76.5.3,54.4,2.9,26.8,24.7,4.1,52.1.5c19.8-2.6,38.1,4.5,50.7,17.1l-11.1,6.4c-6.1,3.5-13.3,4.1-20,1.9-4.7-1.6-9.9-2.3-15.3-1.7-16.6,1.7-30.2,15.1-32.1,31.7-2.5,21.9,14.6,40.4,35.9,40.4s35.7-15.7,36.1-35.3c0-.3,0-.6,0-.8,0,0-.4-3.6,2.8-5.4h0Z"/>
    <path class="cls-3" d="M251.6,60.3c0,34.3-28.6,61.8-63.1,60.2-30.7-1.4-55.9-26.7-57.3-57.3C129.6,28.6,157.1,0,191.4,0s28.8,5.5,39.4,14.7c2.8,2.4,5.4,5.1,7.7,8,3.1,3.9,2.1,9.6-2.2,12.1l-13.4,7.7-56.8,32.8h0c-5.5-9.6-2.3-21.9,7.4-27.4l34.3-19.8c-5.3-2.8-11.5-4.2-17.9-3.9-19,.8-34.5,17-34.6,36,0,20.1,16.1,36.3,36.2,36.3s31.2-11.7,35.1-27.5c1.3-5.2,6.2-8.7,11.6-8.7h13.6Z"/>
    <path class="cls-3" d="M800,60.3c0,34.3-28.6,61.8-63.1,60.2-30.7-1.4-55.9-26.7-57.3-57.3-1.6-34.6,25.9-63.1,60.2-63.1s28.8,5.5,39.4,14.7c2.8,2.4,5.4,5.1,7.7,8,3.1,3.9,2.1,9.6-2.2,12.1l-13.4,7.7-56.8,32.8h0c-5.5-9.6-2.3-21.9,7.4-27.4l34.3-19.8c-5.3-2.8-11.5-4.2-17.9-3.9-19,.8-34.5,17-34.6,36,0,20.1,16.1,36.3,36.2,36.3s31.2-11.7,35.1-27.5c1.3-5.2,6.2-8.7,11.6-8.7h13.6Z"/>
    <path class="cls-3" d="M417.8,62.7c1.2,19.2,18.1,33.7,37.3,33.7h13c8.9,0,16.1,7.2,16.1,16.1v8h-28.6c-32.4,0-60.3-24.9-61.9-57.3C392,28.6,419.5,0,453.8,0h30.3v8c0,8.9-7.2,16.1-16.1,16.1h-14.3c-20.8,0-37.4,17.5-36.1,38.6h0Z"/>
    <path class="cls-3" d="M578.3,12.1h0c-12.1-9.1-27.8-13.8-44.6-11.5-27.2,3.7-48.8,26.2-51.6,53.5-3.6,36.1,24.6,66.5,60,66.5s26.1-4.5,36.2-12.1h0c0,6.7,5.4,12.1,12.1,12.1h12.1V0h-12.1c-6.7,0-12.1,5.4-12.1,12.1h0ZM542.1,96.4c-20,0-36.2-16.2-36.2-36.2s16.2-36.2,36.2-36.2,36.2,16.2,36.2,36.2-16.2,36.2-36.2,36.2h0Z"/>
    <path class="cls-3" d="M678.7.2v19.1c0,2.6-2,4.8-4.6,4.8,0,0-.2,0-.3,0-19.8.5-35.3,17.2-35.3,37v59.4h-24.1V0h12.1c6.7,0,12.1,5.4,12.1,12.1h0C648.6,4.5,661.1,0,674.7,0s2.7,0,4,.2h0Z"/>
    <path class="cls-5" d="M678.7,0h-4c1.4,0,2.7,0,4,.2V0h0Z"/>
    <path class="cls-3" d="M120.5,156.7c0,19.7-9.5,37.2-24.1,48.2-10.1,7.6-22.6,12.1-36.2,12.1s-20.8,4.9-27.4,12.6c-6,6.9-15,10.5-24.1,10.5H1.4c3.1-14.3,11.3-26.6,22.6-35.1,9.9-7.4,22.1-11.9,35.5-12,16.4-.2,31.3-10.4,35.6-26.2,4.6-17.3-3.3-33.4-16.7-41.2l22.7-13.1c11.9,11,19.4,26.8,19.4,44.3h0Z"/>
    <path class="cls-8" d="M81.4,135.8h-43.5c5.5-5.7,13.2-9.3,21.7-9.3s16.3,3.6,21.7,9.3Z"/>
    <path class="cls-8" d="M89.6,152.8H29.9c.4-3.3,1.3-6.5,2.8-9.4h54.1c1.5,2.9,2.5,6,2.8,9.4h0Z"/>
    <path class="cls-8" d="M89.6,160.4c-.4,3.3-1.3,6.5-2.8,9.3h-54.2c-1.4-2.9-2.4-6-2.8-9.3h59.7Z"/>
    <path class="cls-8" d="M81.5,177.4c-5.5,5.8-13.2,9.4-21.8,9.4s-16.3-3.6-21.8-9.4h43.6Z"/>
    <g>
      <rect class="cls-1" x="130.7" y="142" width="474.1" height="72.3" rx="32.1" ry="32.1"/>
      <g>
        <path class="cls-9" d="M200.4,184h-8v12.2c0,1.7-.4,3.1-1.2,4s-1.9,1.4-3.1,1.4-2.4-.4-3.2-1.3c-.8-.9-1.2-2.2-1.2-3.9v-33.3c0-1.9.4-3.3,1.3-4.1s2.3-1.2,4.2-1.2h11.2c3.3,0,5.9.3,7.7.8,1.8.5,3.3,1.3,4.6,2.4,1.3,1.1,2.3,2.5,2.9,4.2s1,3.5,1,5.6c0,4.4-1.4,7.7-4.1,10-2.7,2.3-6.7,3.4-12.1,3.4h0ZM198.2,164.2h-5.9v13.2h5.9c2.1,0,3.8-.2,5.2-.6,1.4-.4,2.4-1.1,3.2-2.1s1.1-2.3,1.1-3.9-.6-3.5-1.7-4.6c-1.3-1.3-3.8-1.9-7.7-1.9h0Z"/>
        <path class="cls-9" d="M250.4,182.3h-3.1v13.9c0,1.8-.4,3.2-1.2,4s-1.9,1.3-3.1,1.3-2.5-.5-3.2-1.4-1.1-2.2-1.1-4v-33.2c0-1.9.4-3.2,1.3-4.1s2.2-1.3,4.1-1.3h14.2c2,0,3.6,0,5,.3s2.6.5,3.8,1c1.4.6,2.6,1.4,3.6,2.4s1.8,2.3,2.4,3.7c.5,1.4.8,2.9.8,4.5,0,3.2-.9,5.8-2.7,7.7-1.8,1.9-4.6,3.3-8.3,4.1,1.5.8,3,2,4.4,3.6s2.7,3.3,3.8,5.1c1.1,1.8,2,3.5,2.6,4.9.6,1.5.9,2.5.9,3s-.2,1.1-.5,1.7c-.4.6-.9,1-1.5,1.3-.6.3-1.4.5-2.2.5s-1.8-.2-2.5-.7c-.7-.5-1.2-1-1.7-1.7-.5-.7-1.1-1.7-2-3.1l-3.5-5.8c-1.3-2.1-2.4-3.8-3.4-4.9-1-1.1-2-1.9-3-2.3s-2.3-.6-3.9-.6h0ZM255.4,164.2h-8.1v11.9h7.8c2.1,0,3.9-.2,5.3-.5,1.4-.4,2.5-1,3.3-1.9.8-.9,1.1-2.1,1.1-3.6s-.3-2.3-.9-3.2c-.6-.9-1.5-1.6-2.5-2-1-.4-3-.6-6-.6h0Z"/>
        <path class="cls-9" d="M325.2,164.4h-19.7v10.6h18.1c1.3,0,2.3.3,3,.9.7.6,1,1.4,1,2.4s-.3,1.8-1,2.4c-.6.6-1.6.9-3,.9h-18.1v12.3h20.4c1.4,0,2.4.3,3.1,1,.7.6,1,1.5,1,2.5s-.3,1.8-1,2.5c-.7.6-1.7,1-3.1,1h-23.7c-1.9,0-3.3-.4-4.1-1.3-.8-.8-1.3-2.2-1.3-4.1v-32.4c0-1.3.2-2.3.6-3.1.4-.8,1-1.4,1.8-1.7.8-.4,1.8-.5,3-.5h23.1c1.4,0,2.4.3,3.1.9.7.6,1,1.4,1,2.4s-.3,1.8-1,2.5c-.7.6-1.7.9-3.1.9h0Z"/>
        <path class="cls-9" d="M366.4,194.3l-6.9-27.5v29.8c0,1.6-.4,2.9-1.1,3.7-.7.8-1.7,1.2-2.9,1.2s-2.1-.4-2.9-1.2c-.7-.8-1.1-2.1-1.1-3.7v-34.1c0-1.9.5-3.2,1.5-3.8,1-.7,2.3-1,4-1h2.7c1.6,0,2.8.1,3.5.4.7.3,1.3.8,1.6,1.6s.8,2,1.2,3.7l6.3,23.6,6.3-23.6c.5-1.7.9-3,1.2-3.7s.9-1.3,1.6-1.6c.7-.3,1.9-.4,3.5-.4h2.7c1.7,0,3,.3,4,1,1,.7,1.5,1.9,1.5,3.8v34.1c0,1.6-.4,2.9-1.1,3.7-.7.8-1.7,1.2-3,1.2s-2.1-.4-2.9-1.2-1.1-2.1-1.1-3.7v-29.8l-6.9,27.5c-.5,1.8-.8,3.1-1.1,3.9-.3.8-.8,1.6-1.6,2.3s-1.8,1-3.2,1-1.9-.2-2.6-.7c-.7-.4-1.3-1-1.6-1.7s-.7-1.4-.9-2.3c-.2-.8-.5-1.7-.7-2.6h0Z"/>
        <path class="cls-9" d="M417.2,196.2v-34c0-1.8.4-3.1,1.2-4,.8-.9,1.8-1.3,3.1-1.3s2.4.4,3.2,1.3c.8.9,1.2,2.2,1.2,4v34c0,1.8-.4,3.1-1.2,4-.8.9-1.9,1.3-3.2,1.3s-2.3-.4-3.1-1.3c-.8-.9-1.2-2.2-1.2-4h0Z"/>
        <path class="cls-9" d="M450.6,183v-20.7c0-1.8.4-3.1,1.2-4,.8-.9,1.8-1.3,3.1-1.3s2.4.4,3.2,1.3c.8.9,1.2,2.2,1.2,4v21.2c0,2.4.3,4.4.8,6,.5,1.6,1.5,2.9,2.9,3.8,1.4.9,3.3,1.3,5.8,1.3s5.8-.9,7.2-2.7c1.4-1.8,2.1-4.6,2.1-8.3v-21.4c0-1.8.4-3.1,1.2-4,.8-.9,1.8-1.3,3.2-1.3s2.4.4,3.2,1.3c.8.9,1.2,2.2,1.2,4v20.7c0,3.4-.3,6.2-1,8.4-.7,2.3-1.9,4.2-3.7,5.9-1.6,1.5-3.4,2.5-5.5,3.2-2.1.7-4.5,1-7.3,1s-6.2-.4-8.6-1.1c-2.4-.7-4.3-1.8-5.9-3.3-1.5-1.5-2.6-3.4-3.3-5.8-.7-2.3-1.1-5.1-1.1-8.4Z"/>
        <path class="cls-9" d="M525.7,194.3l-6.9-27.5v29.8c0,1.6-.4,2.9-1.1,3.7-.7.8-1.7,1.2-2.9,1.2s-2.1-.4-2.9-1.2c-.7-.8-1.1-2.1-1.1-3.7v-34.1c0-1.9.5-3.2,1.5-3.8,1-.7,2.3-1,4-1h2.7c1.6,0,2.8.1,3.5.4.7.3,1.3.8,1.6,1.6s.8,2,1.2,3.7l6.3,23.6,6.3-23.6c.5-1.7.9-3,1.2-3.7s.9-1.3,1.6-1.6c.7-.3,1.9-.4,3.5-.4h2.7c1.7,0,3,.3,4,1,1,.7,1.5,1.9,1.5,3.8v34.1c0,1.6-.4,2.9-1.1,3.7-.7.8-1.7,1.2-3,1.2s-2.1-.4-2.9-1.2c-.7-.8-1.1-2.1-1.1-3.7v-29.8l-6.9,27.5c-.5,1.8-.8,3.1-1.1,3.9-.3.8-.8,1.6-1.6,2.3s-1.8,1-3.2,1-1.9-.2-2.6-.7c-.7-.4-1.3-1-1.6-1.7s-.7-1.4-.9-2.3c-.2-.8-.5-1.7-.7-2.6h0Z"/>
      </g>
    </g>
  </g>
  <g class="cls-10">
    <g>
      <path class="cls-4" d="M314.5,369c-2.1,0-3.1-1-3.1-3.1v-5.7c0-2.1,1-3.1,3.1-3.1h36.8l4.3-6.8-4.3-6.9h-30.9c-1.6,0-2.8-.7-3.8-2.1l-8.8-13.7c-.9-1.5-.9-2.9,0-4.4l8.8-14.3c1-1.5,2.3-2.2,3.9-2.2h39.5c2.1,0,3.1,1,3.1,3.1v5.6c0,2.1-1,3.1-3.1,3.1h-34.9l-4.3,6.8,4.3,6.9h30.8c1.6,0,2.8.7,3.7,2.1l8.8,13.8c.9,1.5.9,2.9,0,4.4l-8.8,14.3c-.8,1.5-2.1,2.2-3.9,2.2h-41.3,0Z"/>
      <path class="cls-4" d="M377.6,369c-2.1,0-3.2-1.1-3.2-3.2v-48.3c0-1.6.6-2.8,1.6-3.9l3.9-4.2c1.5-1.6,2.8-2.4,3.9-2.4h36.5c1.7,0,2.9.7,3.7,2.2l9.2,15.7c.8,1.6.8,2.9,0,4.3l-9.1,15.8c-.8,1.4-2,2.1-3.8,2.1h-32c-.6,0-.9.3-.9.9v17.9c0,2.1-1.1,3.2-3.2,3.2h-6.6,0s0,0,0,0ZM389.6,341.1c.6,0,.9-.2,1.2-.5l2.8-3.4c1-1.4,2.3-2,3.9-2h18.6l4.7-8.2-4.7-8.3h-28.6v21.5c0,.6.3.9.9.9h1.3s0,0,0,0Z"/>
      <path class="cls-4" d="M455.5,369c-1.7,0-2.9-.7-3.7-2.1l-15.2-26.8c-.8-1.4-.8-2.8,0-4.3l15.2-26.7c.8-1.4,2-2.1,3.7-2.1h31.3c1.7,0,2.9.7,3.7,2.1l15.2,26.7c.8,1.5.8,2.9,0,4.3l-15.2,26.8c-.8,1.4-2,2.1-3.7,2.1h-31.3ZM460.5,357.1h21.4l11.1-19.2-11.1-19.2h-21.4l-11,19.2,11,19.2Z"/>
      <path class="cls-4" d="M561.4,306.9c2.1,0,3.2,1.1,3.2,3.2v5.4c0,2.1-1.1,3.2-3.2,3.2h-24.7c-.6,0-.9.3-.9.9v1c0,.5.2.8.5,1.1l3.6,2.7c1.4,1,2,2.3,2,3.8v37.6c0,2.1-1.1,3.2-3.2,3.2h-6.6c-2.1,0-3.2-1.1-3.2-3.2v-47.2h-20.6c-2.1,0-3.2-1.1-3.2-3.2v-5.4c0-2.1,1.1-3.2,3.2-3.2h53.1s0,0,0,0Z"/>
      <path class="cls-4" d="M595,369c-2.1,0-3.2-1.1-3.2-3.2v-55.7c0-2.1,1.1-3.2,3.2-3.2h6.6c2.1,0,3.2,1.1,3.2,3.2v1.9c0,.6.3.9.9.9h1.8l3.5-4c1.2-1.4,2.5-2,3.9-2h12.6c1.4,0,2.7.6,3.9,2l3.5,4h2.8l3.5-4c1.2-1.4,2.5-2,3.9-2h10.7c1.1,0,2.4.8,3.9,2.4l3.9,4.2c1,1.1,1.6,2.4,1.6,3.9v48.4c0,2.1-1.1,3.2-3.2,3.2h-6.6c-2.1,0-3.2-1.1-3.2-3.2v-45.3c0-1.2-.6-1.8-1.8-1.8h-13.3c-1.2,0-1.8.6-1.8,1.8v45.3c0,2.1-1.1,3.2-3.2,3.2h-6.6c-2.1,0-3.2-1.1-3.2-3.2v-45.3c0-1.2-.6-1.8-1.8-1.8h-13.3c-1.2,0-1.8.6-1.8,1.8v45.3c0,2.1-1.1,3.2-3.2,3.2h-6.7s0,0,0,0Z"/>
      <path class="cls-4" d="M706.5,319h-5.4l-18,47.5c-.6,1.6-1.8,2.5-3.8,2.5h-6.6c-2.3,0-3.4-1.6-2.5-3.7l21.7-55.9c.6-1.6,1.8-2.5,3.6-2.5h16.5c1.8,0,3,.8,3.6,2.5l21.7,55.9c.8,2.2-.3,3.7-2.5,3.7h-6.5c-1.9,0-3.1-.8-3.7-2.5l-18-47.5h-.1Z"/>
      <path class="cls-4" d="M745.3,369c-2.1,0-3.1-1-3.1-3.1v-5.7c0-2.1,1-3.1,3.1-3.1h36.8l4.3-6.8-4.3-6.9h-30.9c-1.6,0-2.8-.7-3.8-2.1l-8.9-13.7c-.9-1.5-.9-2.9,0-4.4l8.9-14.3c1-1.5,2.3-2.2,3.9-2.2h39.5c2.1,0,3.1,1,3.1,3.1v5.6c0,2.1-1,3.1-3.1,3.1h-34.9l-4.3,6.8,4.3,6.9h30.8c1.6,0,2.8.7,3.7,2.1l8.8,13.8c.9,1.5.9,2.9,0,4.4l-8.8,14.3c-.8,1.5-2.1,2.2-3.9,2.2h-41.3,0Z"/>
      <path class="cls-4" d="M581.7,335.1h-29.6c-.5,0-1,.4-1,1v3.8c0,.5.4,1,1,1h29.6c.5,0,1-.4,1-1v-3.8c0-.5-.4-1-1-1Z"/>
      <path class="cls-4" d="M312.7,384.8h3.6l3.8,12,3.8-12h3.6v14.8h-2.8v-9.9l-3.1,9.9h-2.9l-3.2-9.9v9.9h-2.8v-14.8h0Z"/>
      <path class="cls-4" d="M337.7,399.2c-.9-.5-1.6-1.2-2.2-2.1-.6-.9-.8-1.9-.8-3v-9.3h2.8v9.3c0,1,.3,1.8.8,2.4.6.6,1.3.9,2.2.9s1.7-.3,2.2-.9c.6-.6.8-1.4.8-2.4v-9.3h2.8v9.3c0,1.1-.3,2.1-.8,3-.6.9-1.3,1.6-2.2,2.1s-1.9.8-2.9.8-2-.3-2.9-.8Z"/>
      <path class="cls-4" d="M353.7,384.8h2.8v12.5h7.7v2.3h-10.4v-14.8h0Z"/>
      <path class="cls-4" d="M371.4,387.3h-4.6v-2.5h12v2.5h-4.7v12.3h-2.8v-12.3Z"/>
      <path class="cls-4" d="M385.2,384.8h2.8v14.8h-2.8v-14.8Z"/>
      <path class="cls-4" d="M394.7,391.1h15.5v2.3h-15.5v-2.3Z"/>
      <path class="cls-4" d="M419.4,399c-1-.7-1.7-1.6-2.2-2.8-.5-1.2-.8-2.5-.8-4s.3-2.7.8-3.9c.6-1.2,1.3-2.1,2.3-2.8,1-.7,2.1-1.1,3.4-1.1s2.4.3,3.3.8c.9.5,1.6,1.1,2.1,1.9.5.8.8,1.7,1,2.6h-2.8c-.3-.8-.7-1.6-1.2-2.1-.6-.5-1.4-.8-2.3-.8s-1.5.3-2.1.8c-.6.5-1.1,1.2-1.4,2-.3.8-.5,1.7-.5,2.6s.1,1.8.4,2.6c.3.8.7,1.5,1.3,2s1.3.8,2.1.8,1.6-.3,2.2-.8c.6-.5,1.1-1.2,1.4-2.2h2.7c-.3,1.2-.7,2.2-1.4,3-.6.8-1.4,1.4-2.3,1.7-.9.4-1.8.5-2.7.5-1.4,0-2.5-.3-3.6-1.1h0Z"/>
      <path class="cls-4" d="M439.5,384.8h5.3l4.9,14.8h-2.9l-1.4-4.1h-6.6l-1.3,4.1h-2.8l4.7-14.8ZM444.8,393.2l-2.5-7.6-2.5,7.6h5,0Z"/>
      <path class="cls-4" d="M456.1,384.8h3.7l5.5,11.4v-11.4h2.8v14.8h-3.6l-5.6-11.4v11.4h-2.8v-14.8Z"/>
      <path class="cls-4" d="M478.1,399c-1-.7-1.7-1.6-2.2-2.8-.5-1.2-.8-2.5-.8-4s.3-2.7.8-3.9c.5-1.2,1.3-2.1,2.3-2.8,1-.7,2.1-1.1,3.4-1.1s2.4.3,3.3.8c.9.5,1.6,1.1,2.1,1.9.5.8.8,1.7,1,2.6h-2.8c-.3-.8-.7-1.6-1.2-2.1-.5-.5-1.4-.8-2.3-.8s-1.5.3-2.1.8c-.6.5-1.1,1.2-1.4,2-.3.8-.5,1.7-.5,2.6s.1,1.8.4,2.6c.3.8.7,1.5,1.3,2,.6.5,1.3.8,2.1.8s1.6-.3,2.2-.8c.6-.5,1.1-1.2,1.4-2.2h2.7c-.3,1.2-.7,2.2-1.4,3-.6.8-1.4,1.4-2.3,1.7-.9.4-1.8.5-2.7.5-1.4,0-2.5-.3-3.6-1.1h0,0Z"/>
      <path class="cls-4" d="M494.9,384.8h10.9v2.4h-8.1v3.9h7.3v2.3h-7.3v3.9h8.1v2.4h-10.9v-14.8Z"/>
      <path class="cls-4" d="M512.8,384.8h7.6c.8,0,1.6.2,2.3.6.7.4,1.3,1,1.8,1.7.4.7.7,1.4.7,2.2s-.2,1.6-.6,2.3c-.4.7-.8,1.3-1.4,1.7-.6.4-1.3.6-2,.7l3.9,5.5h-3.2l-3.9-5.5h-2.3v5.5h-2.8v-14.8h0ZM521.7,391.1c.4-.5.6-1,.6-1.6s0-.7-.3-1.1c-.2-.3-.4-.6-.7-.9-.3-.2-.6-.3-1-.3h-4.8v4.6h4.5c.7,0,1.3-.2,1.7-.7h0,0Z"/>
      <path class="cls-4" d="M542.8,384.8h10.9v2.4h-8.1v3.9h7.3v2.3h-7.3v3.9h8.1v2.4h-10.9v-14.8Z"/>
      <path class="cls-4" d="M564.3,384.8h5.3l4.9,14.8h-2.9l-1.4-4.1h-6.6l-1.3,4.1h-2.8l4.7-14.8ZM569.5,393.2l-2.5-7.6-2.5,7.6h5Z"/>
      <path class="cls-4" d="M580.9,384.8h7.6c.8,0,1.6.2,2.3.6.7.4,1.3,1,1.8,1.7.4.7.7,1.4.7,2.2s-.2,1.6-.5,2.3c-.4.7-.8,1.3-1.4,1.7-.6.4-1.3.6-2,.7l3.9,5.5h-3.2l-3.9-5.5h-2.3v5.5h-2.8v-14.8h0ZM589.9,391.1c.4-.5.6-1,.6-1.6s0-.7-.3-1.1c-.2-.3-.4-.6-.7-.9-.3-.2-.6-.3-1-.3h-4.8v4.6h4.5c.7,0,1.3-.2,1.7-.7h0Z"/>
      <path class="cls-4" d="M600.1,384.8h2.8v12.5h7.7v2.3h-10.4v-14.8h0Z"/>
      <path class="cls-4" d="M618.2,394l-5.2-9.2h3.2l3.4,6.4,3.5-6.4h3.2l-5.2,9.2v5.6h-2.8v-5.6h0Z"/>
      <path class="cls-4" d="M643.3,384.8h6.4c.8,0,1.5.2,2.2.5.7.3,1.3.8,1.9,1.4.7.7,1.2,1.5,1.6,2.5.4,1,.5,2,.5,3.1s-.2,2.1-.5,3.1c-.4,1-.9,1.8-1.6,2.5-.6.6-1.2,1-1.9,1.4s-1.4.5-2.2.5h-6.4v-14.9ZM649.1,397.3c1.3,0,2.2-.5,3-1.4.7-.9,1.1-2.1,1.1-3.6s-.4-2.7-1.1-3.7c-.7-.9-1.7-1.4-3-1.4h-3v10.1h3.1s0,0,0,0Z"/>
      <path class="cls-4" d="M662.8,384.8h10.9v2.4h-8.1v3.9h7.3v2.3h-7.3v3.9h8.1v2.4h-10.9v-14.8Z"/>
      <path class="cls-4" d="M684.1,387.3h-4.6v-2.5h12v2.5h-4.7v12.3h-2.8v-12.3h0Z"/>
      <path class="cls-4" d="M697.9,384.8h10.9v2.4h-8.1v3.9h7.3v2.3h-7.3v3.9h8.1v2.4h-10.9v-14.8Z"/>
      <path class="cls-4" d="M718.3,399c-1-.7-1.7-1.6-2.2-2.8-.5-1.2-.8-2.5-.8-4s.3-2.7.8-3.9c.6-1.2,1.3-2.1,2.3-2.8,1-.7,2.1-1.1,3.4-1.1s2.4.3,3.3.8c.9.5,1.6,1.1,2.1,1.9s.8,1.7,1,2.6h-2.8c-.3-.8-.7-1.6-1.2-2.1-.6-.5-1.4-.8-2.3-.8s-1.5.3-2.1.8c-.6.5-1.1,1.2-1.4,2-.3.8-.5,1.7-.5,2.6s.1,1.8.4,2.6c.3.8.7,1.5,1.3,2,.5.5,1.3.8,2.1.8s1.6-.3,2.2-.8c.6-.5,1.1-1.2,1.4-2.2h2.7c-.3,1.2-.7,2.2-1.4,3-.6.8-1.4,1.4-2.3,1.7-.9.4-1.8.5-2.7.5-1.4,0-2.5-.3-3.6-1.1h0,0Z"/>
      <path class="cls-4" d="M738.5,387.3h-4.6v-2.5h12v2.5h-4.7v12.3h-2.8v-12.3h0Z"/>
      <path class="cls-4" d="M752.2,384.8h2.8v14.8h-2.8v-14.8Z"/>
      <path class="cls-4" d="M765.3,399c-1.1-.7-1.9-1.6-2.5-2.8-.6-1.2-.9-2.5-.9-3.9s.3-2.7.9-3.9c.6-1.2,1.4-2.1,2.5-2.8,1.1-.7,2.3-1.1,3.7-1.1s2.7.3,3.8,1.1c1.1.7,2,1.6,2.6,2.8.6,1.2.9,2.5.9,3.9s-.3,2.7-.9,3.9c-.6,1.2-1.5,2.1-2.6,2.8-1.1.7-2.4,1.1-3.8,1.1s-2.7-.3-3.7-1.1ZM771.5,397c.7-.5,1.2-1.2,1.6-2,.4-.8.5-1.7.5-2.7s-.2-1.9-.5-2.7c-.3-.8-.9-1.5-1.6-2-.7-.5-1.5-.8-2.4-.8s-1.7.3-2.4.8c-.7.5-1.2,1.2-1.5,2-.3.8-.5,1.7-.5,2.7s.2,1.9.5,2.7c.3.8.8,1.5,1.5,2,.7.5,1.5.8,2.4.8s1.7-.3,2.4-.8Z"/>
      <path class="cls-4" d="M783.3,384.8h3.7l5.5,11.4v-11.4h2.8v14.8h-3.6l-5.6-11.4v11.4h-2.8v-14.8h0Z"/>
      <path class="cls-7" d="M282.8,336.7l-15.3-42.3c-4.1-11.1-14.7-18.5-26.5-18.5h-53.7c-11.9,0-22.4,7.4-26.5,18.5l-5.2,14.5c-5.1,14.2,5.4,29.1,20.5,29.1h13.9c.3,0,.4-.4.2-.5-2.4-1.4-7.8-5.9-4.1-16.1h0c0,.1,0,0,.2-.5l3.5-9.6c4-11,10-33.7,24.6-34.3,14.5.6,20.5,23.3,24.6,34.3l3.5,9.6c.1.4.2.6.2.6v-.2l5.6,15.9c.2.5.2,1.1,0,1.6l-5.6,15.9v-.2s0,.2-.2.6l-3.5,9.6c-4.1,11.1-10.2,34.3-25.1,34.3-.6,0-.4,1.1.2,1.1h27.1c11.9,0,22.4-7.4,26.5-18.5l15.3-42.3c.3-.8.3-1.6,0-2.4h0s0,0,0,0Z"/>
      <path class="cls-6" d="M207,338h-13.9c-.3,0-.4.4-.2.5,2.4,1.4,7.8,5.9,4.2,16.1h0c0-.1,0,0-.2.5l-3.5,9.6c-4,11-10,33.7-24.6,34.3-14.5-.6-20.5-23.3-24.6-34.3l-3.5-9.6c-.1-.4-.2-.6-.2-.6v.2l-5.6-15.9c-.2-.5-.2-1.1,0-1.6l5.6-15.9v.2s0-.2.2-.6l3.5-9.6c4-11.1,10.2-34.3,25-34.3.6,0,.4-1.1-.2-1.1h-27.1c-11.9,0-22.4,7.4-26.5,18.5l-15.3,42.3c-.3.8-.3,1.6,0,2.4l15.3,42.3c4.1,11.1,14.7,18.5,26.5,18.5h53.7c11.9,0,22.4-7.4,26.5-18.5l5.2-14.5c5.1-14.2-5.4-29.1-20.5-29.1h0q0,0,0,0Z"/>
    </g>
  </g>
</svg>