<?xml version="1.0" encoding="UTF-8"?>
<svg id="Layer_1" data-name="Layer 1" xmlns="http://www.w3.org/2000/svg" xmlns:xlink="http://www.w3.org/1999/xlink" viewBox="0 0 702 272">
  <defs>
    <style>
      .cls-1 {
        fill: url(#linear-gradient);
      }

      .cls-1, .cls-2, .cls-3 {
        stroke-width: 0px;
      }

      .cls-4 {
        filter: url(#drop-shadow-4);
      }

      .cls-5 {
        filter: url(#drop-shadow-5);
      }

      .cls-2 {
        fill: url(#radial-gradient);
      }

      .cls-3 {
        fill: #fff;
      }
    </style>
    <filter id="drop-shadow-4" filterUnits="userSpaceOnUse">
      <feOffset dx="6.9987402" dy="7"/>
      <feGaussianBlur result="blur" stdDeviation="5.000315"/>
      <feFlood flood-color="#221f1f" flood-opacity=".2"/>
      <feComposite in2="blur" operator="in"/>
      <feComposite in="SourceGraphic"/>
    </filter>
    <radialGradient id="radial-gradient" cx="351.0000399" cy="136" fx="351.0000399" fy="136" r="379.5600575" gradientTransform="translate(24.1445569 -10.8510701) rotate(12.5854703) scale(1 .5301626)" gradientUnits="userSpaceOnUse">
      <stop offset="0" stop-color="#347b9a"/>
      <stop offset=".2237144" stop-color="#2e7390"/>
      <stop offset=".592439" stop-color="#1d5e77"/>
      <stop offset=".9887365" stop-color="#084356"/>
    </radialGradient>
    <linearGradient id="linear-gradient" x1="1" y1="136.0000176" x2="700.9999629" y2="136.0000176" gradientUnits="userSpaceOnUse">
      <stop offset=".0055866" stop-color="#59595c"/>
      <stop offset=".2122905" stop-color="#cfd1d2"/>
      <stop offset=".3501516" stop-color="#98999b"/>
      <stop offset=".424581" stop-color="#808083"/>
      <stop offset=".7094972" stop-color="#a6a7aa"/>
      <stop offset=".7411809" stop-color="#959699"/>
      <stop offset=".8036146" stop-color="#7b7b7e"/>
      <stop offset=".8671901" stop-color="#68686b"/>
      <stop offset=".9320178" stop-color="#5c5c5f"/>
      <stop offset="1" stop-color="#59595c"/>
    </linearGradient>
    <filter id="drop-shadow-5" filterUnits="userSpaceOnUse">
      <feOffset dx="2.8346457" dy="2.8346457"/>
      <feGaussianBlur result="blur-2" stdDeviation="1.4173228"/>
      <feFlood flood-color="#221f1f" flood-opacity=".5"/>
      <feComposite in2="blur-2" operator="in"/>
      <feComposite in="SourceGraphic"/>
    </filter>
  </defs>
  <g class="cls-4">
    <path class="cls-2" d="M699.2146821,148.8094011l-25.2863337,88.8960934c-5.7213221,20.1137575-24.0941894,33.9893216-45.0058314,33.9893216H140.3951883c-13.5364214,0-26.4095233-5.8621444-35.2960836-16.0731068L1.0000799,136.0083622,105.098954,16.3804451C113.9855454,6.1681884,126.8594941.3051839,140.3969124.3051839h488.5244131c20.9122046,0,39.2854229,13.8762969,45.0062466,33.9907812l25.2875253,88.9112401c2.3800114,8.3681483,2.3798676,17.2341246-.0004152,25.6021957Z"/>
    <path class="cls-1" d="M628.9214616,12.9052196c15.2041487,0,28.7276823,10.2135731,32.8866662,24.8376925l25.2874971,88.9110983c1.7404295,6.1197015,1.7404295,12.5888902-.0003418,18.7080789l-25.2861299,88.8962301c-4.1596675,14.6232649-17.6832011,24.8364962-32.8866662,24.8364962H140.3953454c-9.8950184,0-19.2957986-4.2808345-25.7916474-11.7449938L17.7029278,136.0077935,114.6043816,24.6515806c6.4955071-7.4650138,15.896629-11.746361,25.7926728-11.746361h488.5244072M628.9214616.3052211H140.3970544c-13.5375473,0-26.4116669,5.863012-35.2980428,16.0752179L1,136.0083062l104.0990116,119.6133408c8.8867177,10.2110096,21.759812,16.0731671,35.2963339,16.0731671h488.5271415c20.911814,0,39.2844193-13.8755844,45.0057566-33.9893028l25.2864717-88.8960592c2.3802732-8.368041,2.3802732-17.2340801.0003418-25.602292l-25.2874971-88.9112692c-5.7206536-20.114402-24.0939426-33.99067-45.0060984-33.99067h0Z"/>
  </g>
  <g class="cls-5">
    <path class="cls-3" d="M272.4268249,114.7909396c-.09672.4835999-.4594199.7253999-1.0880998.7253999h-5.8031992c-.6770399,0-1.1727298-.2418-1.4870698-.7253999l-15.5235578-25.4986124-5.2591493,24.7377485c-.09672.4352399-.296608.7914919-.5980519,1.0687558-.303056.278876-.6472179.4175079-1.0340979.4175079h-4.0985094c-.3868799,0-.6770399-.138632-.8704799-.4175079-.19344-.277264-.2418-.6335159-.14508-1.0687558l11.0986184-52.3029446c.09672-.3852679.31434-.7189519.6528599-.9962159.33852-.278876.7012199-.4175079,1.0880998-.4175079h3.9171594c.3868799,0,.6891299.127348.9067499.3804319.21762.254696.27807.5980519.18135,1.0332919l-5.0777993,24.0123486,26.6584462-24.7377485c.5561399-.4578079,1.1001898-.6883239,1.6321498-.6883239h5.3679592c.6770399,0,.9551099.278876.8342099.8334039-.07254.29016-.22971.5335719-.4715099.7253999l-27.7102761,25.2809924,16.6841976,26.7317922c.19344.2418.2418.5432439.14508.9059439Z"/>
    <path class="cls-3" d="M312.4398832,114.0300757c-.09672.4110599-.332878.7608639-.7076679,1.0510239s-.7431319.4352399-1.1058318.4352399h-3.5544595c-.4110599,0-.7318479-.14508-.9607519-.4352399-.230516-.29016-.296608-.6399639-.199888-1.0510239l5.1866093-24.4475885c.7495799-3.5770275.5988579-6.0933591-.4537779-7.5441589-1.0510239-1.4507998-2.8709716-2.1761997-5.4582312-2.1761997-1.3540798,0-3.0708596.175708-5.1503393.5271239-2.0794797.349804-3.9171594.8640319-5.5130392,1.5410718l-6.818759,32.0997515c-.09672.3868799-.32643.7302359-.6891299,1.0332919-.3626999.301444-.7374899.4529719-1.1243698.4529719h-3.6269995c-.3626999,0-.6593079-.14508-.8882119-.4352399-.230516-.29016-.296608-.6399639-.199888-1.0510239l11.2436984-52.8832645c.07254-.4352399.272428-.7914919.5980519-1.0687558.327236-.278876.6955779-.4175079,1.1066378-.4175079h3.6995395c.4352399,0,.7495799.138632.9430199.4175079.19344.277264.25389.6335159.18135,1.0687558l-3.2642995,15.3075498c1.8860397-.7737599,3.8865315-1.3540798,6.0030872-1.7409598,2.1149437-.3868799,4.0557914-.5803199,5.8209312-.5803199,2.6839796,0,4.9206293.5367959,6.7099491,1.6136118,1.7893197,1.0752038,2.9862296,2.7806996,3.5907295,5.1132633.6044999,2.3341757.5440499,5.2406113-.18135,8.7225308l-5.1866093,24.4475885Z"/>
    <path class="cls-3" d="M351.4373817,112.6872799c-.19344.9188399-.6770399,1.4636958-1.4507998,1.6329558-2.0552997.5561399-4.0985094.9784839-6.1296291,1.2686438-2.0311197.29016-4.2919494.4352399-6.782489.4352399-5.7790192,0-9.7268066-.9736479-11.8425563-2.9193316-2.1157497-1.9472957-2.7138016-5.0600673-1.7949617-9.3399267l.10881-.6528599c.6044999-2.7806996,1.6805098-5.0536193,3.2280295-6.818759,1.5475198-1.7651398,3.7237195-3.0773076,6.5285991-3.9348914,2.8048796-.8591959,6.3714291-1.2879878,10.6996485-1.2879878h5.5130392l.6165899-2.9741396c.6770399-3.0950396.5496919-5.2406113-.3812379-6.4383271-.9309299-1.1961038-2.8588816-1.7957677-5.7846612-1.7957677-2.2487397,0-4.2137674.151528-5.8942772.4545839-1.6805098.301444-3.6326415.7673119-5.8572012,1.3959918-.5561399.16926-.9736479.157976-1.2517178-.035464s-.3804319-.4964959-.307892-.9075559l.6165899-2.9015996c.14508-.6044999.5924099-1.0526359,1.3419898-1.3427958,1.2573598-.5061679,3.0587696-1.0332919,5.4042292-1.5765358,2.3454597-.5448559,4.7271893-.8156719,7.145189-.8156719,9.6478186,0,13.4803481,4.6538433,11.4975884,13.963142l-5.2228793,24.5910565ZM345.4528326,110.2579962l3.0466796-14.43707h-5.5130392c-2.3454597,0-4.2435894.127348-5.6943892.3820439-1.4507998.253084-2.6541576.6705919-3.6084615,1.2509118-.9559159.5803199-1.7054958,1.3121678-2.2487397,2.1939317-.5448559.8833759-.9615579,2.0133877-1.2517178,3.3916475l-.14508.6528599c-.3626999,1.7409598-.3868799,3.1369516-.07254,4.1895874.31434,1.0510239,1.1300118,1.8199477,2.4478217,2.3019357,1.3178098.4852119,3.2344775.7253999,5.7491972.7253999.9913799,0,1.9521317-.029016,2.8830616-.090272.9309299-.059644,1.7780357-.138632,2.5388996-.235352.7624759-.09672,1.3847078-.204724,1.8683077-.325624Z"/>
    <path class="cls-3" d="M368.4189933,114.0300757c-.09672.4352399-.320788.7914919-.6705919,1.0687558-.351416.278876-.7318479.4175079-1.1429078.4175079h-3.5544595c-.3626999,0-.6705919-.14508-.9252879-.4352399-.253084-.29016-.332072-.6399639-.235352-1.0510239l8.0519389-37.8658746c.07254-.4110599.283712-.7624759.6351279-1.0526359.349804-.29016.7310419-.4352399,1.1421018-.4352399h3.5544595c.4594199,0,.7979399.133796,1.0155599.3981639.21762.267592.27807.6302919.18135,1.0897118l-8.0519389,37.8658746ZM378.6108619,66.6243864c-.07254.4352399-.284518.7914919-.6343219,1.0703678-.351416.277264-.7318479.4158959-1.1429078.4158959h-3.7720795c-.4110599,0-.7318479-.14508-.9607519-.4352399-.230516-.29016-.308698-.6399639-.236158-1.0510239l1.2694498-5.9128152c.09672-.4094479.31434-.7608639.6528599-1.0510239s.7253999-.4352399,1.1606398-.4352399h3.7720795c.4594199,0,.7914919.133796.9978279.3997759.204724.26598.259532.6286799.162812,1.0864878l-1.2694498,5.9128152Z"/>
    <path class="cls-3" d="M434.226466,97.852046c-1.2573598,5.8773512-3.5786395,10.3748305-6.963839,13.4924381-3.3851995,3.1208316-7.7488829,4.6796353-13.0926621,4.6796353-2.7323396,0-5.5742952-.26598-8.5242548-.7979399l-2.8290596,13.4198981c-.09672.3868799-.31434.7189519-.6528599.9978279-.33852.277264-.7012199.4158959-1.0880998.4158959h-3.7720795c-.4110599,0-.7076679-.132184-.8882119-.3981639-.182156-.26598-.224068-.6044999-.127348-1.0155599l10.8455345-51.1052288c.1209-.5061679.31434-.8817639.5803199-1.1235638s.7125039-.4352399,1.3411838-.5803199c1.3057198-.31434,2.7935956-.6044999,4.4620154-.8704799,1.6684198-.26598,3.2933155-.4723159,4.8779113-.6173959,1.5829838-.14508,3.1369516-.216008,4.6602913-.216008,3.6028195,0,6.4560591.7431319,8.5597188,2.2293957,2.1036597,1.4878758,3.4512915,3.6092675,4.0445074,6.3657871.5916039,2.7565196.5013319,6.0095351-.272428,9.7558226l-1.1606398,5.3679592ZM427.6978669,97.852046l1.1606398-5.3679592c.5561399-2.7065476.7318479-5.0036473.5255119-6.889687-.204724-1.8860397-.9123919-3.3497355-2.1213917-4.3894754s-2.9983196-1.5588038-5.3679592-1.5588038c-3.0224996,0-5.9595632.2418-8.8128028.7253999l-6.2755151,29.4141598c2.5147196.5077799,5.3566752.7624759,8.5242548.7624759,3.4819195,0,6.1900791-1.0639198,8.1244789-3.1917595,1.9343997-2.1278397,3.3481235-5.2970313,4.2427834-9.5043507Z"/>
    <path class="cls-3" d="M471.0123008,114.0300757c-.09672.4110599-.333684.7608639-.7076679,1.0510239-.3755959.29016-.7431319.4352399-1.1058318.4352399h-3.5544595c-.4110599,0-.7318479-.14508-.9607519-.4352399-.230516-.29016-.296608-.6399639-.199888-1.0510239l5.1858033-24.4475885c.7495799-3.5770275.5996639-6.0933591-.4529719-7.5441589-1.0510239-1.4507998-2.8709716-2.1761997-5.4582312-2.1761997-1.3540798,0-3.0708596.175708-5.1503393.5271239-2.0794797.349804-3.9171594.8640319-5.5130392,1.5410718l-6.818759,32.0997515c-.09672.3868799-.327236.7302359-.6899359,1.0332919-.3626999.301444-.7366839.4529719-1.1235638.4529719h-3.6269995c-.3626999,0-.6593079-.14508-.8882119-.4352399-.230516-.29016-.296608-.6399639-.199888-1.0510239l11.2436984-52.8832645c.07254-.4352399.272428-.7914919.5980519-1.0687558.327236-.278876.6947719-.4175079,1.1058318-.4175079h3.6995395c.4352399,0,.7495799.138632.9430199.4175079.19344.277264.254696.6335159.182156,1.0687558l-3.2642995,15.3075498c1.8860397-.7737599,3.8865315-1.3540798,6.0030872-1.7409598,2.1149437-.3868799,4.0557914-.5803199,5.8209312-.5803199,2.6839796,0,4.9198233.5367959,6.7091431,1.6136118,1.7893197,1.0752038,2.9870356,2.7806996,3.5915355,5.1132633.6044999,2.3341757.5432439,5.2406113-.182156,8.7225308l-5.1858033,24.4475885Z"/>
    <path class="cls-3" d="M510.0097993,112.6872799c-.19344.9188399-.6770399,1.4636958-1.4507998,1.6329558-2.0552997.5561399-4.0993154.9784839-6.1304351,1.2686438-2.0311197.29016-4.2911434.4352399-6.781683.4352399-5.7790192,0-9.7268066-.9736479-11.8433623-2.9193316-2.1149437-1.9472957-2.7129956-5.0600673-1.7941557-9.3399267l.108004-.6528599c.6044999-2.7806996,1.6813158-5.0536193,3.2288355-6.818759,1.5475198-1.7651398,3.7237195-3.0773076,6.5285991-3.9348914,2.8048796-.8591959,6.3706231-1.2879878,10.6988425-1.2879878h5.5130392l.6173959-2.9741396c.6770399-3.0950396.5496919-5.2406113-.3820439-6.4383271-.9301239-1.1961038-2.8580756-1.7957677-5.7838552-1.7957677-2.2487397,0-4.2137674.151528-5.8950832.4545839-1.6797038.301444-3.6318355.7673119-5.8563952,1.3959918-.5561399.16926-.9736479.157976-1.2525238-.035464-.277264-.19344-.3804319-.4964959-.307892-.9075559l.6173959-2.9015996c.14508-.6044999.5916039-1.0526359,1.3411838-1.3427958,1.2573598-.5061679,3.0595756-1.0332919,5.4050352-1.5765358,2.3454597-.5448559,4.7263833-.8156719,7.144383-.8156719,9.6478186,0,13.4811541,4.6538433,11.4983944,13.963142l-5.2228793,24.5910565ZM504.0244441,110.2579962l3.0466796-14.43707h-5.5130392c-2.3454597,0-4.2427834.127348-5.6935832.3820439-1.4507998.253084-2.6549636.6705919-3.6092675,1.2509118-.9559159.5803199-1.7054958,1.3121678-2.2487397,2.1939317-.5448559.8833759-.9607519,2.0133877-1.2509118,3.3916475l-.14508.6528599c-.3626999,1.7409598-.3868799,3.1369516-.07254,4.1895874.31434,1.0510239,1.1300118,1.8199477,2.4470157,2.3019357,1.3186158.4852119,3.2352835.7253999,5.7500032.7253999.9913799,0,1.9521317-.029016,2.8822556-.090272.9317359-.059644,1.7780357-.138632,2.5388996-.235352.7624759-.09672,1.3847078-.204724,1.8683077-.325624ZM518.7145981,58.1742836c-.04836.19344-.19344.3868799-.4352399.5803199l-10.3732185,9.3560467c-.5561399.4852119-.9317359.7931039-1.1251758.9252879-.19344.133796-.4707039.199888-.8334039.199888h-4.0267754c-.4352399,0-.6157839-.16926-.5432439-.5077799.07254-.31434.21762-.5674239.4352399-.7624759l9.2480427-9.2109667c.5077799-.4835999.8704799-.7866559,1.0880998-.9075559s.5319599-.182156.9430199-.182156h4.8972553c.5561399,0,.7979399.170872.7253999.5093919Z"/>
    <path class="cls-3" d="M153.5990677,156.7416216c-.09672.4352399-.31434.7673119-.6528599.9962159-.33852.230516-.7133099.344968-1.1243698.344968h-12.9846582l-9.5752786,45.0844096c-.09672.4352399-.320788.7914919-.6705919,1.0687558-.351416.278876-.7318479.4175079-1.1429078.4175079h-7.362809c-.3626999,0-.6713979-.14508-.9244819-.4352399-.254696-.29016-.332878-.6399639-.236158-1.0510239l9.5752786-45.0844096h-12.9846582c-.4110599,0-.7374899-.1209-.9792899-.3626999s-.31434-.5674239-.21762-.9784839l1.2331798-5.8773512c.07254-.3852679.27807-.7189519.6165899-.9962159.33852-.278876.7253999-.4175079,1.1606398-.4175079h36.3062649c.4352399,0,.7673119.127348.9978279.3804319.228904.254696.295802.5980519.199082,1.0332919l-1.2331798,5.8773512Z"/>
    <path class="cls-3" d="M189.2959967,186.7361014c-.7495799,3.5302795-2.1101077,6.7107551-4.0799714,9.5382027-1.9714757,2.8306716-4.4499254,5.0310513-7.4361549,6.6027511-2.9862296,1.5716998-6.3770711,2.3567437-10.1733306,2.3567437-3.7478995,0-6.801027-.7850439-9.1577707-2.3567437-2.3583557-1.5716998-3.9115174-3.7720795-4.6610973-6.6027511-.7495799-2.8274476-.7495799-6.0079231,0-9.5382027l1.2694498-5.9853552c.7495799-3.5286675,2.1036597-6.7091431,4.0622394-9.5382027,1.9585797-2.8290596,4.4491194-5.0294393,7.4716189-6.6011391,3.0224996-1.5716998,6.4076991-2.3567437,10.1555986-2.3567437,3.7962595,0,6.855029.7850439,9.1763087,2.3567437s3.8631575,3.7720795,4.6240213,6.6011391c.7624759,2.8290596.7681179,6.0095351.018538,9.5382027l-1.2694498,5.9853552ZM179.5030981,186.7361014l1.2694498-5.9853552c.6528599-3.0934276.4892419-5.5420552-.4892419-7.344271-.9800959-1.8006037-2.7629676-2.7017116-5.3502272-2.7017116-2.5630796,0-4.7215473.9011079-6.4737911,2.7017116-1.7538558,1.8022157-2.9564076,4.2508434-3.6092675,7.344271l-1.2694498,5.9853552c-.6528599,3.0950396-.4835999,5.5436672.5077799,7.344271.9913799,1.8022157,2.7565196,2.7033236,5.2954193,2.7033236,2.5630796,0,4.7271893-.9011079,6.4923291-2.7033236,1.7651398-1.8006037,2.9741396-4.2492314,3.6269995-7.344271ZM191.4721964,157.5750255c-.07254.33852-.33852.5077799-.7979399.5077799h-6.1658991c-.26598,0-.4835999-.035464-.6528599-.109616-.16926-.070928-.320788-.191828-.4529719-.3610879-.133796-.16926-.260338-.33852-.3812379-.5093919l-3.9896994-6.0192071-6.5648691,6.0192071c-.4594199.3884919-.7979399.6480239-1.0155599.7802079-.21762.133796-.5440499.199888-.9792899.199888h-6.1658991c-.4352399,0-.6165899-.16926-.5440499-.5077799.07254-.31434.21762-.5674239.4352399-.7624759l8.7410688-8.9208067c.5319599-.4835999.9123919-.7866559,1.1421018-.9075559s.5746779-.182156,1.0340979-.182156h9.6478186c.4594199,0,.7858499.067704.9792899.199888.19344.133796.4352399.4304039.7253999.8898239l4.8601793,8.9208067c.16926.195052.21762.4481359.14508.7624759ZM209.2807638,138.8967842c-.02418.19344-.15717.3868799-.3989699.5803199l-10.6996485,9.2109667c-.3868799.340132-.7133099.5867679-.9792899.7447439-.26598.156364-.6165899.235352-1.0518299.235352h-6.3835191c-.4352399,0-.6165899-.16926-.5440499-.5077799.07254-.31434.22971-.5674239.4715099-.7624759l8.9586887-8.9208067c.4594199-.4594199.8156719-.7560279,1.0703678-.8898239.253084-.132184.6101419-.199888,1.0695618-.199888h7.7980489c.5319599,0,.7616699.170872.6891299.5093919Z"/>
    <path class="cls-3" d="M232.2904486,196.928776c2.7806996,0,6.0933591-.5690359,9.9379786-1.7054958,1.1122798-.29016,1.5475198.109616,1.3057198,1.1961038l-.9792899,4.7521753c-.1209.4594199-.32643.8285679-.6165899,1.1058318-.29016.278876-.7495799.5513039-1.3782598.8156719-2.8532396,1.4282318-6.1900791,2.1407357-10.0105186,2.1407357-3.3126595,0-6.1054491-.6222319-8.3783688-1.8683077-2.2729197-1.2444638-3.8510675-3.2159395-4.7336373-5.9112032-.8825699-2.6968756-.8882119-6.1127031-.017732-10.2458706l1.4870698-6.928375c.8462999-4.0380594,2.2785617-7.410363,4.2983974-10.1201346,2.0182237-2.7065476,4.4426714-4.7022033,7.271731-5.9837432,2.8290596-1.2815398,5.8999192-1.9215037,9.2125787-1.9215037,3.8204395,0,6.855029.7125039,9.1037687,2.1391237.5077799.26598.8519419.5384079,1.0340979.8156719.180544.278876.223262.6480239.126542,1.1074438l-1.0155599,4.7505633c-.2418,1.0880998-.8462999,1.4878758-1.8134997,1.1977158-1.5233398-.5319599-2.9136896-.9494679-4.1710494-1.2525238-1.2573598-.301444-2.8169696-.4529719-4.6788293-.4529719-5.0052593,0-8.1970188,3.2401195-9.5752786,9.7203586l-1.4870698,6.928375c-.7253999,3.5060995-.5682299,6.0014752.4715099,7.4893509,1.0397399,1.4862638,2.5751696,2.2310077,4.6062893,2.2310077Z"/>
    <path class="cls-3" d="M285.3607051,203.0930631c-.07254.3884919-.296608.7447439-.6705919,1.0703678-.3755959.327236-.7560279.4900479-1.1429078.4900479h-6.855029c-.4110599,0-.7197579-.162812-.9244819-.4900479-.206336-.325624-.272428-.6818759-.199888-1.0703678l5.2228793-24.4443645c.4835999-2.2729197.6770399-3.9606834.5803199-5.0600673-.09672-1.1009958-.5319599-1.8795917-1.3057198-2.3390117s-1.9948497-.6899359-3.6632695-.6899359c-2.5147196,0-5.5734892.8462999-9.1763087,2.5388996l-6.3835191,29.9944798c-.07254.4352399-.284518.8043879-.6351279,1.1074438-.35061.301444-.7431319.4529719-1.1783718.4529719h-6.818759c-.4352399,0-.7560279-.162812-.9607519-.4900479-.206336-.325624-.272428-.6818759-.199888-1.0703678l11.3887784-53.4974364c.07254-.3626999.29016-.7012199.6528599-1.0155599s.7495799-.4723159,1.1606398-.4723159h6.818759c.4110599,0,.7310419.14508.9607519.4352399s.296608.6415759.199888,1.0526359l-3.2642995,15.3784778c3.3851995-1.8134997,7.314449-2.7194436,11.7877483-2.7194436,8.8740587,0,12.1504483,5.4646792,9.8291686,16.3940377l-5.2228793,24.4443645Z"/>
    <path class="cls-3" d="M317.4306345,170.4146037c-3.8929794,0-7.9793989.6415759-12.2592583,1.9215037-1.1122798.29016-1.5475198-.108004-1.3057198-1.1961038l.9430199-4.5329434c.09672-.4594199.295802-.8350159.5988579-1.1251758.301444-.29016.7673119-.5561399,1.3959918-.7979399,1.6442398-.6528599,3.6390895-1.2202838,5.9845492-1.7038838,2.3454597-.4835999,4.8480893-.7253999,7.5078889-.7253999,3.1917595,0,5.8088412.5190639,7.8520509,1.5588038,2.0432097,1.0397399,3.4464555,2.6356196,4.2073194,4.7876393.7624759,2.1520197.8164779,4.7634593.163618,7.8343189l-5.4042292,25.3164564c-.09672.5319599-.22971.9059439-.3989699,1.1251758-.16926.216008-.4956899.3868799-.9792899.5061679-2.3212797.6061119-4.5458394,1.0655318-6.6736791,1.3798718-2.1278397.312728-4.6909193.4707039-7.6892389.4707039-4.0622394,0-7.290269-.4239559-9.6840886-1.2702558-2.3938197-.8446879-4.0138794-2.1810357-4.8601793-4.0074314-.8462999-1.8247837-.9551099-4.2250514-.32643-7.199191l.07254-.3626999c.4835999-2.2003797,1.1969098-4.0735234,2.1399297-5.6210432.9430199-1.5475198,2.2181117-2.8532396,3.8260815-3.9171594,1.6079698-1.0639198,3.5729975-1.8570237,5.8942772-2.3760877,2.3212797-.5206759,5.1140693-.7802079,8.3783688-.7802079h5.2228793l.6891299-3.2642995c.4835999-2.3212797.30225-3.9042634-.5440499-4.7505633-.8462999-.8462999-2.4300897-1.2702558-4.7513693-1.2702558ZM318.3011144,197.2189359l2.3212797-10.9906144h-5.2228793c-2.2487397,0-3.9534294.199888-5.1140693.5980519-1.1606398.3997759-2.0012977,1.0155599-2.5211676,1.8505757-.5198699.8334039-.9365719,2.0004917-1.2509118,3.4996515l-.10881.4352399c-.29016,1.4024398-.29016,2.4728077,0,3.2094915.29016.7382959.9309299,1.2573598,1.9223097,1.5604158.9913799.301444,2.5268096.4529719,4.6062893.4529719,2.1036597,0,3.8929794-.204724,5.3679592-.6157839ZM335.0215821,157.5750255c-.07254.33852-.33852.5077799-.7979399.5077799h-6.1658991c-.26598,0-.4779579-.035464-.6351279-.109616-.15717-.070928-.30225-.191828-.4352399-.3610879s-.271622-.33852-.4167019-.5093919l-3.9896994-6.0192071-6.5648691,6.0192071c-.4352399.3884919-.7681179.6480239-.9978279.7802079-.22971.133796-.5617819.199888-.9970219.199888h-6.1658991c-.4352399,0-.6165899-.16926-.5440499-.5077799.07254-.31434.22971-.5674239.4715099-.7624759l8.7047988-8.9208067c.5319599-.4835999.9123919-.7866559,1.1421018-.9075559s.5746779-.182156,1.0340979-.182156h9.6478186c.4594199,0,.7858499.067704.9792899.199888.19344.133796.4352399.4304039.7253999.8898239l4.8964493,8.9208067c.14508.195052.18135.4481359.10881.7624759ZM352.1047496,138.5695482c-.04836.19344-.19344.3868799-.4352399.5803199l-10.6996485,9.2125787c-.3868799.33852-.7076679.5867679-.9607519.7431319-.254696.157976-.5988579.236964-1.0340979.236964h-6.3835191c-.4352399,0-.6165899-.16926-.5440499-.5093919.04836-.312728.19344-.5674239.4352399-.7608639l8.9586887-8.9224187c.4594199-.4594199.8221199-.7560279,1.0880998-.8882119.26598-.133796.6286799-.199888,1.0880998-.199888h7.7980489c.5319599,0,.7616699.16926.6891299.5077799Z"/>
    <path class="cls-3" d="M361.1432324,203.383223c-.14508.7511919-.7012199,1.1977158-1.6684198,1.3427958-2.1520197.33852-4.1347794.5077799-5.9482792.5077799-2.9499596,0-5.1986993-.296608-6.746219-.8882119-1.5475198-.5932159-2.5388996-1.7345118-2.9741396-3.4287235-.4352399-1.6909878-.30225-4.1815274.3989699-7.4700069l4.9327193-23.3224127-5.9120092-1.0510239c-.9671999-.16926-1.3661698-.6657559-1.1969098-1.4878758l.7253999-3.3368395c.07254-.4110599.27807-.7624759.6165899-1.0526359s.7253999-.4352399,1.1606398-.4352399h6.1658991l1.3057198-6.0933591c.16926-.8205079.7737599-1.3170038,1.8134997-1.4862638l7.145189-1.1961038h.32643c.7737599,0,1.0760098.3739839.9067499,1.1235638l-1.6321498,7.6521629h7.5078889c.4594199,0,.7979399.133796,1.0155599.3997759s.27807.6286799.18135,1.0880998l-.9430199,4.3894754c-.09672.4110599-.320788.7608639-.6713979,1.0510239s-.7310419.4352399-1.1421018.4352399h-7.5078889l-4.9327193,23.3224127c-.3868799,1.8376797-.4779579,2.9854236-.272428,3.4448435s.9615579.6883239,2.2672777.6883239h4.7513693c1.0397399,0,1.4870698.3755959,1.3419898,1.1251758l-1.0155599,4.6780233Z"/>
    <path class="cls-3" d="M402.9036984,205.1612588c-2.5147196,0-4.6909193-.4175079-6.5285991-1.2509118-1.8376797-.8350159-3.2578515-2.0375677-4.2605154-3.6092675-1.0042759-1.5716998-1.6023278-3.4464555-1.7957677-5.6226552-.19344-2.1761997.011284-4.6893073.6157839-7.5441589l1.2331798-5.8031992c.7979399-3.7462875,2.0681957-6.968675,3.8091555-9.6655506,1.7409598-2.6952636,3.9590714-4.7682953,6.6559471-6.2190951,2.6952636-1.4507998,5.7596752-2.1761997,9.1932347-2.1761997,2.0311197,0,3.8865315.246636,5.5678472.7431319,1.6797038.4948839,2.9080476.9978279,3.6818075,1.5039958.3868799.243412.6222319.4545839.7076679.6351279.083824.182156.090272.4900479.017732.9252879l-.5803199,2.6469036c-.21762,1.0413519-.8591959,1.3669758-1.9231157.9800959-2.9741396-1.1364598-5.8757392-1.7054958-8.7047988-1.7054958-6.1900791,0-10.1555986,4.1122114-11.8965583,12.3317983l-1.2331798,5.8031992c-.8704799,4.0880314-.7318479,7.163727.4175079,9.2319227,1.1477438,2.0665837,3.2336715,3.0998756,6.2561711,3.0998756,2.8290596,0,5.9724592-.5674239,9.4301987-1.7038838,1.2089998-.4110599,1.7054958-.09672,1.4878758.9430199l-.5448559,2.6839796c-.09672.4352399-.2418.7495799-.4352399.9430199s-.5190639.3997759-.9784839.6157839c-1.0397399.5093919-2.4905396,1.0042759-4.3523994,1.4878758-1.8618597.4835999-3.8091555.7253999-5.8402752.7253999Z"/>
    <path class="cls-3" d="M425.6167752,189.637701l5.1858033-24.3363606c.07254-.4110599.278876-.7624759.6173959-1.0526359s.7253999-.4352399,1.1606398-.4352399h3.5544595c.4110599,0,.7302359.14508.9607519.4352399.228904.29016.307892.6415759.235352,1.0526359l-5.1858033,24.3363606c-.7737599,3.6511795-.6480239,6.2271551.3804319,7.7263149,1.0268439,1.4991598,3.0644116,2.2471277,6.1110911,2.2471277,1.1364598,0,2.6968756-.132184,4.6796353-.3981639,1.9827597-.26598,3.7108235-.5803199,5.1858033-.9430199l7.036379-32.9686193c.07254-.3868799.278876-.7318479.6173959-1.0349039.33852-.301444.7253999-.4529719,1.1606398-.4529719h3.6269995c.4110599,0,.7189519.14508.9236759.4352399.206336.29016.272428.6415759.199888,1.0526359l-7.6166989,35.7976789c-.19344.9188399-.7737599,1.5120558-1.7409598,1.7780357-6.2626191,1.5217278-11.5451424,2.2842037-15.8491818,2.2842037-3.6511795,0-6.4270431-.6044999-8.3243668-1.8134997-1.8989357-1.2089998-3.0402316-2.9435116-3.4271115-5.2051473-.3868799-2.2600237-.21762-5.0955313.5077799-8.5049108ZM451.4764756,145.6059272c-1.0155599,0-1.9166677.078988-2.7017116.235352-.7866559.157976-1.7715877.4175079-2.9564076.7802079-1.4749798.4594199-2.0907637.09672-1.8489637-1.0880998l.325624-1.4878758c.07254-.336908.248248-.6028879.5255119-.7963279.278876-.19344.5384079-.33852.7802079-.4352399.7012199-.29016,1.6506878-.5690359,2.8467916-.8350159,1.1977158-.26598,2.3889837-.3997759,3.5738035-.3997759,2.1761997,0,3.8317235.4352399,4.9681833,1.3057198s1.5120558,2.2503517,1.1251758,4.1363914l-.07254.3610879c-.1209.5577519-.327236,1.1009958-.6173959,1.6329558-.29016.5319599-.7189519,1.1122798-1.2879878,1.7409598-.5674239.6286799-1.3476318,1.4024398-2.3390117,2.3212797l-1.7038838,1.5588038c-.7012199.6544719-1.1187278,1.0590839-1.2525238,1.2154478-.132184.157976-.277264.3626999-.4352399.6173959-.156364.253084-.270816.5625879-.343356.9236759l-.327236,1.5249518c-.07254.33852-.296608.6512479-.6705919.9414079-.3755959.29016-.8156719.4352399-1.3234518.4352399h-1.3427958c-.5077799,0-.8817639-.149916-1.1235638-.4529719-.2418-.301444-.327236-.6093359-.254696-.9236759l.327236-1.5249518c.14508-.7253999.33852-1.3476318.5803199-1.8666957.2418-.5206759.5803199-1.0349039,1.0155599-1.5410718.4352399-.5093919,1.0026639-1.0639198,1.7038838-1.6700318l1.7409598-1.5588038c.8704799-.7979399,1.4636958-1.4201718,1.7780357-1.8683077.31434-.4465239.5319599-.9478559.6528599-1.5056078l.07254-.3610879c.07254-.9446319-.3997759-1.4153358-1.4153358-1.4153358Z"/>
    <path class="cls-3" d="M493.0128737,201.8244193c-.19344.9188399-.6770399,1.4636958-1.4507998,1.6329558-2.0552997.5561399-4.0977034.9784839-6.1288231,1.2686438s-4.2927554.4352399-6.783295.4352399c-5.7790192,0-9.7268066-.9736479-11.8417503-2.9193316-2.1165557-1.9472957-2.7146076-5.0600673-1.7957677-9.3399267l.109616-.6528599c.6044999-2.7806996,1.6797038-5.0536193,3.2272235-6.818759,1.5475198-1.7651398,3.7237195-3.0773076,6.5285991-3.9348914,2.8048796-.8591959,6.3722351-1.2879878,10.7004545-1.2879878h5.5130392l.6157839-2.9741396c.6770399-3.0950396.5496919-5.2406113-.3804319-6.4383271-.9317359-1.1961038-2.8596876-1.7957677-5.7854672-1.7957677-2.2487397,0-4.2137674.151528-5.8934712.4545839-1.6813158.301444-3.6334475.7673119-5.8580072,1.3959918-.5561399.16926-.9736479.157976-1.2509118-.035464-.278876-.19344-.3804319-.4964959-.307892-.9075559l.6157839-2.9015996c.14508-.6044999.5932159-1.0526359,1.3427958-1.3427958,1.2573598-.5061679,3.0579636-1.0332919,5.4034232-1.5765358,2.3454597-.5448559,4.7279953-.8156719,7.145995-.8156719,9.6478186,0,13.4795421,4.6538433,11.4967824,13.963142l-5.2228793,24.5910565ZM487.0291305,199.3951356l3.0466796-14.43707h-5.5130392c-2.3454597,0-4.2443954.127348-5.6951952.3820439-1.4507998.253084-2.6533516.6705919-3.6076555,1.2509118-.9559159.5803199-1.7054958,1.3121678-2.2487397,2.1939317-.5448559.8833759-.9623639,2.0133877-1.2525238,3.3916475l-.14508.6528599c-.3626999,1.7409598-.3868799,3.1369516-.07254,4.1895874.31434,1.0510239,1.1300118,1.8199477,2.4486277,2.3019357,1.3170038.4852119,3.2336715.7253999,5.7483912.7253999.9913799,0,1.9521317-.029016,2.8838676-.090272.9301239-.059644,1.7780357-.138632,2.5388996-.235352.7624759-.09672,1.3847078-.204724,1.8683077-.325624Z"/>
    <path class="cls-3" d="M562.7383118,189.420081c-2.2245597,10.4941185-10.5666585,15.7411778-25.0262965,15.7411778-5.2470593,0-9.2238627-.21762-11.9320223-.6528599-.8462999-.1209-1.4217838-.3804319-1.7232278-.7802079-.303056-.3981639-.3562519-1.0574719-.162812-1.9763117l10.5182985-49.472273c.3626999-1.6925998,1.3540798-2.6114396,2.9741396-2.7565196,3.3368395-.3868799,7.313643-.5803199,11.9336343-.5803199,4.3024274,0,7.9600549.4352399,10.9712704,1.3057198,3.0096036.8704799,5.2406113,2.3631917,6.6914111,4.4797474,1.4507998,2.1149437,1.8006037,4.9633473,1.0526359,8.5419868l-.254696,1.1961038c-.5803199,2.7323396-1.7893197,5.1197113-3.6269995,7.163727-1.8376797,2.0424037-4.1105994,3.5480115-6.818759,4.5152114,2.3696397.8462999,4.0622394,2.3390117,5.0777993,4.4797474,1.0155599,2.1391237,1.2202838,4.6490073.6157839,7.5248149l-.29016,1.2702558ZM555.9937048,189.420081l.29016-1.2702558c.5803199-2.8032676.204724-5.0777993-1.1251758-6.818759-1.3298998-1.7409598-4.0267754-2.6114396-8.0890149-2.6114396h-11.4613184l-4.3523994,20.4208131c.8704799.02418,2.1455717.085436,3.8268875.180544,1.6797038.098332,2.9564076.14508,3.8268875.14508,3.2884795,0,6.0756271-.29016,8.3598308-.8704799,2.2858157-.5803199,4.1718554-1.6007158,5.6581192-3.0644116,1.4878758-1.4620838,2.5082716-3.4996515,3.0660236-6.1110911ZM561.0344281,164.4663246l.253084-1.1961038c.7012199-3.3126595-.066092-5.5742952-2.3019357-6.783295-2.2374557-1.2089998-5.8709032-1.8134997-10.9003425-1.8134997-1.1364598,0-1.8731437.006448-2.2116637.017732-.33852.012896-1.0590839.037076-2.1584677.07254-1.1009958.037076-2.1101077.078988-3.0289476.127348l-3.9171594,18.4251574h11.4613184c7.278179,0,11.5467544-2.9499596,12.8041142-8.8498787Z"/>
    <path class="cls-3" d="M597.7461109,201.8244193c-.19344.9188399-.6770399,1.4636958-1.4507998,1.6329558-2.0552997.5561399-4.0977034.9784839-6.1288231,1.2686438s-4.2927554.4352399-6.783295.4352399c-5.7790192,0-9.7251946-.9736479-11.8417503-2.9193316-2.1149437-1.9472957-2.7146076-5.0600673-1.7957677-9.3399267l.109616-.6528599c.6044999-2.7806996,1.6797038-5.0536193,3.2272235-6.818759s3.7237195-3.0773076,6.5285991-3.9348914c2.8048796-.8591959,6.3722351-1.2879878,10.7004545-1.2879878h5.5130392l.6157839-2.9741396c.6770399-3.0950396.5513039-5.2406113-.3804319-6.4383271-.9301239-1.1961038-2.8596876-1.7957677-5.7838552-1.7957677-2.2503517,0-4.2137674.151528-5.8950832.4545839-1.6797038.301444-3.6334475.7673119-5.8563952,1.3959918-.5577519.16926-.9736479.157976-1.2525238-.035464-.277264-.19344-.3804319-.4964959-.307892-.9075559l.6157839-2.9015996c.14508-.6044999.5932159-1.0526359,1.3427958-1.3427958,1.2573598-.5061679,3.0579636-1.0332919,5.4050352-1.5765358,2.3438477-.5448559,4.7263833-.8156719,7.144383-.8156719,9.6478186,0,13.4795421,4.6538433,11.4967824,13.963142l-5.2228793,24.5910565ZM591.7623677,199.3951356l3.0466796-14.43707h-5.5130392c-2.3454597,0-4.2427834.127348-5.6935832.3820439-1.4507998.253084-2.6549636.6705919-3.6092675,1.2509118-.9559159.5803199-1.7054958,1.3121678-2.2487397,2.1939317-.5448559.8833759-.9607519,2.0133877-1.2509118,3.3916475l-.14508.6528599c-.3643119,1.7409598-.3884919,3.1369516-.074152,4.1895874.31434,1.0510239,1.1316238,1.8199477,2.4486277,2.3019357,1.3186158.4852119,3.2336715.7253999,5.7500032.7253999.9897679,0,1.9521317-.029016,2.8822556-.090272.9317359-.059644,1.7780357-.138632,2.5388996-.235352.7624759-.09672,1.3847078-.204724,1.8683077-.325624ZM582.912489,215.3168574c-.07254.4110599-.283712.7495799-.6351279,1.0155599-.349804.26598-.7318479.3981639-1.1412958.3981639h-2.9015996c-.3643119,0-.6722039-.132184-.9252879-.3981639-.254696-.26598-.344968-.6044999-.272428-1.0155599l1.3057198-6.0208191c.07254-.3626999.296608-.7012199.6705919-1.0155599.3755959-.31434.7431319-.4707039,1.1074438-.4707039h2.9015996c.4094479,0,.7302359.156364.9607519.4707039.228904.31434.307892.6528599.235352,1.0155599l-1.3057198,6.0208191Z"/>
    <path class="cls-3" d="M643.9621443,178.7937785l-5.1503393,24.3734366c-.09672.4110599-.332072.7608639-.7076679,1.0510239-.3739839.29016-.7431319.4352399-1.1058318.4352399h-3.5544595c-.4110599,0-.7318479-.14508-.9607519-.4352399-.230516-.29016-.296608-.6399639-.199888-1.0510239l5.1503393-24.3734366c.5319599-2.4663597.6593079-4.4265514.3804319-5.8773512-.277264-1.4507998-.9849319-2.4889276-2.1213917-3.1176076s-2.7194436-.9446319-4.7505633-.9446319c-3.0466796,0-6.3367711.4481359-9.8654386,1.3427958l-7.000915,32.9702313c-.09672.3868799-.327236.7302359-.6883239,1.0332919-.3643119.301444-.7382959.4529719-1.1251758.4529719h-3.6269995c-.3626999,0-.6593079-.14508-.8882119-.4352399-.230516-.29016-.296608-.6399639-.199888-1.0510239l7.5812349-35.7992909c.191828-.9188399.7721479-1.5104438,1.7409598-1.7764237,6.3335471-1.5475198,11.6063984-2.3212797,15.8137178-2.3212797,2.7790876,0,5.0584553.343356,6.836491,1.0332919,1.7764237.6883239,3.0644116,1.6861518,3.8623515,2.9918716.7979399,1.3057198,1.2331798,2.8951516,1.3057198,4.7699073.07254,1.8731437-.16926,4.1170474-.7253999,6.728487Z"/>
  </g>
</svg>