<?xml version="1.0" encoding="UTF-8"?>
<svg id="Layer_1" data-name="Layer 1" xmlns="http://www.w3.org/2000/svg" xmlns:xlink="http://www.w3.org/1999/xlink" viewBox="0 0 800 800">
  <defs>
    <style>
      .cls-1 {
        fill: #000;
      }

      .cls-1, .cls-2, .cls-3, .cls-4, .cls-5, .cls-6, .cls-7, .cls-8, .cls-9, .cls-10, .cls-11, .cls-12 {
        stroke-width: 0px;
      }

      .cls-2 {
        fill: url(#linear-gradient);
        filter: url(#drop-shadow-4);
      }

      .cls-3 {
        fill: none;
      }

      .cls-4 {
        fill: #0eacb0;
      }

      .cls-13 {
        filter: url(#drop-shadow-5);
      }

      .cls-5 {
        fill: url(#linear-gradient-2);
      }

      .cls-6 {
        fill: url(#radial-gradient-2);
      }

      .cls-7 {
        fill: url(#linear-gradient-3);
      }

      .cls-14 {
        clip-path: url(#clippath);
      }

      .cls-8 {
        fill: url(#radial-gradient);
      }

      .cls-9 {
        fill: #2a86c5;
      }

      .cls-10 {
        fill: #fff;
      }

      .cls-11 {
        fill: #e61088;
      }

      .cls-12 {
        fill: url(#radial-gradient-3);
      }
    </style>
    <linearGradient id="linear-gradient" x1="68.8638041" y1="208.8184282" x2="731.1361959" y2="591.1815718" gradientUnits="userSpaceOnUse">
      <stop offset=".0055866" stop-color="#59595c"/>
      <stop offset=".2122905" stop-color="#cfd1d2"/>
      <stop offset=".3501516" stop-color="#98999b"/>
      <stop offset=".424581" stop-color="#808083"/>
      <stop offset=".7094972" stop-color="#a6a7aa"/>
      <stop offset=".7411809" stop-color="#959699"/>
      <stop offset=".8036146" stop-color="#7b7b7e"/>
      <stop offset=".8671901" stop-color="#68686b"/>
      <stop offset=".9320178" stop-color="#5c5c5f"/>
      <stop offset="1" stop-color="#59595c"/>
    </linearGradient>
    <filter id="drop-shadow-4" filterUnits="userSpaceOnUse">
      <feOffset dx="6" dy="6"/>
      <feGaussianBlur result="blur" stdDeviation="6"/>
      <feFlood flood-color="#221f1f" flood-opacity=".35"/>
      <feComposite in2="blur" operator="in"/>
      <feComposite in="SourceGraphic"/>
    </filter>
    <filter id="drop-shadow-5" filterUnits="userSpaceOnUse">
      <feOffset dx="3" dy="3"/>
      <feGaussianBlur result="blur-2" stdDeviation="3"/>
      <feFlood flood-color="#221f1f" flood-opacity=".3"/>
      <feComposite in2="blur-2" operator="in"/>
      <feComposite in="SourceGraphic"/>
    </filter>
    <radialGradient id="radial-gradient" cx="398.2801012" cy="300.5059675" fx="398.2801012" fy="300.5059675" r="505.3048681" gradientUnits="userSpaceOnUse">
      <stop offset=".5346538" stop-color="#fff"/>
      <stop offset=".5720559" stop-color="#f8fafb"/>
      <stop offset=".625162" stop-color="#e5eef3"/>
      <stop offset=".6876724" stop-color="#c7dbe4"/>
      <stop offset=".7573589" stop-color="#9cbfd0"/>
      <stop offset=".8329949" stop-color="#659cb7"/>
      <stop offset=".9124873" stop-color="#247298"/>
      <stop offset=".9162011" stop-color="#217097"/>
    </radialGradient>
    <linearGradient id="linear-gradient-2" x1="251.4944502" y1="86.619266" x2="539.4808095" y2="704.2080065" gradientUnits="userSpaceOnUse">
      <stop offset="0" stop-color="#34bde9"/>
      <stop offset=".2697114" stop-color="#1d7795"/>
      <stop offset=".4888268" stop-color="#0d4255"/>
      <stop offset=".5492936" stop-color="#12495e"/>
      <stop offset=".8478054" stop-color="#2a6d89"/>
      <stop offset="1" stop-color="#347b9a"/>
    </linearGradient>
    <linearGradient id="linear-gradient-3" x1="221.9446663" y1="393.5246451" x2="527.4861773" y2="393.5246451" gradientUnits="userSpaceOnUse">
      <stop offset="0" stop-color="#b68636"/>
      <stop offset=".5" stop-color="#edd170"/>
      <stop offset="1" stop-color="#b68737"/>
    </linearGradient>
    <clipPath id="clippath">
      <rect class="cls-3" x="256.7701758" y="453.5461229" width="396.5146966" height="70.3121991"/>
    </clipPath>
    <radialGradient id="radial-gradient-2" cx="-3555.1963291" cy="-114.3958195" fx="-3555.1963291" fy="-114.3958195" r="1.152659" gradientTransform="translate(313299.6489921 -9596.1446981) scale(88.0497971 -87.9356003)" gradientUnits="userSpaceOnUse">
      <stop offset="0" stop-color="#60c6cc"/>
      <stop offset=".11" stop-color="#39c3e1"/>
      <stop offset=".35" stop-color="#5576b9"/>
      <stop offset=".5" stop-color="#5f5fa8"/>
      <stop offset="1" stop-color="#e61088"/>
    </radialGradient>
    <radialGradient id="radial-gradient-3" cx="-3555.1963289" cy="-114.3829025" fx="-3555.1963289" fy="-114.3829025" r="1.152659" gradientTransform="translate(313299.6490922 -9603.5852478) scale(88.0497971 -87.9356003)" xlink:href="#radial-gradient-2"/>
  </defs>
  <g>
    <path class="cls-2" d="M55.1942575,259.0787131v281.8425737c0,35.5040724,18.9721011,68.3018407,49.7489455,86.0028297l245.593144,141.2503994c30.6239004,17.6130249,68.3034055,17.6130249,98.9273059,0l245.593144-141.2503994c30.7768443-17.700989,49.7489455-50.4987573,49.7489455-86.0028297v-281.8425737c0-35.5040724-18.9721011-68.3018407-49.7489455-86.0028297L449.463653,31.825484c-30.6239004-17.6130249-68.3034055-17.6130249-98.9273059,0L104.943203,173.0758834c-30.7768443,17.700989-49.7489455,50.4987573-49.7489455,86.0028297Z"/>
    <g class="cls-13">
      <path class="cls-8" d="M64.4490935,262.4104166v266.0064518c0,35.5040724,18.9721011,68.3018407,49.7489455,86.0028297l231.8259512,133.3323384c30.6239004,17.6130249,68.3034055,17.6130249,98.9273059,0l231.8259512-133.3323384c30.7768443-17.700989,49.7489455-50.4987573,49.7489455-86.0028297v-266.0064518c0-35.5040724-18.9721011-68.3018407-49.7489455-86.0028297L444.9512961,43.0752484c-30.6239004-17.6130249-68.3034055-17.6130249-98.9273059,0L114.1980389,176.4075869c-30.7768443,17.700989-49.7489455,50.4987573-49.7489455,86.0028297Z"/>
      <path class="cls-5" d="M395.487633,50.864437c13.1273581,0,26.0810469,3.4593621,37.4605455,10.0042576l234.4927944,134.8661351c23.2397359,13.3661534,37.6766225,38.3236506,37.6766225,65.1329178v269.0919239c0,26.8091039-14.4368866,51.7666456-37.6765037,65.1327693l-234.4929132,134.8661128c-11.3796174,6.5449104-24.3333062,10.0042799-37.4605455,10.0042799s-26.0809281-3.4593695-37.4606643-10.0042799l-234.4925568-134.8661128c-23.2398547-13.3661237-37.6767413-38.3236655-37.6767413-65.1327693v-269.0919239c0-26.8092672,14.4368866-51.7667644,37.6765037-65.1329178L358.0272063,60.8686946c11.3792611-6.5448956,24.3330686-10.0042576,37.4604267-10.0042576M395.487633,29.4558687c-16.6167812,0-33.2336811,4.2849039-48.1340819,12.8547079L112.8607567,177.1767117c-29.9495252,17.2252326-48.4116915,49.1412779-48.4116915,83.6910358v269.0919239c0,34.5496243,18.4621663,66.4656398,48.4116915,83.690917l234.4927944,134.8661128c14.9004008,8.5697855,31.5173008,12.8546782,48.1340819,12.8546782s33.2336811-4.2848927,48.1340819-12.8546782l234.4929132-134.8661128c29.9494064-17.2252772,48.4115727-49.1412928,48.4115727-83.690917v-269.0919239c0-34.5497579-18.4621663-66.4658032-48.4115727-83.6910358L443.621715,42.3105767c-14.9004008-8.5698041-31.5173008-12.8547079-48.1340819-12.8547079h0Z"/>
    </g>
  </g>
  <g>
    <path class="cls-9" d="M384.479911,317.5536495v38.7363481h-2.5893345c-7.1502508,0-12.9466744-5.7964237-12.9466742-12.9466745l.0000006-24.9897512c.0000003-12.4112262-9.3643031-23.2494843-21.7494662-24.0533918-13.5724572-.8809734-24.8585617,9.8699233-24.8585617,23.2534695v25.8933484c0,7.1502507-5.7964235,12.9466742-12.9466742,12.9466742h-2.5893348v-38.8400226c0-12.7137226,6.1109503-24.0031845,15.536009-31.0720181,6.4992557-4.8679621,14.5779678-7.7680045,23.3040136-7.7680045,8.7519644,0,16.8306765,2.9000424,23.3040136,7.7680045,9.4252167,7.0947522,15.536009,18.3842141,15.536009,31.0720181Z"/>
    <path class="cls-4" d="M192.0318846,315.8300266l-1.2946533-2.2424092c-2.8600965-4.9538412-1.162781-11.2882893,3.7910602-14.1483858l19.0350682-10.9898823,1.2946533,2.2424092c2.8600965,4.9538412,1.162781,11.2882893-3.7910602,14.1483858l-19.0350682,10.9898823Z"/>
    <path class="cls-9" d="M201.6069669,314.0486883l12.2875523-7.0854879c.9580412,3.3661037,1.4759398,6.9134798,1.4759398,10.590449,0,12.7135645-6.1107923,23.9771079-15.5100904,31.0720181-6.4019166,4.7950548-14.3363329,7.6806954-22.9372539,7.765988-10.3665314.1028016-19.8394338,6.4435457-22.7054609,16.4065487-3.1328031,10.8903809,1.4615334,21.0836084,9.5473808,26.3970905l-14.3706186,8.3117743c-7.2243221-7.0688928-11.7040022-16.9083565-11.7040022-27.8093834,0-12.6878039,6.0850317-23.9772659,15.5100904-31.0720181-10.3537869-7.7940298-16.6768755-20.6187083-15.330138-34.8700174,1.6788008-17.7652353,15.7352592-32.3854683,33.4290053-34.6991895,12.7664499-1.6694038,24.5309551,2.8772301,32.7038696,11.0501447l-7.1612655,4.1460017c-3.9081179,2.2625978-8.5894406,2.6664856-12.8665343,1.2176228-3.0530298-1.0342119-6.3925174-1.4514606-9.8885963-1.0959105-10.7179384,1.0900107-19.4897913,9.7364072-20.7045222,20.4409276-1.6030961,14.1268936,9.379494,26.0424162,23.1481136,26.0424162,12.6895851,0,23.0124577-10.1208378,23.2979455-22.765934.0040382-.178862.0060681-.358229.0060681-.5380796,0,0-.2826575-2.3198664,1.772517-3.5049612Z"/>
    <path class="cls-9" d="M299.8604674,317.5536495c0,22.0793793-18.4096752,39.8303948-40.6890373,38.7970102-19.7672643-.9168659-36.0311297-17.1807312-36.9479955-36.9479955-1.0333846-22.2793621,16.7176309-40.6890373,38.7970102-40.6890373,9.7100056,0,18.5914052,3.5732947,25.4013685,9.476896,1.8107952,1.5580584,3.4693486,3.2759287,4.9550776,5.137104,1.9962753,2.5007375,1.3454504,6.1883491-1.4261824,7.787366l-8.6557277,4.9936828-36.5873139,21.1290608-.0000065-.0000112c-3.5750796-6.1920623-1.4534233-14.1099017,4.738783-17.6847319l22.1126132-12.7658598c-3.4365442-1.7746653-7.3941847-2.6911862-11.5394383-2.5163568-12.235973.516062-22.2510375,10.9349842-22.3028815,23.1817253-.0547853,12.9415525,10.4011863,23.4051611,23.303708,23.4051611,10.9377693,0,20.1171771-7.5193299,22.6260074-17.6932221.8282372-3.3586949,4.0030414-5.6107914,7.4623488-5.6107914h8.7516663Z"/>
    <path class="cls-9" d="M653.2848724,317.5536495c0,22.0793793-18.4096752,39.8303948-40.6890373,38.7970102-19.7672643-.9168659-36.0311297-17.1807312-36.9479955-36.9479955-1.0333846-22.2793621,16.7176309-40.6890373,38.7970102-40.6890373,9.7100056,0,18.5914052,3.5732947,25.4013685,9.476896,1.8107952,1.5580584,3.4693486,3.2759287,4.9550776,5.137104,1.9962753,2.5007375,1.3454504,6.1883491-1.4261824,7.787366l-8.6557277,4.9936828-36.5873139,21.1290608-.0000065-.0000112c-3.5750796-6.1920623-1.4534233-14.1099017,4.738783-17.6847319l22.1126132-12.7658598c-3.4365442-1.7746653-7.3941847-2.6911862-11.5394383-2.5163568-12.235973.516062-22.2510375,10.9349842-22.3028815,23.1817253-.0547853,12.9415525,10.4011863,23.4051611,23.303708,23.4051611,10.9377693,0,20.1171771-7.5193299,22.6260074-17.6932221.8282372-3.3586949,4.0030414-5.6107914,7.4623488-5.6107914h8.7516663Z"/>
    <path class="cls-9" d="M406.9282384,319.107821c.8037,12.3852987,11.6419605,21.7498429,24.0533085,21.7498426l8.392294-.0000002c5.7202007-.0000002,10.3573397,4.6371387,10.3573397,10.3573394v5.1786694l-18.4526041.0000072c-20.9023259.0000081-38.8923106-16.0542313-39.8911485-36.9326783-1.0671095-22.3055094,16.6956324-40.7473741,38.7943062-40.7473741h19.5494464v5.1786697c0,5.7202006-4.6371388,10.3573394-10.3573394,10.3573394h-9.1921071c-13.3834156,0-24.1342331,11.2857134-23.2534957,24.8581851Z"/>
    <path class="cls-9" d="M510.3992769,286.4816236v.0000078c-7.825046-5.860983-17.9396632-8.8692803-28.7170381-7.3980477-17.5496039,2.3957178-31.4754527,16.8551337-33.2281436,34.4805737-2.3130206,23.2602382,15.860162,42.8295147,38.6411681,42.8295147,8.7260458,0,16.8047578-2.9000424,23.3040136-7.7680045v.0000078c0,4.2901461,3.4778506,7.7679968,7.7679968,7.7679968h7.7680123v-77.6800452h-7.7680123c-4.2901461,0-7.7679968,3.4778505-7.7679968,7.7679968ZM487.0952634,340.857663c-12.8689183,0-23.3040136-10.4091766-23.3040136-23.3040136,0-12.8690763,10.4350953-23.3040136,23.3040136-23.3040136,12.8690763,0,23.3040136,10.4349372,23.3040136,23.3040136,0,12.8948369-10.4349372,23.3040136-23.3040136,23.3040136Z"/>
    <path class="cls-9" d="M575.1326479,278.8171434v12.3115658c0,1.6691847-1.3083519,3.0958697-2.9772954,3.1242404-.0607611.0010329-.1216621.0023072-.1827113.0038228-12.7373544.3162137-22.733303,11.116916-22.7333127,23.8581949l-.000029,38.2787048h-15.536009v-77.6800452h7.7680123c4.2901461,0,7.7679968,3.4778505,7.7679968,7.7679968v.0000078c6.4992557-4.8679621,14.5520492-7.7680045,23.3040136-7.7680045.8804434,0,1.7348101.0257606,2.5893348.1035165Z"/>
    <path class="cls-1" d="M575.1326361,278.7136372h-2.5893598c.8804631,0,1.7347927.0257475,2.5893598.1034948v-.1034948h0Z"/>
    <path class="cls-9" d="M215.370459,379.6976856c0,12.7135645-6.1107923,23.9771079-15.5100904,31.0720181-6.4992557,4.8679621-14.5779678,7.7680045-23.3299322,7.7680045-7.0651986,0-13.3905099,3.1441988-17.6549943,8.111484-3.8389971,4.4716763-9.6528264,6.7512727-15.5463641,6.7512727h-4.7065415c2.019757-9.1921071,7.3019432-17.141384,14.5779678-22.6307612,6.3808719-4.7792923,14.2592017-7.6617032,22.8510294-7.765082,10.5686036-.1271639,20.200951-6.6887076,22.9279529-16.9002214,2.9799769-11.1588022-2.1242391-21.5399156-10.7452061-26.525897l14.6038864-8.4412569c7.6902486,7.0947522,12.5322921,17.2708191,12.5322921,28.5604391Z"/>
    <path class="cls-4" d="M190.1762816,366.2201794h-28.0166219c3.5214575-3.7028879,8.4930941-6.0072758,14.0082319-6.0072758,5.5152959,0,10.4869325,2.3043879,14.00839,6.0072758Z"/>
    <path class="cls-4" d="M195.4067885,377.1730152h-38.4776358c.2331097-2.1491922.8545247-4.1687912,1.812566-6.0331944h34.8525038c.9580412,1.8644033,1.5794563,3.8840023,1.812566,6.0331944Z"/>
    <path class="cls-4" d="M195.4067885,382.0926565c-.2331097,2.1232735-.8545247,4.1689492-1.7866474,6.0072758h-34.9043411c-.9321226-1.8383266-1.5535377-3.8840023-1.7866474-6.0072758h38.4776358Z"/>
    <path class="cls-4" d="M190.2022002,393.0197317c-3.5214575,3.7286485-8.5190128,6.0331944-14.0343086,6.0331944-5.5151378,0-10.5126931-2.3045459-14.0341506-6.0331944h28.0684592Z"/>
    <g>
      <rect class="cls-7" x="221.9446663" y="370.2206316" width="305.5415111" height="46.6080271" rx="20.7146787" ry="20.7146787"/>
      <g>
        <path class="cls-10" d="M266.8167366,397.2886657h-5.1584405v7.8704147c0,1.1252481-.265508,1.9786665-.7965239,2.5602554s-1.2011075.8723833-2.0102746.8723833c-.8470968,0-1.5298316-.2882658-2.0482043-.8635331-.5183727-.5740029-.777559-1.4185711-.777559-2.531176v-21.4302859c0-1.2390372.2844728-2.1240637.8534185-2.6550797s1.4729371-.7965239,2.7119742-.7965239h7.2256097c2.136707,0,3.7803277.1643621,4.9308622.4930862,1.1378913.3160809,2.1202708.8407752,2.9496671,1.5740829.8268677.7333077,1.4565008,1.6309775,1.8863709,2.6930094.42987,1.0620319.6448051,2.2568177.6448051,3.5843576,0,2.832085-.8723833,4.9789065-2.61715,6.437936-1.7447666,1.4615581-4.3429517,2.1910729-7.7945553,2.1910729ZM265.4512671,384.5442833h-3.792971v8.4962549h3.792971c1.3275398,0,2.4363517-.1390756,3.3289642-.4172268.8900839-.2781512,1.57029-.7333077,2.0380897-1.3654695s.7016996-1.4602938.7016996-2.484396c0-1.2263939-.3603322-2.2252096-1.0809967-2.9964471-.8091671-.8218104-2.4717527-1.2327156-4.9877568-1.2327156Z"/>
        <path class="cls-10" d="M299.0531968,396.2266338h-1.9723449v8.9324466c0,1.175821-.2591863,2.0418827-.777559,2.5981851s-1.1947859.8344536-2.0292395.8344536c-.8976698,0-1.5930478-.2907944-2.086134-.8723833-.4930862-.5815889-.7396293-1.4350073-.7396293-2.5602554v-21.3923562c0-1.2137507.2718296-2.0924556.8154888-2.6361148s1.4223641-.8154888,2.6361148-.8154888h9.1600249c1.2643237,0,2.3453204.0543659,3.2429902.1618334s1.7068369.3249312,2.4275014.6536553c.8723833.3666539,1.6436207.8913482,2.3137123,1.5740829s1.1783496,1.47673,1.527303,2.3794571c.3464247.9052557.5209013,1.8623487.5209013,2.8738077,0,2.0734908-.5841175,3.7297548-1.7548812,4.968792-1.1682351,1.2390372-2.9433455,2.1177421-5.3190096,2.6361148.9988157.5310159,1.95338,1.3148966,2.8636931,2.351642.910313,1.0367454,1.7220088,2.1404999,2.437616,3.3099993.7130785,1.1694994,1.2693809,2.2252096,1.6689072,3.1658664.3969976.9431854.5967608,1.5905192.5967608,1.9445298,0,.3666539-.1163178.7307791-.351482,1.089847-.2326356.3615966-.5537738.6448051-.9558287.8546828-.4071122.2073491-.874912.3122879-1.4059279.3122879-.6321618,0-1.1631778-.1491902-1.5930478-.4463062-.42987-.2958517-.7990525-.6726202-1.1075475-1.1277767-.3110236-.4551565-.7307791-1.1252481-1.261795-2.0102746l-2.2568177-3.7550412c-.8091671-1.3781128-1.5336246-2.4275014-2.1708437-3.1481659-.6397478-.7206645-1.2870815-1.2137507-1.9445298-1.4792587s-1.4855803-.398262-2.484396-.398262ZM302.2772221,384.5442833h-5.1963702v7.6428365h5.0446514c1.3528263,0,2.4907176-.1163178,3.4136739-.351482.9229563-.2326356,1.6271845-.6308975,2.1152135-1.1935215.4855003-.562624.7307791-1.3376544.7307791-2.3238269,0-.7712374-.1972345-1.4514436-.5891748-2.0380897-.3919403-.5891748-.9355995-1.0278951-1.6309775-1.3186896-.6574483-.2781512-1.95338-.4172268-3.8877952-.4172268Z"/>
        <path class="cls-10" d="M347.2959944,384.6580724h-12.6862235v6.8273477h11.6823505c.8572114,0,1.4994879.1934415,1.9243006.5777959.4222841.386883.6346905.8951411.6346905,1.527303s-.2073491,1.1480059-.6271045,1.5450035c-.4146982.3995263-1.0620319.5980251-1.9318865.5980251h-11.6823505v7.9083444h13.1236795c.8824979,0,1.5500608.2060848,2.00016.6169899.4475706.4109052.6726202.957093.6726202,1.6398278,0,.6574483-.2250496,1.1922572-.6726202,1.6018981-.4500992.4121695-1.1176621.6169899-2.00016.6169899h-15.3059021c-1.2263939,0-2.1088919-.2718296-2.6449651-.8154888-.5386019-.5436592-.8066385-1.4223641-.8066385-2.6361148v-20.89927c0-.8091671.1188464-1.4691441.3590679-1.9824595.2402215-.5107868.6169899-.8837622,1.1303053-1.1176621.5107868-.2338999,1.1657064-.351482,1.9622303-.351482h14.8684461c.8976698,0,1.5652327.1997631,2.00016.5967608.437456.3995263.6549197.9204276.6549197,1.5652327,0,.6574483-.2174637,1.1859356-.6549197,1.5829332-.4349273.3995263-1.1024902.5980251-2.00016.5980251Z"/>
        <path class="cls-10" d="M373.8240333,403.9263649l-4.4554766-17.7131744v19.192433c0,1.0620319-.2376928,1.8585558-.7105499,2.3895717-.4753857.5310159-1.1050189.7965239-1.8888995.7965239-.7585942,0-1.3781128-.2629793-1.8560271-.7876736-.4829716-.52343-.7231931-1.3237469-.7231931-2.398422v-21.9992315c0-1.2137507.3160809-2.0317681.9507714-2.4565809.6296332-.4222841,1.484316-.6346905,2.5589911-.6346905h1.7447666c1.0493886,0,1.8105115.0948243,2.2858972.2844728.472857.1896485.824339.5310159,1.0519173,1.0241022s.4855003,1.2959317.7788234,2.4085366l4.0382497,15.2287784,4.0382497-15.2287784c.2907944-1.1126048.5512451-1.9154503.7788234-2.4085366.2275783-.4930862.5790602-.8344536,1.0519173-1.0241022.4753857-.1896485,1.2365085-.2844728,2.2858972-.2844728h1.7447666c1.0746751,0,1.9268292.2124064,2.5589911.6346905.6321618.4248127.9507714,1.2428302.9507714,2.4565809v21.9992315c0,1.0620319-.2376928,1.8585558-.7130785,2.3895717-.472857.5310159-1.1075475.7965239-1.9066001.7965239-.745951,0-1.3578836-.265508-1.8383266-.7965239-.480443-.5310159-.7206645-1.3275398-.7206645-2.3895717v-19.192433l-4.4554766,17.7131744c-.2933231,1.1505345-.5284873,1.9951027-.7130785,2.5324403-.1820626.5373376-.5209013,1.0266308-1.0139876,1.4691441s-1.175821.6637699-2.0482043.6637699c-.6574483,0-1.2137507-.1428686-1.6689072-.4260771-.4551565-.2857371-.8091671-.648598-1.0620319-1.0911113s-.4526279-.9318065-.5967608-1.4704084c-.1466615-.5360732-.2958517-1.0961686-.4475706-1.6777575Z"/>
        <path class="cls-10" d="M406.5725445,405.1590804v-21.9044073c0-1.1378913.257922-1.9913098.7788234-2.5602554.5158441-.5689456,1.1859356-.8534185,2.007746-.8534185.8470968,0,1.5348889.2819442,2.0583189.8433039.5259586.5638883.788938,1.4198355.788938,2.57037v21.9044073c0,1.1505345-.2629793,2.0102746-.788938,2.5792203-.52343.5689456-1.2112221.8534185-2.0583189.8534185-.8091671,0-1.4742014-.2882658-2.00016-.8635331-.52343-.5740029-.7864093-1.4312144-.7864093-2.5691057Z"/>
        <path class="cls-10" d="M428.0963903,396.6248958v-13.3702226c0-1.1378913.2553934-1.9913098.7687088-2.5602554.5107868-.5689456,1.1859356-.8534185,2.0203892-.8534185.8698547,0,1.562704.2844728,2.0760194.8534185.5107868.5689456.7661801,1.4223641.7661801,2.5602554v13.6736603c0,1.5551181.1744767,2.8548428.52343,3.8966455.3464247,1.0443313.9634146,1.8534985,1.8484412,2.4275014.8850266.5765316,2.1240637.8635331,3.7171115.8635331,2.1999232,0,3.7550412-.5841175,4.6653543-1.7536169.910313-1.1694994,1.3654695-2.9433455,1.3654695-5.3202739v-13.7874494c0-1.1505345.2528647-2.0064816.7585942-2.57037.5057295-.5613597,1.1808783-.8433039,2.0305038-.8433039.8445682,0,1.5323603.2819442,2.0557903.8433039.5259586.5638883.7864093,1.4198355.7864093,2.57037v13.3702226c0,2.1746367-.2098777,3.9889411-.6346905,5.4429133-.4222841,1.4539722-1.2213366,2.7309391-2.3996863,3.8309007-1.0114589.9355995-2.1872799,1.6183343-3.5249343,2.0482043-1.3427117.42987-2.910473.6448051-4.703284.6448051-2.1392356,0-3.9775622-.2313712-5.5200371-.691585-1.5424749-.4614781-2.8017412-1.175821-3.7752704-2.1442929-.9735292-.9659433-1.6866078-2.2049804-2.1417643-3.7171115-.4551565-1.5096024-.6827348-3.3150566-.6827348-5.4138339Z"/>
        <path class="cls-10" d="M476.507343,403.9263649l-4.4554766-17.7131744v19.192433c0,1.0620319-.2376928,1.8585558-.7105499,2.3895717-.4753857.5310159-1.1050189.7965239-1.8888995.7965239-.7585942,0-1.3781128-.2629793-1.8560271-.7876736-.4829716-.52343-.7231931-1.3237469-.7231931-2.398422v-21.9992315c0-1.2137507.3160809-2.0317681.9507714-2.4565809.6296332-.4222841,1.484316-.6346905,2.5589911-.6346905h1.7447666c1.0493886,0,1.8105115.0948243,2.2858972.2844728.472857.1896485.824339.5310159,1.0519173,1.0241022s.4855003,1.2959317.7788234,2.4085366l4.0382497,15.2287784,4.0382497-15.2287784c.2907944-1.1126048.5512451-1.9154503.7788234-2.4085366s.5790602-.8344536,1.0519173-1.0241022c.4753857-.1896485,1.2365085-.2844728,2.2858972-.2844728h1.7447666c1.0746751,0,1.9268292.2124064,2.5589911.6346905.6321618.4248127.9507714,1.2428302.9507714,2.4565809v21.9992315c0,1.0620319-.2376928,1.8585558-.7130785,2.3895717-.472857.5310159-1.1075475.7965239-1.9066001.7965239-.745951,0-1.3578836-.265508-1.8383266-.7965239-.480443-.5310159-.7206645-1.3275398-.7206645-2.3895717v-19.192433l-4.4554766,17.7131744c-.2933231,1.1505345-.5284873,1.9951027-.7130785,2.5324403-.1820626.5373376-.5209013,1.0266308-1.0139876,1.4691441s-1.175821.6637699-2.0482043.6637699c-.6574483,0-1.2137507-.1428686-1.6689072-.4260771-.4551565-.2857371-.8091671-.648598-1.0620319-1.0911113s-.4526279-.9318065-.5967608-1.4704084c-.1466615-.5360732-.2958517-1.0961686-.4475706-1.6777575Z"/>
      </g>
    </g>
  </g>
  <g class="cls-14">
    <g>
      <path class="cls-11" d="M378.2915586,506.2745077c-1.1999184,0-1.7508946-.5749444-1.7508946-1.7488148v-3.2101551c0-1.197843.5751775-1.7488148,1.7508946-1.7488148h20.8688863l2.422895-3.8330494-2.422895-3.8808892h-17.486987c-.8875436,0-1.6068034-.4072323-2.1347214-1.197843l-5.0129129-7.7618905c-.527918-.838444-.527918-1.6530273,0-2.4914713l5.0129129-8.0733398c.5751775-.838444,1.2955894-1.2456785,2.1831329-1.2456785h22.3558175c1.1999272,0,1.7508946.5749466,1.7508946,1.7488148v3.1622054c0,1.197843-.5751863,1.7488126-1.7508946,1.7488126h-19.7657908l-2.422895,3.8330537,2.422895,3.8810013h17.4397275c.8875524,0,1.6068122.4072345,2.1105201,1.1977287l5.0129217,7.8098403c.5279092.8384462.5279092,1.6530295,0,2.4914713l-5.0129217,8.0733398c-.4552964.8384462-1.1999184,1.2456785-2.1831329,1.2456785h-23.4116623.0242101Z"/>
      <path class="cls-11" d="M414.0332039,506.2745077c-1.1999184,0-1.8235074-.6228942-1.8235074-1.8207372v-27.3822227c0-.8863959.3123661-1.6050776.8875524-2.227974l2.1831329-2.3715969c.8391321-.8863948,1.5584007-1.3415802,2.1831329-1.3415802h20.7006026c.9832321,0,1.6552237.4072345,2.1105289,1.2456785l5.2296168,8.8879232c.4564485.8862794.4564485,1.652913,0,2.4195466l-5.1812142,8.9357587c-.4552876.7666336-1.1514982,1.197843-2.1347127,1.197843h-18.1105847c-.3596255,0-.5279268.143735-.5279268.5269947v10.1336017c0,1.197843-.6235889,1.8207416-1.8234898,1.8207416h-3.7173323l.0242013-.0239771ZM420.8212215,490.511092c.3123661,0,.5279092-.0957874.6719916-.311335l1.5584007-1.9165269c.5763295-.7666336,1.2955806-1.1260327,2.1831329-1.1260327h10.5548958l2.6384381-4.6475206-2.6384381-4.6954704h-16.215599v12.1938636c0,.3592826.1440824.5269947.5279092.5269947h.7192686v-.0239727Z"/>
      <path class="cls-11" d="M458.1454688,506.2745077c-.9832145,0-1.6552237-.4072323-2.1105289-1.197843l-8.6357087-15.1883569c-.4553052-.7666336-.4553052-1.6050776,0-2.419661l8.6357087-15.1404071c.4553052-.7666325,1.1273144-1.197843,2.1105289-1.197843h17.7036822c.9832321,0,1.6552237.4072345,2.1105289,1.197843l8.6357087,15.1404071c.4553052.838444.4553052,1.6530273,0,2.419661l-8.6357087,15.1883569c-.4553052.7666336-1.1272968,1.197843-2.1105289,1.197843h-17.7036822ZM460.9521907,499.5427503h12.1144398l6.2600908-10.8522856-6.2600908-10.9002353h-12.1144398l-6.2128313,10.9002353,6.2128313,10.8522856Z"/>
      <path class="cls-11" d="M518.1148504,471.1306275c1.1999184,0,1.8235074.6228964,1.8235074,1.8207394v3.0424452c0,1.197843-.6235889,1.8207394-1.8235074,1.8207394h-13.9852066c-.3596255,0-.526766.1437372-.526766.5269947v.5749466c0,.2636138.0956797.4551843.3112229.6228964l2.0148492,1.5092923c.7676713.5749466,1.1514982,1.2936305,1.1514982,2.1800242v21.2973344c0,1.1977287-.6235889,1.8206229-1.8223466,1.8206229h-3.7184755c-1.1999184,0-1.8235074-.6228942-1.8235074-1.8206229v-26.7354635h-11.6579913c-1.1987752,0-1.8223642-.6228986-1.8223642-1.8207416v-3.042443c0-1.197843.6235889-1.820624,1.8223642-1.820624h30.0325218l.0242013.0238595Z"/>
      <path class="cls-11" d="M537.1844482,506.274855c-1.1987752,0-1.8223466-.6228986-1.8223466-1.8207416v-31.5267213c0-1.197843.6235714-1.820624,1.8223466-1.820624h3.7184755c1.1999184,0,1.8235074.622781,1.8235074,1.820624v1.0780829c0,.3592826.1440824.5269947.5279268.5269947h1.0304739l1.9675898-2.2758094c.6719916-.7666336,1.3912603-1.1260327,2.1831329-1.1260327h7.1476431c.7676537,0,1.5111413.3593991,2.1831153,1.1260327l1.9664641,2.2758094h1.559544l1.9675898-2.2758094c.6708484-.7666336,1.3912603-1.1260327,2.1819545-1.1260327h6.0687665c.6247322,0,1.3439832.4551854,2.1831505,1.3415802l2.1831153,2.3717112c.5751687.6228964.8875699,1.3415802.8875699,2.227974v27.4061976c0,1.197843-.6236065,1.8206229-1.8235074,1.8206229h-3.7173323c-1.199936,0-1.8235074-.6227799-1.8235074-1.8206229v-25.6573828c0-.6707319-.3596431-1.0301309-1.0316523-1.0301309h-7.5556713c-.6720092,0-1.0316171.3593991-1.0316171,1.0301309v25.6573828c0,1.197843-.6236065,1.8206229-1.8235074,1.8206229h-3.7173323c-1.1999009,0-1.8235074-.6227799-1.8235074-1.8206229v-25.6573828c0-.6707319-.3596431-1.0301309-1.0316347-1.0301309h-7.5556713c-.6720092,0-1.0316347.3593991-1.0316347,1.0301309v25.6573828c0,1.197843-.6235889,1.8206229-1.8223466,1.8206229h-3.7184755l-.0726216-.0238584Z"/>
      <path class="cls-11" d="M600.3444137,477.9579415h-3.0464839l-10.1952703,26.9270384c-.3596431.9343457-1.0304915,1.3895278-2.1347478,1.3895278h-3.7172971c-1.2956157,0-1.9191871-.8863915-1.4396981-2.1082117l12.2815803-31.6464836c.3596431-.9342303,1.0316523-1.3894157,2.0632695-1.3894157h9.330776c1.0316171,0,1.7036263.4551854,2.0632695,1.3894157l12.2815803,31.6464836c.4552876,1.2457928-.1440824,2.1082117-1.4396629,2.1082117h-3.6700905c-1.0788942,0-1.7508682-.4551821-2.1105113-1.3895278l-10.1952703-26.9270384h-.0714432Z"/>
      <path class="cls-11" d="M622.2933374,506.2745077c-1.199936,0-1.7520642-.5749444-1.7520642-1.7488148v-3.2101551c0-1.197843.5763295-1.7488148,1.7520642-1.7488148h20.8688687l2.4229126-3.8330494-2.4229126-3.8808892h-17.4869782c-.8875348,0-1.6067858-.4072323-2.1347127-1.197843l-5.0140737-7.7618905c-.5279268-.838444-.5279268-1.6530273,0-2.4914713l5.0140737-8.0733398c.5751687-.838444,1.2955806-1.2456785,2.1831153-1.2456785h22.3558439c1.1999009,0,1.7508682.5749466,1.7508682,1.7488148v3.1622054c0,1.197843-.5751687,1.7488126-1.7508682,1.7488126h-19.7658084l-2.4228774,3.8330537,2.4228774,3.8810013h17.4385755c.8875348,0,1.6079466.4072345,2.1116721,1.1977287l5.0129129,7.8098403c.5279268.8384462.5279268,1.6530295,0,2.4914713l-5.0129129,8.0733398c-.4564485.8384462-1.1999009,1.2456785-2.1831153,1.2456785h-23.4116623.0242013Z"/>
      <path class="cls-11" d="M529.604558,487.0855037h-16.7435258c-.3042931,0-.5509673.2466676-.5509673.5509695v2.1561636c0,.3043019.2466742.5509717.5509673.5509717h16.7435258c.3054539,0,.5521282-.2466698.5521282-.5509717v-2.1561636c0-.3043019-.2466742-.5509695-.5521282-.5509695Z"/>
      <path class="cls-11" d="M377.2357226,515.2578731h2.0390505l2.1347302,6.8035699,2.1347214-6.8035699h2.0390505v8.3847869h-1.5826021v-5.6058412l-1.7750959,5.6058412h-1.6310047l-1.799306-5.6058412v5.6058412h-1.5837541v-8.3847869h.0242101Z"/>
      <path class="cls-11" d="M391.412271,523.4269982c-.5037079-.2874744-.9117537-.6947068-1.2229678-1.197843-.3123749-.503022-.4553052-1.054108-.4553052-1.6768879v-5.2943941h1.5826021v5.2943941c0,.5749444.1682925,1.0301309.4795066,1.3654364.3123749.3354242.74347.5031363,1.271388.5031363s.9601652-.1677121,1.2713792-.5031363c.3123749-.3353055.4795066-.790492.4795066-1.3654364v-5.2943941h1.559544v5.2943941c0,.6227799-.1440824,1.173866-.4552964,1.6768879-.3123661.5031363-.7204119.9103686-1.2241198,1.197843-.5037167.28747-1.054684.4312094-1.6310135.4312094-.5751775,0-1.151507-.1437394-1.6552237-.4312094Z"/>
      <path class="cls-11" d="M400.5032937,515.2578731h1.5837541v7.0670673h4.3409213v1.3177197h-5.9004652v-8.3847869h-.0242101Z"/>
      <path class="cls-11" d="M410.5302715,516.6472866h-2.6142192v-1.3894135h6.8122013v1.3894135h-2.6384381v6.9953734h-1.559544v-6.9953734Z"/>
      <path class="cls-11" d="M418.3026644,515.2578731h1.5825845v8.3847869h-1.5825845v-8.3847869Z"/>
      <path class="cls-11" d="M423.676346,518.8035668h8.8028668v1.2937426h-8.8028668v-1.2937426Z"/>
      <path class="cls-11" d="M437.7088296,523.2833775c-.5763295-.3833784-.9843753-.910373-1.2713968-1.5812214-.2881648-.6707297-.4322471-1.4133906-.4322471-2.2518323,0-.8384462.1683013-1.5572443.4795066-2.227974.3123837-.6707341.74347-1.197843,1.3197995-1.6050798.5751863-.3832596,1.1987752-.5989215,1.9191871-.5989215.7192511,0,1.3670413.1437394,1.8949682.4312094.5279092.2874744.9117537.6468757,1.1987576,1.1020578.2881648.4551865.4564485.9582041.5521282,1.4853175h-1.559544c-.1440824-.4791592-.3838445-.8863959-.6950673-1.197843-.3123661-.3114471-.7676537-.4791592-1.2955806-.4791592-.4322471,0-.8391321.143735-1.1757171.4551821-.3354242.2874744-.59937.6947068-.7918727,1.1498933-.1913418.4791592-.2628026.9582041-.2628026,1.4853175,0,.5269947.0714608,1.0061539.2397445,1.4853175.1671405.4790449.4069026.8624188.7192686,1.1498933.3123661.28747.7192511.4551821,1.1757171.4551821.5037079,0,.9117537-.143735,1.2471603-.4312094.3354242-.2874744.5993876-.6948211.7918902-1.2457928h1.5353426c-.1440824.6947068-.4080458,1.2697699-.7676713,1.7248377-.3607863.4551865-.7918902.7906107-1.2955981.9822955-.5037079.2155475-1.0074158.3114515-1.5353426.3114515-.7676713,0-1.4396629-.1916892-2.0148492-.5989215h.0242189Z"/>
      <path class="cls-11" d="M449.1028575,515.2578731h3.022265l2.7583192,8.3847869h-1.6310047l-.7676713-2.2999008h-3.7173323l-.7446132,2.2999008h-1.6068034l2.6868408-8.3847869ZM452.0536618,520.0011812l-1.4396629-4.3120986-1.3912603,4.3120986h2.8309232Z"/>
      <path class="cls-11" d="M458.5062552,515.2578731h2.08631l3.1179447,6.444283v-6.444283h1.5837453v8.3847869h-2.0148492l-3.1905487-6.4444017v6.4444017h-1.5826021v-8.3847869Z"/>
      <path class="cls-11" d="M470.9549583,523.2833775c-.5751687-.3833784-.9832145-.910373-1.2713792-1.5812214-.2881648-.6707297-.4310863-1.4133906-.4310863-2.2518323,0-.8384462.1671229-1.5572443.4795066-2.227974.3112053-.6707341.7434524-1.197843,1.3186387-1.6050798.5763295-.3832596,1.1999184-.5989215,1.9191695-.5989215.7204119,0,1.3670589.1437394,1.8949858.4312094.5279092.2874744.9117537.6468757,1.1999184,1.1020578.2881648.4551865.4552876.9582041.5509673,1.4853175h-1.5584007c-.1440824-.4791592-.3838269-.8863959-.6962105-1.197843-.3112053-.3114471-.7676713-.4791592-1.2955806-.4791592-.4311039,0-.8391321.143735-1.1745563.4551821-.336585.2874744-.6005484.6947068-.7918902,1.1498933-.1913418.4791592-.2639458.9582041-.2639458,1.4853175,0,.5269947.0714608,1.0061539.2397445,1.4853175.1682837.4790449.4080458.8624188.7192686,1.1498933.3123661.28747.7204119.4551821,1.1756995.4551821.5037255,0,.9117537-.143735,1.2471779-.4312094.336585-.2874744.6005484-.6948211.7918902-1.2457928h1.5353426c-.1440824.6947068-.4080458,1.2697699-.7676713,1.7248377-.3596431.4551865-.7918902.7906107-1.2955981.9822955-.5037079.2155475-1.0074158.3114515-1.5353426.3114515-.7676713,0-1.4385197-.1916892-2.0148492-.5989215h.0242013Z"/>
      <path class="cls-11" d="M480.4540356,515.2578731h6.1886124v1.341578h-4.6048671v2.2040013h4.1495794v1.3176054h-4.1495794v2.2038826h4.6048671v1.341578h-6.1886124v-8.4086453Z"/>
      <path class="cls-11" d="M490.6008856,515.2578731h4.2936618c.4564485,0,.9117537.1197623,1.3197819.3592826.4080458.239639.74347.5510861,1.0074334.9583228.2397445.4072323.3838269.8144691.3838269,1.2696512,0,.4791592-.0956621.910373-.3123661,1.3176054-.2155432.4072323-.4795066.7186838-.8149308.9583228-.3365674.2395202-.7204119.3592826-1.1272968.3832552l2.206191,3.138347h-1.8223642l-2.2073342-3.138347h-1.2955981v3.138347h-1.5825845v-8.3847869h-.0484203ZM495.6622188,518.8034525c.2155432-.263616.3354242-.5510861.3354242-.910373,0-.2156619-.0472594-.4072323-.1429391-.6228942-.0968229-.1916892-.2409053-.3594013-.4080458-.5031363-.1682837-.1197623-.3596255-.1915705-.5521106-.1915705h-2.7099165v2.6112336h2.5416152c.4080458,0,.7204119-.1197623.960174-.3832596h-.0242013Z"/>
      <path class="cls-11" d="M507.6083748,515.2578731h6.1886124v1.341578h-4.6060103v2.2040013h4.1507227v1.3176054h-4.1507227v2.2038826h4.6060103v1.341578h-6.1886124v-8.4086453Z"/>
      <path class="cls-11" d="M519.7942754,515.2578731h3.0222826l2.7583016,8.3847869h-1.6310047l-.7676713-2.2999008h-3.7184755l-.74347,2.2999008h-1.6068034l2.6868408-8.3847869ZM522.7439364,520.0011812l-1.4385197-4.3120986-1.3912603,4.3120986h2.82978Z"/>
      <path class="cls-11" d="M529.1965122,515.2578731h4.2948226c.4552876,0,.9105929.1197623,1.3186387.3592826.4080458.239639.7434524.5510861,1.0074158.9583228.2397621.4072323.3838445.8144691.3838445,1.2696512,0,.4791592-.0956797.910373-.3112229,1.3176054-.216704.4072323-.4806674.7186838-.816074.9583228-.3354242.2395202-.7192686.3592826-1.1273144.3832552l2.2073518,3.138347h-1.8235074l-2.2073518-3.138347h-1.2944373v3.138347h-1.5837453v-8.3847869h-.0484203ZM534.2578453,518.8034525c.216704-.263616.336585-.5510861.336585-.910373,0-.2156619-.0484203-.4072323-.1440824-.6228942-.0956797-.1916892-.2397621-.3594013-.4080458-.5031363-.1671405-.1197623-.3596255-.1915705-.5509673-.1915705h-2.7110597v2.6112336h2.5427584c.4080458,0,.7192686-.1197623.9590131-.3832596h-.0242013Z"/>
      <path class="cls-11" d="M540.0395903,515.2578731h1.5826021v7.0670673h4.3420645v1.3177197h-5.9004652v-8.3847869h-.0242013Z"/>
      <path class="cls-11" d="M550.2821201,520.4803404l-2.9508218-5.2224673h1.799306l1.9433884,3.6413646,1.9664465-3.6413646h1.7992709l-2.9508042,5.2224673v3.1623197h-1.5825845v-3.1623197h-.0242013Z"/>
      <path class="cls-11" d="M564.5070887,515.2578731h3.6458539c.4322471,0,.8391321.0957852,1.2471779.28747.4080458.1915749.7434524.4312138,1.0800198.7666336.3838445.3832596.6708484.8624232.8875699,1.4133906.2155256.5509717.3112053,1.1259206.3112053,1.7488148,0,.6228986-.0956797,1.197843-.3112053,1.7488148-.2167216.5509717-.5037255,1.0061583-.8875699,1.4133906-.3123661.3354242-.671974.5749488-1.0800198.7666336-.4080458.1916892-.8149308.2874744-1.2471779.2874744h-3.6458539v-8.4326224ZM567.8175009,522.3010776c.7192862,0,1.2713792-.28747,1.6782994-.7906063.4080106-.503022.6005308-1.197843.6005308-2.0602619s-.2167216-1.55713-.6236065-2.084239c-.4080458-.5269947-.9843753-.7665193-1.7036263-.7665193h-1.7036263v5.7254892h1.752029v-.0238628Z"/>
      <path class="cls-11" d="M575.5414911,515.2578731h6.1886124v1.341578h-4.6060279v2.2040013h4.1495794v1.3176054h-4.1495794v2.2038826h4.6060279v1.341578h-6.1886124v-8.4086453Z"/>
      <path class="cls-11" d="M587.6547877,516.6472866h-2.6142368v-1.3894135h6.8122189v1.3894135h-2.6384381v6.9953734h-1.559544v-6.9953734Z"/>
      <path class="cls-11" d="M595.4502211,515.2578731h6.1897732v1.341578h-4.6060279v2.2040013h4.1495794v1.3176054h-4.1495794v2.2038826h4.6060279v1.341578h-6.1897732v-8.4086453Z"/>
      <path class="cls-11" d="M606.9883137,523.2833775c-.5751687-.3833784-.9832145-.910373-1.2702184-1.5812214-.2881648-.6707297-.4322471-1.4133906-.4322471-2.2518323,0-.8384462.1682837-1.5572443.479489-2.227974.3124013-.6707341.7434876-1.197843,1.3198171-1.6050798.5751687-.3832596,1.1987752-.5989215,1.9191871-.5989215.7192511,0,1.3670237.1437394,1.8949506.4312094.526766.2874744.9106105.6468757,1.1987752,1.1020578.2881648.4551865.4564485.9582041.5521282,1.4853175h-1.559544c-.1440824-.4791592-.3838445-.8863959-.6950849-1.197843-.3123661-.3114471-.7676537-.4791592-1.2955806-.4791592-.4322471,0-.8402929.143735-1.1756995.4551821-.3354418.2874744-.59937.6947068-.7918902,1.1498933-.1913242.4791592-.2639634.9582041-.2639634,1.4853175,0,.5269947.0726392,1.0061539.2409229,1.4853175.1671229.4790449.406885.8624188.7192511,1.1498933.3112404.28747.7192511.4551821,1.1757347.4551821.5036903,0,.9105753-.143735,1.2471427-.4312094.3354418-.2874744.5994052-.6948211.7907294-1.2457928h1.5353426c-.1429216.6947068-.406885,1.2697699-.7676537,1.7248377-.3596431.4551865-.7907294.7906107-1.2944549.9822955-.5036903.2155475-1.0074158.3114515-1.5353426.3114515-.7676537,0-1.4396629-.1916892-2.0148316-.5989215h.0230405Z"/>
      <path class="cls-11" d="M618.4549632,516.6472866h-2.6142016v-1.3894135h6.8121837v1.3894135h-2.6384381v6.9953734h-1.559544v-6.9953734Z"/>
      <path class="cls-11" d="M626.2273561,515.2578731h1.5825845v8.3847869h-1.5825845v-8.3847869Z"/>
      <path class="cls-11" d="M633.6389451,523.2833775c-.6235714-.3833784-1.0788942-.9343457-1.4385021-1.6050798-.3608039-.6708484-.5037255-1.4135049-.5037255-2.227974,0-.8145834.1671229-1.5572443.5037255-2.227974.3354066-.6707341.8149308-1.197843,1.4385021-1.6050798.5994052-.3832596,1.3198171-.5989215,2.1116721-.5989215.7907294,0,1.5111413.1916892,2.1347478.5989215.6235714.4072367,1.1272968.9343457,1.4627034,1.6050798.3596431.6707297.5279268,1.4133906.5279268,2.227974,0,.8144691-.1682837,1.5571256-.5279268,2.227974-.3596431.6707341-.8391321,1.1977287-1.4627034,1.6050798-.6236065.4072323-1.3440184.5989215-2.1347478.5989215-.7918551,0-1.5122669-.1916892-2.1116721-.5989215ZM637.1418774,522.1334843c.3838445-.2875887.6708484-.6708484.8875699-1.1500076.2155256-.4790449.2870039-.9821812.2870039-1.55713,0-.5749444-.0956797-1.0780807-.2870039-1.5571256-.1925202-.4791592-.5037255-.8385605-.8875699-1.1260305-.3838445-.2874744-.8402929-.4312138-1.3681846-.4312138-.5279268,0-.9832496.1437394-1.3670589.4312138-.3838445.28747-.6720092.670844-.8633686,1.1260305-.192485.4551865-.2881648.9821812-.2881648,1.5571256,0,.5749488.0956797,1.0780851.2881648,1.55713.1913594.4791592.4795242.8624188.8633686,1.1500076.3838093.28747.8391321.4312094,1.3670589.4312094.5278917,0,.9843401-.1437394,1.3681846-.4312094Z"/>
      <path class="cls-11" d="M643.810014,515.2578731h2.08631l3.1190879,6.444283v-6.444283h1.5826197v8.3847869h-2.0148668l-3.1905311-6.4444017v6.4444017h-1.5826197v-8.3847869Z"/>
      <path class="cls-6" d="M360.3244847,488.019502l-8.6594704-23.9804476c-2.3027765-6.3005493-8.2997129-10.4929315-15.0162609-10.4929315h-30.4402247c-6.7165436,0-12.7133701,4.1923822-15.016151,10.4929315l-2.9505778,8.1930549c-2.902395,8.0255022,3.0464795,16.4821017,11.5860666,16.4821017h7.8919134c.1679407,0,.2398676-.2156641.0958996-.3114493-1.3672832-.8144691-4.4376211-3.3299175-2.3507307-9.1034708v.0719269s0-.1197623.0958996-.3354242l1.9670137-5.4141542c2.2788038-6.2047638,5.6850276-19.0933011,13.9128224-19.4286926,8.2276805.3353915,11.6339043,13.2239288,13.9128224,19.4286926l1.9669038,5.4141542c.0720412.2156619.0960139.3354242.0960139.3354242v-.0959018l3.1663562,8.9837085c.0958996.2874744.0958996.5989215,0,.8863959l-3.1903289,8.9837063v-.0958996s0,.1197623-.0960227.3354242l-1.9670094,5.4141564c-2.3027853,6.2765709-5.7809316,19.4047802-14.2006442,19.428643-.3597442,0-.2398676.6468713.119991.6468713h15.376014c6.7165392,0,12.7134756-4.1923363,15.0162609-10.4928843l8.6594704-23.9804949c.1679407-.4312094.1679407-.9102543,0-1.3415802l.0239727-.0238606Z"/>
      <path class="cls-12" d="M317.3868992,488.7142109h-7.891909c-.1679451,0-.239872.2155454-.0960183.3114471,1.3672832.8144691,4.4377354,3.3299153,2.3508494,9.1034686v-.0719225s0,.1197579-.0960183.3354242l-1.966895,5.414152c-2.2788082,6.2047627-5.6851463,19.0933375-13.9128268,19.428643-8.2277948-.3353055-11.6340164-13.2238802-13.9128246-19.428643l-1.9670115-5.414152c-.0719269-.2156663-.0959018-.3354242-.0959018-.3354242v.0958996l-3.166354-8.9837085c-.0960161-.2874744-.0960161-.5989215,0-.8863959l3.1903289-8.9837085v.0959018s0-.1198766.0959018-.3354242l1.9670115-5.4141542c2.2788082-6.3005491,5.757071-19.4287106,14.1766671-19.4526675.359863,0,.239872-.6468238-.1198766-.6468238h-15.3761239c-6.7164282,0-12.7133789,4.1923822-15.016184,10.4929315l-8.659513,23.9804476c-.1679131.4312094-.1679131.9102543,0,1.3415802l8.659513,23.9803783c2.3028051,6.300548,8.2997558,10.4928843,15.016184,10.4928843h30.4403434c6.7164293,0,12.7133657-4.1923363,15.0161466-10.4928843l2.9504613-8.1930978c2.9025159-8.0253901-3.0463608-16.4821039-11.5859501-16.4821039v.047952Z"/>
    </g>
  </g>
</svg>