<?xml version="1.0" encoding="UTF-8"?>
<svg id="Layer_1" data-name="Layer 1" xmlns="http://www.w3.org/2000/svg" xmlns:xlink="http://www.w3.org/1999/xlink" viewBox="0 0 800 800">
  <defs>
    <style>
      .cls-1 {
        filter: url(#drop-shadow-4);
      }

      .cls-2 {
        fill: url(#linear-gradient);
        filter: url(#drop-shadow-3);
      }

      .cls-2, .cls-3, .cls-4, .cls-5, .cls-6, .cls-7, .cls-8 {
        stroke-width: 0px;
      }

      .cls-3 {
        fill: #34507d;
      }

      .cls-4 {
        fill: url(#linear-gradient-2);
      }

      .cls-5 {
        fill: #ef5054;
      }

      .cls-6 {
        fill: #ffca35;
      }

      .cls-7 {
        fill: url(#radial-gradient);
      }

      .cls-8 {
        fill: #fff;
      }
    </style>
    <linearGradient id="linear-gradient" x1="68.8638041" y1="208.8184282" x2="731.1361959" y2="591.1815718" gradientUnits="userSpaceOnUse">
      <stop offset=".0055866" stop-color="#59595c"/>
      <stop offset=".2122905" stop-color="#cfd1d2"/>
      <stop offset=".3501516" stop-color="#98999b"/>
      <stop offset=".424581" stop-color="#808083"/>
      <stop offset=".7094972" stop-color="#a6a7aa"/>
      <stop offset=".7411809" stop-color="#959699"/>
      <stop offset=".8036146" stop-color="#7b7b7e"/>
      <stop offset=".8671901" stop-color="#68686b"/>
      <stop offset=".9320178" stop-color="#5c5c5f"/>
      <stop offset="1" stop-color="#59595c"/>
    </linearGradient>
    <filter id="drop-shadow-3" filterUnits="userSpaceOnUse">
      <feOffset dx="6" dy="6"/>
      <feGaussianBlur result="blur" stdDeviation="6"/>
      <feFlood flood-color="#221f1f" flood-opacity=".35"/>
      <feComposite in2="blur" operator="in"/>
      <feComposite in="SourceGraphic"/>
    </filter>
    <filter id="drop-shadow-4" filterUnits="userSpaceOnUse">
      <feOffset dx="3" dy="3"/>
      <feGaussianBlur result="blur-2" stdDeviation="3"/>
      <feFlood flood-color="#221f1f" flood-opacity=".3"/>
      <feComposite in2="blur-2" operator="in"/>
      <feComposite in="SourceGraphic"/>
    </filter>
    <radialGradient id="radial-gradient" cx="409.0673107" cy="68.2686718" fx="409.0673107" fy="68.2686718" r="566.4332722" gradientTransform="translate(33.3585585 239.6047213) scale(.8920819)" gradientUnits="userSpaceOnUse">
      <stop offset=".5346538" stop-color="#fff"/>
      <stop offset=".5720559" stop-color="#f8fafb"/>
      <stop offset=".625162" stop-color="#e5eef3"/>
      <stop offset=".6876724" stop-color="#c7dbe4"/>
      <stop offset=".7573589" stop-color="#9cbfd0"/>
      <stop offset=".8329949" stop-color="#659cb7"/>
      <stop offset=".9124873" stop-color="#247298"/>
      <stop offset=".9162011" stop-color="#217097"/>
    </radialGradient>
    <linearGradient id="linear-gradient-2" x1="251.4944502" y1="86.619266" x2="539.4808095" y2="704.2080065" gradientUnits="userSpaceOnUse">
      <stop offset="0" stop-color="#34bde9"/>
      <stop offset=".2697114" stop-color="#1d7795"/>
      <stop offset=".4888268" stop-color="#0d4255"/>
      <stop offset=".5492936" stop-color="#12495e"/>
      <stop offset=".8478054" stop-color="#2a6d89"/>
      <stop offset="1" stop-color="#347b9a"/>
    </linearGradient>
  </defs>
  <g>
    <path class="cls-2" d="M55.1942575,259.0787131v281.8425737c0,35.5040724,18.9721011,68.3018407,49.7489455,86.0028297l245.593144,141.2503994c30.6239004,17.6130249,68.3034055,17.6130249,98.9273059,0l245.593144-141.2503994c30.7768443-17.700989,49.7489455-50.4987573,49.7489455-86.0028297v-281.8425737c0-35.5040724-18.9721011-68.3018407-49.7489455-86.0028297L449.463653,31.825484c-30.6239004-17.6130249-68.3034055-17.6130249-98.9273059,0L104.943203,173.0758834c-30.7768443,17.700989-49.7489455,50.4987573-49.7489455,86.0028297Z"/>
    <g class="cls-1">
      <path class="cls-7" d="M64.4490935,262.4104166v266.0064518c0,35.5040724,18.9721011,68.3018407,49.7489455,86.0028297l231.8259512,133.3323384c30.6239004,17.6130249,68.3034055,17.6130249,98.9273059,0l231.8259512-133.3323384c30.7768443-17.700989,49.7489455-50.4987573,49.7489455-86.0028297v-266.0064518c0-35.5040724-18.9721011-68.3018407-49.7489455-86.0028297L444.9512961,43.0752484c-30.6239004-17.6130249-68.3034055-17.6130249-98.9273059,0L114.1980389,176.4075869c-30.7768443,17.700989-49.7489455,50.4987573-49.7489455,86.0028297Z"/>
      <path class="cls-4" d="M395.487633,50.864437c13.1273581,0,26.0810469,3.4593621,37.4605455,10.0042576l234.4927944,134.8661351c23.2397359,13.3661534,37.6766225,38.3236506,37.6766225,65.1329178v269.0919239c0,26.8091039-14.4368866,51.7666456-37.6765037,65.1327693l-234.4929132,134.8661128c-11.3796174,6.5449104-24.3333062,10.0042799-37.4605455,10.0042799s-26.0809281-3.4593695-37.4606643-10.0042799l-234.4925568-134.8661128c-23.2398547-13.3661237-37.6767413-38.3236655-37.6767413-65.1327693v-269.0919239c0-26.8092672,14.4368866-51.7667644,37.6765037-65.1329178L358.0272063,60.8686946c11.3792611-6.5448956,24.3330686-10.0042576,37.4604267-10.0042576M395.487633,29.4558687c-16.6167812,0-33.2336811,4.2849039-48.1340819,12.8547079L112.8607567,177.1767117c-29.9495252,17.2252326-48.4116915,49.1412779-48.4116915,83.6910358v269.0919239c0,34.5496243,18.4621663,66.4656398,48.4116915,83.690917l234.4927944,134.8661128c14.9004008,8.5697855,31.5173008,12.8546782,48.1340819,12.8546782s33.2336811-4.2848927,48.1340819-12.8546782l234.4929132-134.8661128c29.9494064-17.2252772,48.4115727-49.1412928,48.4115727-83.690917v-269.0919239c0-34.5497579-18.4621663-66.4658032-48.4115727-83.6910358L443.621715,42.3105767c-14.9004008-8.5698041-31.5173008-12.8547079-48.1340819-12.8547079h0Z"/>
    </g>
  </g>
  <g>
    <path class="cls-3" d="M350.4373748,391.0756742h11.692556c1.3646056,0,2.4708371-1.1062312,2.4708374-2.4708368l.0000067-28.9678245c.0000003-1.0872575-.5619798-2.0952449-1.4837991-2.6717672-4.2296654-2.6453084-8.6030167-6.2372766-13.1003799-10.6459378-.7631757-.7481235-2.0500647-.2096427-2.0500645.8590603l.0000061,41.426469c.0000002,1.3646057,1.1062317,2.470837,2.4708374,2.470837Z"/>
    <path class="cls-3" d="M434.4091342,284.086721h-11.692556c-1.3646056,0-2.4708371,1.1062312-2.4708374,2.4708368l-.0000067,41.0880145c-.0000003,1.0872575.5619798,2.0952449,1.4837991,2.6717672,4.2296654,2.6453084,8.6030167,6.2372766,13.1003799,10.6459378.7631757.7481235,2.0500647.2096427,2.0500645-.8590603l-.0000061-53.546659c-.0000002-1.3646057-1.1062317-2.470837-2.4708374-2.470837Z"/>
    <g>
      <g>
        <path class="cls-3" d="M210.6511466,292.3066885c23.9533487,0,37.1256562,17.0279995,41.5106,28.7737969.3788501,1.0148126-.3717029,2.0956193-1.4549259,2.0956193h-12.0218495c-1.7645766,0-3.4228046-.8335671-4.4842688-2.2431856-3.1725559-4.2131368-11.1938296-12.8170572-23.3225749-11.9998722-16.0021606,1.0781598-26.5116796,9.6663757-27.959824,25.4700378-.0629628,16.7481041,0,20.6517975,0,20.6517975,0,0,4.4703586,23.4221606,27.955482,22.5406814,23.9888258-.314814,27.1369656-21.6592023,27.1369656-21.4073511,0,.2039269-17.8744643.0776097-24.6770573.0221523-1.4318363-.0116729-2.5858339-1.175691-2.5858339-2.6075749v-11.8068676c0-1.4401737,1.1674915-2.6076652,2.6076652-2.6076652h37.8710443c2.159468,0,3.9100627,1.7505947,3.9100627,3.9100627v9.9417528c0,11.6481175-11.0184895,40.7998927-44.1998837,41.1147067-33.1813942.314814-44.5776605-29.7184403-44.5776605-40.6739671v-20.1480951c0-8.3110892,10.2586431-41.0260286,44.2920587-41.0260286Z"/>
        <path class="cls-3" d="M267.703259,295.3141657h66.5947419c1.3646058,0,2.4708374,1.1062316,2.4708374,2.4708374v11.7851242c0,1.3646058-1.1062316,2.4708374-2.4708374,2.4708374h-49.9681138c-1.3646058,0-2.4708374,1.1062316-2.4708374,2.4708374v17.7620644c0,1.3646058,1.1062316,2.4708374,2.4708374,2.4708374h33.4346321c1.3646058,0,2.4708374,1.1062316,2.4708374,2.4708374v11.8486494c0,1.3646058-1.1062316,2.4708374-2.4708374,2.4708374h-33.4346321c-1.3646058,0-2.4708374,1.1062316-2.4708374,2.4708374v18.0189069c0,1.3646058,1.1062316,2.4708374,2.4708374,2.4708374h49.9681138c1.3646058,0,2.4708374,1.1062316,2.4708374,2.4708374v11.6383801c0,1.3646058-1.1062316,2.4708374-2.4708374,2.4708374h-66.5947419c-1.3646058,0-2.4708374-1.1062316-2.4708374-2.4708374v-90.8198241c0-1.3646058,1.1062316-2.4708374,2.4708374-2.4708374Z"/>
        <path class="cls-3" d="M436.9007371,384.1291944v4.4759067c0,1.3642544-1.1066561,2.4708374-2.4708374,2.4708374h-11.7215248c-1.364949,0-2.4708374-1.106583-2.4708374-2.4708374v-2.9342656c0-5.7241212-1.7804843-11.3194799-5.1550726-15.9429408-1.3903944-1.9047501-3.0091761-3.6642858-4.8323619-5.2943277-4.6818464-3.7975817-10.6215956-7.6535855-17.8072195-11.5680114l-17.8080238-9.6706464c-13.2099718-7.0112351-22.3857853-16.7328454-25.5993656-30.4609385-.7098027-3.0323913-1.0504642-6.1389254-1.0504642-9.2529175v-16.9237591c0-1.3641813,1.1066196-2.4708374,2.4708374-2.4708374h11.7214882c1.3642178,0,2.4708374,1.1066561,2.4708374,2.4708374v15.382118c0,5.7240481,1.7805209,11.3194068,5.1550726,15.9428677,1.3903944,1.9047501,3.0091761,3.6642858,4.8315941,5.2943277,4.681883,3.7975817,10.6223633,7.6535855,17.8080238,11.5680114l17.8072195,9.6707195c13.2107761,7.0104308,22.3865531,16.7327723,25.6001333,30.4609385.7098027,3.031587,1.0505007,6.1388522,1.0505007,9.2529175Z"/>
      </g>
      <g>
        <path class="cls-5" d="M332.9862749,429.3297543c-4.3815832-8.8336166-10.9742486-15.3880407-19.8939628-19.5435399-12.138559-5.6552431-26.1519441-5.634258-38.3751019-.1662361-9.7950035,4.3816198-16.8039354,11.5343036-21.0725132,21.4101584-2.6175872,6.0558256-3.9196356,12.5982948-3.9196356,19.1954204v12.419336c0,8.2571098,2.1563708,16.3876506,6.3530361,23.4976695,4.9806107,8.4375309,11.9371527,14.1107248,20.5191851,17.5084918,10.8612066,4.300019,22.9668072,4.3486797,33.8781734.1767286,9.0724598-3.4681806,16.133818-9.2739027,21.0964779-17.5190209,4.2595476-7.0778099,6.4511069-15.2068518,6.4511069-23.4669595v-11.7754135c0-7.5345478-1.6883909-14.986727-5.0367661-21.7366348ZM321.425027,464.3048407c0,4.377123-1.0182918,8.7040863-3.0421527,12.5855355-2.8676542,5.5009986-7.2702226,9.3217956-13.0624908,11.6189388-6.635312,2.6303099-13.9894204,2.7448874-20.7744801.529345-7.0239212-2.2933776-12.4343071-6.3852267-15.6074525-12.9711286-1.6996513-3.5280651-2.5449801-7.4057852-2.5449801-11.3216735v-16.34122c0-5.4897383,1.6000632-10.876196,4.6841131-15.4180195,3.3865432-4.9858752,8.06541-8.32299,13.9714697-10.0952484,5.372949-1.6120181,11.0933046-1.6704402,16.5254068-.2710521,7.6782998,1.9781615,13.2436796,6.2789117,16.699101,12.8955235,2.097967,4.017743,3.1514656,8.4989509,3.1514656,13.0310496v15.7579497Z"/>
        <path class="cls-5" d="M449.8958585,407.8515116h66.5947419c1.3646058,0,2.4708374,1.1062316,2.4708374,2.4708374v11.7851242c0,1.3646058-1.1062316,2.4708374-2.4708374,2.4708374h-49.9681138c-1.3646058,0-2.4708374,1.1062316-2.4708374,2.4708374v17.7620644c0,1.3646058,1.1062316,2.4708374,2.4708374,2.4708374h33.4346321c1.3646058,0,2.4708374,1.1062316,2.4708374,2.4708374v11.8486494c0,1.3646058-1.1062316,2.4708374-2.4708374,2.4708374h-33.4346321c-1.3646058,0-2.4708374,1.1062316-2.4708374,2.4708374v18.0189069c0,1.3646058,1.1062316,2.4708374,2.4708374,2.4708374h49.9681138c1.3646058,0,2.4708374,1.1062316,2.4708374,2.4708374v11.6383801c0,1.3646058-1.1062316,2.4708374-2.4708374,2.4708374h-66.5947419c-1.3646058,0-2.4708374-1.1062316-2.4708374-2.4708374v-90.8198241c0-1.3646058,1.1062316-2.4708374,2.4708374-2.4708374Z"/>
        <path class="cls-5" d="M436.9179566,410.3230541l-.0172195,46.2997213c-.3219795,8.9114883-2.5038141,16.5913236-6.6967502,22.9376144-4.4482312,6.300628-10.8858842,11.8772317-18.7746205,16.9244903-.5405688.3451583-.5353408,1.1365984.0089936,1.4765286,7.8954632,4.9296833,13.7378544,9.7582795,18.2257892,14.5210321,1.0400082,1.1028905.2531014,2.9163149-1.263862,2.9163149h-21.1683173c-6.9378236-5.8004575-11.8854941-8.6980905-14.7890864-8.6127241-2.9036288-.0853664-7.8520305,2.8122666-14.7890864,8.6127241h-21.1690851c-1.5161957,0-2.303139-1.8134244-1.2631308-2.9163149,4.4879348-4.7627526,10.3303626-9.5913488,18.2257892-14.5210321.5436032-.3399303.549599-1.1313704.0089936-1.4765286-7.8894674-5.0472586-14.3271205-10.6238623-18.7746205-16.9244903-4.1937039-6.3462909-6.3747707-14.0261261-6.6967137-22.9376144l-.0172195-46.2997213c-.0007677-1.3649856,1.1058884-2.4716051,2.4708374-2.4716051h11.691546c1.3641813,0,2.4708374,1.1066196,2.4708374,2.4708374v46.9908421c.1549757,4.829364,1.8882983,9.2970814,4.762716,13.5042392,2.2597063,3.3071726,5.0861945,6.1898162,8.3109985,8.5655623,6.2744514,4.6234609,11.68109,8.0474776,14.7681378,8.2705637,3.0870478-.2230861,8.4929186-3.6471028,14.7681012-8.2705637,3.2248406-2.3757461,6.0513288-5.2583898,8.3109985-8.5655623,2.87365-4.2071578,4.6070091-8.6748752,4.7627526-13.5042392v-46.9908421c0-1.3642178,1.1066196-2.4708374,2.4708374-2.4708374h11.691546c1.364949,0,2.4715686,1.1066196,2.4708374,2.4716051Z"/>
        <path class="cls-5" d="M191.6597247,484.3570696v-74.0347101c0-1.3646058-1.1062316-2.4708374-2.4708374-2.4708374h-12.4497352c-1.3646058,0-2.4708374,1.1062316-2.4708374,2.4708374v91.4261384c0,1.3646058,1.1062316,2.4708374,2.4708374,2.4708374h64.8697182c1.3646058,0,2.4708374-1.1062316,2.4708374-2.4708374v-12.4497535c0-1.3646058-1.1062316-2.4708374-2.4708374-2.4708374h-47.4783082c-1.3646058,0-2.4708374-1.1062316-2.4708374-2.4708374Z"/>
      </g>
    </g>
    <path class="cls-6" d="M514.3313275,380.1966908l-12.4103397,9.7066586c-1.2952149,1.0130431-3.1885766.0902123-3.1885766-1.5541228v-7.6701581c0-1.4121436-1.1447686-2.5569122-2.5569122-2.5569122h-3.0111754c-17.9615017,0-31.5090172-16.3123806-28.2110173-33.9685053l5.0064173-26.8022835c3.3101713-17.7212853,17.8685652-31.1630902,35.7971638-33.0516189l84.7828939-8.9306998c19.4780519-2.0517421,36.322132,13.4854109,35.8467994,33.0654571l-1.0361522,42.6814986c-.4384142,18.0592915-15.7310607,32.1748398-33.7676193,31.1684742l-71.2370284-3.9747322c-2.1672744-.120925-4.3046727.5496516-6.0144532,1.8869442Z"/>
    <path class="cls-8" d="M540.5386607,334.7834536c.5277566-12.5037724,2.5158496-28.4484529,10.1279073-29.6741233,7.6120577-1.2256703,9.5473266,3.0319213,9.2247818,15.4176423-.3225448,12.385721-.7741076,23.2232269-1.0321434,28.383944-.2580359,5.1607171-3.547993,10.9665238-9.1602728,10.7729969-5.6122798-.1935269-9.9988894-5.0316992-9.1602728-24.90046Z"/>
    <path class="cls-8" d="M579.824444,304.2060208c-8.0631616-.2575617-10.9016414,3.3543709-11.8046245,13.1598487,0,0-1.9354966,21.8683952-2.4513512,30.125505-.5166589,8.257841,0,13.2249612,14.4498873,12.1969445,14.4499239-1.0272855,23.932691-14.8415127,23.8683097-31.807169s-15.9983285-23.4167998-24.0622213-23.6751293ZM588.3398467,333.4929606c-1.5484046,6.1928141-4.3868478,9.9350081-6.1284328,9.8698591-1.7415484-.0643813-1.9354966-.5802724-.774184-19.9329352.2702844-4.5081522,1.8710788-6.2571954,3.9353745-3.9353379,2.0642592,2.3225521,4.5156469,7.8055999,2.9672423,13.998414Z"/>
    <path class="cls-8" d="M494.7150163,333.1495711c0-10.3557638,1.7724043-28.3789227,7.8853625-29.5636045,6.1129582-1.1846818,10.0461019,1.8481036,9.5722291,6.0655709s-1.2794564,12.6524019-1.0899073,13.3158237,1.2794564.5686473,1.6585546-.3317109,4.3596291-17.8650019,8.9088073-19.5709437c4.5491782-1.7059418,13.8370837.5686473,12.4154655,8.4823219-1.4216182,7.9136746-9.714391,17.8176146-9.38268,19.1918455s8.1506109,9.7617782,10.4725873,14.7374419c2.3219764,4.9756637.4738727,8.6718709-3.12756,11.2307837-3.6014327,2.5589127-10.235651-1.9902655-12.320691-5.4969237-2.08504-3.5066582-4.3122418-12.1785291-5.4495364-12.4154655s-1.7533291.0947745-1.7533291,2.2272018,1.56378,16.0642855-1.6111673,17.5806783c-3.1749473,1.5163927-8.5297091,1.8007164-12.2259164-1.8007164-3.6962073-3.6014327-3.9522188-15.8394568-3.9522188-23.652303Z"/>
  </g>
</svg>