<?xml version="1.0" encoding="UTF-8"?>
<svg id="Layer_1" data-name="Layer 1" xmlns="http://www.w3.org/2000/svg" xmlns:xlink="http://www.w3.org/1999/xlink" viewBox="0 0 702 272">
  <defs>
    <style>
      .cls-1 {
        fill: url(#linear-gradient);
      }

      .cls-1, .cls-2, .cls-3 {
        stroke-width: 0px;
      }

      .cls-4 {
        filter: url(#drop-shadow-4);
      }

      .cls-5 {
        filter: url(#drop-shadow-5);
      }

      .cls-2 {
        fill: url(#radial-gradient);
      }

      .cls-3 {
        fill: #fff;
      }
    </style>
    <filter id="drop-shadow-4" filterUnits="userSpaceOnUse">
      <feOffset dx="6.9987402" dy="7"/>
      <feGaussianBlur result="blur" stdDeviation="5.000315"/>
      <feFlood flood-color="#221f1f" flood-opacity=".2"/>
      <feComposite in2="blur" operator="in"/>
      <feComposite in="SourceGraphic"/>
    </filter>
    <radialGradient id="radial-gradient" cx="351.00003" cy="130.4529032" fx="499.978665" fy="48.9694627" r="424.6421521" gradientTransform="translate(0 67.4709012) scale(1 .4827949)" gradientUnits="userSpaceOnUse">
      <stop offset="0" stop-color="#347b9a"/>
      <stop offset=".2237144" stop-color="#2e7390"/>
      <stop offset=".592439" stop-color="#1d5e77"/>
      <stop offset=".9887365" stop-color="#084356"/>
    </radialGradient>
    <linearGradient id="linear-gradient" x1="700.9999401" y1="136.0000445" x2="1" y2="136.0000445" gradientUnits="userSpaceOnUse">
      <stop offset=".0055866" stop-color="#59595c"/>
      <stop offset=".2122905" stop-color="#cfd1d2"/>
      <stop offset=".3501516" stop-color="#98999b"/>
      <stop offset=".424581" stop-color="#808083"/>
      <stop offset=".7094972" stop-color="#a6a7aa"/>
      <stop offset=".7411809" stop-color="#959699"/>
      <stop offset=".8036146" stop-color="#7b7b7e"/>
      <stop offset=".8671901" stop-color="#68686b"/>
      <stop offset=".9320178" stop-color="#5c5c5f"/>
      <stop offset="1" stop-color="#59595c"/>
    </linearGradient>
    <filter id="drop-shadow-5" filterUnits="userSpaceOnUse">
      <feOffset dx="2.8346457" dy="2.8346457"/>
      <feGaussianBlur result="blur-2" stdDeviation="1.4173228"/>
      <feFlood flood-color="#221f1f" flood-opacity=".5"/>
      <feComposite in2="blur-2" operator="in"/>
      <feComposite in="SourceGraphic"/>
    </filter>
  </defs>
  <g class="cls-4">
    <path class="cls-2" d="M2.7853779,123.1905986L28.0717123,34.2945026C33.7930346,14.1807445,52.1659024.3051801,73.077545.3051801h488.5273426c13.5364218,0,26.409524,5.8621446,35.2960846,16.0731072l104.0990278,119.6133504-104.0988771,119.6279206c-8.8865916,10.2122569-21.7605408,16.0752616-35.2979594,16.0752616H73.0787365c-20.9122052,0-39.285424-13.8762973-45.0062478-33.9907822L2.7849627,148.792795c-2.3800114-8.3681486-2.3798677-17.2341251.0004152-25.6021965Z"/>
    <path class="cls-1" d="M561.6049325,12.9053284c9.8950187,0,19.2954573,4.2806637,25.7913064,11.7448232l96.900773,111.3420315-96.900773,111.3563869c-6.4961908,7.4648431-15.8973131,11.7461904-25.7930154,11.7461904H73.0788024c-15.2041491,0-28.7276831-10.2135733-32.8870089-24.8376932l-25.2874978-88.9112717c-1.7404295-6.1195307-1.7404295-12.5887196.0003418-18.7079086l25.2861306-88.8958908c4.1596676-14.6234362,17.6832016-24.8366678,32.8866671-24.8366678h488.5274972M561.6049325.3053295H73.0774352C52.1659624.3053295,33.7930148,14.1809143,28.0716774,34.2946332L2.7855467,123.1905241c-2.380615,8.3682122-2.380615,17.2340806-.0006836,25.6022927l25.2874978,88.9112717c5.7209956,20.1144026,24.094285,33.9906709,45.0064415,33.9906709h488.5244211c13.5372059,0,26.4113259-5.8628413,35.2980439-16.0750475l104.0986727-119.6282124-104.0990145-119.6131733c-8.8863762-10.210839-21.7594708-16.0729967-35.2959931-16.0729967h0Z"/>
  </g>
  <g class="cls-5">
    <path class="cls-3" d="M106.7621972,115.5828241c-.0904337.4069519-.2999386.7400495-.6277609.9992929-.3278223.2607506-.6835284.3903723-1.0678718.3903723h-3.5269162c-.3843434,0-.684282-.1356506-.8990622-.4069519s-.2765765-.59837-.1861428-.9827134l4.8834224-23.0606059h-23.7727717l-4.8834224,23.0606059c-.0904337.4069519-.2999386.7400495-.6270073.9992929-.328576.2607506-.684282.3903723-1.0686255.3903723h-3.5269162c-.3843434,0-.684282-.1356506-.8983086-.4069519-.2155338-.2713012-.2773302-.59837-.1868964-.9827134l10.3772727-48.8342243c.0678253-.3406338.2652723-.6556447.5938483-.9495544.3270687-.2939097.6835284-.4416181,1.0678718-.4416181h3.5269162c.3843434,0,.6835284.1356506.8990622.4069519.2140265.2713012.2878808.5998772.2200555.9842206l-4.3069073,20.1426103h23.7727717l4.3069073-20.1426103c.0678253-.3406338.2652723-.6556447.5930947-.9495544s.684282-.4416181,1.0686255-.4416181h3.5269162c.3843434,0,.6835284.1356506.8983086.4069519s.2886344.5998772.2208091.9842206l-10.3772727,48.8342243Z"/>
    <path class="cls-3" d="M123.4200938,115.5828241c-.0904337.4069519-.2999386.7400495-.6270073.9992929-.328576.2607506-.684282.3903723-1.0686255.3903723h-3.3234403c-.3391266,0-.6270073-.1356506-.8651495-.4069519-.236635-.2713012-.3104892-.59837-.2200555-.9827134l7.5286096-35.4048126c.0678253-.3843434.2652723-.7129194.5938483-.9842206.3270687-.2713012.6835284-.4069519,1.0678718-.4069519h3.3234403c.4295603,0,.7460784.1251.9495544.3722856.2034759.2502.259997.5893266.1695633,1.0188869l-7.5286096,35.4048126ZM132.94955,71.2582294c-.0678253.4069519-.2660259.7400495-.5930947,1.0008002-.328576.2592434-.684282.3888651-1.0686255.3888651h-3.5269162c-.3843434,0-.684282-.1356506-.8983086-.4069519-.2155338-.2713012-.2886344-.59837-.2208091-.9827134l1.186943-5.5285165c.0904337-.3828362.2939097-.7114122.6104278-.9827134s.6782531-.4069519,1.085205-.4069519h3.5269162c.4295603,0,.7400495.1251.9329748.3737928.1914181.2486928.2426639.5878194.1522301,1.0158724l-1.186943,5.5285165Z"/>
    <path class="cls-3" d="M148.9291934,112.122226c1.5373737,0,3.0800228-.1462012,4.6294543-.4401109,1.5479243-.2939097,3.0800228-.684282,4.5947881-1.1696098,1.5147653-.486835,2.7356209-.8983086,3.6625668-1.2389424.5426025-.2245771.9382501-.2426639,1.186943-.0497386.2486928.1914181.3278223.5034145.2373886.9329748l-.6104278,2.8486631c-.1130422.47327-.5199941.8922797-1.2208556,1.2540146-4.4764706,2.1251931-9.0094622,3.1877896-13.598975,3.1877896-2.89388,0-5.4147207-.5139651-7.5625222-1.5434026-2.1478015-1.0279303-3.6799-2.7808378-4.5947881-5.255708-.9163953-2.4763775-.9442791-5.7591226-.0851584-9.8512497l1.3565062-6.2745949c1.0625965-5.0190731,3.255615-8.9815785,6.5790552-11.886009,3.3234403-2.9059378,7.4268716-4.3573995,12.3102941-4.3573995,3.2782234,0,5.9234105.6601664,7.9355615,1.9835136,2.0121509,1.32184,3.3287156,3.216427,3.9504476,5.6792394.621732,2.4658269.5938483,5.3250406-.0844048,8.5806555l-.8139037,3.7635512c-.2034759,1.0188869-.7460784,1.5268231-1.6278075,1.5268231h-23.2640819l-.2373886.9842206c-.8365122,4.0243018-.66092,6.9181818.5252694,8.6816399,1.1876966,1.7634581,3.4312072,2.6436799,6.732039,2.6436799ZM161.3073128,95.1658981l.1356506-.6435868c.5426025-2.5547534.6496158-4.6467875.322547-6.2745949-.328576-1.6278075-1.0799297-2.801939-2.2555684-3.5269162-1.1756387-.7219628-2.792142-1.085205-4.8495098-1.085205-6.2173202,0-10.0946672,3.6294078-11.6320409,10.8867161l-.1356506.6435868h18.4145721ZM168.2594072,74.2425431c-.0678253.3165181-.3165181.4747772-.7460784.4747772h-3.5947415c-.3391266,0-.5765151-.0617964-.7121658-.1868964-.1356506-.1235928-.3504308-.4114736-.6443405-.8636423l-4.2729946-6.7162131-7.189483,6.7162131c-.4973856.4295603-.8478164.7114122-1.0512923.8470628s-.463473.2034759-.7799911.2034759h-3.6286542c-.4069519,0-.5765151-.1582591-.5086898-.4747772.0678253-.2939097.2034759-.5305447.4069519-.7114122l8.5120766-8.6153218c.4747772-.4506615.8139037-.7340206,1.0173797-.8470628s.4973856-.1688097.8817291-.1688097h5.9008021c.5878194,0,1.085205.3376193,1.4921569,1.0158724l4.7816845,8.6153218c.1582591.1808675.2034759.4175025.1356506.7114122ZM171.5150222,52.5716024c-.9495544,0-1.7920955.0738542-2.5268697.2215627-.7347742.1462012-1.6556912.3903723-2.7635046.7279917-1.3791147.4310675-1.9556298.091941-1.7295454-1.0158724l.3052139-1.3911725c.0678253-.3165181.2260844-.5652109.4747772-.7460784s.4973856-.3165181.7460784-.4069519c.6556447-.2713012,1.5373737-.5305447,2.6451872-.7807447,1.1078134-.2471856,2.2156268-.3722856,3.3234403-.3722856,2.0347593,0,3.5887126.4069519,4.6626134,1.2208556,1.0739008.8139037,1.4190562,2.1025847,1.0347128,3.8660428l-.0678253.3391266c-.1130422.5199941-.2999386,1.0294375-.5599356,1.5268231s-.6556447,1.0399881-1.1861893,1.6278075c-.5320519.5878194-1.2607972,1.3112894-2.1877431,2.17041l-1.5938948,1.4574906c-.6556447.6104278-1.0512923.9887423-1.186943,1.1364508-.1356506.1462012-.2713012.3391266-.4069519.5757615-.1356506.2381422-.2373886.526023-.3052139.8651495l-.3052139,1.4243315c-.0678253.3165181-.2773302.6104278-.6277609.8817291s-.7626579.4069519-1.2374351.4069519h-1.2547683c-.4747772,0-.825208-.1416795-1.0512923-.4235314-.2260844-.2833591-.3052139-.5712398-.2373886-.8651495l.3052139-1.4243315c.1356506-.6782531.3165181-1.2600436.5426025-1.7468786.2260844-.4853278.5426025-.9661339.9495544-1.4409111s.9269459-.9947712,1.5599822-1.5599822l1.6617201-1.4574906c.8139037-.7475857,1.3617815-1.3293761,1.6451406-1.7468786.2818519-.4190097.4800525-.887758.5930947-1.407752l.0678253-.3391266c.0904337-.8817291-.3391266-1.3233472-1.2886809-1.3233472Z"/>
    <path class="cls-3" d="M174.3026425,102.9326499l4.8495098-22.7546384c.0678253-.3843434.259997-.7129194.5765151-.9842206s.6782531-.4069519,1.085205-.4069519h3.3234403c.3843434,0,.6835284.1356506.8990622.4069519.2140265.2713012.2878808.5998772.2200555.9842206l-4.8495098,22.7546384c-.72347,3.413874-.6051525,5.8224262.3564597,7.2241493.960105,1.4017231,2.8652426,2.1010774,5.7139057,2.1010774,1.0625965,0,2.5208407-.1235928,4.3747326-.3722856s3.4703951-.5426025,4.8495098-.8817291l6.5790552-30.8258505c.0678253-.361735.259997-.684282.5765151-.9676411.3165181-.2818519.6782531-.4235314,1.085205-.4235314h3.3912656c.3843434,0,.6722242.1356506.8643959.4069519s.2547217.5998772.1868964.9842206l-7.1216577,33.4710376c-.1808675.8591206-.72347,1.4137809-1.6278075,1.6624737-5.8555852,1.4228243-10.7955288,2.1357437-14.8198306,2.1357437-3.413874,0-6.008569-.5652109-7.7825777-1.6956328-1.7755159-1.1304219-2.8433878-2.7522004-3.2051228-4.8668429-.361735-2.1131353-.2034759-4.7643513.4747772-7.952141Z"/>
    <path class="cls-3" d="M266.4568933,79.9398693c-.0452169.2034759-.101738.3737928-.1695633.5094435l-16.4137254,33.0640858c-.7008616,1.44694-1.6391117,2.4643197-2.8147504,3.052139s-2.5999703.8817291-4.2729946.8817291c-1.6278075,0-2.8991553-.2878808-3.8155506-.8651495-.9148881-.5757615-1.4522153-1.5991701-1.6104743-3.0687185l-2.3060606-33.0640858c-.0226084-.1356506-.0113042-.3059675.0339127-.5094435.0678253-.361735.2200555-.6450941.4581977-.8470628.236635-.2049832.5252694-.3059675.8643959-.3059675h3.8321301c.6104278,0,.9608586.4416181,1.0512923,1.32184l1.5260695,30.250089c.0678253.8606278.1748386,1.4137809.322547,1.6624737.1462012.2486928.3783145.3722856.6948326.3722856s.621732-.1356506.9156417-.4069519.621732-.8139037.983467-1.6278075l14.4467914-30.250089c.4521687-.8802218.983467-1.32184,1.5938948-1.32184h3.7982174c.3843434,0,.6443405.1009844.7799911.3059675.1356506.2019687.1695633.4853278.101738.8470628Z"/>
    <path class="cls-3" d="M282.1313228,112.122226c1.5373737,0,3.0800228-.1462012,4.6294543-.4401109,1.5479243-.2939097,3.0800228-.684282,4.5947881-1.1696098,1.5147653-.486835,2.7356209-.8983086,3.6625668-1.2389424.5426025-.2245771.9382501-.2426639,1.186943-.0497386.2486928.1914181.3278223.5034145.2373886.9329748l-.6104278,2.8486631c-.1130422.47327-.5199941.8922797-1.2208556,1.2540146-4.4764706,2.1251931-9.0094622,3.1877896-13.598975,3.1877896-2.89388,0-5.4147207-.5139651-7.5625222-1.5434026-2.1478015-1.0279303-3.6799-2.7808378-4.5947881-5.255708-.9163953-2.4763775-.9442791-5.7591226-.0851584-9.8512497l1.3565062-6.2745949c1.0625965-5.0190731,3.255615-8.9815785,6.5790552-11.886009,3.3234403-2.9059378,7.4268716-4.3573995,12.3102941-4.3573995,3.2782234,0,5.9234105.6601664,7.9355615,1.9835136,2.0121509,1.32184,3.3287156,3.216427,3.9504476,5.6792394.621732,2.4658269.5938483,5.3250406-.0844048,8.5806555l-.8139037,3.7635512c-.2034759,1.0188869-.7460784,1.5268231-1.6278075,1.5268231h-23.2640819l-.2373886.9842206c-.8365122,4.0243018-.66092,6.9181818.5252694,8.6816399,1.1876966,1.7634581,3.4312072,2.6436799,6.732039,2.6436799ZM294.5094422,95.1658981l.1356506-.6435868c.5426025-2.5547534.6496158-4.6467875.322547-6.2745949-.328576-1.6278075-1.0799297-2.801939-2.2555684-3.5269162-1.1756387-.7219628-2.792142-1.085205-4.8495098-1.085205-6.2173202,0-10.0946672,3.6294078-11.6320409,10.8867161l-.1356506.6435868h18.4145721ZM301.4615366,74.2425431c-.0678253.3165181-.3165181.4747772-.7460784.4747772h-3.5947415c-.3391266,0-.5765151-.0617964-.7121658-.1868964-.1356506-.1235928-.3504308-.4114736-.6443405-.8636423l-4.2729946-6.7162131-7.189483,6.7162131c-.4973856.4295603-.8478164.7114122-1.0512923.8470628s-.463473.2034759-.7799911.2034759h-3.6286542c-.4069519,0-.5765151-.1582591-.5086898-.4747772.0678253-.2939097.2034759-.5305447.4069519-.7114122l8.5120766-8.6153218c.4747772-.4506615.8139037-.7340206,1.0173797-.8470628s.4973856-.1688097.8817291-.1688097h5.9008021c.5878194,0,1.085205.3376193,1.4921569,1.0158724l4.7816845,8.6153218c.1582591.1808675.2034759.4175025.1356506.7114122ZM304.9545402,66.407966c-.0678253.3180253-.3052139.4762844-.7121658.4762844h-3.7643048c-.2260844,0-.4129808-.0346663-.559182-.1024916-.1477085-.0678253-.2713012-.1688097-.3737928-.3044603-.1009844-.1356506-.2426639-.3511844-.4235314-.6450941l-6.0025401-8.7494652c-.1356506-.1808675-.1808675-.361735-.1356506-.5426025.0678253-.3165181.3504308-.4747772.8478164-.4747772h4.5782085c.5878194,0,1.085205.3391266,1.4921569,1.0173797l4.9173351,8.6138146c.1582591.1808675.2034759.4190097.1356506.7114122Z"/>
    <path class="cls-3" d="M350.9197538,116.0560941c-.1356506.611935-.463473.9163953-.983467.9163953h-4.9851604c-.3391266,0-.5938483-.0557675-.7626579-.1688097-.1703169-.1130422-.3903723-.361735-.6616736-.7475857l-10.1737967-17.0573122-3.5269162,16.5840423c-.0904337.3843434-.3112428.7114122-.6616736.9827134s-.6948326.4069519-1.0339592.4069519h-3.3234403c-.3843434,0-.684282-.1356506-.8983086-.4069519-.2155338-.2713012-.2773302-.59837-.1868964-.9827134l10.5129233-49.4461594c.0678253-.3828362.259997-.7114122.5765151-.9827134s.6782531-.4069519,1.085205-.4069519h3.3234403c.3843434,0,.6835284.1356506.8990622.4069519.2140265.2713012.2878808.5998772.2200555.9827134l-6.1721034,28.8935827,17.1937165-15.6329807c.4747772-.4069519.983467-.6104278,1.5260695-.6104278h4.8834224c.7008616,0,1.0060755.2486928.9156417.7460784-.0678253.2713012-.2486928.5320519-.5426025.7807447l-18.7876113,16.5147098,11.428565,18.6188016c.1356506.1582591.1808675.361735.1356506.6089206Z"/>
    <path class="cls-3" d="M387.7556806,115.5828241c-.0904337.3843434-.3112428.7114122-.6616736.9827134-.3504308.2713012-.6948326.4069519-1.0339592.4069519h-3.3234403c-.3843434,0-.684282-.1356506-.8983086-.4069519-.2155338-.2713012-.2773302-.59837-.1868964-.9827134l4.8495098-22.8586372c.7008616-3.3445415.5599356-5.6973262-.424285-7.0538324-.9827134-1.3565062-2.6843751-2.0347593-5.1034779-2.0347593-1.2660725,0-2.8712715.164288-4.8155971.4928639-1.9443256.3270687-3.6625668.8078748-5.1547237,1.4409111l-6.3755793,30.013454c-.0904337.361735-.3052139.6827748-.6443405.9661339-.3391266.2818519-.6895573.4235314-1.0512923.4235314h-3.3912656c-.3391266,0-.6164567-.1356506-.8304833-.4069519-.2155338-.2713012-.2773302-.59837-.1868964-.9827134l10.5129233-49.4461594c.0678253-.4069519.2547217-.7400495.559182-.9992929.3059675-.2607506.6503694-.3903723,1.0347128-.3903723h3.4590909c.4069519,0,.7008616.1296217.8817291.3903723.1808675.2592434.2373886.5923411.1695633.9992929l-3.052139,14.312648c1.7634581-.72347,3.6339295-1.2660725,5.6129213-1.6278075,1.9774846-.361735,3.7921885-.5426025,5.4426044-.5426025,2.5095365,0,4.600817.5019073,6.2738413,1.5087364,1.6730244,1.0053218,2.792142,2.5999703,3.3573529,4.7809309.5652109,2.1824678.5086898,4.900002-.1695633,8.1556169l-4.8495098,22.8586372Z"/>
    <path class="cls-3" d="M424.2185681,114.3273022c-.1808675.8591206-.6330362,1.3685641-1.3565062,1.5268231-1.9217172.5199941-3.8321301.9148881-5.7312388,1.1861893s-4.0129976.4069519-6.3416666.4069519c-5.4034165,0-9.0946207-.9103664-11.0728589-2.729592-1.9782383-1.8207328-2.5374203-4.7311923-1.6782997-8.7328857l.101738-.6104278c.5652109-2.5999703,1.5712864-4.7251634,3.0182264-6.3755793,1.44694-1.6504159,3.4816993-2.8773004,6.104278-3.6791463,2.6225787-.8033531,5.9573232-1.2042761,10.0042335-1.2042761h5.1547237l.5765151-2.7808378c.6330362-2.89388.5139651-4.900002-.3564597-6.0198732-.8704248-1.118364-2.6730709-1.6790533-5.4086918-1.6790533-2.1025847,0-3.939897.1416795-5.5111834.4250386-1.5712864.2818519-3.3965409.7174411-5.4765171,1.3052604-.5199941.1582591-.9103664.1477085-1.1703634-.033159s-.3557061-.4642266-.2878808-.84857l.5765151-2.7130125c.1356506-.5652109.5539067-.9842206,1.2547683-1.2555219,1.1756387-.47327,2.8599673-.9661339,5.0529857-1.4740701,2.1930184-.5094435,4.4199495-.7626579,6.6807932-.7626579,9.0207664,0,12.6042037,4.3513705,10.7503119,13.0556189l-4.8834224,22.9927806ZM418.6229799,112.0559079l2.8486631-13.4987442h-5.1547237c-2.1930184,0-3.9677807.1190711-5.324287.3572133-1.3565062.236635-2.4816528.6270073-3.3739324,1.1696098-.8937869.5426025-1.5946484,1.2268845-2.1025847,2.0513389-.5094435.8259616-.8990622,1.8825292-1.1703634,3.1712101l-.1356506.6104278c-.3391266,1.6278075-.361735,2.9330679-.0678253,3.9172886.2939097.9827134,1.0565676,1.7016617,2.2887275,2.1523232,1.2321598.453676,3.0242553.6782531,5.3755327.6782531.9269459,0,1.8252545-.0271301,2.6956793-.0844048.8704248-.0557675,1.6624737-.1296217,2.3738859-.2200555.7129194-.0904337,1.2947098-.1914181,1.7468786-.3044603ZM422.7603239,61.0844326c-.9495544,0-1.7920955.0738542-2.526116.2200555-.7355278.1477085-1.6564448.3903723-2.7642583.7294989-1.3791147.4295603-1.9556298.0904337-1.7295454-1.0173797l.3052139-1.3911725c.0678253-.3150109.2313597-.5637037.4913567-.7445712s.5034145-.3165181.7294989-.4069519c.6556447-.2713012,1.5434026-.5320519,2.6617667-.7807447,1.1198713-.2486928,2.23296-.3737928,3.3407734-.3737928,2.0347593,0,3.5834373.4069519,4.6460338,1.2208556,1.0625965.8139037,1.4130273,2.1040919,1.0512923,3.86755l-.0678253.3376193c-.1130422.5215013-.3052139,1.0294375-.5765151,1.5268231s-.6729778,1.0399881-1.2042761,1.6278075-1.2600436,1.3112894-2.1869895,2.17041l-1.5938948,1.4574906c-.6556447.611935-1.046017.9902495-1.1703634,1.1364508-.1243464.1477085-.259997.3391266-.4069519.5772688-.1469548.236635-.2539681.526023-.3217934.8636423l-.3052139,1.4258388c-.0678253.3165181-.2773302.6089206-.6270073.8802218-.3511844.2713012-.7634116.4069519-1.2381887.4069519h-1.2547683c-.4747772,0-.825208-.1401723-1.0512923-.4235314-.2260844-.2818519-.3052139-.5697326-.2373886-.8636423l.3052139-1.4258388c.1356506-.6782531.3165181-1.2600436.5426025-1.7453714.2260844-.486835.5426025-.9676411.9495544-1.4409111.4069519-.4762844.9382501-.9947712,1.5938948-1.5614894l1.6278075-1.4574906c.8139037-.7460784,1.3678105-1.3278689,1.6617201-1.7468786.2939097-.4175025.4973856-.8862507.6104278-1.407752l.0678253-.3376193c.0678253-.8832363-.3730392-1.3233472-1.3225936-1.3233472Z"/>
    <path class="cls-3" d="M486.3262059,92.7935194l-4.8155971,22.7893047c-.0904337.3843434-.3112428.7114122-.6616736.9827134-.3504308.2713012-.6948326.4069519-1.0339592.4069519h-3.3234403c-.3843434,0-.684282-.1356506-.8983086-.4069519-.2155338-.2713012-.2773302-.59837-.1868964-.9827134l4.8155971-22.7893047c.4973856-2.3060606.6157031-4.1388512.3557061-5.4953575-.259997-1.3565062-.920917-2.3271618-1.9835136-2.9149812-1.0625965-.5878194-2.5434492-.8832363-4.4425579-.8832363-2.8486631,0-5.9234105.4190097-9.2242424,1.2555219l-6.5451426,30.8273577c-.0904337.361735-.3052139.6827748-.6443405.9661339-.3391266.2818519-.6895573.4235314-1.0512923.4235314h-3.3912656c-.3391266,0-.6164567-.1356506-.8304833-.4069519-.2155338-.2713012-.2773302-.59837-.1868964-.9827134l7.0877451-33.4725449c.1808675-.8591206.72347-1.4122737,1.6278075-1.6609665,5.9234105-1.44694,10.8520499-2.17041,14.7859179-2.17041,2.5999703,0,4.7304387.3210398,6.3929124.9661339,1.6609665.6435868,2.8652426,1.5765617,3.611321,2.7974173.7460784,1.2208556,1.1530303,2.7069835,1.2208556,4.459891.0678253,1.7514003-.1582591,3.8494632-.6782531,6.2911745Z"/>
    <path class="cls-3" d="M517.9727426,114.3273022c-.1808675.8591206-.6330362,1.3685641-1.3565062,1.5268231-1.9217172.5199941-3.8313765.9148881-5.7304852,1.1861893s-4.0137512.4069519-6.3424202.4069519c-5.4034165,0-9.0931134-.9103664-11.0721053-2.729592-1.9782383-1.8207328-2.5374203-4.7311923-1.6782997-8.7328857l.101738-.6104278c.5652109-2.5999703,1.5712864-4.7251634,3.0174728-6.3755793,1.44694-1.6504159,3.4816993-2.8773004,6.104278-3.6791463,2.6225787-.8033531,5.9580768-1.2042761,10.0049871-1.2042761h5.1547237l.5757615-2.7808378c.6330362-2.89388.5154724-4.900002-.3557061-6.0198732-.8696712-1.118364-2.6738245-1.6790533-5.4079382-1.6790533-2.1040919,0-3.939897.1416795-5.511937.4250386-1.5705328.2818519-3.3972945.7174411-5.4757635,1.3052604-.5215013.1582591-.9103664.1477085-1.171117-.033159-.2592434-.1808675-.3557061-.4642266-.2878808-.84857l.5757615-2.7130125c.1356506-.5652109.5546603-.9842206,1.2555219-1.2555219,1.1756387-.47327,2.8592137-.9661339,5.0537393-1.4740701,2.1915112-.5094435,4.4191959-.7626579,6.6800396-.7626579,9.0207664,0,12.6034501,4.3513705,10.7495583,13.0556189l-4.8834224,22.9927806ZM512.377908,112.0559079l2.8486631-13.4987442h-5.1547237c-2.1930184,0-3.9670271.1190711-5.3235333.3572133-1.3565062.236635-2.4824064.6270073-3.3746861,1.1696098-.8937869.5426025-1.5946484,1.2268845-2.1025847,2.0513389-.5094435.8259616-.8983086,1.8825292-1.1696098,3.1712101l-.1356506.6104278c-.3406338,1.6278075-.3632422,2.9330679-.0693325,3.9172886.2939097.9827134,1.0580749,1.7016617,2.2894811,2.1523232,1.2329134.453676,3.0235017.6782531,5.3762864.6782531.9254387,0,1.8252545-.0271301,2.6949257-.0844048.8711784-.0557675,1.6624737-.1296217,2.3738859-.2200555.7129194-.0904337,1.2947098-.1914181,1.7468786-.3044603ZM527.4019682,64.7801585l-.0693325.2713012c-.5878194,2.0814835-1.5931412,3.8615211-3.0174728,5.3416201-1.4243315,1.4816063-3.052139,2.5954486-4.8834224,3.3400198-1.8312834.7475857-3.6625668,1.1198713-5.4938502,1.1198713s-3.5103367-.3722856-5.0356526-1.1198713c-1.5268231-.7445712-2.6858823-1.8478629-3.4756704-3.3053535-.7928025-1.4589978-1.0414953-3.249586-.7475857-5.3762864l.0693325-.2713012c.111535-.5863121.4175025-.8802218.9148881-.8802218h2.5773618c.6330362,0,.9148881.361735.84857,1.085205-.1823747,1.7634581.2924025,3.1305149,1.4228243,4.1026777s2.5773618,1.4589978,4.3408199,1.4589978,3.4199029-.4928639,4.9693345-1.4755773c1.5479243-.9842206,2.604492-2.3452486,3.1697029-4.0860982.2049832-.72347.611935-1.085205,1.2208556-1.085205h2.5773618c.5199941,0,.72347.2939097.611935.8802218Z"/>
    <path class="cls-3" d="M561.1850023,92.7935194l-4.8155971,22.7893047c-.0904337.3843434-.3104892.7114122-.6616736.9827134-.3496772.2713012-.6948326.4069519-1.0339592.4069519h-3.3234403c-.3843434,0-.684282-.1356506-.8983086-.4069519-.2155338-.2713012-.2773302-.59837-.1868964-.9827134l4.8155971-22.7893047c.4973856-2.3060606.6164567-4.1388512.3557061-5.4953575-.2592434-1.3565062-.920917-2.3271618-1.9835136-2.9149812s-2.5426956-.8832363-4.4418043-.8832363c-2.8486631,0-5.9249178.4190097-9.2242424,1.2555219l-6.5458962,30.8273577c-.0904337.361735-.3059675.6827748-.6435868.9661339-.3406338.2818519-.6903109.4235314-1.0520459.4235314h-3.3912656c-.3391266,0-.6164567-.1356506-.8304833-.4069519-.2155338-.2713012-.2773302-.59837-.1868964-.9827134l7.0884987-33.4725449c.1793603-.8591206.7219628-1.4122737,1.6278075-1.6609665,5.9219033-1.44694,10.8520499-2.17041,14.7859179-2.17041,2.598463,0,4.7296851.3210398,6.3921588.9661339,1.6609665.6435868,2.8652426,1.5765617,3.611321,2.7974173s1.1530303,2.7069835,1.2208556,4.459891c.0678253,1.7514003-.1582591,3.8494632-.6782531,6.2911745Z"/>
    <path class="cls-3" d="M576.9943288,125.6541293c2.2608437,0,4.0634898-.2381422,5.4094454-.7114122,1.3444484-.4762844,2.4356823-1.3399267,3.2721945-2.5954486.8365122-1.2540146,1.4921569-3.0461101,1.966934-5.3747791l.1024916-.4747772c-.9495544.2260844-2.2502931.4416181-3.900709.6435868-1.6504159.2049832-3.0069221.3059675-4.0695187.3059675-10.3320558,0-14.2885323-5.6852683-11.8694295-17.0573122l1.085205-5.0884056c.8365122-3.8645355,2.0860051-7.0538324,3.7469717-9.5618617,1.6624737-2.5110438,3.775609-4.3815151,6.3424202-5.6129213,2.565304-1.2329134,5.5782551-1.8478629,9.037346-1.8478629,3.6399584,0,7.6642602.5305447,12.0729055,1.5931412.5652109.1130422.920917.2773302,1.0686255.4913567.1462012.2155338.1627807.5832977.0512458,1.1017845l-7.5632759,35.5073042c-1.0399881,4.9738562-3.0295306,8.4947435-5.9686274,10.5641691-2.9390968,2.0679184-6.8850227,3.1033848-11.8347633,3.1033848-2.42061,0-4.6075995-.2833591-6.5624757-.84857-1.9563834-.5652109-3.3867439-1.1530303-4.2895741-1.7634581-.5667182-.4069519-.7807447-.9390038-.6450941-1.5931412l.5094435-2.3060606c.0663181-.4069519.2713012-.7129194.6089206-.9163953.3406338-.2034759.72347-.2034759,1.1545375,0,2.17041.9043375,3.8765934,1.5373737,5.1200574,1.8991087s2.9617053.5426025,5.1547237.5426025ZM588.795933,111.5464644l5.8329768-27.3682668c-2.6225787-.4958784-5.1547237-.7445712-7.5964349-.7445712-1.7182412,0-3.2330065.2200555-4.5442959.6601664-1.3112894.4416181-2.4251317,1.1364508-3.3400198,2.0860051-.9163953.9495544-1.7076906,2.17041-2.3738859,3.6625668-.6677025,1.4921569-1.2268845,3.3128897-1.6790533,5.459184l-1.085205,5.0884056c-.6104278,2.9390968-.7581363,5.2783165-.4416181,7.0191661.3165181,1.7408497,1.085205,2.9963715,2.3060606,3.7635512,1.2208556.7701941,2.89388,1.1545375,5.0190731,1.1545375,1.1078134,0,2.4311606-.0738542,3.9685343-.2215627,1.5373737-.1462012,2.8486631-.3330976,3.9338681-.559182Z"/>
    <path class="cls-3" d="M165.4250628,155.5183676c-.0904337.4069519-.2939097.7174411-.6104278.9314676-.3165181.2155338-.6669489.322547-1.0512923.322547h-12.1407308l-8.9529411,42.1541848c-.0904337.4069519-.2999386.7400495-.6270073.9992929-.328576.2607506-.684282.3903723-1.0686255.3903723h-6.8842691c-.3391266,0-.6277609-.1356506-.8643959-.4069519-.2381422-.2713012-.3112428-.59837-.2208091-.9827134l8.9529411-42.1541848h-12.1407308c-.3843434,0-.6895573-.1130422-.9156417-.3391266s-.2939097-.5305447-.2034759-.9148881l1.1530303-5.4953575c.0678253-.3602278.259997-.6722242.5765151-.9314676.3165181-.2607506.6782531-.3903723,1.085205-.3903723h33.9465684c.4069519,0,.7174411.1190711.9329748.3557061.2140265.2381422.2765765.559182.1861428.9661339l-1.1530303,5.4953575Z"/>
    <path class="cls-3" d="M187.7463729,168.5061611c-.4521687-.0226084-.8930333-.039188-1.3225936-.0512458-.4295603-.0105506-1.0286839-.0165795-1.7973708-.0165795-2.1251931,0-4.4538621.2486928-6.9860071.7460784l-6.307754,29.6728202c-.0678253.4069519-.2660259.7521073-.5938483,1.0354664-.3278223.2818519-.6948326.4235314-1.1017845.4235314h-6.3755793c-.4069519,0-.7068905-.1522301-.8983086-.4581977-.1929253-.3044603-.2547217-.6375579-.1868964-1.0008002l7.392959-34.7265595c.1356506-.6782531.7008616-1.1409725,1.6956328-1.3896653,2.4417112-.6330362,5.0303773-1.1364508,7.7659982-1.5087364,2.7356209-.3737928,5.2451574-.559182,7.5286096-.559182,1.1756387,0,2.1138889.0452169,2.8147504.1356506.9043375.0904337,1.2773767.5305447,1.1191176,1.32184l-1.085205,4.9844068c-.1808675.9284532-.7347742,1.3911725-1.6617201,1.3911725Z"/>
    <path class="cls-3" d="M209.6268184,168.3026852c-3.6399584,0-7.4607843.5998772-11.4624777,1.7966171-1.0399881.2713012-1.44694-.1009844-1.2208556-1.118364l.8817291-4.2383284c.0904337-.4295603.2765765-.7807447.5599356-1.0520459.2818519-.2713012.7174411-.5199941,1.3052604-.7460784,1.5373737-.6104278,3.4025698-1.1409725,5.5955882-1.5931412s4.5329917-.6782531,7.0199197-.6782531c2.9843137,0,5.4313002.4853278,7.3417132,1.4574906s3.2224559,2.4643197,3.9338681,4.4764706c.7129194,2.0121509.7634116,4.4538621.1529838,7.3251336l-5.0529857,23.6710337c-.0904337.4973856-.2147802.8470628-.3730392,1.0520459-.1582591.2019687-.463473.361735-.9156417.47327-2.17041.5667182-4.2503862.9962785-6.2399287,1.2901881-1.9895425.2924025-4.3860368.4401109-7.189483.4401109-3.7982174,0-6.8164438-.3964013-9.0546791-1.1876966-2.2382353-.7897881-3.7530006-2.039281-4.5442959-3.7469717-.7912953-1.7061834-.8930333-3.9504476-.3052139-6.7312854l.0678253-.3391266c.4521687-2.0573678,1.1191176-3.8087681,2.0008467-5.255708s2.0739473-2.6677956,3.5774084-3.6625668c1.5034611-.9947712,3.3407734-1.736328,5.5111834-2.2216558,2.17041-.486835,4.7816845-.7294989,7.8338235-.7294989h4.8834224l.6443405-3.052139c.4521687-2.17041.2826055-3.650509-.5086898-4.4418043s-2.2721479-1.1876966-4.4425579-1.1876966ZM210.4407221,193.3648914l2.17041-10.2762883h-4.8834224c-2.1025847,0-3.6964795.1868964-4.7816845.559182-1.085205.3737928-1.871225.9495544-2.3573064,1.7302991-.4860814.7792375-.8757001,1.8704714-1.1696098,3.2721945l-.101738.4069519c-.2713012,1.3112894-.2713012,2.3120895,0,3.0008932.2713012.6903109.8704248,1.1756387,1.7973708,1.4589978.9269459.2818519,2.3625817.4235314,4.3069073.4235314,1.966934,0,3.6399584-.1914181,5.0190731-.5757615Z"/>
    <path class="cls-3" d="M263.3512477,183.5633803c-.7008616,3.3008318-1.972963,6.2745949-3.814797,8.9182749-1.8433412,2.6466944-4.1607061,4.7040622-6.9528481,6.1736106-2.792142,1.4695484-5.9625985,2.203569-9.5121231,2.203569-3.5043078,0-6.3589998-.7340206-8.5625688-2.203569-2.2050762-1.4695484-3.6572915-3.5269162-4.3581531-6.1736106-.7008616-2.6436799-.7008616-5.617443,0-8.9182749l1.186943-5.5963418c.7008616-3.2993246,1.966934-6.2730877,3.7982174-8.9182749,1.8312834-2.6451872,4.1599524-4.7025549,6.9860071-6.1721034,2.8260546-1.4695484,5.9912359-2.203569,9.4955436-2.203569,3.5495246,0,6.4094919.7340206,8.5799019,2.203569,2.17041,1.4695484,3.6120746,3.5269162,4.3234868,6.1721034.7129194,2.6451872.7181947,5.6189503.0173331,8.9182749l-1.186943,5.5963418ZM254.1948306,183.5633803l1.186943-5.5963418c.6104278-2.8923727.457444-5.1818538-.457444-6.866936-.9163953-1.683575-2.5833908-2.526116-5.0024935-2.526116-2.3964943,0-4.4146742.8425411-6.0530323,2.526116-1.6398653,1.6850822-2.7642583,3.9745633-3.3746861,6.866936l-1.186943,5.5963418c-.6104278,2.89388-.4521687,5.183361.4747772,6.866936.9269459,1.6850822,2.5773618,2.5276233,4.9512477,2.5276233,2.3964943,0,4.4199495-.8425411,6.0703654-2.5276233,1.6504159-1.683575,2.7808378-3.973056,3.3912656-6.866936Z"/>
    <path class="cls-3" d="M319.693734,197.1962679c-.1130422.5199941-.3165181.9103664-.6104278,1.1696098-.2939097.2607506-.8478164.4913567-1.6617201.6963399-2.3060606.5652109-4.7138592,1.0053218-7.2233957,1.32184-2.5095365.3165181-4.8834224.4747772-7.1216577.4747772-2.8034462,0-5.1607526-.400923-7.0704119-1.2042761-1.9111666-.8018459-3.3972945-1.9488473-4.459891-3.4410041-1.0625965-1.4921569-1.7016617-3.3189186-1.9156882-5.4772707-.2155338-2.1598594-.0286374-4.5955417.559182-7.3085541l1.1191176-5.3250406c.5652109-2.7130125,1.4183026-5.1486948,2.5600287-7.3070469,1.1417261-2.1598594,2.5607823-3.9851139,4.2564151-5.4772707,1.6956328-1.4921569,3.6678421-2.6391582,5.9173816-3.4425114,2.2495395-.8018459,4.7764092-1.2027689,7.5798554-1.2027689.8365122,0,1.8252545.033159,2.9677342.1009844,1.1409725.0678253,2.3339443.1929253,3.5774084.3722856l.9495544-4.373979h-10.4111853c-.3843434,0-.6782531-.1235928-.8817291-.3737928-.2034759-.2471856-.259997-.5637037-.1695633-.9495544l.8139037-3.8313765c.0678253-.3843434.2539681-.6888037.5599356-.9163953.3044603-.2245771.6496158-.3376193,1.0339592-.3376193h10.4111853l.3052139-1.5268231c.0904337-.3843434.299185-.7129194.6270073-.9842206s.684282-.4069519,1.0686255-.4069519h6.4094919c.3843434,0,.6835284.1356506.8990622.4069519.2140265.2713012.2765765.5998772.1861428.9842206l-.3052139,1.5268231h3.1877896c.3843434,0,.6722242.1130422.8651495.3376193.1914181.2275916.2539681.5320519.1861428.9163953l-.8139037,3.8313765c-.0904337.3858507-.2826055.7023688-.5765151.9495544-.2939097.2502-.6330362.3737928-1.0173797.3737928h-3.1877896l-8.6138146,40.4238857ZM316.5737697,168.6418117c-.4521687-.0678253-.9721628-.1296217-1.5599822-.1868964-.5878194-.0557675-1.1816677-.1070133-1.7800376-.1522301-.5998772-.0452169-1.1816677-.0783759-1.7468786-.1024916-.5652109-.0211012-1.0512923-.033159-1.4582442-.033159-1.4921569,0-2.7695336.2486928-3.8321301.7460784s-1.972963,1.1922183-2.729592,2.0860051c-.7581363.8922797-1.3738394,1.9443256-1.8486165,3.1531234-.4747772,1.210305-.8591206,2.5276233-1.1530303,3.9504476l-1.1191176,5.3250406c-.3165181,1.4243315-.4973856,2.7416498-.5426025,3.9504476-.0452169,1.210305.1243464,2.2608437.5086898,3.1546306.3843434.8922797,1.0000465,1.5886195,1.8486165,2.0844979.8470628.4988928,2.0174262.7475857,3.5095831.7475857.6104278,0,1.243464-.0120578,1.8991087-.0346663s1.2886809-.0557675,1.8991087-.1009844,1.1703634-.0964627,1.6782997-.1537374c.5094435-.0557675.9329748-.1175639,1.2721014-.1868964l5.1547237-24.2467953Z"/>
    <path class="cls-3" d="M364.9060867,183.5633803c-.7008616,3.3008318-1.972963,6.2745949-3.814797,8.9182749-1.8433412,2.6466944-4.1607061,4.7040622-6.9528481,6.1736106-2.792142,1.4695484-5.9625985,2.203569-9.5121231,2.203569-3.5043078,0-6.3589998-.7340206-8.5625688-2.203569-2.2050762-1.4695484-3.6572915-3.5269162-4.3581531-6.1736106-.7008616-2.6436799-.7008616-5.617443,0-8.9182749l1.186943-5.5963418c.7008616-3.2993246,1.966934-6.2730877,3.7982174-8.9182749s4.1599524-4.7025549,6.9860071-6.1721034c2.8260546-1.4695484,5.9912359-2.203569,9.4955436-2.203569,3.5495246,0,6.4094919.7340206,8.5799019,2.203569,2.17041,1.4695484,3.6120746,3.5269162,4.3234868,6.1721034.7129194,2.6451872.7181947,5.6189503.0173331,8.9182749l-1.186943,5.5963418ZM355.7496696,183.5633803l1.186943-5.5963418c.6104278-2.8923727.457444-5.1818538-.457444-6.866936-.9163953-1.683575-2.5833908-2.526116-5.0024935-2.526116-2.3964943,0-4.4146742.8425411-6.0530323,2.526116-1.6398653,1.6850822-2.7642583,3.9745633-3.3746861,6.866936l-1.186943,5.5963418c-.6104278,2.89388-.4521687,5.183361.4747772,6.866936.9269459,1.6850822,2.5773618,2.5276233,4.9512477,2.5276233,2.3964943,0,4.4199495-.8425411,6.0703654-2.5276233,1.6504159-1.683575,2.7808378-3.973056,3.3912656-6.866936ZM366.9408461,156.297605c-.0678253.3165181-.3165181.4747772-.7460784.4747772h-5.7651515c-.2486928,0-.4521687-.033159-.6104278-.1024916-.1582591-.0663181-.2999386-.1793603-.4235314-.3376193-.1251-.1582591-.2434175-.3165181-.3564597-.4762844l-3.7303921-5.6279936-6.1381907,5.6279936c-.4295603.3632422-.7460784.6059061-.9495544.7294989-.2034759.1251-.5086898.1868964-.9156417.1868964h-5.7651515c-.4069519,0-.5765151-.1582591-.5086898-.4747772.0678253-.2939097.2034759-.5305447.4069519-.7129194l8.17295-8.3410061c.4973856-.4521687.8530917-.7355278,1.0678718-.84857s.5373272-.1703169.9668875-.1703169h9.0207664c.4295603,0,.7347742.0633036.9156417.1868964.1808675.1251.4069519.4024302.6782531.8319905l4.5442959,8.3410061c.1582591.1823747.2034759.4190097.1356506.7129194ZM370.5355876,136.4247887c-.6330362.0226084-1.7973708.3165181-3.4930035.8817291-.6782531.2486928-1.1816677.2486928-1.50949,0s-.457444-.4973856-.3896187-.7460784l.4408645-2.1025847c.0452169-.1808675.1695633-.394894.3730392-.6435868s.7634116-.5606892,1.6782997-.9329748c.9163953-.3737928,1.8538918-.6330362,2.815504-.7807447.960105-.1462012,2.1470479-.1914181,3.5600752-.1356506,1.4130273.0572747,2.5833908.5034145,3.5103367,1.3399267.9269459.8365122,1.186943,2.2156268.7799911,4.137344l-.0339127.1703169c-.1582591.7445712-.4468934,1.4740701-.8651495,2.1869895-.4182561.7114122-1.2261309,1.6338364-2.4243781,2.762751l-2.3738859,2.2050762c-.1130422.1356506-.3112428.328576-.5930947.5772688-.2833591.2486928-.4981392.4566904-.6450941.6270073-.1469548.1688097-.2765765.3677639-.3896187.5938483s-.1921717.4521687-.2373886.6782531l-.2713012,1.1861893c-.0226084.1582591-.1921717.3557061-.5086898.5938483-.3165181.236635-.7008616.3557061-1.1530303.3557061h-2.5773618c-.4973856,0-.8312369-.1130422-1.0000465-.3391266-.1703169-.2260844-.2434175-.4295603-.2208091-.6104278l.2713012-1.1861893c.2034759-.9721628.4973856-1.769487.8817291-2.3919727.3843434-.6209784,1.0399881-1.3610279,1.966934-2.2201485l2.4417112-2.2729016c.4295603-.4069519.8312369-.9103664,1.2035225-1.5087364.3737928-.5998772.5312983-1.085205.4747772-1.4589978-.0565211-.3722856-.197447-.6330362-.4235314-.7792375-.2260844-.1477085-.6556447-.2095049-1.2886809-.1868964Z"/>
    <path class="cls-3" d="M379.4953112,198.8572344c-.0678253.4069519-.2660259.7521073-.5938483,1.0354664-.3278223.2818519-.6948326.4235314-1.1017845.4235314h-6.3755793c-.4069519,0-.7068905-.1522301-.8983086-.4581977-.1929253-.3044603-.2547217-.6375579-.1868964-1.0008002l7.7320855-36.3197007c.0904337-.3843434.2939097-.7129194.6104278-.9842206s.6782531-.4069519,1.085205-.4069519h6.3755793c.4295603,0,.7400495.1251.9329748.3737928.1914181.2486928.2426639.5878194.1522301,1.0173797l-7.7320855,36.3197007ZM389.1265055,154.5341469c-.0904337.4069519-.2999386.7400495-.6270073,1.0008002-.328576.2592434-.684282.3903723-1.0686255.3903723h-6.7147058c-.361735,0-.6669489-.1311289-.9156417-.3903723-.2486928-.2607506-.3278223-.5938483-.2373886-1.0008002l1.2886809-6.104278c.0904337-.361735.3165181-.684282.6782531-.9661339.361735-.2833591.72347-.4250386,1.085205-.4250386h6.7147058c.3843434,0,.6835284.1356506.8983086.4069519s.2773302.5998772.1868964.9842206l-1.2886809,6.104278Z"/>
    <path class="cls-3" d="M424.2057566,193.0935902c2.5999703,0,5.6973262-.5320519,9.2920677-1.5946484,1.0399881-.2713012,1.44694.1024916,1.2208556,1.118364l-.9156417,4.4433115c-.1130422.4295603-.3052139.7747158-.5765151,1.0339592-.2713012.2607506-.7008616.5154724-1.2886809.7626579-2.6677956,1.335405-5.7877599,2.0016003-9.359893,2.0016003-3.0973559,0-5.7086304-.5817905-7.8338235-1.7468786-2.1251931-1.1635809-3.6007704-3.0069221-4.4259784-5.5270093-.825208-2.5215944-.8304833-5.7154129-.0165795-9.5799485l1.3904189-6.4780709c.7912953-3.775609,2.1304684-6.9287324,4.0190265-9.4623846,1.8870509-2.5306377,4.1539235-4.3965874,6.7991107-5.5948346s5.5164587-1.7966171,8.6138146-1.7966171c3.5721331,0,6.4094919.6661953,8.5120766,2.0000931.4747772.2486928.7965706.5034145.9668875.7626579.1688097.2607506.2087512.6059061.1183175,1.0354664l-.9495544,4.4418043c-.2260844,1.0173797-.7912953,1.3911725-1.6956328,1.1198713-1.4243315-.4973856-2.7243167-.887758-3.8999554-1.171117-1.1756387-.2818519-2.6338829-.4235314-4.3747326-.4235314-4.6799465,0-7.6642602,3.0295306-8.9529411,9.0885918l-1.3904189,6.4780709c-.6782531,3.2782234-.5312983,5.6114141.4408645,7.0025866.9721628,1.3896653,2.4077986,2.0860051,4.3069073,2.0860051Z"/>
    <path class="cls-3" d="M473.8267546,198.8572344c-.0678253.3632422-.2773302.6963399-.6270073,1.0008002-.3511844.3059675-.7068905.4581977-1.0686255.4581977h-6.4094919c-.3843434,0-.6729778-.1522301-.8643959-.4581977-.1929253-.3044603-.2547217-.6375579-.1868964-1.0008002l4.8834224-22.8556228c.4521687-2.1251931.6330362-3.703262.5426025-4.7311923-.0904337-1.0294375-.4973856-1.7574292-1.2208556-2.1869895s-1.8651961-.6450941-3.4251782-.6450941c-2.3512775,0-5.2112448.7912953-8.5799019,2.3738859l-5.9686274,28.0450127c-.0678253.4069519-.2660259.7521073-.5938483,1.0354664-.3278223.2818519-.6948326.4235314-1.1017845.4235314h-6.3755793c-.4069519,0-.7068905-.1522301-.8983086-.4581977-.1929253-.3044603-.2547217-.6375579-.1868964-1.0008002l10.6485739-50.0204137c.0678253-.3391266.2713012-.6556447.6104278-.9495544.3391266-.2939097.7008616-.4416181,1.085205-.4416181h6.3755793c.3843434,0,.6835284.1356506.8983086.4069519s.2773302.5998772.1868964.9842206l-3.052139,14.3789661c3.1651812-1.6956328,6.8390523-2.5426956,11.0216131-2.5426956,8.2972964,0,11.3607397,5.1095068,9.1903297,15.3285204l-4.8834224,22.8556228Z"/>
    <path class="cls-3" d="M503.813832,168.3026852c-3.6414656,0-7.4607843.5998772-11.4639849,1.7966171-1.0399881.2713012-1.44694-.1009844-1.2208556-1.118364l.8817291-4.2383284c.0904337-.4295603.2765765-.7807447.5599356-1.0520459.2818519-.2713012.7174411-.5199941,1.3045068-.7460784,1.5373737-.6104278,3.4033234-1.1409725,5.597849-1.5931412,2.1915112-.4521687,4.5307308-.6782531,7.0176589-.6782531,2.9843137,0,5.4320538.4853278,7.3432204,1.4574906,1.9111666.9721628,3.2224559,2.4643197,3.9338681,4.4764706.7114122,2.0121509.7626579,4.4538621.1537374,7.3251336l-5.0552466,23.6710337c-.0904337.4973856-.2140265.8470628-.3707784,1.0520459-.1597663.2019687-.4642266.361735-.9163953.47327-2.17041.5667182-4.2503862.9962785-6.2399287,1.2901881-1.9895425.2924025-4.3860368.4401109-7.189483.4401109-3.7982174,0-6.8171974-.3964013-9.0554327-1.1876966-2.2382353-.7897881-3.7530006-2.039281-4.5442959-3.7469717-.7912953-1.7061834-.8930333-3.9504476-.3052139-6.7312854l.0678253-.3391266c.4521687-2.0573678,1.1191176-3.8087681,2.0008467-5.255708.8817291-1.44694,2.0739473-2.6677956,3.5774084-3.6625668s3.3407734-1.736328,5.5126906-2.2216558c2.17041-.486835,4.7809309-.7294989,7.8315626-.7294989h4.8834224l.6450941-3.052139c.4521687-2.17041.2833591-3.650509-.5094435-4.4418043-.7897881-.7912953-2.2698871-1.1876966-4.4402971-1.1876966ZM504.6277358,193.3648914l2.17041-10.2762883h-4.8834224c-2.1040919,0-3.6987403.1868964-4.7839453.559182-1.085205.3737928-1.8689641.9495544-2.3573064,1.7302991-.4853278.7792375-.8741929,1.8704714-1.1696098,3.2721945l-.1009844.4069519c-.2713012,1.3112894-.2713012,2.3120895,0,3.0008932.2713012.6903109.8696712,1.1756387,1.7981244,1.4589978.9254387.2818519,2.3603208.4235314,4.3076609.4235314,1.9654268,0,3.6384512-.1914181,5.0190731-.5757615ZM520.2607165,156.297605c-.0693325.3165181-.3165181.4747772-.7475857.4747772h-5.7636443c-.2502,0-.4461398-.033159-.5938483-.1024916-.1477085-.0663181-.2833591-.1793603-.4069519-.3376193s-.2532145-.3165181-.3888651-.4762844l-3.7318994-5.6279936-6.1374371,5.6279936c-.4069519.3632422-.7174411.6059061-.9344821.7294989-.2140265.1251-.5245157.1868964-.9314676.1868964h-5.7636443c-.4084591,0-.578776-.1582591-.5094435-.4747772.0663181-.2939097.2140265-.5305447.4401109-.7129194l8.1390374-8.3410061c.4973856-.4521687.8530917-.7355278,1.0671182-.84857.217041-.1130422.5365736-.1703169.9676411-.1703169h9.0222737c.4280531,0,.7325134.0633036.9133809.1868964.1808675.1251.4069519.4024302.6782531.8319905l4.5789621,8.3410061c.1356506.1823747.1688097.4190097.1024916.7129194ZM536.234331,138.5273734c-.0482313.1808675-.183882.361735-.4069519.5426025l-10.0049871,8.6138146c-.361735.3165181-.6631808.5486314-.8983086.6948326-.2381422.1477085-.5606892.2215627-.9676411.2215627h-5.9686274c-.4069519,0-.5757615-.1582591-.5094435-.4762844.0452169-.2924025.1808675-.5305447.4069519-.7114122l8.3771796-8.3425133c.4280531-.4295603.7686869-.7068905,1.0188869-.8304833.2471856-.1251.5848049-.1868964,1.0158724-.1868964h7.2919746c.4973856,0,.7114122.1582591.6450941.4747772Z"/>
    <path class="cls-3" d="M544.6838576,199.1285357c-.1356506.7023688-.6556447,1.1198713-1.5584749,1.2555219-2.0136581.3165181-3.86755.4747772-5.5616755.4747772-2.7597366,0-4.8623212-.2773302-6.3092612-.8304833-1.44694-.5546603-2.3723787-1.6217786-2.7793305-3.2058764-.4069519-1.5810834-.2833591-3.9097524.3722856-6.9844999l4.6121212-21.8065913-5.5270093-.9827134c-.9058447-.1582591-1.2781303-.6224856-1.1198713-1.3911725l.6782531-3.1199643c.0678253-.3843434.2592434-.7129194.5772688-.9842206.3150109-.2713012.6782531-.4069519,1.085205-.4069519h5.7636443l1.2208556-5.6973262c.1582591-.7671796.72347-1.2314062,1.69714-1.3896653l6.6800396-1.118364h.3044603c.72347,0,1.0068291.3496772.84857,1.0505387l-1.5268231,7.1548168h7.0206734c.4295603,0,.7460784.1251.9495544.3737928s.2592434.5878194.1688097,1.0173797l-.8802218,4.104185c-.091941.3843434-.2999386.7114122-.6285146.9827134-.3270687.2713012-.684282.4069519-1.0686255.4069519h-7.0191661l-4.6121212,21.8065913c-.361735,1.7182412-.4461398,2.7913884-.2547217,3.2209487.1929253.4295603.8983086.6435868,2.1191642.6435868h4.4433115c.9721628,0,1.3896653.3511844,1.2540146,1.0520459l-.9495544,4.373979Z"/>
  </g>
</svg>