<?xml version="1.0" encoding="UTF-8"?>
<svg id="Layer_1" data-name="Layer 1" xmlns="http://www.w3.org/2000/svg" xmlns:xlink="http://www.w3.org/1999/xlink" viewBox="0 0 702 272">
  <defs>
    <style>
      .cls-1 {
        fill: url(#linear-gradient);
      }

      .cls-1, .cls-2, .cls-3 {
        stroke-width: 0px;
      }

      .cls-4 {
        filter: url(#drop-shadow-4);
      }

      .cls-2 {
        fill: url(#radial-gradient);
      }

      .cls-3 {
        fill: #fff;
      }
    </style>
    <filter id="drop-shadow-4" filterUnits="userSpaceOnUse">
      <feOffset dx="11.3385827" dy="11.3385827"/>
      <feGaussianBlur result="blur" stdDeviation="5.6692913"/>
      <feFlood flood-color="#221f1f" flood-opacity=".2"/>
      <feComposite in2="blur" operator="in"/>
      <feComposite in="SourceGraphic"/>
    </filter>
    <radialGradient id="radial-gradient" cx="351" cy="135.9999264" fx="351" fy="135.9999264" r="397.2854945" gradientTransform="translate(0 66.8330697) scale(1 .5085801)" gradientUnits="userSpaceOnUse">
      <stop offset="0" stop-color="#347b9a"/>
      <stop offset=".2237144" stop-color="#2e7390"/>
      <stop offset=".592439" stop-color="#1d5e77"/>
      <stop offset=".9887365" stop-color="#084356"/>
    </radialGradient>
    <linearGradient id="linear-gradient" x1="1.0000135" y1="136.0000077" x2="700.9999708" y2="136.0000077" gradientUnits="userSpaceOnUse">
      <stop offset="0" stop-color="#705020"/>
      <stop offset=".2905028" stop-color="#fbc29b"/>
      <stop offset=".326818" stop-color="#eab485"/>
      <stop offset=".4425533" stop-color="#b78b45"/>
      <stop offset=".4972067" stop-color="#a47c2c"/>
      <stop offset=".7094972" stop-color="#fbcfa5"/>
      <stop offset=".7479218" stop-color="#dbb184"/>
      <stop offset=".7963723" stop-color="#bb9161"/>
      <stop offset=".8457122" stop-color="#a17946"/>
      <stop offset=".8956671" stop-color="#8f6733"/>
      <stop offset=".9465986" stop-color="#845d27"/>
      <stop offset="1" stop-color="#815a24"/>
    </linearGradient>
  </defs>
  <g class="cls-4">
    <path class="cls-2" d="M699.2146819,148.8093289l-25.2863366,88.8961035c-5.7213228,20.1137598-24.0941922,33.9893255-45.0058365,33.9893255H140.3951243c-13.536423,0-26.4095263-5.8621451-35.2960876-16.0731086L1,136.0082886,105.098886,16.3803578C113.9854784,6.1681,126.8594286.3050948,140.3968484.3050948h488.5244688c20.912207,0,39.2854273,13.8762985,45.0062517,33.9907851l25.2875281,88.9112503c2.3800116,8.3681493,2.3798679,17.2341266-.0004152,25.6021987Z"/>
    <path class="cls-1" d="M628.9213758,19.9051103c12.0914062,0,22.8462158,8.1226318,26.1539551,19.7526123l25.2875,88.9107666c1.3839355,4.8670166,1.3839355,10.0119141-.0003418,14.878418l-25.2863037,88.8962402c-3.3079102,11.6296387-14.0627197,19.7517578-26.1536133,19.7517578H140.395033c-7.8691895,0-15.3449707-3.4046387-20.5108887-9.340625L26.9827284,136.0075272,119.884828,29.2465897c5.165918-5.9366699,12.642041-9.3414795,20.5119141-9.3414795h488.5246338M628.9213758.3051103H140.396742c-13.537207,0-26.4113281,5.8630127-35.2977051,16.0752197L1.0000135,136.0082108l104.0990234,119.6133545c8.8867188,10.2111816,21.7598145,16.0733398,35.2959961,16.0733398h488.5275391c20.9116455,0,39.2844238-13.8755859,45.0057617-33.9893066l25.2863037-88.8962402c2.3802734-8.368042,2.3804443-17.234082.0005127-25.6022949l-25.2875-88.9111084c-5.7208252-20.1145752-24.0941162-33.9908447-45.0062744-33.9908447h0Z"/>
  </g>
  <g>
    <path class="cls-3" d="M195.786182,80.8196642c-.138117.651123-.59193.9766846-1.3614391.9766846h-11.8090044l-8.3166171,39.0969793c-.078924.355158-.2417048.6467384-.4883423.8736449-.2471856.2269065-.5376698.3398117-.8730968.3398117h-3.3148082c-.315696,0-.552468-.1129052-.7103161-.3398117-.1583961-.2269065-.19731-.5184869-.118386-.8736449l8.3166171-39.0969793h-11.8386009c-.8095191,0-1.1443981-.3255615-1.0062811-.9766846l.5623335-2.6636852c.059193-.276234.236772-.5272562.532737-.7552589.295965-.2258103.6017955-.3398117.9174916-.3398117h29.1525546c.3151479,0,.5667182.1030397.7547108.3113114.1874445.2060793.2411567.4680632.1627808.7837592l-.5623335,2.6636852Z"/>
    <path class="cls-3" d="M217.486447,119.7982575c-.1583961.7497781-.552468,1.1937256-1.1838601,1.3318426-1.6771351.453813-3.3444047.7991056-5.0018089,1.0358776-1.6574041.236772-3.5028008.355158-5.5345459.355158-4.7162574,0-7.9367953-.7936247-9.6632579-2.3830665-1.7270107-1.5872494-2.215353-4.128164-1.4650269-7.6205512l.0887895-.532737c.492727-2.2690652,1.3713046-4.1237793,2.6340887-5.5641424,1.262236-1.4403631,3.0380261-2.5102218,5.3273704-3.2117686,2.2887962-.6993544,5.1985708-1.0501277,8.7309681-1.0501277h4.4986683l.5031405-2.4269132c.55192-2.5255682.4483322-4.2772426-.3107633-5.252831-.7596436-.9777807-2.333739-1.4655749-4.7206421-1.4655749-1.8349831,0-3.438127.1238668-4.8094316.3694082-1.3718527.2477337-2.964583.6270074-4.7798351,1.1400134-.4543611.138117-.7947209.1282515-1.0210793-.0295965-.2269065-.157848-.3107633-.4044855-.2515703-.7399126l.5031405-2.3677202c.118386-.493275.4834095-.8582986,1.0950706-1.0950706,1.025464-.414351,2.4959717-.8429522,4.4098788-1.2879959,1.9133591-.4428514,3.8574108-.6653732,5.8305109-.6653732,7.8726696,0,10.9994852,3.7982178,9.3820912,11.3946533l-4.2618963,20.0664284ZM212.6030241,117.8152918l2.4861062-11.7794078h-4.4986683c-1.9139071,0-3.4627907.1041358-4.6466508.3102152-1.1838601.2082717-2.1654774.5480834-2.944852,1.0216274-.7799226.473544-1.3910356,1.0709549-1.8349831,1.7911365s-.7843073,1.6420578-1.0210793,2.7667249l-.118386.532737c-.295965,1.4206321-.315696,2.5606455-.059193,3.4178479.2559549.8593947.9218762,1.4853059,1.9977639,1.879926,1.0753396.39462,2.6384734.59193,4.6910456.59193.8089711,0,1.5932784-.0241157,2.3529219-.0734432.7590955-.0493275,1.4502286-.1140013,2.0717551-.1929253.6215265-.078924,1.1290517-.1677135,1.5242199-.2663685ZM223.5537299,83.9272969c-.059193.276234-.2767821.414351-.651123.414351h-3.1372292c-.295965,0-.5031405-.0537122-.6215265-.1622327s-.3063786-.3606389-.5623335-.7552589l-3.7291593-5.8601074-6.2744585,5.8601074c-.414351.374889-.7152488.6215265-.9026933.7399126-.1879926.118386-.4192838.177579-.6955178.177579h-3.1668257c-.355158,0-.5031405-.138117-.4439475-.414351.059193-.256503.177579-.4636785.355158-.6215265l7.428722-7.5175115c.414351-.39462.7103161-.6412575.8878951-.7399126s.4335339-.1479825.7695091-.1479825h5.1497914c.513006,0,.9470881.295965,1.3022461.8878951l4.1731068,7.5175115c.1375689.157848.177579.3650235.118386.6215265ZM227.1349067,77.3864699c-.059193.276234-.2663685.414351-.6215265.414351h-3.2852117c-.19731,0-.3600908-.0295965-.4883423-.0887895-.1287996-.059193-.236772-.1479825-.3255615-.2663685s-.2121083-.3058305-.3699563-.5623335l-5.2385809-7.6358975c-.118386-.157848-.1583961-.315696-.118386-.473544.059193-.276234.3058305-.414351.7399126-.414351h3.9955278c.513006,0,.9470881.295965,1.3022461.8878951l4.2914928,7.5175115c.1375689.157848.177579.3650235.118386.6215265Z"/>
    <path class="cls-3" d="M225.4835315,120.893328l6.1856689-29.2117476c.177579-.8089711.651123-1.2923806,1.4206321-1.4502286,2.7623402-.670854,5.1349931-1.1542636,7.1179588-1.4502286,1.9829656-.295965,3.7927369-.4439475,5.4309581-.4439475,1.4009011,0,2.6976664.2027908,3.89194.6061802,1.1937256.4055817,2.0569569,1.0117619,2.5896939,1.820733,3.8667282-1.6574041,7.3991255-2.4861062,10.5955478-2.4861062,1.9336381,0,3.5515803.355158,4.8538263,1.0654741,1.3022461.7103161,2.2000067,1.8941761,2.6932817,3.5515803.492727,1.6574041.453813,3.8376798-.118386,6.540827l-4.5578613,21.457464c-.078924.355158-.2619839.6467384-.5475353.8736449-.2860995.2269065-.5968628.3398117-.9322898.3398117h-2.9004572c-.295965,0-.5475353-.118386-.7547108-.355158s-.2713013-.5228715-.1923773-.8582986l4.5578613-21.457464c.492727-2.3874512.3595427-4.0645863-.3995528-5.0314054-.7596436-.9668191-2.0081775-1.4502286-3.7439575-1.4502286-1.9341862,0-4.4098788.5426025-7.428722,1.6278076.059193,1.4009011-.0887895,2.9793812-.4439475,4.7354403l-4.5874578,21.5758501c-.078924.315696-.2471856.5974109-.5031405.8429522-.256503.2477337-.5431506.3705044-.8582986.3705044h-3.2260187c-.295965,0-.5179388-.118386-.6659213-.355158s-.1825118-.5228715-.1035878-.8582986l4.5874578-21.5758501c.355158-1.6968661.4631304-3.0133624.3255615-3.950585-.138117-.9372226-.5031405-1.5740954-1.0950706-1.9095225-.59193-.335427-1.4403631-.5031405-2.5452992-.5031405-2.3485373,0-4.8834229.3452925-7.606301,1.0358776l-5.7121249,26.9032204c-.078924.355158-.2417048.6467384-.4883423.8736449-.2471856.2269065-.5376698.3398117-.8730968.3398117h-3.2260187c-.2767821,0-.4883423-.118386-.6363248-.355158s-.1825118-.5228715-.1035878-.8582986Z"/>
    <path class="cls-3" d="M300.2262091,117.9928708c4.3994652,0,6.9255815-1.5390181,7.5767045-4.6170543.1967619-.9470881.0487794-1.7560591-.4439475-2.4269132-.493275-.670854-1.5198352-1.4600941-3.0780362-2.3677202l-5.4457564-3.1372292c-1.7955211-1.0654741-3.0681707-2.3085272-3.8179488-3.7291593-.7503261-1.4206321-.9174916-3.1273637-.5031405-5.1201949.453813-2.0914862,1.3510255-3.7445056,2.6932817-4.956866,1.3417081-1.2145528,2.9196401-2.0673705,4.7354403-2.5606455,1.8152521-.493275,3.7779387-.7399126,5.8897039-.7399126,1.6376731,0,3.2358842.177579,4.7946333.532737,1.558201.355158,2.6735507.7497781,3.3444047,1.1838601.276234.177579.4631305.3211769.5623335.4286012.098655.1096167.118386.3211769.059193.6368729l-.532737,2.4861062c-.078924.355158-.2619839.6171419-.5475353.7837592-.2860995.1688097-.6264593.1731943-1.0210793.0153463-1.0260121-.434082-2.2542669-.7936247-3.6847645-1.0808204-1.4310457-.2850034-2.7376764-.4286012-3.9215365-.4286012-1.8941761,0-3.4584061.236772-4.6910456.7103161-1.2331876.473544-2.0081775,1.4502286-2.3233254,2.9300537-.2175891,1.0260121-.078924,1.899657.414351,2.6198385.492727.7201816,1.4009011,1.4644788,2.7228782,2.2339878l5.3569669,3.0780362c1.499008.8681641,2.6384734,1.7461936,3.418396,2.6340887.7793746.8878951,1.2677168,1.8152521,1.4650269,2.7820712.1967619.9668191.1671654,2.0520241-.0887895,3.2556152-.434082,2.0717551-1.3126597,3.8135641-2.6340887,5.2232345-1.3219771,1.4118628-2.9552655,2.4576058-4.8982211,3.1372292-1.9435036.6818157-4.069519,1.0216274-6.3780462,1.0216274-1.7566072,0-3.4331942-.2027908-5.0314054-.6072764-1.5982111-.4033894-2.8116677-.8429522-3.6403698-1.3164963-.5135541-.295965-.7207296-.6609885-.6215265-1.0950706l.532737-2.4861062c.059193-.355158.236772-.6215265.532737-.7991056s.631392-.177579,1.0062811,0c2.7820712,1.1838601,5.5148149,1.7757901,8.1982311,1.7757901Z"/>
    <path class="cls-3" d="M347.6458344,107.7524811c-.9668191,4.5381303-2.8905917,8.1346534-5.7713179,10.7873769-2.8812743,2.6549159-6.501365,3.9812776-10.8619163,3.9812776-4.3408203,0-7.38926-1.3263618-9.1453192-3.9812776-1.7566072-2.6527235-2.1506792-6.2492466-1.1838601-10.7873769l.9766846-4.6170543c.966271-4.5578613,2.8900436-8.1631538,5.7713179-10.8180696,2.8807262-2.6527235,6.4914995-3.9801815,10.8323198-3.9801815,4.3605513,0,7.4183085,1.3274579,9.1749157,3.9801815,1.7560591,2.6549159,2.1501311,6.2602083,1.1838601,10.8180696l-.9766846,4.6170543ZM342.318464,107.7524811l.9766846-4.6170543c.453813-2.1112172.5475353-3.9209884.2811668-5.4315062-.2663685-1.5083254-.9174916-2.6680699-1.9533691-3.4770409-1.0358776-.8089711-2.4817215-1.2134566-4.3358876-1.2134566-2.7426092,0-4.9722124.8835104-6.6888095,2.649435-1.7165971,1.7659246-2.9201882,4.2564155-3.6107733,7.4725687l-.9766846,4.6170543c-1.4403631,6.7480025.55192,10.1220037,5.9784934,10.1220037,2.7420611,0,4.976597-.8780296,6.7036077-2.6340887,1.7264626-1.7560591,2.9344384-4.2520308,3.6255715-7.487915Z"/>
    <path class="cls-3" d="M375.7981369,119.7982575c-.1583961.7497781-.552468,1.1937256-1.1838601,1.3318426-1.6771351.453813-3.3444047.7991056-5.0018089,1.0358776-1.6574041.236772-3.5028008.355158-5.5345459.355158-4.7162574,0-7.9367953-.7936247-9.6632579-2.3830665-1.7270107-1.5872494-2.215353-4.128164-1.4650269-7.6205512l.0887895-.532737c.492727-2.2690652,1.3713046-4.1237793,2.6340887-5.5641424,1.262236-1.4403631,3.0380261-2.5102218,5.3273704-3.2117686,2.2887962-.6993544,5.1985708-1.0501277,8.7309681-1.0501277h4.4986683l.5031405-2.4269132c.55192-2.5255682.4483322-4.2772426-.3107633-5.252831-.7596436-.9777807-2.333739-1.4655749-4.7206421-1.4655749-1.8349831,0-3.438127.1238668-4.8094316.3694082-1.3718527.2477337-2.964583.6270074-4.7798351,1.1400134-.4543611.138117-.7947209.1282515-1.0210793-.0295965-.2269065-.157848-.3107633-.4044855-.2515703-.7399126l.5031405-2.3677202c.118386-.493275.4834095-.8582986,1.0950706-1.0950706,1.025464-.414351,2.4959717-.8429522,4.4098788-1.2879959,1.9133591-.4428514,3.8574108-.6653732,5.8305109-.6653732,7.8726696,0,10.9994852,3.7982178,9.3820912,11.3946533l-4.2618963,20.0664284ZM370.914714,117.8152918l2.4861062-11.7794078h-4.4986683c-1.9139071,0-3.4627907.1041358-4.6466508.3102152-1.1838601.2082717-2.1654774.5480834-2.944852,1.0216274-.7799226.473544-1.3910356,1.0709549-1.8349831,1.7911365s-.7843073,1.6420578-1.0210793,2.7667249l-.118386.532737c-.295965,1.4206321-.315696,2.5606455-.059193,3.4178479.2559549.8593947.9218762,1.4853059,1.9977639,1.879926,1.0753396.39462,2.6384734.59193,4.6910456.59193.8089711,0,1.5932784-.0241157,2.3529219-.0734432.7590955-.0493275,1.4502286-.1140013,2.0717551-.1929253.6215265-.078924,1.1290517-.1677135,1.5242199-.2663685ZM382.9012974,75.3147148c-.0400101.157848-.1583961.315696-.355158.473544l-8.4645996,7.6358975c-.4543611.39462-.7596436.6467384-.9174916.7552589-.1583961.1085205-.3847545.1622327-.6807195.1622327h-3.2852117c-.355158,0-.5031405-.138117-.4439475-.414351.059193-.256503.177579-.4636785.355158-.6215265l7.547108-7.5175115c.414351-.39462.7103161-.6412575.8878951-.7399126s.4335339-.1479825.7695091-.1479825h3.9955278c.453813,0,.651123.138117.59193.414351Z"/>
    <path class="cls-3" d="M401.9082807,121.1892931c-.118386.59193-.552468.9372226-1.3022461,1.0358776-1.4014492.19731-2.7426092.295965-4.0251243.295965-2.9596502,0-4.9530294-.5568527-5.9784934-1.6727505-1.0260121-1.1137054-1.1942737-3.2599999-.5031405-6.4366911l4.4986683-21.161499-5.7713179-.651123c-.7503261-.059193-1.0556086-.4242165-.9174916-1.0950706l.355158-1.6574041c.157848-.7103161.6215265-1.0654741,1.3910356-1.0654741h5.8897039l1.2726496-5.9488969c.1375689-.670854.572199-1.0753396,1.3022461-1.2134566l3.2852117-.473544h.177579c.276234,0,.4779287.0942703.6067283.2806187.1282515.1885407.1523672.4296974.0739913.7256624l-1.3910356,6.6296165h6.540827c.335427,0,.5963147.118386.7843073.355158.1874445.236772.2411567.5228715.1627808.8582986l-.4439475,2.0421586c-.059193.335427-.2417048.6215265-.5475353.8582986-.3063786.236772-.6067283.355158-.9026933.355158h-6.540827l-4.4986683,21.161499c-.355158,1.6179421-.355158,2.6593005,0,3.1218829.355158.4647747,1.1641291.6960659,2.4269132.6960659h3.4035977c.847885,0,1.2134566.2860995,1.0950706.8582986l-.4439475,2.1013517Z"/>
    <path class="cls-3" d="M457.6796004,121.3668721c-.0992031.493275-.3951681.7399126-.8878951.7399126h-7.369529c-.295965,0-.4987559-.0931742-.6067283-.2806187-.1085205-.1874445-.2219738-.4987559-.3403598-.9328379l-5.2977739-16.1892867h-.8582986c-.315696,0-1.0112138-.0241157-2.0865534-.0745393-1.0758877-.0482313-1.7807229-.0833087-2.1161499-.1030397-.3359751-.019731-.7103161-.039462-1.1246671-.059193l-3.4923873,16.4260587c-.078924.355158-.256503.6467384-.532737.8736449-.2767821.2269065-.5727471.3398117-.8878951.3398117h-6.0672829c-.295965,0-.5475353-.118386-.7547108-.355158s-.2713013-.5228715-.1923773-.8582986l8.8493541-41.7014715c.118386-.572199.3699563-.9909347.7547108-1.2583994.3847545-.2652724.9125588-.4483322,1.5834129-.5469872,3.4331942-.532737,7.447905-.7991056,12.0457764-.7991056,5.1892534,0,9.1645021,1.0753396,11.9273904,3.2260187,2.7623402,2.1506792,3.6299562,5.6430664,2.6044922,10.4771618l-.0887895.532737c-.670854,3.0977672-1.9435036,5.6825284-3.8179488,7.7542836-1.8749932,2.0717551-4.2131169,3.6107733-7.014371,4.6170543l5.7713179,17.6987083c.039462.118386.039462.276234,0,.473544ZM454.3647922,90.8232819l.0887895-.532737c.492727-2.2690652.1035878-3.9166038-1.1690618-4.9426159-1.2726496-1.0260121-3.4479925-1.5390181-6.5260287-1.5390181-.4543611,0-1.3663718.0295965-2.7376764.0887895-1.3718527.059193-2.274546.1085205-2.7080799.1479825l-2.9004572,13.6439875c1.9336381.118386,3.7187457.177579,5.3569669.177579,3.1766912,0,5.5981236-.5272562,7.2659413-1.5839609,1.6672696-1.0545124,2.7771384-2.8752454,3.3296065-5.4600066Z"/>
    <path class="cls-3" d="M471.4480028,89.1954743c.0783759-.315696.2614358-.6072764.5475353-.8725487.2855514-.2674647.6067283-.4001009.9618863-.4001009h5.5641424c.355158,0,.6165938.1238668.7843073.3694082.1671654.2477337.2115602.5480834.1331843.9032414l-4.2322998,20.0072354c-.256503,1.1838601-.3699563,2.1802757-.3403598,2.9892467s.217041,1.4798251.5623335,2.0125621c.3447444.532737.8774815.9229724,1.5982111,1.1696099.7201816.2466375,1.6722024.3694082,2.8560625.3694082,1.9928311,0,4.0251243-.2269065,6.0968794-.6807195l5.4753529-25.8673429c.0783759-.315696.2614358-.6072764.5475353-.8725487.2855514-.2674647.5963147-.4001009.9322898-.4001009h5.5937389c.3151479,0,.5667182.1326362.7547108.4001009.1874445.2652724.2411567.5568527.1627808.8725487l-6.422441,30.3068182c-.138117.59193-.6319401.9964156-1.4798251,1.2134566-2.2893442.59193-4.5874578,1.0413584-6.895985,1.3471889-2.3085272.3047344-4.4592063.4581977-6.4520375.4581977-2.4269132,0-4.4296098-.2521184-6.0080899-.7541627-1.5790282-.5042367-2.8313987-1.2978614-3.7587558-2.3830665-.9279052-1.0852051-1.4902387-2.4565097-1.6870006-4.1139138-.19731-1.6574041-.0493275-3.6601008.4439475-6.0080899l4.2618963-20.0664284ZM488.7471583,74.0420652c-.5431506.019731-1.5538164.276234-3.0336415.7695091-.611661.217041-1.0556086.217041-1.3318426,0-.2767821-.217041-.3951681-.434082-.355158-.651123l.414351-1.8349831c.0191829-.157848.1227707-.3452925.3107633-.5623335.1874445-.217041.6807195-.4877942,1.4798251-.8144519.7991056-.3244654,1.617394-.5513719,2.4565097-.6796234.8385676-.1282515,1.8744451-.1677135,3.1076327-.118386,1.2326395.0493275,2.2537188.4384667,3.063238,1.1685138.8089711.7300471,1.0358776,1.9336381.6807195,3.6107733l-.0295965.1479825c-.138117.651123-.3951681,1.2879959-.7695091,1.9084263-.374889.6226227-1.0758877,1.4261129-2.1013517,2.412663l-2.0717551,1.9237726c-.0992031.118386-.2713013.2860995-.5179388.5031405-.2471856.217041-.434082.4001009-.5623335.5469872-.1287996.1490787-.2417048.3211769-.3403598.5184869-.0992031.19731-.177579.39462-.236772.59193l-.2071755,1.0358776c-.019731.138117-.1677135.3113114-.4439475.5173907-.2767821.2082717-.611661.3113114-1.0062811.3113114h-2.2493342c-.434082,0-.7300471-.098655-.8878951-.295965-.1583961-.19731-.2175891-.374889-.177579-.532737l.2071755-1.0358776c.1967619-.8484331.4587458-1.5434028.7843073-2.0860053s.8922797-1.1893409,1.7017989-1.939119l2.1605447-1.9829656c.355158-.355158.6999025-.7936247,1.0358776-1.3175924.335427-.5217754.4779287-.9470881.4291493-1.2715534-.0493275-.3266577-.177579-.552468-.3847545-.6818157-.2071755-.1271553-.5820645-.1819637-1.1246671-.1622327Z"/>
    <path class="cls-3" d="M509.2191685,120.834135c-.059193.355158-.2323874.6566039-.5179388.9021452-.2860995.2477337-.6067283.3705044-.9618863.3705044h-5.5641424c-.355158,0-.6171419-.1337323-.7843073-.3990047-.1677135-.2674647-.2219738-.5579489-.1627808-.8736449l6.7480025-31.6978538c.0783759-.335427.2559549-.6215265.532737-.8582986.276234-.236772.59193-.355158.9470881-.355158h5.5641424c.3743409,0,.6461903.1085205.8139038.3255615.1671654.217041.2115602.513006.1331843.8878951l-6.7480025,31.6978538ZM517.6245751,82.1515068c-.078924.355158-.2619839.6467384-.5475353.8725487-.2860995.2280027-.5968628.3409079-.9322898.3409079h-5.8601074c-.315696,0-.5820645-.1129052-.7991056-.3409079-.2175891-.2258103-.2860995-.5173907-.2071755-.8725487l1.1246671-5.3273704c.0783759-.315696.276234-.5963147.59193-.8440484.3151479-.2455414.631392-.3694082.9470881-.3694082h5.8601074c.335427,0,.5963147.118386.7843073.355158.1874445.236772.2411567.5228715.1627808.8582986l-1.1246671,5.3273704Z"/>
    <path class="cls-3" d="M556.7034676,94.3452656c-.3951681-.019731-.7799226-.0339812-1.1542636-.0438467-.374889-.0098655-.8983086-.0153463-1.5686146-.0153463-1.8547141,0-3.8875554.217041-6.0968794.651123l-5.5049494,25.8969394c-.059193.355158-.2323874.6566039-.5179388.9021452-.2860995.2477337-.6067283.3705044-.9618863.3705044h-5.5641424c-.355158,0-.6171419-.1337323-.7843073-.3990047-.1677135-.2674647-.2219738-.5579489-.1627808-.8736449l6.4520375-30.3068182c.118386-.59193.611113-.9964156,1.4798251-1.2134566,2.1309482-.552468,4.3901478-.9909347,6.777599-1.3175924,2.3869031-.3244654,4.5770442-.4877942,6.5704235-.4877942,1.025464,0,1.8448486.039462,2.4565097.118386.788692.078924,1.1142535.4636785.9766846,1.1542636l-.9470881,4.3506858c-.1583961.8089711-.6412575,1.2134566-1.4502286,1.2134566Z"/>
    <path class="cls-3" d="M588.8512979,107.4861126c-.611661,2.8807262-1.7215299,5.4753529-3.3296065,7.7838801-1.6086247,2.3085272-3.6305043,4.1040483-6.0672829,5.3865634-2.4373268,1.2825151-5.2045997,1.9237726-8.3018188,1.9237726-3.0588533,0-5.5493441-.6412575-7.4731168-1.9237726-1.9237726-1.2825151-3.1920376-3.0780362-3.8031505-5.3865634-.611661-2.3085272-.611661-4.9031539,0-7.7838801l1.0358776-4.8834229c.611113-2.8807262,1.7165971-5.4753529,3.3148082-7.7838801,1.5982111-2.3085272,3.6299562-4.1040483,6.0968794-5.3865634,2.4663752-1.2825151,5.2281673-1.9237726,8.2870206-1.9237726,3.0972191,0,5.5937389.6412575,7.487915,1.9237726,1.8941761,1.2825151,3.1520275,3.0780362,3.773554,5.3865634.6215265,2.3085272.6259112,4.9031539.0147983,7.7838801l-1.0358776,4.8834229ZM580.8602423,107.4861126l1.0358776-4.8834229c.532737-2.5255682.3995528-4.522784-.3995528-5.9927436s-2.2542669-2.2054875-4.3654841-2.2054875c-2.0914862,0-3.852478.7355279-5.2829756,2.2054875-1.4310457,1.4699596-2.4121149,3.4671754-2.944852,5.9927436l-1.0358776,4.8834229c-.532737,2.5255682-.3951681,4.5238802.414351,5.9938398.8089711,1.4699596,2.2493342,2.2043913,4.3210893,2.2043913,2.0909381,0,3.8574108-.7344317,5.2977739-2.2043913,1.439815-1.4699596,2.4269132-3.4682716,2.9596502-5.9938398Z"/>
    <path class="cls-3" d="M134.3082182,182.4123981c-1.8158002,8.5632546-8.6229957,12.8448819-20.4215865,12.8448819-4.2816273,0-7.5279251-.177579-9.7372492-.532737-.6911331-.098655-1.1591963-.3113114-1.4058339-.6357767-.2471856-.3266577-.2915804-.8637794-.1331843-1.6135574l8.5829856-40.3696289c.295965-1.3811701,1.1049361-2.1309482,2.4269132-2.2493342,2.7228782-.315696,5.9680798-.473544,9.7372492-.473544,3.5115702,0,6.4964322.355158,8.9529419,1.0654741,2.4565097.7103161,4.2766946,1.9292535,5.4605546,3.6546199,1.1838601,1.7275588,1.4694115,4.0503361.8582986,6.9705243l-.2071755.9766846c-.473544,2.2296032-1.4606422,4.1785876-2.9596502,5.8447611-1.4995561,1.6683658-3.3548183,2.8960725-5.5641424,3.6853126,1.9336381.690585,3.3148082,1.9095225,4.1435103,3.6546199.8287021,1.7472898.9958675,3.7938331.5031405,6.1418223l-.236772,1.0358776ZM128.8032688,182.4123981l.236772-1.0358776c.473544-2.2887962.1671654-4.1435103-.9174916-5.5641424-1.0852051-1.4206321-3.2852117-2.1309482-6.60002-2.1309482h-9.3524947l-3.5515803,16.6628307c.7103161.019731,1.7505783.0690585,3.122431.1479825,1.3713046.078924,2.4121149.118386,3.122431.118386,2.6828681,0,4.9574141-.236772,6.8219937-.7103161s3.4035977-1.3066308,4.6170543-2.5003563c1.2134566-1.1937256,2.0465433-2.8566105,2.5009044-4.9875587ZM132.9171826,162.0500047l.2071755-.9766846c.572199-2.7031472-.0548083-4.5479958-1.8793779-5.5345459-1.8251176-.9865501-4.7902487-1.4798251-8.8937489-1.4798251-.9279052,0-1.5291526.0054808-1.8053866.0153463-.2767821.0098655-.8632313.0285003-1.7609919.059193-.8983086.0285003-1.7215299.0635777-2.4713079.1030397l-3.1964222,15.0350231h9.3524947c5.9384833,0,9.4215532-2.4071822,10.4475653-7.2215465Z"/>
    <path class="cls-3" d="M152.6936749,190.6106292c1.3417081,0,2.6883489-.1282515,4.0399225-.3847545,1.3510255-.256503,2.6883489-.5963147,4.010326-1.0216274,1.321429-.4231204,2.3869031-.7837592,3.1964222-1.0797242.473544-.19731.8182885-.2115602,1.0358776-.0449428.217041.1688097.2855514.4395629.2071755.8144519l-.532737,2.4861062c-.0992031.414351-.4543611.7793746-1.0654741,1.0950706-3.9067383,1.8547141-7.8628041,2.7820712-11.8681974,2.7820712-2.5261163,0-4.7255748-.4483322-6.60002-1.3460928-1.8749932-.8977606-3.2112205-2.4269132-4.010326-4.588554-.7991056-2.1594485-.8243174-5.0259245-.0739913-8.5972358l1.1838601-5.4753529c.9273571-4.3802823,2.8412642-7.8375922,5.7417214-10.3741221,2.9004572-2.5343375,6.481634-3.8026024,10.7435303-3.8026024,2.8604471,0,5.1689743.5776799,6.9255815,1.7308473,1.7560591,1.1553597,2.9048419,2.807283,3.4479925,4.9579622.5426025,2.1506792.5179388,4.6466508-.0739913,7.487915l-.7103161,3.2852117c-.177579.8878951-.651123,1.3318426-1.4206321,1.3318426h-20.3032005l-.2071755.8582986c-.7300471,3.5121183-.5771318,6.0376864.4587458,7.5767045s2.9936314,2.3085272,5.8749057,2.3085272ZM150.7994988,203.5443007c-.078924.335427-.2619839.611661-.5475353.8287021-.2860995.217041-.5968628.3255615-.9322898.3255615h-2.3677202c-.295965,0-.5475353-.1085205-.7547108-.3255615s-.2713013-.493275-.1923773-.8287021l1.0358776-4.9130194c.059193-.295965.2466375-.572199.5623335-.8287021.3151479-.256503.6215265-.3847545.9174916-.3847545h2.3677202c.335427,0,.59193.1282515.7695091.3847545s.236772.532737.177579.8287021l-1.0358776,4.9130194ZM163.4963982,175.8123782l.118386-.5623335c.473544-2.2296032.5667182-4.0547208.2811668-5.4753529-.2860995-1.4206321-.9427034-2.4466442-1.9681674-3.0780362-1.0260121-.631392-2.4373268-.9470881-4.2322998-.9470881-5.4265735,0-8.8098921,3.1668257-10.1516002,9.5004772l-.118386.5623335h16.0709007ZM169.5636811,157.5513363c-.059193.276234-.2767821.414351-.651123.414351h-3.1372292c-.295965,0-.5031405-.0537122-.6215265-.1622327s-.3063786-.3606389-.5623335-.7552589l-3.7291593-5.8601074-6.2744585,5.8601074c-.434082.374889-.7399126.6215265-.9174916.7399126s-.4044855.177579-.6807195.177579h-3.1668257c-.355158,0-.5031405-.138117-.4439475-.414351.059193-.256503.177579-.4636785.355158-.6215265l7.428722-7.5175115c.414351-.39462.7103161-.6412575.8878951-.7399126s.4335339-.1479825.7695091-.1479825h5.1497914c.513006,0,.9470881.295965,1.3022461.8878951l4.1731068,7.5175115c.1375689.157848.177579.3650235.118386.6215265Z"/>
    <path class="cls-3" d="M202.2146519,173.740623l-4.2027033,19.8888494c-.078924.335427-.2713013.6215265-.5771318.8582986-.3063786.236772-.6067283.355158-.9026933.355158h-2.9004572c-.3359751,0-.5968628-.118386-.7843073-.355158-.1879926-.236772-.2417048-.5228715-.1627808-.8582986l4.2027033-19.8888494c.4335339-2.0125621.5371217-3.6107733.3107633-4.7946333-.2269065-1.1838601-.8040383-2.0322931-1.7313954-2.5452992-.9279052-.513006-2.2197377-.7695091-3.8771418-.7695091-2.4861062,0-5.1695224.3650235-8.0502486,1.0950706l-5.7121249,26.9032204c-.078924.315696-.2663685.5974109-.5623335.8429522-.295965.2477337-.6023436.3705044-.9174916.3705044h-2.9596502c-.295965,0-.5376698-.118386-.7251143-.355158-.1879926-.236772-.2417048-.5228715-.1627808-.8582986l6.1856689-29.2117476c.157848-.7497781.631392-1.2331876,1.4206321-1.4502286,5.1689743-1.2627841,9.4708807-1.8941761,12.9040749-1.8941761,2.2685171,0,4.128712.2817149,5.5789407.8429522,1.4502286.5634297,2.5009044,1.3767854,3.1520275,2.4422595.651123,1.0654741,1.0062811,2.3633355,1.0654741,3.8913919.059193,1.5302488-.138117,3.3597511-.59193,5.4906992Z"/>
    <path class="cls-3" d="M231.6982488,193.6294724c-.078924.335427-.2713013.6215265-.5771318.8582986-.3063786.236772-.6067283.355158-.9026933.355158h-2.9004572c-.3359751,0-.5968628-.118386-.7843073-.355158-.1879926-.236772-.2417048-.5228715-.1627808-.8582986l4.2322998-19.9480424c.611113-2.9201882.4883423-4.9722124-.3699563-6.1560724-.8582986-1.1838601-2.3430564-1.7757901-4.4542736-1.7757901-1.1054842,0-2.5058372.1435978-4.2027033.4286012-1.6974142.2871957-3.1964222.7059314-4.4986683,1.2583994l-5.5641424,26.1929044c-.078924.315696-.2663685.5974109-.5623335.8429522-.295965.2477337-.6023436.3705044-.9174916.3705044h-2.9596502c-.295965,0-.5376698-.118386-.7251143-.355158-.1879926-.236772-.2417048-.5228715-.1627808-.8582986l9.1749157-43.1517001c.059193-.355158.2219738-.6456422.4883423-.8736449.2663685-.2258103.5667182-.3398117.9026933-.3398117h3.0188432c.355158,0,.611113.1140013.7695091.3398117.157848.2280027.2071755.5184869.1479825.8736449l-2.6636852,12.4897239c1.5390181-.631392,3.1712104-1.1049361,4.8982211-1.4206321,1.7264626-.315696,3.3098755-.473544,4.7502386-.473544,2.1901412,0,4.0147107.4395629,5.4753529,1.3164963,1.4600941.8791257,2.4367787,2.2701613,2.9300537,4.174203.492727,1.9040416.4439475,4.2761465-.1479825,7.1174107l-4.2322998,19.9480424Z"/>
    <path class="cls-3" d="M291.199276,192.4160159c-.138117.670854-.493275,1.2430531-1.0654741,1.7165971-.5727471.473544-1.1942737.7103161-1.8645796.7103161h-6.1264759c-.9279052,0-1.6426059-.1282515-2.1457464-.3847545s-.8632313-.8582986-1.0802723-1.8053866l-7.1623535-29.5077126c-.0992031-.315696-.256503-.473544-.473544-.473544-.19731,0-.3255615.157848-.3847545.473544l-6.481634,30.4843972c-.078924.355158-.256503.6467384-.532737.8736449-.2767821.2269065-.5727471.3398117-.8878951.3398117h-5.1497914c-.295965,0-.5475353-.118386-.7547108-.355158s-.2713013-.5228715-.1923773-.8582986l8.7901611-41.4055065c.1375689-.670854.492727-1.2430531,1.0654741-1.7165971.572199-.473544,1.1937256-.7103161,1.8645796-.7103161h6.540827c.670306,0,1.1690618.138117,1.4946234.414351s.5771318.7892401.7547108,1.5390181l7.5175115,31.1651167c.0783759.315696.2071755.473544.3847545.473544.1967619,0,.335427-.1874445.414351-.5623335l6.777599-31.8754328c.0783759-.335427.2466375-.611661.5031405-.8287021.2559549-.217041.55192-.3255615.8878951-.3255615h5.2089844c.335427,0,.59193.1085205.7695091.3255615s.2263584.493275.1479825.8287021l-8.8197576,41.4646995Z"/>
    <path class="cls-3" d="M311.7748738,200.5550539c1.617394,0,2.8752454-.157848,3.773554-.473544.8977606-.315696,1.5686146-.8429522,2.0125621-1.5839609.4439475-.7388164.8237693-1.8590988,1.1394653-3.3586549l.0887895-.473544c-.4543611.078924-1.4354304.2071755-2.944852.3847545s-2.511318.2663685-3.004045.2663685c-3.2161532,0-5.7713179-.6017955-7.6654941-1.8053866s-3.1328446-2.9497847-3.714361-5.2385809c-.5820645-2.2887962-.5376698-5.0116744.1331843-8.1686346l.9766846-4.6466508c.670306-3.1569602,1.7856556-5.8798384,3.3444047-8.1686346,1.558201-2.2887962,3.5411667-4.0349898,5.9488969-5.2385809,2.4071822-1.2035911,5.2188499-1.8053866,8.4350031-1.8053866,1.084657,0,2.1353328.0350773,3.1520275.1041358,1.0161466.0690585,1.9237726.157848,2.7228782.2652724.7991056.1096167,1.8497814.2915804,3.1520275.5480834,1.3022461.256503,2.2389206.473544,2.8116677.651123.631392.157848,1.0309448.3507734,1.1986583.5765837.1671654.2280027.2022428.5776799.1035878,1.0512239l-6.659213,31.2835028c-.611661,2.8412642-1.6086247,5.1695224-2.9892467,6.9847745-1.3811701,1.8152521-3.181624,3.1470947-5.4013616,3.9955278-2.2197377.8484331-4.8790382,1.2726496-7.9762573,1.2726496-2.0525722,0-4.030057-.2521184-5.9340987-.7541627-1.9045897-.5042367-3.4677235-1.0610894-4.6910456-1.6727505-.2175891-.138117-.4192838-.2806187-.6067283-.4296974-.1879926-.1468863-.3008978-.3102152-.3403598-.4877942-.0400101-.177579-.0295965-.4044855.0295965-.6807195l.651123-3.0780362c.1967619-.8878951.690585-1.2134566,1.4798251-.9766846,1.5390181.39462,3.30001.7695091,5.2829756,1.1246671s3.813016.532737,5.4901511.532737ZM320.150684,188.3021021l4.4690718-20.98392c-.7103161-.157848-1.5439509-.2860995-2.5009044-.3847545-.9575017-.098655-2.0273604-.1479825-3.2112205-.1479825-2.4466442,0-4.3019064.7596436-5.5641424,2.2789307-1.2627841,1.5192871-2.1901412,3.6502353-2.7820712,6.3928445l-.9766846,4.6466508c-.256503,1.2430531-.3995528,2.3973167-.4291493,3.4627907s.118386,1.9928311.4439475,2.7820712c.3255615.7892401.8681641,1.3910356,1.6278076,1.8053866.7590955.414351,1.7609919.6215265,3.004045.6215265.7103161,0,1.6574041-.0493275,2.8412642-.1479825s2.2093241-.2071755,3.0780362-.3255615Z"/>
    <path class="cls-3" d="M363.3380095,193.5702794c-.059193.315696-.2417048.6061802-.5475353.8736449-.3063786.2652724-.6171419.3990047-.9322898.3990047h-5.5937389c-.3359751,0-.5875454-.1337323-.7547108-.3990047-.1677135-.2674647-.2219738-.5579489-.1627808-.8736449l4.2618963-19.9480424c.39462-1.8547141.55192-3.2304034.473544-4.1292601-.078924-.8966644-.434082-1.5335373-1.0654741-1.9084263-.6319401-.374889-1.6278076-.5623335-2.9892467-.5623335-2.0525722,0-4.5479958.690585-7.487915,2.0717551l-5.2089844,24.4763073c-.059193.355158-.2323874.6566039-.5179388.9021452-.2860995.2477337-.6067283.3705044-.9618863.3705044h-5.5641424c-.355158,0-.6171419-.1337323-.7843073-.3990047-.1677135-.2674647-.2219738-.5579489-.1627808-.8736449l9.2933017-43.6548406c.059193-.295965.236772-.572199.532737-.8287021s.611113-.3847545.9470881-.3847545h5.5641424c.335427,0,.5963147.118386.7843073.355158.1874445.236772.2411567.5228715.1627808.8582986l-2.6636852,12.5489169c2.7623402-1.4798251,5.9680798-2.2197377,9.6188632-2.2197377,7.2407294,0,9.9148282,4.4592063,8.0206521,13.377619l-4.2618963,19.9480424Z"/>
    <path class="cls-3" d="M379.828742,193.5702794c-.059193.355158-.2323874.6566039-.5179388.9021452-.2860995.2477337-.6067283.3705044-.9618863.3705044h-5.5641424c-.355158,0-.6171419-.1337323-.7843073-.3990047-.1677135-.2674647-.2219738-.5579489-.1627808-.8736449l6.7480025-31.6978538c.0783759-.335427.2559549-.6215265.532737-.8582986.276234-.236772.59193-.355158.9470881-.355158h5.5641424c.3743409,0,.6461903.1085205.8139038.3255615.1671654.217041.2115602.513006.1331843.8878951l-6.7480025,31.6978538ZM388.2341486,154.8876512c-.078924.355158-.2619839.6467384-.5475353.8725487-.2860995.2280027-.5968628.3409079-.9322898.3409079h-5.8601074c-.315696,0-.5820645-.1129052-.7991056-.3409079-.2175891-.2258103-.2860995-.5173907-.2071755-.8725487l1.1246671-5.3273704c.0783759-.315696.276234-.5963147.59193-.8440484.3151479-.2455414.631392-.3694082.9470881-.3694082h5.8601074c.335427,0,.5963147.118386.7843073.355158.1874445.236772.2411567.5228715.1627808.8582986l-1.1246671,5.3273704Z"/>
    <path class="cls-3" d="M402.5056915,195.3164731c-2.5452992,0-4.8834229-.4691594-7.014371-1.4052858-2.1309482-.9372226-3.7291593-2.5409145-4.7946333-4.8099797-1.0654741-2.2690652-1.2035911-5.2681774-.414351-8.9973366l.9470881-4.4690718c.670306-3.0977672,1.8201849-5.8206454,3.4479925-8.1686346,1.6278076-2.3479892,3.6699663-4.1380295,6.1264759-5.3723132,2.4565097-1.2320914,5.2040516-1.8492333,8.2426258-1.8492333,3.0380261,0,5.5093341.651123,7.4139238,1.9533691,1.9040416,1.3022461,3.1668257,3.1076327,3.7883523,5.4161599s.6067283,4.9820779-.0443948,8.0206521l-.7103161,3.3740012c-.2175891,1.0260121-.7300471,1.5390181-1.5390181,1.5390181h-19.7704634l-.0295965.177579c-.493275,2.2887962-.3211769,4.1435103.5179388,5.5641424.8385676,1.4206321,2.806735,2.1309482,5.9045022,2.1309482,1.6968661,0,3.5707632-.1720982,5.6233354-.5184869,2.0520241-.3441964,3.7483422-.7147007,5.0905984-1.1093207.907078-.256503,1.262236.059193,1.0654741.9470881l-.7399126,3.5811768c-.0992031.39462-.2713013.7004506-.5179388.9174916-.2471856.217041-.6171419.434082-1.1098688.651123-1.3811701.651123-3.1180463,1.2189374-5.2089844,1.7012508-2.0914862.4834095-4.1835204.7256624-6.2744585.7256624ZM421.0626984,156.4266693c-.059193.276234-.2767821.414351-.651123.414351h-5.0314054c-.2175891,0-.3896873-.0295965-.5179388-.0887895-.1287996-.059193-.2515703-.157848-.3699563-.295965s-.2269065-.276234-.3255615-.414351l-3.2556152-4.9130194-5.3569669,4.9130194c-.355158.315696-.6264593.5283524-.8139038.6368729-.1879926.1085205-.4587458.1622327-.8139038.1622327h-5.0314054c-.355158,0-.5031405-.138117-.4439475-.414351.059193-.256503.1874445-.4636785.3847545-.6215265l7.1031605-7.2807395c.4335339-.39462.7442972-.6412575.9322898-.7399126.1874445-.098655.4686113-.1479825.8435003-.1479825h7.8726696c.3743409,0,.6407095.0548083.7991056.1633288.157848.1085205.355158.3496772.59193.7245662l3.9955278,7.2807395c.118386.157848.1479825.3650235.0887895.6215265ZM412.3317303,174.8356936l.059193-.236772c.513006-2.4466442.3299462-4.3013583-.5475353-5.5641424-.8780296-1.2627841-2.3041425-1.8941761-4.2766946-1.8941761-1.2627841,0-2.4373268.2718494-3.5219838.8133557-1.0852051.5436987-2.0229757,1.3669199-2.8116677,2.471856-.7892401,1.1049361-1.3614391,2.4959717-1.7165971,4.1731068l-.059193.236772h12.8744784Z"/>
    <path class="cls-3" d="M449.5405623,193.5702794c-.059193.355158-.2323874.6566039-.5179388.9021452-.2860995.2477337-.6067283.3705044-.9618863.3705044h-5.5641424c-.355158,0-.6171419-.1337323-.7843073-.3990047-.1677135-.2674647-.2219738-.5579489-.1627808-.8736449l4.2618963-20.0072354c.355158-1.6376731.4631305-2.9201882.3255615-3.8475453-.138117-.9273571-.5820645-1.6080766-1.3318426-2.0421586-.7503261-.434082-1.8941761-.651123-3.4331942-.651123-1.1838601,0-2.5354337.19731-4.0547208.59193l-5.5345459,25.9561324c-.059193.355158-.2323874.6566039-.5179388.9021452-.2860995.2477337-.6067283.3705044-.9618863.3705044h-5.5641424c-.355158,0-.6171419-.1337323-.7843073-.3990047-.1677135-.2674647-.2219738-.5579489-.1627808-.8736449l6.4520375-30.3068182c.118386-.532737.611113-.9372226,1.4798251-1.2134566,1.6574041-.532737,3.5855614-.9668191,5.7861162-1.3022461,2.2000067-.335427,4.088702-.5031405,5.6677302-.5031405,4.1435103,0,7.0927469.7793746,8.8493541,2.3381237,1.6574041-.670854,3.4331942-1.2277068,5.3273704-1.6727505,1.8941761-.4428514,3.6995628-.6653732,5.4161599-.6653732,3.8475453,0,6.521096,1.0654741,8.0206521,3.1964222,1.499008,2.1309482,1.7653765,5.4852184.7991056,10.0628107l-4.2914928,20.0664284c-.059193.355158-.2323874.6566039-.5179388.9021452-.2860995.2477337-.6067283.3705044-.9618863.3705044h-5.5641424c-.355158,0-.6171419-.1337323-.7843073-.3990047-.1677135-.2674647-.2219738-.5579489-.1627808-.8736449l4.2618963-20.0072354c.355158-1.6179421.4779287-2.8949764.3699563-3.8332951-.1085205-.9361264-.4883423-1.6223268-1.1394653-2.0564088s-1.6278076-.651123-2.9300537-.651123c-1.6382212,0-3.4732043.3847545-5.5049494,1.1542636.039462,1.6771351-.138117,3.4529252-.532737,5.3273704l-4.2914928,20.0664284Z"/>
    <path class="cls-3" d="M511.9716432,193.8070515c-.118386.611661-.5727471.9766846-1.3614391,1.0950706-1.7566072.276234-3.3740012.414351-4.8538263.414351-2.4077303,0-4.2427134-.2422529-5.5049494-.7256624-1.2627841-.4823134-2.0717551-1.4151513-2.4269132-2.7963214-.355158-1.3811701-.2471856-3.4134632.3255615-6.0968794l4.0251243-19.0305509-4.8242298-.8582986c-.7892401-.138117-1.1148016-.5426025-.9766846-1.2134566l.59193-2.7228782c.059193-.335427.2263584-.6215265.5031405-.8582986.276234-.236772.59193-.355158.9470881-.355158h5.0314054l1.0654741-4.9722124c.1375689-.670854.631392-1.0753396,1.4798251-1.2134566l5.8305109-.9766846h.2663685c.631392,0,.8774815.3058305.7399126.9174916l-1.3318426,6.2448619h6.1264759c.3743409,0,.651123.1085205.8287021.3255615s.2263584.513006.1479825.8878951l-.7695091,3.5811768c-.078924.335427-.2619839.6215265-.5475353.8582986-.2860995.236772-.5968628.355158-.9322898.355158h-6.1264759l-4.0251243,19.0305509c-.315696,1.4995561-.3896873,2.4367787-.2219738,2.8116677.1671654.374889.7843073.5623335,1.8497814.5623335h3.8771418c.847885,0,1.2134566.3058305,1.0950706.9174916l-.8287021,3.8179488Z"/>
    <path class="cls-3" d="M540.3009766,167.08141c-.3951681-.019731-.7799226-.0339812-1.1542636-.0438467-.374889-.0098655-.8983086-.0153463-1.5686146-.0153463-1.8547141,0-3.8875554.217041-6.0968794.651123l-5.5049494,25.8969394c-.059193.355158-.2323874.6566039-.5179388.9021452-.2860995.2477337-.6067283.3705044-.9618863.3705044h-5.5641424c-.355158,0-.6171419-.1337323-.7843073-.3990047-.1677135-.2674647-.2219738-.5579489-.1627808-.8736449l6.4520375-30.3068182c.118386-.59193.611113-.9964156,1.4798251-1.2134566,2.1309482-.552468,4.3901478-.9909347,6.777599-1.3175924,2.3869031-.3244654,4.5770442-.4877942,6.5704235-.4877942,1.025464,0,1.8448486.039462,2.4565097.118386.788692.078924,1.1142535.4636785.9766846,1.1542636l-.9470881,4.3506858c-.1583961.8089711-.6412575,1.2134566-1.4502286,1.2134566Z"/>
    <path class="cls-3" d="M572.4488068,180.222257c-.611661,2.8807262-1.7215299,5.4753529-3.3296065,7.7838801-1.6086247,2.3085272-3.6305043,4.1040483-6.0672829,5.3865634-2.4373268,1.2825151-5.2045997,1.9237726-8.3018188,1.9237726-3.0588533,0-5.5493441-.6412575-7.4731168-1.9237726-1.9237726-1.2825151-3.1920376-3.0780362-3.8031505-5.3865634-.611661-2.3085272-.611661-4.9031539,0-7.7838801l1.0358776-4.8834229c.611113-2.8807262,1.7165971-5.4753529,3.3148082-7.7838801,1.5982111-2.3085272,3.6299562-4.1040483,6.0968794-5.3865634,2.4663752-1.2825151,5.2281673-1.9237726,8.2870206-1.9237726,3.0972191,0,5.5937389.6412575,7.487915,1.9237726,1.8941761,1.2825151,3.1520275,3.0780362,3.773554,5.3865634.6215265,2.3085272.6259112,4.9031539.0147983,7.7838801l-1.0358776,4.8834229ZM555.9043621,206.1191963c-.078924.355158-.2767821.6456422-.59193.8736449-.315696.2258103-.6319401.3398117-.9470881.3398117h-4.3506858c-.315696,0-.5820645-.1140013-.7991056-.3398117-.2175891-.2280027-.2860995-.5184869-.2071755-.8736449l1.1246671-5.3273704c.0783759-.315696.276234-.5974109.59193-.8429522.3151479-.2477337.631392-.3705044.9470881-.3705044h4.3506858c.3151479,0,.5815165.1227707.7991056.3705044.217041.2455414.2855514.5272562.2071755.8429522l-1.1246671,5.3273704ZM564.4577512,180.222257l1.0358776-4.8834229c.532737-2.5255682.3995528-4.522784-.3995528-5.9927436-.7991056-1.4699596-2.2542669-2.2054875-4.3654841-2.2054875-2.0914862,0-3.852478.7355279-5.2829756,2.2054875-1.4310457,1.4699596-2.4121149,3.4671754-2.944852,5.9927436l-1.0358776,4.8834229c-.532737,2.5255682-.3951681,4.5238802.414351,5.9938398.8089711,1.4699596,2.2493342,2.2043913,4.3210893,2.2043913,2.0909381,0,3.8574108-.7344317,5.2977739-2.2043913,1.439815-1.4699596,2.4269132-3.4682716,2.9596502-5.9938398Z"/>
    <path class="cls-3" d="M605.010988,193.5702794c-.059193.315696-.2417048.6061802-.5475353.8736449-.3063786.2652724-.6171419.3990047-.9322898.3990047h-5.5937389c-.3359751,0-.5875454-.1337323-.7547108-.3990047-.1677135-.2674647-.2219738-.5579489-.1627808-.8736449l4.2618963-20.0072354c.335427-1.5982111.4187357-2.8708607.2515703-3.8179488-.1677135-.9470881-.6467384-1.6376731-1.4354304-2.0717551-.7892401-.434082-1.9533691-.651123-3.4923873-.651123-1.8547141,0-3.8875554.217041-6.0968794.651123l-5.5049494,25.8969394c-.059193.355158-.2323874.6566039-.5179388.9021452-.2860995.2477337-.6067283.3705044-.9618863.3705044h-5.5641424c-.355158,0-.6171419-.1337323-.7843073-.3990047-.1677135-.2674647-.2219738-.5579489-.1627808-.8736449l6.4520375-30.3068182c.118386-.59193.611113-.9964156,1.4798251-1.2134566,2.1309482-.552468,4.3901478-.9909347,6.777599-1.3175924,2.3869031-.3244654,4.5770442-.4877942,6.5704235-.4877942,4.7546233,0,8.0206521,1.0512239,9.7964422,3.1514794,1.7757901,2.1024478,2.1797276,5.4709682,1.2134566,10.1077536l-4.2914928,20.0664284Z"/>
    <path class="cls-3" d="M625.3498139,200.5550539c1.617394,0,2.8752454-.157848,3.773554-.473544.8977606-.315696,1.5686146-.8429522,2.0125621-1.5839609.4439475-.7388164.8237693-1.8590988,1.1394653-3.3586549l.0887895-.473544c-.4543611.078924-1.4354304.2071755-2.944852.3847545s-2.511318.2663685-3.004045.2663685c-3.2161532,0-5.7713179-.6017955-7.6654941-1.8053866s-3.1328446-2.9497847-3.714361-5.2385809c-.5820645-2.2887962-.5376698-5.0116744.1331843-8.1686346l.9766846-4.6466508c.670306-3.1569602,1.7856556-5.8798384,3.3444047-8.1686346,1.558201-2.2887962,3.5411667-4.0349898,5.9488969-5.2385809,2.4071822-1.2035911,5.2188499-1.8053866,8.4350031-1.8053866,1.084657,0,2.1353328.0350773,3.1520275.1041358,1.0161466.0690585,1.9237726.157848,2.7228782.2652724.7991056.1096167,1.8497814.2915804,3.1520275.5480834,1.3022461.256503,2.2389206.473544,2.8116677.651123.631392.157848,1.0309448.3507734,1.1986583.5765837.1671654.2280027.2022428.5776799.1035878,1.0512239l-6.659213,31.2835028c-.611661,2.8412642-1.6086247,5.1695224-2.9892467,6.9847745-1.3811701,1.8152521-3.181624,3.1470947-5.4013616,3.9955278-2.2197377.8484331-4.8790382,1.2726496-7.9762573,1.2726496-2.0525722,0-4.030057-.2521184-5.9340987-.7541627-1.9045897-.5042367-3.4677235-1.0610894-4.6910456-1.6727505-.2175891-.138117-.4192838-.2806187-.6067283-.4296974-.1879926-.1468863-.3008978-.3102152-.3403598-.4877942-.0400101-.177579-.0295965-.4044855.0295965-.6807195l.651123-3.0780362c.1967619-.8878951.690585-1.2134566,1.4798251-.9766846,1.5390181.39462,3.30001.7695091,5.2829756,1.1246671,1.9829656.355158,3.813016.532737,5.4901511.532737ZM633.725624,188.3021021l4.4690718-20.98392c-.7103161-.157848-1.5439509-.2860995-2.5009044-.3847545-.9575017-.098655-2.0273604-.1479825-3.2112205-.1479825-2.4466442,0-4.3019064.7596436-5.5641424,2.2789307-1.2627841,1.5192871-2.1901412,3.6502353-2.7820712,6.3928445l-.9766846,4.6466508c-.256503,1.2430531-.3995528,2.3973167-.4291493,3.4627907s.118386,1.9928311.4439475,2.7820712.8681641,1.3910356,1.6278076,1.8053866c.7590955.414351,1.7609919.6215265,3.004045.6215265.7103161,0,1.6574041-.0493275,2.8412642-.1479825s2.2093241-.2071755,3.0780362-.3255615Z"/>
  </g>
</svg>