<?xml version="1.0" encoding="UTF-8"?>
<svg id="Layer_1" data-name="Layer 1" xmlns="http://www.w3.org/2000/svg" xmlns:xlink="http://www.w3.org/1999/xlink" viewBox="0 0 800 800">
  <defs>
    <style>
      .cls-1 {
        filter: url(#drop-shadow-3);
      }

      .cls-2 {
        fill: #34507d;
      }

      .cls-2, .cls-3, .cls-4, .cls-5, .cls-6, .cls-7, .cls-8 {
        stroke-width: 0px;
      }

      .cls-3 {
        fill: #50ba83;
      }

      .cls-4 {
        fill: url(#linear-gradient-2);
      }

      .cls-5 {
        fill: #ef5054;
      }

      .cls-6 {
        fill: url(#radial-gradient);
      }

      .cls-7 {
        fill: url(#linear-gradient);
        filter: url(#drop-shadow-2);
      }

      .cls-8 {
        fill: #fff;
      }
    </style>
    <linearGradient id="linear-gradient" x1="68.8638041" y1="208.8184282" x2="731.1361959" y2="591.1815718" gradientUnits="userSpaceOnUse">
      <stop offset=".0055866" stop-color="#59595c"/>
      <stop offset=".2122905" stop-color="#cfd1d2"/>
      <stop offset=".3501516" stop-color="#98999b"/>
      <stop offset=".424581" stop-color="#808083"/>
      <stop offset=".7094972" stop-color="#a6a7aa"/>
      <stop offset=".7411809" stop-color="#959699"/>
      <stop offset=".8036146" stop-color="#7b7b7e"/>
      <stop offset=".8671901" stop-color="#68686b"/>
      <stop offset=".9320178" stop-color="#5c5c5f"/>
      <stop offset="1" stop-color="#59595c"/>
    </linearGradient>
    <filter id="drop-shadow-2" filterUnits="userSpaceOnUse">
      <feOffset dx="6" dy="6"/>
      <feGaussianBlur result="blur" stdDeviation="6"/>
      <feFlood flood-color="#221f1f" flood-opacity=".35"/>
      <feComposite in2="blur" operator="in"/>
      <feComposite in="SourceGraphic"/>
    </filter>
    <filter id="drop-shadow-3" filterUnits="userSpaceOnUse">
      <feOffset dx="3" dy="3"/>
      <feGaussianBlur result="blur-2" stdDeviation="3"/>
      <feFlood flood-color="#221f1f" flood-opacity=".3"/>
      <feComposite in2="blur-2" operator="in"/>
      <feComposite in="SourceGraphic"/>
    </filter>
    <radialGradient id="radial-gradient" cx="397.6715053" cy="68.2686718" fx="397.6715053" fy="68.2686718" r="566.4332722" gradientTransform="translate(43.5245502 239.6047213) scale(.8920819)" gradientUnits="userSpaceOnUse">
      <stop offset=".5346538" stop-color="#fff"/>
      <stop offset=".5720559" stop-color="#f8fafb"/>
      <stop offset=".625162" stop-color="#e5eef3"/>
      <stop offset=".6876724" stop-color="#c7dbe4"/>
      <stop offset=".7573589" stop-color="#9cbfd0"/>
      <stop offset=".8329949" stop-color="#659cb7"/>
      <stop offset=".9124873" stop-color="#247298"/>
      <stop offset=".9162011" stop-color="#217097"/>
    </radialGradient>
    <linearGradient id="linear-gradient-2" x1="251.4944502" y1="86.619266" x2="539.4808095" y2="704.2080065" gradientUnits="userSpaceOnUse">
      <stop offset="0" stop-color="#34bde9"/>
      <stop offset=".2697114" stop-color="#1d7795"/>
      <stop offset=".4888268" stop-color="#0d4255"/>
      <stop offset=".5492936" stop-color="#12495e"/>
      <stop offset=".8478054" stop-color="#2a6d89"/>
      <stop offset="1" stop-color="#347b9a"/>
    </linearGradient>
  </defs>
  <g>
    <path class="cls-7" d="M55.1942575,259.0787131v281.8425737c0,35.5040724,18.9721011,68.3018407,49.7489455,86.0028297l245.593144,141.2503994c30.6239004,17.6130249,68.3034055,17.6130249,98.9273059,0l245.593144-141.2503994c30.7768443-17.700989,49.7489455-50.4987573,49.7489455-86.0028297v-281.8425737c0-35.5040724-18.9721011-68.3018407-49.7489455-86.0028297L449.463653,31.825484c-30.6239004-17.6130249-68.3034055-17.6130249-98.9273059,0L104.943203,173.0758834c-30.7768443,17.700989-49.7489455,50.4987573-49.7489455,86.0028297Z"/>
    <g class="cls-1">
      <path class="cls-6" d="M64.4490935,262.4104166v266.0064518c0,35.5040724,18.9721011,68.3018407,49.7489455,86.0028297l231.8259512,133.3323384c30.6239004,17.6130249,68.3034055,17.6130249,98.9273059,0l231.8259512-133.3323384c30.7768443-17.700989,49.7489455-50.4987573,49.7489455-86.0028297v-266.0064518c0-35.5040724-18.9721011-68.3018407-49.7489455-86.0028297L444.9512961,43.0752484c-30.6239004-17.6130249-68.3034055-17.6130249-98.9273059,0L114.1980389,176.4075869c-30.7768443,17.700989-49.7489455,50.4987573-49.7489455,86.0028297Z"/>
      <path class="cls-4" d="M395.487633,50.864437c13.1273581,0,26.0810469,3.4593621,37.4605455,10.0042576l234.4927944,134.8661351c23.2397359,13.3661534,37.6766225,38.3236506,37.6766225,65.1329178v269.0919239c0,26.8091039-14.4368866,51.7666456-37.6765037,65.1327693l-234.4929132,134.8661128c-11.3796174,6.5449104-24.3333062,10.0042799-37.4605455,10.0042799s-26.0809281-3.4593695-37.4606643-10.0042799l-234.4925568-134.8661128c-23.2398547-13.3661237-37.6767413-38.3236655-37.6767413-65.1327693v-269.0919239c0-26.8092672,14.4368866-51.7667644,37.6765037-65.1329178L358.0272063,60.8686946c11.3792611-6.5448956,24.3330686-10.0042576,37.4604267-10.0042576M395.487633,29.4558687c-16.6167812,0-33.2336811,4.2849039-48.1340819,12.8547079L112.8607567,177.1767117c-29.9495252,17.2252326-48.4116915,49.1412779-48.4116915,83.6910358v269.0919239c0,34.5496243,18.4621663,66.4656398,48.4116915,83.690917l234.4927944,134.8661128c14.9004008,8.5697855,31.5173008,12.8546782,48.1340819,12.8546782s33.2336811-4.2848927,48.1340819-12.8546782l234.4929132-134.8661128c29.9494064-17.2252772,48.4115727-49.1412928,48.4115727-83.690917v-269.0919239c0-34.5497579-18.4621663-66.4658032-48.4115727-83.6910358L443.621715,42.3105767c-14.9004008-8.5698041-31.5173008-12.8547079-48.1340819-12.8547079h0Z"/>
    </g>
  </g>
  <g>
    <path class="cls-2" d="M350.4576612,385.8678246h12.3334988c1.4394082,0,2.6062793-1.1668707,2.6062796-2.606279l.0000071-30.5557338c.0000003-1.1468569-.5927855-2.2100985-1.5651355-2.8182236-4.46152-2.7903144-9.0746024-6.5791811-13.8184944-11.2295088-.8050102-.7891329-2.1624417-.2211345-2.1624415.9061508l.0000064,43.6973153c.0000002,1.4394083,1.1668713,2.6062792,2.6062796,2.6062792Z"/>
    <path class="cls-2" d="M439.0324426,273.0141316h-12.3334988c-1.4394082,0-2.6062793,1.1668707-2.6062796,2.606279l-.0000071,43.3403079c-.0000003,1.1468569.5927855,2.2100985,1.5651355,2.8182236,4.46152,2.7903144,9.0746024,6.5791811,13.8184944,11.2295088.8050102.7891329,2.1624417.2211345,2.1624415-.9061508l-.0000064-56.4818894c-.0000002-1.4394083-1.1668713-2.6062792-2.6062796-2.6062792Z"/>
    <g>
      <g>
        <path class="cls-2" d="M203.0088675,281.6846975c25.2663829,0,39.1607478,17.9614116,43.786058,30.3510703.3996172,1.0704409-.3920783,2.2104934-1.5346795,2.2104934h-12.680843c-1.8613041,0-3.6104302-.8792602-4.7300798-2.3661488-3.3464637-4.4440855-11.8074341-13.519641-24.6010324-12.657661-16.87934,1.1372605-27.9649521,10.1962508-29.4924784,26.8662114-.0664142,17.6661734,0,21.7838529,0,21.7838529,0,0,4.7154072,24.7060771,29.4878984,23.7762785,25.3038047-.3320709,28.624514-22.8464799,28.624514-22.5808231,0,.2151054-18.8542765.081864-26.0297626.0233666-1.5103243-.0123128-2.7275798-1.240138-2.7275798-2.7505125v-12.4540765c0-1.5191187,1.231489-2.7506077,2.7506077-2.7506077h39.9469953c2.277842,0,4.1243979,1.8465558,4.1243979,4.1243979v10.486723c0,12.2866243-11.6224825,43.0363923-46.6227583,43.3684632-35.0002758.3320709-47.0212434-31.3474956-47.0212434-42.9035639v-21.2525394c0-8.7666725,10.8209841-43.2749242,46.719986-43.2749242Z"/>
        <path class="cls-2" d="M263.1883663,284.8570335h70.2452201c1.4394085,0,2.6062796,1.1668711,2.6062796,2.6062796v12.4311412c0,1.4394085-1.1668711,2.6062796-2.6062796,2.6062796h-52.7071815c-1.4394085,0-2.6062796,1.1668711-2.6062796,2.6062796v18.7357153c0,1.4394085,1.1668711,2.6062796,2.6062796,2.6062796h35.2673953c1.4394085,0,2.6062796,1.1668711,2.6062796,2.6062796v12.4981487c0,1.4394085-1.1668711,2.6062796-2.6062796,2.6062796h-35.2673953c-1.4394085,0-2.6062796,1.1668711-2.6062796,2.6062796v19.0066369c0,1.4394085,1.1668711,2.6062796,2.6062796,2.6062796h52.7071815c1.4394085,0,2.6062796,1.1668711,2.6062796,2.6062796v12.2763532c0,1.4394085-1.1668711,2.6062796-2.6062796,2.6062796h-70.2452201c-1.4394085,0-2.6062796-1.1668711-2.6062796-2.6062796v-95.7982319c0-1.4394085,1.1668711-2.6062796,2.6062796-2.6062796Z"/>
        <path class="cls-2" d="M441.6606261,378.5405746v4.7212594c0,1.4390378-1.1673189,2.6062796-2.6062796,2.6062796h-12.3640555c-1.4397705,0-2.6062796-1.1672418-2.6062796-2.6062796v-3.0951113c0-6.0378965-1.8780839-11.9399721-5.4376547-16.816874-1.4666107-2.0091614-3.174128-3.8651484-5.0972541-5.5845433-4.938488-4.0057511-11.2038323-8.0731269-18.7833456-12.2021271l-18.784194-10.2007556c-13.9340937-7.3955651-23.6128915-17.6500783-27.0026284-32.1306948-.7487115-3.1986159-1.1080467-6.4754386-1.1080467-9.7601283v-17.8514572c0-1.4389606,1.1672804-2.6062796,2.6062796-2.6062796h12.364017c1.4389992,0,2.6062796,1.1673189,2.6062796,2.6062796v16.225309c0,6.0378193,1.8781225,11.9398949,5.4376547,16.8167969,1.4666107,2.0091614,3.174128,3.8651484,5.0964443,5.5845433,4.9385265,4.0057511,11.2046421,8.0731269,18.784194,12.2021271l18.7833456,10.2008327c13.9349421,7.3947167,23.6137013,17.6500012,27.0034382,32.1306948.7487115,3.1977675,1.1080853,6.4753615,1.1080853,9.7601283Z"/>
      </g>
      <g>
        <path class="cls-5" d="M332.0499563,426.2188624c-4.6217654-9.3178429-11.5758164-16.2315563-20.9844764-20.6148447-12.8039501-5.9652427-27.5854973-5.9431072-40.4786834-.1753485-10.3319295,4.621804-17.7250651,12.1665715-22.2276306,22.5837844-2.7610737,6.3877836-4.1344956,13.2888868-4.1344956,20.2476425v13.1001182c0,8.7097341,2.2745751,17.2859612,6.7012861,24.785725,5.2536294,8.9000453,12.5915034,14.8842227,21.6439711,18.4682428,11.4565779,4.5357301,24.2257629,4.5870582,35.7352499.1864162,9.5697786-3.6582935,17.0182144-9.7822638,22.252909-18.4793491,4.4930403-7.4657894,6.8047328-16.0404353,6.8047328-24.7533316v-12.4208982c0-7.9475639-1.7809423-15.8082441-5.312863-22.9281569ZM319.8549634,463.111154c0,4.6170607-1.0741108,9.1812122-3.2089123,13.2754281-3.0248485,5.8025431-7.6687494,9.8327821-13.7785283,12.2558462-6.9990353,2.7744938-14.7562688,2.895352-21.9132605.5583618-7.4089467-2.4190921-13.11591-6.7352413-16.4629955-13.682158-1.7928199-3.7214606-2.6844865-7.8117431-2.6844865-11.9422859v-17.2369854c0-5.7906655,1.6877727-11.4723889,4.9408789-16.2631784,3.5721811-5.2591825,8.5075261-8.7792256,14.7373341-10.6486327,5.6674742-1.700383,11.7013986-1.7620076,17.4312686-.2859102,8.0991958,2.0865971,13.9696493,6.6230985,17.6144841,13.6024085,2.2129698,4.2379809,3.3242174,8.964832,3.3242174,13.7453637v16.6217424Z"/>
        <path class="cls-5" d="M455.3680921,403.5632616h70.2452201c1.4394085,0,2.6062796,1.1668711,2.6062796,2.6062796v12.4311412c0,1.4394085-1.1668711,2.6062796-2.6062796,2.6062796h-52.7071815c-1.4394085,0-2.6062796,1.1668711-2.6062796,2.6062796v18.7357153c0,1.4394085,1.1668711,2.6062796,2.6062796,2.6062796h35.2673953c1.4394085,0,2.6062796,1.1668711,2.6062796,2.6062796v12.4981487c0,1.4394085-1.1668711,2.6062796-2.6062796,2.6062796h-35.2673953c-1.4394085,0-2.6062796,1.1668711-2.6062796,2.6062796v19.0066369c0,1.4394085,1.1668711,2.6062796,2.6062796,2.6062796h52.7071815c1.4394085,0,2.6062796,1.1668711,2.6062796,2.6062796v12.2763532c0,1.4394085-1.1668711,2.6062796-2.6062796,2.6062796h-70.2452201c-1.4394085,0-2.6062796-1.1668711-2.6062796-2.6062796v-95.7982319c0-1.4394085,1.1668711-2.6062796,2.6062796-2.6062796Z"/>
        <path class="cls-5" d="M441.6787895,406.1702849l-.0181634,48.8377012c-.3396293,9.3999832-2.6410639,17.5007987-7.0638414,24.1949699-4.6920668,6.6460052-11.4826083,12.5282977-19.8037759,17.8522285-.5702008.3640786-.5646862,1.1989025.0094866,1.5574665,8.3282634,5.1999103,14.490913,10.2931924,19.2248598,15.3170215,1.0970176,1.1633469.2669755,3.0761766-1.3331422,3.0761766h-22.3286864c-7.3181295-6.1184172-12.5370131-9.1748878-15.5997695-9.0848418-3.062795-.0900459-8.2824499,2.9664247-15.5997695,9.0848418h-22.3294962c-1.5993079,0-2.4293885-1.9128297-1.332371-3.0761766,4.7339468-5.0238291,10.896635-10.1171112,19.2248598-15.3170215.5734016-.358564.579726-1.1933879.0094866-1.5574665-8.3219389-5.3239307-15.1124804-11.2062232-19.8037759-17.8522285-4.4235873-6.6941711-6.7242121-14.7949866-7.0638028-24.1949699l-.0181634-48.8377012c-.0008098-1.439809,1.1665091-2.6070894,2.6062796-2.6070894h12.3324334c1.4389606,0,2.6062796,1.1672804,2.6062796,2.6062796v49.5667067c.1634709,5.0940919,1.9918078,9.8067131,5.0237905,14.2444918,2.383575,3.4884596,5.3650009,6.5291191,8.7665768,9.0350948,6.6183937,4.876902,12.3214042,8.4886107,15.5776726,8.7239255,3.2562684-.2353148,8.9584691-3.8470235,15.577634-8.7239255,3.4016144-2.5059758,6.3830403-5.5466353,8.7665768-9.0350948,3.0311729-4.4377787,4.8595483-9.1503999,5.0238291-14.2444918v-49.5667067c0-1.4389992,1.1672804-2.6062796,2.6062796-2.6062796h12.3324334c1.4397705,0,2.6070509,1.1672804,2.6062796,2.6070894Z"/>
        <path class="cls-5" d="M182.9764059,484.2625721v-78.0930199c0-1.4394085-1.1668711-2.6062796-2.6062796-2.6062796h-13.1321838c-1.4394085,0-2.6062796,1.1668711-2.6062796,2.6062796v96.4377821c0,1.4394085,1.1668711,2.6062796,2.6062796,2.6062796h68.4256369c1.4394085,0,2.6062796-1.1668711,2.6062796-2.6062796v-13.1322031c0-1.4394085-1.1668711-2.6062796-2.6062796-2.6062796h-50.080894c-1.4394085,0-2.6062796-1.1668711-2.6062796-2.6062796Z"/>
      </g>
    </g>
    <path class="cls-3" d="M524.6152144,375.6498223l-13.0261947,10.0537745c-1.9952022,1.5399211-4.8894097.11772-4.8894097-2.4026349v-7.0427718c0-1.3142983-1.0654493-2.3797476-2.3797476-2.3797476h-20.5307992c-7.7116502,0-13.7283101-6.6739974-12.9315676-14.3443788l7.0397956-67.7733624c.8455589-8.1403452,7.5724237-14.4058069,15.7522433-14.6717794l123.3068996-4.0094086c7.9663793-.2590323,14.6216444,6.015066,14.8323632,13.9828696l1.9910376,75.2861075c.2182966,8.2543414-6.5446077,14.9962225-14.7982294,14.7522275l-90.5863879-2.6779298c-1.3639706-.0403219-2.699764.3932926-3.7800031,1.2270342Z"/>
    <path class="cls-8" d="M542.2193447,307.4687694v-5.0119758c0-1.5552841-1.2291341-2.8325228-2.7832728-2.8922018l-23.2591978-.8931532c-6.9999042-.2687963-12.8211287,5.3331834-12.8211287,12.3382466v42.2545772c0,1.4123773,1.144958,2.5573354,2.5573354,2.5573354h8.0056804c1.4123773,0,2.5573354-1.144958,2.5573354-2.5573354v-15.9316328c0-1.4215911,1.1046573-2.5985023,2.5233999-2.6884513l16.3424718-1.0361221c1.5243295-.0966434,2.7111986-1.3611437,2.7111986-2.8885337v-4.4624694c0-1.5984962-1.2958372-2.8943333-2.8943333-2.8943333h-15.2005585c-1.9231541,0-3.4821785-1.5590244-3.4821785-3.4821785v-5.086346c0-2.4621325,1.997589-4.4572198,4.4597195-4.4541344l18.3855683.0230397c1.5999115.0020049,2.8979603-1.2944183,2.8979603-2.8943311Z"/>
    <rect class="cls-8" x="548.9349747" y="298.1791073" width="13.4934417" height="57.6424905" rx="3.1892486" ry="3.1892486"/>
    <path class="cls-8" d="M570.6815674,298.1791073h37.9027369c1.4329641,0,2.594611,1.1616469,2.594611,2.594611v6.9984028c0,1.4329641-1.1616469,2.594611-2.594611,2.594611h-9.9209455c-1.4329641,0-2.594611,1.1616469-2.594611,2.594611v40.2656438c0,1.4329641-1.1616469,2.594611-2.594611,2.594611h-7.9311292c-1.4329641,0-2.594611-1.1616469-2.594611-2.594611v-40.2792592c0-1.434089-1.1634031-2.5962013-2.5974912-2.5946094l-9.666458.0107304c-1.4340881.0015919-2.5974912-1.1605204-2.5974912-2.5946094v-6.995521c0-1.4329641,1.1616469-2.594611,2.594611-2.594611Z"/>
  </g>
</svg>